M48
; DRILL file KiCad 10.0.1-10.0.1~ubuntu25.10.1 date 2026-05-29T00:15:14
; FORMAT={-:-/ absolute / metric / decimal}
; #@! TF.CreationDate,2026-05-29T00:15:14+00:00
; #@! TF.GenerationSoftware,Kicad,Pcbnew,10.0.1-10.0.1~ubuntu25.10.1
; #@! TF.FileFunction,Plated,1,4,PTH
FMAT,2
METRIC
; #@! TA.AperFunction,Plated,PTH,ComponentDrill
T1C0.200
; #@! TA.AperFunction,Plated,PTH,ViaDrill
T2C0.250
; #@! TA.AperFunction,Plated,PTH,ViaDrill
T3C0.300
; #@! TA.AperFunction,Plated,PTH,ViaDrill
T4C0.400
; #@! TA.AperFunction,Plated,PTH,ComponentDrill
T5C0.600
; #@! TA.AperFunction,Plated,PTH,ComponentDrill
T6C1.000
%
G90
G05
T1
X158.767Y-99.7
X158.767Y-101.1
X159.468Y-99.0
X159.468Y-100.4
X159.468Y-101.8
X160.167Y-99.7
X160.167Y-101.1
X160.868Y-99.0
X160.868Y-100.4
X160.868Y-101.8
X161.567Y-99.7
X161.567Y-101.1
T2
X122.615Y-95.215
X123.117Y-94.968
X123.607Y-95.197
X148.37Y-93.14
X165.56Y-91.38
T3
X112.597Y-86.947
X115.81Y-87.03
X115.82Y-88.59
X115.82Y-90.43
X115.82Y-91.96
X118.64Y-87.03
X120.067Y-113.997
X120.07Y-118.61
X120.117Y-114.997
X120.12Y-109.52
X120.62Y-110.47
X121.04Y-98.38
X121.29Y-87.03
X122.18Y-112.04
X122.287Y-116.297
X122.57Y-97.54
X123.27Y-110.43
X123.53Y-87.03
X123.76Y-97.53
X125.637Y-112.017
X125.97Y-87.03
X129.56Y-87.03
X130.058Y-112.015
X130.058Y-113.907
X130.317Y-112.987
X133.01Y-115.51
X134.29Y-87.27
X134.487Y-110.407
X134.51Y-91.85
X135.368Y-111.697
X137.28Y-112.17
X137.54Y-113.48
X141.92Y-112.15
X144.0Y-112.29
X146.45Y-112.43
X147.91Y-101.27
X148.67Y-112.43
X148.75Y-94.91
X148.78Y-100.0
X148.79Y-98.73
X150.92Y-112.52
X151.37Y-96.18
X151.438Y-94.907
X151.45Y-97.46
X151.58Y-103.8
X151.59Y-102.54
X151.61Y-105.06
X151.66Y-106.36
X151.68Y-107.6
X151.71Y-108.88
X152.627Y-94.887
X153.91Y-94.62
X155.19Y-94.6
X156.46Y-94.56
X157.74Y-94.52
X159.01Y-94.5
X160.27Y-94.54
X161.54Y-94.62
X162.8Y-94.64
X163.61Y-90.59
X164.07Y-94.66
X167.248Y-88.527
X167.87Y-94.57
X167.89Y-112.11
X168.047Y-88.517
X168.267Y-91.507
T4
X116.18Y-93.42
X117.06Y-93.43
X118.4Y-93.41
X119.28Y-93.42
X120.27Y-94.93
X124.57Y-100.5
X124.59Y-99.1
X125.68Y-100.4
X125.94Y-94.96
X126.96Y-93.44
X127.84Y-93.45
X129.17Y-93.44
X130.05Y-93.45
X131.34Y-93.41
X132.22Y-93.42
X133.63Y-93.47
X134.51Y-93.48
X135.61Y-98.0
X135.62Y-94.96
X135.68Y-88.68
X135.95Y-100.14
X135.98Y-107.09
X136.01Y-103.85
X136.01Y-109.41
X136.03Y-96.19
X137.69Y-97.19
X137.73Y-95.55
X138.17Y-87.41
X139.618Y-105.317
X139.647Y-98.647
X140.07Y-89.68
X142.25Y-87.41
X143.07Y-91.21
X144.757Y-101.887
X145.43Y-87.41
X145.938Y-98.748
X145.957Y-105.337
X147.77Y-87.43
X147.84Y-91.22
X150.31Y-87.35
X152.79Y-87.32
X155.16Y-90.25
X155.37Y-87.25
X157.84Y-91.15
X157.88Y-87.25
X160.23Y-91.13
X160.47Y-87.19
X163.53Y-87.21
X163.57Y-88.28
X163.58Y-89.3
X164.42Y-88.97
X164.49Y-87.35
X164.5Y-88.17
X165.33Y-87.71
X165.7Y-88.49
T6
X125.975Y-84.72
X125.975Y-119.09
X128.515Y-84.72
X128.515Y-119.09
X131.055Y-84.72
X131.055Y-119.09
X133.595Y-84.72
X133.595Y-119.09
X136.135Y-84.72
X136.135Y-119.09
X138.675Y-84.72
X138.675Y-119.09
X141.215Y-84.72
X141.215Y-119.09
X143.755Y-84.72
X143.755Y-119.09
X146.295Y-84.72
X146.295Y-119.09
X148.835Y-84.72
X148.835Y-119.09
X151.375Y-84.72
X151.375Y-119.09
X153.915Y-84.72
X153.915Y-119.09
X156.455Y-84.72
X156.455Y-119.09
X158.995Y-84.72
X158.995Y-119.09
X161.535Y-84.72
X161.535Y-119.09
X164.075Y-84.72
X164.075Y-119.09
X166.615Y-84.72
X166.615Y-119.09
T5
G00X113.537Y-109.947
M15
G01X112.938Y-109.947
M16
G05
G00X113.537Y-118.587
M15
G01X112.938Y-118.587
M16
G05
G00X117.968Y-109.947
M15
G01X116.867Y-109.947
M16
G05
G00X117.968Y-118.587
M15
G01X116.867Y-118.587
M16
G05
M30
