%TF.GenerationSoftware,KiCad,Pcbnew,10.0.1-10.0.1~ubuntu25.10.1*%
%TF.CreationDate,2026-05-29T00:15:14+00:00*%
%TF.ProjectId,esp32s3-devkit,65737033-3273-4332-9d64-65766b69742e,rev?*%
%TF.SameCoordinates,Original*%
%TF.FileFunction,Copper,L4,Bot*%
%TF.FilePolarity,Positive*%
%FSLAX46Y46*%
G04 Gerber Fmt 4.6, Leading zero omitted, Abs format (unit mm)*
G04 Created by KiCad (PCBNEW 10.0.1-10.0.1~ubuntu25.10.1) date 2026-05-29 00:15:14*
%MOMM*%
%LPD*%
G01*
G04 APERTURE LIST*
%TA.AperFunction,Profile*%
%ADD10C,0.050000*%
%TD*%
%TA.AperFunction,ComponentPad*%
%ADD11R,1.700000X1.700000*%
%TD*%
%TA.AperFunction,ComponentPad*%
%ADD12C,1.700000*%
%TD*%
%TA.AperFunction,HeatsinkPad*%
%ADD13C,0.600000*%
%TD*%
%TA.AperFunction,ComponentPad*%
%ADD14O,2.100000X1.000000*%
%TD*%
%TA.AperFunction,ComponentPad*%
%ADD15O,1.600000X1.000000*%
%TD*%
%TA.AperFunction,ViaPad*%
%ADD16C,0.600000*%
%TD*%
%TA.AperFunction,ViaPad*%
%ADD17C,0.500000*%
%TD*%
%TA.AperFunction,ViaPad*%
%ADD18C,0.450000*%
%TD*%
%TA.AperFunction,Conductor*%
%ADD19C,0.500000*%
%TD*%
%TA.AperFunction,Conductor*%
%ADD20C,0.400000*%
%TD*%
%TA.AperFunction,Conductor*%
%ADD21C,0.300000*%
%TD*%
G04 APERTURE END LIST*
D10*
X109957500Y-82897500D02*
X169297500Y-82897500D01*
X169297500Y-120917500D01*
X109957500Y-120917500D01*
X109957500Y-82897500D01*
D11*
%TO.P,J1,1,Pin_1_1*%
%TO.N,GND*%
X125975000Y-119090000D03*
D12*
%TO.P,J1,2,Pin_2_2*%
%TO.N,/VBAT*%
X128515000Y-119090000D03*
%TO.P,J1,3,Pin_3_3*%
%TO.N,/GPIO13*%
X131055000Y-119090000D03*
%TO.P,J1,4,Pin_4_4*%
%TO.N,/GPIO14*%
X133595000Y-119090000D03*
%TO.P,J1,5,Pin_5_5*%
%TO.N,/GPIO21*%
X136135000Y-119090000D03*
%TO.P,J1,6,Pin_6_6*%
%TO.N,/GPIO47*%
X138675000Y-119090000D03*
%TO.P,J1,7,Pin_7_7*%
%TO.N,/GPIO48*%
X141215000Y-119090000D03*
%TO.P,J1,8,Pin_8_8*%
%TO.N,/GPIO45*%
X143755000Y-119090000D03*
%TO.P,J1,9,Pin_9_9*%
%TO.N,/GPIO38*%
X146295000Y-119090000D03*
%TO.P,J1,10,Pin_10_10*%
%TO.N,/GPIO39*%
X148835000Y-119090000D03*
%TO.P,J1,11,Pin_11_11*%
%TO.N,/GPIO40*%
X151375000Y-119090000D03*
%TO.P,J1,12,Pin_12_12*%
%TO.N,/GPIO41*%
X153915000Y-119090000D03*
%TO.P,J1,13,Pin_13_13*%
%TO.N,/GPIO42*%
X156455000Y-119090000D03*
%TO.P,J1,14,Pin_14_14*%
%TO.N,/RX*%
X158995000Y-119090000D03*
%TO.P,J1,15,Pin_15_15*%
%TO.N,/TX*%
X161535000Y-119090000D03*
%TO.P,J1,16,Pin_16_16*%
%TO.N,/GPIO2*%
X164075000Y-119090000D03*
%TO.P,J1,17,Pin_17_17*%
%TO.N,/GPIO1*%
X166615000Y-119090000D03*
%TD*%
D13*
%TO.P,U2,41,GND_41*%
%TO.N,GND*%
X160867500Y-99000000D03*
X159467500Y-99000000D03*
X161567500Y-99700000D03*
X160167500Y-99700000D03*
X158767500Y-99700000D03*
X160867500Y-100400000D03*
X159467500Y-100400000D03*
X161567500Y-101100000D03*
X160167500Y-101100000D03*
X158767500Y-101100000D03*
X160867500Y-101800000D03*
X159467500Y-101800000D03*
%TD*%
D11*
%TO.P,J2,1,Pin_1_1*%
%TO.N,/GPIO12*%
X125975000Y-84720000D03*
D12*
%TO.P,J2,2,Pin_2_2*%
%TO.N,/GPIO11*%
X128515000Y-84720000D03*
%TO.P,J2,3,Pin_3_3*%
%TO.N,/GPIO10*%
X131055000Y-84720000D03*
%TO.P,J2,4,Pin_4_4*%
%TO.N,/GPIO9*%
X133595000Y-84720000D03*
%TO.P,J2,5,Pin_5_5*%
%TO.N,/3v3*%
X136135000Y-84720000D03*
%TO.P,J2,6,Pin_6_6*%
%TO.N,GND*%
X138675000Y-84720000D03*
%TO.P,J2,7,Pin_7_7*%
%TO.N,/GPIO46*%
X141215000Y-84720000D03*
%TO.P,J2,8,Pin_8_8*%
%TO.N,/GPIO3*%
X143755000Y-84720000D03*
%TO.P,J2,9,Pin_9_9*%
%TO.N,/GPIO8*%
X146295000Y-84720000D03*
%TO.P,J2,10,Pin_10_10*%
%TO.N,/GPIO18*%
X148835000Y-84720000D03*
%TO.P,J2,11,Pin_11_11*%
%TO.N,/GPIO17*%
X151375000Y-84720000D03*
%TO.P,J2,12,Pin_12_12*%
%TO.N,/GPIO16*%
X153915000Y-84720000D03*
%TO.P,J2,13,Pin_13_13*%
%TO.N,/GPIO15*%
X156455000Y-84720000D03*
%TO.P,J2,14,Pin_14_14*%
%TO.N,/GPIO7*%
X158995000Y-84720000D03*
%TO.P,J2,15,Pin_15_15*%
%TO.N,/GPIO6*%
X161535000Y-84720000D03*
%TO.P,J2,16,Pin_16_16*%
%TO.N,/GPIO5*%
X164075000Y-84720000D03*
%TO.P,J2,17,Pin_17_17*%
%TO.N,/GPIO4*%
X166615000Y-84720000D03*
%TD*%
D14*
%TO.P,J3,SH*%
%TO.N,GND*%
X117417500Y-109947500D03*
D15*
X113237500Y-109947500D03*
D14*
X117417500Y-118587500D03*
D15*
X113237500Y-118587500D03*
%TD*%
D16*
%TO.N,GND*%
X145937500Y-98747500D03*
D17*
X112597500Y-86947500D03*
D16*
X127840000Y-93450000D03*
D17*
X122180000Y-112040000D03*
D16*
X125680000Y-100400000D03*
X118400000Y-93410000D03*
D17*
X125970000Y-87030000D03*
X123530000Y-87030000D03*
X134290000Y-87270000D03*
X167870000Y-94570000D03*
D16*
X139617500Y-105317500D03*
X117060000Y-93430000D03*
X116180000Y-93420000D03*
D17*
X168267500Y-91507500D03*
X129560000Y-87030000D03*
D16*
X120270000Y-94930000D03*
D17*
X120120000Y-109520000D03*
D16*
X132220000Y-93420000D03*
X133630000Y-93470000D03*
X124570000Y-100500000D03*
D17*
X122287500Y-116297500D03*
D18*
X123117500Y-94967500D03*
X122615200Y-95214800D03*
D16*
X131340000Y-93410000D03*
D17*
X115810000Y-87030000D03*
X120070000Y-118610000D03*
X163610000Y-90590000D03*
D16*
X139647500Y-98647500D03*
D17*
X125637500Y-112017500D03*
X115820000Y-88590000D03*
D16*
X119280000Y-93420000D03*
D17*
X115820000Y-91960000D03*
D16*
X129170000Y-93440000D03*
X125940000Y-94960000D03*
X124590000Y-99100000D03*
X130050000Y-93450000D03*
D17*
X167247500Y-88527500D03*
X118640000Y-87030000D03*
X121040000Y-98380000D03*
D18*
X123607500Y-95197500D03*
D16*
X167890000Y-112110000D03*
D17*
X137280000Y-112170000D03*
X130317500Y-112987500D03*
D16*
X126960000Y-93440000D03*
X134510000Y-93480000D03*
D17*
X115820000Y-90430000D03*
X122570000Y-97540000D03*
X168047500Y-88517500D03*
X123760000Y-97530000D03*
X121290000Y-87030000D03*
D16*
X144757500Y-101887500D03*
D17*
X134510000Y-91850000D03*
D16*
X145957500Y-105337500D03*
%TO.N,/3v3*%
X155370000Y-87250000D03*
X142250000Y-87410000D03*
X155160000Y-90250000D03*
X137730000Y-95550000D03*
X165330000Y-87710000D03*
X137690000Y-97190000D03*
X157840000Y-91150000D03*
X163570000Y-88280000D03*
X160470000Y-87190000D03*
X135950000Y-100140000D03*
X164420000Y-88970000D03*
X147770000Y-87430000D03*
X164500000Y-88170000D03*
X164490000Y-87350000D03*
X135980000Y-107090000D03*
X135610000Y-98000000D03*
X143070000Y-91210000D03*
X136010000Y-109410000D03*
X136010000Y-103850000D03*
X135620000Y-94960000D03*
X163530000Y-87210000D03*
X136030000Y-96190000D03*
X157880000Y-87250000D03*
X145430000Y-87410000D03*
X165700000Y-88490000D03*
X163580000Y-89300000D03*
X135680000Y-88680000D03*
X152790000Y-87320000D03*
X160230000Y-91130000D03*
X138170000Y-87410000D03*
X147840000Y-91220000D03*
X150310000Y-87350000D03*
X140070000Y-89680000D03*
D17*
%TO.N,Net-(U2-EN)*%
X148370000Y-93140000D03*
X165560000Y-91380000D03*
%TO.N,/GPIO13*%
X151590000Y-102540000D03*
X133010000Y-115510000D03*
%TO.N,/GPIO14*%
X151580000Y-103800000D03*
X141920000Y-112150000D03*
%TO.N,/GPIO21*%
X151610000Y-105060000D03*
X144000000Y-112290000D03*
%TO.N,/GPIO47*%
X151660000Y-106360000D03*
X146450000Y-112430000D03*
%TO.N,/GPIO48*%
X148670000Y-112430000D03*
X151680000Y-107600000D03*
%TO.N,/GPIO45*%
X151710000Y-108880000D03*
X150920000Y-112520000D03*
%TO.N,Net-(U3-VBUS)*%
X134487500Y-110407500D03*
X123270000Y-110430000D03*
X120620000Y-110470000D03*
%TO.N,/GPIO4*%
X164070000Y-94660000D03*
%TO.N,/GPIO5*%
X162800000Y-94640000D03*
%TO.N,/GPIO6*%
X161540000Y-94620000D03*
%TO.N,/GPIO7*%
X160270000Y-94540000D03*
%TO.N,/GPIO15*%
X159010000Y-94500000D03*
%TO.N,/GPIO16*%
X157740000Y-94520000D03*
%TO.N,/GPIO17*%
X156460000Y-94560000D03*
%TO.N,/GPIO18*%
X155190000Y-94600000D03*
%TO.N,/GPIO8*%
X153910000Y-94620000D03*
%TO.N,/D-*%
X152627500Y-94887500D03*
X135367500Y-111697500D03*
%TO.N,/D+*%
X151437500Y-94907500D03*
X137540000Y-113480000D03*
%TO.N,/GPIO3*%
X148750000Y-94910000D03*
%TO.N,/GPIO46*%
X151370000Y-96180000D03*
%TO.N,/GPIO9*%
X151450000Y-97460000D03*
%TO.N,/GPIO10*%
X148790000Y-98730000D03*
%TO.N,/GPIO11*%
X148780000Y-100000000D03*
%TO.N,/GPIO12*%
X147910000Y-101270000D03*
%TO.N,Net-(J3-D--PadA7)*%
X130057500Y-112015000D03*
X120067500Y-113997500D03*
%TO.N,Net-(J3-D+-PadA6)*%
X120117500Y-114997500D03*
X130057500Y-113907500D03*
%TD*%
%TO.N,/GPIO14*%
D19*
X151580000Y-103800000D02*
X150270000Y-103800000D01*
X150270000Y-103800000D02*
X141920000Y-112150000D01*
%TO.N,/GPIO21*%
X144380000Y-112290000D02*
X144000000Y-112290000D01*
X151610000Y-105060000D02*
X144380000Y-112290000D01*
%TO.N,/GPIO47*%
X146450000Y-111570000D02*
X146450000Y-112430000D01*
X151660000Y-106360000D02*
X146450000Y-111570000D01*
%TO.N,/GPIO48*%
X151680000Y-107600000D02*
X148670000Y-110610000D01*
X148670000Y-110610000D02*
X148670000Y-112430000D01*
%TO.N,/GPIO45*%
X151710000Y-111730000D02*
X150920000Y-112520000D01*
X151710000Y-108880000D02*
X151710000Y-111730000D01*
%TO.N,Net-(U3-VBUS)*%
D20*
X133927500Y-109857500D02*
X133807500Y-109737500D01*
X133807500Y-109737500D02*
X133797500Y-109737500D01*
X123270000Y-109697500D02*
X123270000Y-110430000D01*
X123270000Y-109697500D02*
X121392500Y-109697500D01*
X121392500Y-109697500D02*
X120620000Y-110470000D01*
X133757500Y-109697500D02*
X123270000Y-109697500D01*
X133937500Y-109857500D02*
X133927500Y-109857500D01*
X133797500Y-109737500D02*
X133757500Y-109697500D01*
X134487500Y-110407500D02*
X133937500Y-109857500D01*
%TO.N,/GPIO4*%
D19*
X164070000Y-94660000D02*
X166597500Y-92132500D01*
X166597500Y-92132500D02*
X166597500Y-84737500D01*
X166597500Y-84737500D02*
X166615000Y-84720000D01*
%TO.N,/GPIO5*%
X162800000Y-94640000D02*
X162800000Y-85995000D01*
X162800000Y-85995000D02*
X164075000Y-84720000D01*
%TO.N,/GPIO6*%
X161535000Y-94615000D02*
X161535000Y-84720000D01*
X161540000Y-94620000D02*
X161535000Y-94615000D01*
%TO.N,/GPIO7*%
X160270000Y-94540000D02*
X158995000Y-93265000D01*
X158995000Y-93265000D02*
X158995000Y-84720000D01*
%TO.N,/GPIO15*%
X156455000Y-91945000D02*
X156455000Y-84720000D01*
X159010000Y-94500000D02*
X156455000Y-91945000D01*
%TO.N,/GPIO16*%
X157740000Y-94520000D02*
X153915000Y-90695000D01*
X153915000Y-90695000D02*
X153915000Y-84720000D01*
%TO.N,/GPIO17*%
X156460000Y-94560000D02*
X151375000Y-89475000D01*
X151375000Y-89475000D02*
X151375000Y-84720000D01*
%TO.N,/GPIO18*%
X155190000Y-94600000D02*
X148835000Y-88245000D01*
X148835000Y-88245000D02*
X148835000Y-84720000D01*
%TO.N,/GPIO8*%
X153910000Y-94620000D02*
X146295000Y-87005000D01*
X146295000Y-87005000D02*
X146295000Y-84720000D01*
%TO.N,/D-*%
D20*
X152617500Y-99897500D02*
X152642500Y-99897500D01*
X152642500Y-99897500D02*
X152880000Y-99660000D01*
X138115000Y-114400000D02*
X152617500Y-99897500D01*
X152880000Y-99660000D02*
X152880000Y-95140000D01*
X135330000Y-114380000D02*
X135350000Y-114400000D01*
X152880000Y-95140000D02*
X152627500Y-94887500D01*
X135350000Y-114400000D02*
X138115000Y-114400000D01*
X135330000Y-111735000D02*
X135330000Y-114380000D01*
%TO.N,/D+*%
X152320000Y-99060000D02*
X152320000Y-95790000D01*
X145310000Y-104240000D02*
X145720000Y-104650000D01*
X147820000Y-102790000D02*
X148590000Y-102790000D01*
X146760000Y-102970000D02*
X147380000Y-102350000D01*
X146170000Y-104200000D02*
X145780000Y-103810000D01*
X137540000Y-113480000D02*
X144083591Y-106936409D01*
X146640000Y-103860000D02*
X146650000Y-103860000D01*
X147380000Y-102350000D02*
X147820000Y-102790000D01*
X146650000Y-103860000D02*
X147140000Y-103370000D01*
X147140000Y-103370000D02*
X147160000Y-103370000D01*
X146190000Y-103410000D02*
X146640000Y-103860000D01*
X145780000Y-103810000D02*
X146180000Y-103410000D01*
X147160000Y-103370000D02*
X146760000Y-102970000D01*
X148590000Y-102790000D02*
X152320000Y-99060000D01*
X144930000Y-104630000D02*
X144930000Y-104620000D01*
X144083591Y-106256409D02*
X145320000Y-105020000D01*
X144083591Y-106936409D02*
X144083591Y-106256409D01*
X145720000Y-104650000D02*
X146170000Y-104200000D01*
X146180000Y-103410000D02*
X146190000Y-103410000D01*
X145320000Y-105020000D02*
X144930000Y-104630000D01*
X144930000Y-104620000D02*
X145310000Y-104240000D01*
X152320000Y-95790000D02*
X151437500Y-94907500D01*
%TO.N,/GPIO3*%
D19*
X148750000Y-94910000D02*
X144720000Y-90880000D01*
X144720000Y-85685000D02*
X143755000Y-84720000D01*
X144720000Y-90880000D02*
X144720000Y-85685000D01*
%TO.N,/GPIO46*%
X151370000Y-96180000D02*
X145840000Y-96180000D01*
X141215000Y-91555000D02*
X141215000Y-84720000D01*
X145840000Y-96180000D02*
X141215000Y-91555000D01*
%TO.N,/GPIO9*%
X151450000Y-97460000D02*
X146200762Y-97460000D01*
X133595000Y-84854238D02*
X133595000Y-84720000D01*
X146200762Y-97460000D02*
X133595000Y-84854238D01*
%TO.N,/GPIO10*%
X148790000Y-98730000D02*
X148072500Y-99447500D01*
X144580419Y-99447500D02*
X131055000Y-85922081D01*
X131055000Y-85922081D02*
X131055000Y-84720000D01*
X148072500Y-99447500D02*
X144580419Y-99447500D01*
%TO.N,/GPIO11*%
X148682500Y-100097500D02*
X143892500Y-100097500D01*
X143892500Y-100097500D02*
X128515000Y-84720000D01*
X148780000Y-100000000D02*
X148682500Y-100097500D01*
%TO.N,/GPIO12*%
X140027450Y-101187500D02*
X135919950Y-97080000D01*
X135919950Y-97080000D02*
X135380050Y-97080000D01*
X147910000Y-101270000D02*
X147827500Y-101187500D01*
X147827500Y-101187500D02*
X140027450Y-101187500D01*
X132920000Y-91665000D02*
X125975000Y-84720000D01*
X132920000Y-94619950D02*
X132920000Y-91665000D01*
X135380050Y-97080000D02*
X132920000Y-94619950D01*
%TO.N,Net-(J3-D--PadA7)*%
D21*
X120067500Y-113997500D02*
X120467500Y-113597500D01*
X128475000Y-113597500D02*
X130057500Y-112015000D01*
X120467500Y-113597500D02*
X128475000Y-113597500D01*
%TO.N,Net-(J3-D+-PadA6)*%
X129467500Y-114497500D02*
X130057500Y-113907500D01*
X120117500Y-114997500D02*
X120617500Y-114497500D01*
X120617500Y-114497500D02*
X129467500Y-114497500D01*
%TD*%
%TA.AperFunction,Conductor*%
%TO.N,GND*%
G36*
X124230539Y-83417685D02*
G01*
X124276294Y-83470489D01*
X124287500Y-83522000D01*
X124287500Y-86507500D01*
X127074035Y-86507500D01*
X127141074Y-86527185D01*
X127161716Y-86543819D01*
X132433181Y-91815284D01*
X132466666Y-91876607D01*
X132469500Y-91902965D01*
X132469500Y-94679259D01*
X132489236Y-94752913D01*
X132489235Y-94752913D01*
X132489236Y-94752915D01*
X132500199Y-94793833D01*
X132500200Y-94793835D01*
X132500201Y-94793837D01*
X132559511Y-94896564D01*
X135103436Y-97440489D01*
X135190615Y-97490822D01*
X135238830Y-97541390D01*
X135252052Y-97609997D01*
X135226084Y-97674861D01*
X135216299Y-97685887D01*
X135209500Y-97692686D01*
X135143608Y-97806812D01*
X135109500Y-97934108D01*
X135109500Y-98065891D01*
X135143608Y-98193187D01*
X135176554Y-98250250D01*
X135209500Y-98307314D01*
X135302686Y-98400500D01*
X135416814Y-98466392D01*
X135544108Y-98500500D01*
X135544110Y-98500500D01*
X135675890Y-98500500D01*
X135675892Y-98500500D01*
X135803186Y-98466392D01*
X135917314Y-98400500D01*
X136010500Y-98307314D01*
X136076392Y-98193186D01*
X136088353Y-98148543D01*
X136124714Y-98088889D01*
X136187560Y-98058358D01*
X136256936Y-98066652D01*
X136295807Y-98092960D01*
X139750836Y-101547989D01*
X139853563Y-101607299D01*
X139877771Y-101613784D01*
X139877774Y-101613786D01*
X139877775Y-101613786D01*
X139907897Y-101621857D01*
X139968141Y-101638000D01*
X147613169Y-101638000D01*
X147628654Y-101642149D01*
X147642399Y-101641494D01*
X147675159Y-101654609D01*
X147675165Y-101654610D01*
X147702687Y-101670500D01*
X147736114Y-101689799D01*
X147850691Y-101720500D01*
X147850694Y-101720500D01*
X147969307Y-101720500D01*
X147969309Y-101720500D01*
X148053186Y-101698025D01*
X148083887Y-101689799D01*
X148186614Y-101630490D01*
X148270490Y-101546614D01*
X148329799Y-101443887D01*
X148338025Y-101413186D01*
X148360500Y-101329309D01*
X148360500Y-101210691D01*
X148329799Y-101096114D01*
X148270490Y-100993386D01*
X148104114Y-100827011D01*
X148021626Y-100779386D01*
X147973412Y-100728819D01*
X147960190Y-100660212D01*
X147986158Y-100595348D01*
X148043072Y-100554820D01*
X148083628Y-100548000D01*
X148741808Y-100548000D01*
X148741809Y-100548000D01*
X148832173Y-100523786D01*
X148856387Y-100517299D01*
X148959114Y-100457989D01*
X149140490Y-100276614D01*
X149199799Y-100173887D01*
X149207964Y-100143413D01*
X149230500Y-100059309D01*
X149230500Y-99940691D01*
X149199799Y-99826114D01*
X149199799Y-99826113D01*
X149199799Y-99826112D01*
X149140492Y-99723389D01*
X149140488Y-99723384D01*
X149056615Y-99639511D01*
X149056607Y-99639505D01*
X148953893Y-99580204D01*
X148953888Y-99580201D01*
X148941780Y-99576957D01*
X148929673Y-99573713D01*
X148864021Y-99556121D01*
X148804362Y-99519757D01*
X148773833Y-99456910D01*
X148782128Y-99387534D01*
X148782131Y-99387529D01*
X148808431Y-99348670D01*
X149150489Y-99006614D01*
X149209799Y-98903887D01*
X149216285Y-98879675D01*
X149216286Y-98879675D01*
X149216286Y-98879671D01*
X149240500Y-98789309D01*
X149240500Y-98670691D01*
X149209799Y-98556114D01*
X149209799Y-98556113D01*
X149150489Y-98453386D01*
X149066614Y-98369511D01*
X149015250Y-98339856D01*
X148963888Y-98310201D01*
X148951780Y-98306957D01*
X148939673Y-98303713D01*
X148939670Y-98303712D01*
X148901478Y-98293478D01*
X148849309Y-98279500D01*
X148730691Y-98279500D01*
X148640325Y-98303713D01*
X148640324Y-98303712D01*
X148616116Y-98310199D01*
X148616113Y-98310200D01*
X148513386Y-98369511D01*
X148513383Y-98369513D01*
X147922216Y-98960681D01*
X147860893Y-98994166D01*
X147834535Y-98997000D01*
X144818384Y-98997000D01*
X144751345Y-98977315D01*
X144730703Y-98960681D01*
X134384130Y-88614108D01*
X135179500Y-88614108D01*
X135179500Y-88745892D01*
X135188773Y-88780500D01*
X135213608Y-88873187D01*
X135242725Y-88923618D01*
X135279500Y-88987314D01*
X135372686Y-89080500D01*
X135486814Y-89146392D01*
X135614108Y-89180500D01*
X135614110Y-89180500D01*
X135745890Y-89180500D01*
X135745892Y-89180500D01*
X135873186Y-89146392D01*
X135987314Y-89080500D01*
X136080500Y-88987314D01*
X136146392Y-88873186D01*
X136180500Y-88745892D01*
X136180500Y-88614108D01*
X136146392Y-88486814D01*
X136080500Y-88372686D01*
X135987314Y-88279500D01*
X135911783Y-88235892D01*
X135873187Y-88213608D01*
X135757782Y-88182686D01*
X135745892Y-88179500D01*
X135614108Y-88179500D01*
X135486812Y-88213608D01*
X135372686Y-88279500D01*
X135372683Y-88279502D01*
X135279502Y-88372683D01*
X135279500Y-88372686D01*
X135213608Y-88486812D01*
X135186679Y-88587314D01*
X135179500Y-88614108D01*
X134384130Y-88614108D01*
X132489203Y-86719181D01*
X132455718Y-86657858D01*
X132460702Y-86588166D01*
X132502574Y-86532233D01*
X132568038Y-86507816D01*
X132576884Y-86507500D01*
X134559797Y-86507500D01*
X134626836Y-86527185D01*
X134647477Y-86543818D01*
X145924148Y-97820490D01*
X145993449Y-97860500D01*
X146026876Y-97879799D01*
X146141453Y-97910500D01*
X146141456Y-97910500D01*
X151509306Y-97910500D01*
X151509309Y-97910500D01*
X151623886Y-97879799D01*
X151623888Y-97879797D01*
X151623890Y-97879797D01*
X151623891Y-97879796D01*
X151627329Y-97877811D01*
X151726613Y-97820489D01*
X151726613Y-97820488D01*
X151733499Y-97816513D01*
X151801399Y-97800039D01*
X151867426Y-97822891D01*
X151910617Y-97877811D01*
X151919500Y-97923899D01*
X151919500Y-98842745D01*
X151899815Y-98909784D01*
X151883181Y-98930426D01*
X148460426Y-102353181D01*
X148399103Y-102386666D01*
X148372745Y-102389500D01*
X148037255Y-102389500D01*
X147970216Y-102369815D01*
X147949574Y-102353181D01*
X147625915Y-102029522D01*
X147625913Y-102029520D01*
X147580250Y-102003156D01*
X147534589Y-101976793D01*
X147483657Y-101963146D01*
X147432727Y-101949500D01*
X147327273Y-101949500D01*
X147225410Y-101976793D01*
X147134087Y-102029520D01*
X147134084Y-102029522D01*
X146439522Y-102724084D01*
X146439520Y-102724087D01*
X146386793Y-102815410D01*
X146375311Y-102858262D01*
X146359500Y-102917273D01*
X146359500Y-102917275D01*
X146359415Y-102917593D01*
X146323051Y-102977253D01*
X146260204Y-103007783D01*
X146239640Y-103009500D01*
X146127273Y-103009500D01*
X146025413Y-103036793D01*
X146025410Y-103036794D01*
X145934085Y-103089521D01*
X145459522Y-103564084D01*
X145459520Y-103564087D01*
X145406793Y-103655410D01*
X145382094Y-103747593D01*
X145345729Y-103807254D01*
X145282882Y-103837783D01*
X145262319Y-103839500D01*
X145257273Y-103839500D01*
X145155410Y-103866793D01*
X145064087Y-103919520D01*
X145064084Y-103919522D01*
X144609522Y-104374084D01*
X144609520Y-104374087D01*
X144556793Y-104465411D01*
X144542038Y-104520480D01*
X144529500Y-104567271D01*
X144529500Y-104682726D01*
X144556793Y-104784589D01*
X144583156Y-104830250D01*
X144609520Y-104875913D01*
X144609522Y-104875915D01*
X144665926Y-104932319D01*
X144699411Y-104993642D01*
X144694427Y-105063334D01*
X144665926Y-105107681D01*
X143763113Y-106010493D01*
X143763111Y-106010496D01*
X143710382Y-106101822D01*
X143687800Y-106186109D01*
X143687799Y-106186114D01*
X143683091Y-106203682D01*
X143683091Y-106719153D01*
X143663406Y-106786192D01*
X143646772Y-106806834D01*
X137426888Y-113026717D01*
X137371305Y-113058810D01*
X137366115Y-113060200D01*
X137366114Y-113060201D01*
X137263390Y-113119509D01*
X137263384Y-113119513D01*
X137179513Y-113203384D01*
X137179511Y-113203387D01*
X137140540Y-113270887D01*
X137120201Y-113306114D01*
X137089500Y-113420691D01*
X137089500Y-113539309D01*
X137120201Y-113653886D01*
X137179511Y-113756613D01*
X137179513Y-113756615D01*
X137210717Y-113787819D01*
X137244202Y-113849142D01*
X137239218Y-113918834D01*
X137197346Y-113974767D01*
X137131882Y-113999184D01*
X137123036Y-113999500D01*
X135854500Y-113999500D01*
X135787461Y-113979815D01*
X135741706Y-113927011D01*
X135730500Y-113875500D01*
X135730500Y-112002989D01*
X135747114Y-111940988D01*
X135787296Y-111871391D01*
X135787297Y-111871390D01*
X135787297Y-111871388D01*
X135787299Y-111871386D01*
X135818000Y-111756809D01*
X135818000Y-111638191D01*
X135787299Y-111523614D01*
X135727989Y-111420887D01*
X135644113Y-111337011D01*
X135541386Y-111277701D01*
X135426809Y-111247000D01*
X135308191Y-111247000D01*
X135193614Y-111277701D01*
X135193612Y-111277701D01*
X135193612Y-111277702D01*
X135090887Y-111337011D01*
X135090884Y-111337013D01*
X135007013Y-111420884D01*
X135007011Y-111420887D01*
X134947701Y-111523614D01*
X134917000Y-111638191D01*
X134917000Y-111638193D01*
X134917000Y-111756808D01*
X134925275Y-111787691D01*
X134929500Y-111819784D01*
X134929500Y-114432726D01*
X134956793Y-114534589D01*
X134983156Y-114580250D01*
X135009520Y-114625913D01*
X135104087Y-114720480D01*
X135195412Y-114773207D01*
X135297273Y-114800500D01*
X135297275Y-114800500D01*
X138167725Y-114800500D01*
X138167727Y-114800500D01*
X138269588Y-114773207D01*
X138360913Y-114720480D01*
X140990702Y-112090691D01*
X141469500Y-112090691D01*
X141469500Y-112209308D01*
X141493712Y-112299672D01*
X141500200Y-112323885D01*
X141500200Y-112323886D01*
X141525267Y-112367303D01*
X141559511Y-112426614D01*
X141643386Y-112510489D01*
X141746113Y-112569799D01*
X141757035Y-112572725D01*
X141757039Y-112572728D01*
X141757040Y-112572727D01*
X141778944Y-112578595D01*
X141860691Y-112600500D01*
X141860693Y-112600500D01*
X141979307Y-112600500D01*
X141979309Y-112600500D01*
X142064877Y-112577572D01*
X142082960Y-112572727D01*
X142082962Y-112572726D01*
X142093887Y-112569799D01*
X142196614Y-112510489D01*
X142476412Y-112230691D01*
X143549500Y-112230691D01*
X143549500Y-112349309D01*
X143580201Y-112463886D01*
X143639511Y-112566613D01*
X143723387Y-112650489D01*
X143826114Y-112709799D01*
X143940691Y-112740500D01*
X143940694Y-112740500D01*
X144439308Y-112740500D01*
X144439309Y-112740500D01*
X144529673Y-112716286D01*
X144553887Y-112709799D01*
X144656614Y-112650489D01*
X145787819Y-111519284D01*
X145849142Y-111485799D01*
X145918834Y-111490783D01*
X145974767Y-111532655D01*
X145999184Y-111598119D01*
X145999500Y-111606965D01*
X145999500Y-112489309D01*
X146030201Y-112603886D01*
X146089511Y-112706613D01*
X146173387Y-112790489D01*
X146276114Y-112849799D01*
X146390691Y-112880500D01*
X146390694Y-112880500D01*
X146509306Y-112880500D01*
X146509309Y-112880500D01*
X146623886Y-112849799D01*
X146726613Y-112790489D01*
X146810489Y-112706613D01*
X146869799Y-112603886D01*
X146900500Y-112489309D01*
X146900500Y-111807964D01*
X146920185Y-111740925D01*
X146936814Y-111720288D01*
X148007819Y-110649282D01*
X148069142Y-110615798D01*
X148138834Y-110620782D01*
X148194767Y-110662654D01*
X148219184Y-110728118D01*
X148219500Y-110736964D01*
X148219500Y-112489309D01*
X148250201Y-112603886D01*
X148309511Y-112706613D01*
X148393387Y-112790489D01*
X148496114Y-112849799D01*
X148610691Y-112880500D01*
X148610694Y-112880500D01*
X148729306Y-112880500D01*
X148729309Y-112880500D01*
X148843886Y-112849799D01*
X148946613Y-112790489D01*
X149030489Y-112706613D01*
X149089799Y-112603886D01*
X149120500Y-112489309D01*
X149120500Y-110847965D01*
X149140185Y-110780926D01*
X149156819Y-110760284D01*
X150572995Y-109344108D01*
X151047820Y-108869283D01*
X151109142Y-108835799D01*
X151178834Y-108840783D01*
X151234767Y-108882655D01*
X151259184Y-108948119D01*
X151259500Y-108956965D01*
X151259500Y-111492034D01*
X151239815Y-111559073D01*
X151223181Y-111579715D01*
X150559513Y-112243383D01*
X150559509Y-112243389D01*
X150500201Y-112346112D01*
X150500201Y-112346113D01*
X150500201Y-112346114D01*
X150469500Y-112460691D01*
X150469500Y-112579309D01*
X150476086Y-112603886D01*
X150488573Y-112650489D01*
X150488573Y-112650490D01*
X150500199Y-112693885D01*
X150527113Y-112740500D01*
X150559511Y-112796614D01*
X150643386Y-112880489D01*
X150746113Y-112939799D01*
X150770321Y-112946284D01*
X150770324Y-112946286D01*
X150770325Y-112946286D01*
X150800447Y-112954357D01*
X150860691Y-112970500D01*
X150860693Y-112970500D01*
X150979308Y-112970500D01*
X150979309Y-112970500D01*
X151069673Y-112946286D01*
X151093887Y-112939799D01*
X151196614Y-112880489D01*
X152070490Y-112006614D01*
X152129799Y-111903887D01*
X152137972Y-111873386D01*
X152138826Y-111870200D01*
X152147449Y-111838015D01*
X152160500Y-111789309D01*
X152160500Y-108820691D01*
X152129799Y-108706114D01*
X152070489Y-108603387D01*
X151986613Y-108519511D01*
X151883886Y-108460201D01*
X151769309Y-108429500D01*
X151769306Y-108429500D01*
X151761458Y-108427397D01*
X151761812Y-108426073D01*
X151705764Y-108401271D01*
X151667300Y-108342942D01*
X151666477Y-108273077D01*
X151698174Y-108218929D01*
X152040490Y-107876614D01*
X152099799Y-107773887D01*
X152106285Y-107749675D01*
X152106286Y-107749675D01*
X152106286Y-107749671D01*
X152130500Y-107659309D01*
X152130500Y-107540691D01*
X152099799Y-107426114D01*
X152099799Y-107426113D01*
X152099799Y-107426112D01*
X152040492Y-107323389D01*
X152040488Y-107323384D01*
X151956615Y-107239511D01*
X151956607Y-107239505D01*
X151853893Y-107180204D01*
X151853888Y-107180201D01*
X151841780Y-107176957D01*
X151829673Y-107173713D01*
X151764023Y-107156122D01*
X151750423Y-107147832D01*
X151704363Y-107119757D01*
X151673834Y-107056910D01*
X151682129Y-106987534D01*
X151708430Y-106948672D01*
X152020490Y-106636614D01*
X152079799Y-106533887D01*
X152088257Y-106502322D01*
X152110500Y-106419309D01*
X152110500Y-106300691D01*
X152079799Y-106186114D01*
X152079799Y-106186113D01*
X152079799Y-106186112D01*
X152020492Y-106083389D01*
X152020488Y-106083384D01*
X151936615Y-105999511D01*
X151936610Y-105999507D01*
X151833890Y-105940202D01*
X151833883Y-105940199D01*
X151803184Y-105931973D01*
X151803184Y-105931972D01*
X151719312Y-105909500D01*
X151719309Y-105909500D01*
X151696965Y-105909500D01*
X151629926Y-105889815D01*
X151584171Y-105837011D01*
X151574227Y-105767853D01*
X151603252Y-105704297D01*
X151609284Y-105697819D01*
X151970489Y-105336614D01*
X152029799Y-105233887D01*
X152045688Y-105174587D01*
X152060500Y-105119309D01*
X152060500Y-105000691D01*
X152029799Y-104886114D01*
X152029799Y-104886113D01*
X151970489Y-104783386D01*
X151886614Y-104699511D01*
X151835250Y-104669856D01*
X151783888Y-104640201D01*
X151771780Y-104636957D01*
X151759673Y-104633713D01*
X151759670Y-104633712D01*
X151721478Y-104623478D01*
X151669309Y-104609500D01*
X151550691Y-104609500D01*
X151460325Y-104633713D01*
X151460324Y-104633712D01*
X151436116Y-104640199D01*
X151436113Y-104640200D01*
X151333386Y-104699511D01*
X151333383Y-104699513D01*
X144229716Y-111803181D01*
X144168393Y-111836666D01*
X144142035Y-111839500D01*
X143940691Y-111839500D01*
X143826114Y-111870201D01*
X143826112Y-111870201D01*
X143826112Y-111870202D01*
X143723387Y-111929511D01*
X143723384Y-111929513D01*
X143639513Y-112013384D01*
X143639511Y-112013387D01*
X143580201Y-112116114D01*
X143549500Y-112230691D01*
X142476412Y-112230691D01*
X150420284Y-104286819D01*
X150481607Y-104253334D01*
X150507965Y-104250500D01*
X151639306Y-104250500D01*
X151639309Y-104250500D01*
X151753886Y-104219799D01*
X151856613Y-104160489D01*
X151940489Y-104076613D01*
X151999799Y-103973886D01*
X152030500Y-103859309D01*
X152030500Y-103740691D01*
X151999799Y-103626114D01*
X151940489Y-103523387D01*
X151856613Y-103439511D01*
X151753886Y-103380201D01*
X151639309Y-103349500D01*
X150210691Y-103349500D01*
X150120325Y-103373713D01*
X150120324Y-103373712D01*
X150096116Y-103380199D01*
X150096113Y-103380200D01*
X149993386Y-103439511D01*
X149993383Y-103439513D01*
X141559513Y-111873383D01*
X141559511Y-111873386D01*
X141500199Y-111976114D01*
X141496534Y-111989797D01*
X141496534Y-111989798D01*
X141469500Y-112090691D01*
X140990702Y-112090691D01*
X150600700Y-102480691D01*
X151139500Y-102480691D01*
X151139500Y-102599309D01*
X151170201Y-102713886D01*
X151229511Y-102816613D01*
X151313387Y-102900489D01*
X151416114Y-102959799D01*
X151530691Y-102990500D01*
X151530694Y-102990500D01*
X151649306Y-102990500D01*
X151649309Y-102990500D01*
X151763886Y-102959799D01*
X151866613Y-102900489D01*
X151950489Y-102816613D01*
X152009799Y-102713886D01*
X152040500Y-102599309D01*
X152040500Y-102480691D01*
X152009799Y-102366114D01*
X151950489Y-102263387D01*
X151866613Y-102179511D01*
X151763886Y-102120201D01*
X151649309Y-102089500D01*
X151530691Y-102089500D01*
X151416114Y-102120201D01*
X151416112Y-102120201D01*
X151416112Y-102120202D01*
X151313387Y-102179511D01*
X151313384Y-102179513D01*
X151229513Y-102263384D01*
X151229511Y-102263387D01*
X151170201Y-102366114D01*
X151139500Y-102480691D01*
X150600700Y-102480691D01*
X152817721Y-100263670D01*
X152843393Y-100243971D01*
X152888413Y-100217980D01*
X153125911Y-99980481D01*
X153125913Y-99980480D01*
X153200480Y-99905913D01*
X153253207Y-99814587D01*
X153254975Y-99807989D01*
X153280501Y-99712727D01*
X153280501Y-99607273D01*
X153280501Y-99599678D01*
X153280500Y-99599660D01*
X153280500Y-95087273D01*
X153280499Y-95087267D01*
X153278315Y-95079118D01*
X153276006Y-95070500D01*
X153253207Y-94985412D01*
X153200480Y-94894087D01*
X153197748Y-94891355D01*
X153191516Y-94876830D01*
X153188185Y-94849140D01*
X153181609Y-94822035D01*
X153184069Y-94814926D01*
X153183171Y-94807460D01*
X153195339Y-94782364D01*
X153204461Y-94756008D01*
X153210372Y-94751359D01*
X153213654Y-94744591D01*
X153237460Y-94730056D01*
X153259382Y-94712817D01*
X153266868Y-94712102D01*
X153273288Y-94708183D01*
X153301173Y-94708826D01*
X153328935Y-94706175D01*
X153335618Y-94709620D01*
X153343139Y-94709794D01*
X153366248Y-94725410D01*
X153391038Y-94738190D01*
X153393150Y-94740253D01*
X153633386Y-94980489D01*
X153685365Y-95010499D01*
X153736114Y-95039799D01*
X153850691Y-95070500D01*
X153850694Y-95070500D01*
X153969306Y-95070500D01*
X153969309Y-95070500D01*
X154083886Y-95039799D01*
X154134635Y-95010499D01*
X154186614Y-94980489D01*
X154270489Y-94896614D01*
X154328224Y-94796614D01*
X154329799Y-94793886D01*
X154360500Y-94679309D01*
X154360500Y-94678328D01*
X154363394Y-94668740D01*
X154381488Y-94641044D01*
X154398695Y-94612816D01*
X154400507Y-94611935D01*
X154401610Y-94610248D01*
X154431795Y-94596736D01*
X154461542Y-94582287D01*
X154463543Y-94582526D01*
X154465383Y-94581703D01*
X154498078Y-94586655D01*
X154530918Y-94590582D01*
X154532912Y-94591932D01*
X154534464Y-94592167D01*
X154538480Y-94595700D01*
X154569786Y-94616889D01*
X154913386Y-94960489D01*
X155016113Y-95019799D01*
X155016112Y-95019799D01*
X155029239Y-95023316D01*
X155038850Y-95025891D01*
X155038852Y-95025892D01*
X155058259Y-95031092D01*
X155130691Y-95050500D01*
X155130693Y-95050500D01*
X155249307Y-95050500D01*
X155249309Y-95050500D01*
X155341147Y-95025892D01*
X155363887Y-95019799D01*
X155466614Y-94960489D01*
X155550489Y-94876614D01*
X155609799Y-94773887D01*
X155625688Y-94714587D01*
X155640500Y-94659309D01*
X155640500Y-94659308D01*
X155642603Y-94651460D01*
X155643928Y-94651815D01*
X155668715Y-94595778D01*
X155727038Y-94557305D01*
X155796903Y-94556470D01*
X155851072Y-94588175D01*
X156183386Y-94920489D01*
X156286113Y-94979799D01*
X156310321Y-94986284D01*
X156310324Y-94986286D01*
X156310325Y-94986286D01*
X156326052Y-94990500D01*
X156400691Y-95010500D01*
X156400693Y-95010500D01*
X156519308Y-95010500D01*
X156519309Y-95010500D01*
X156609673Y-94986286D01*
X156633887Y-94979799D01*
X156736614Y-94920489D01*
X156820489Y-94836614D01*
X156879799Y-94733887D01*
X156890517Y-94693886D01*
X156910500Y-94619309D01*
X156910500Y-94619300D01*
X156911561Y-94611249D01*
X156914982Y-94611699D01*
X156930185Y-94559926D01*
X156982989Y-94514171D01*
X157052147Y-94504227D01*
X157115703Y-94533252D01*
X157122181Y-94539284D01*
X157463386Y-94880489D01*
X157566113Y-94939799D01*
X157590321Y-94946284D01*
X157590324Y-94946286D01*
X157590325Y-94946286D01*
X157606052Y-94950500D01*
X157680691Y-94970500D01*
X157680693Y-94970500D01*
X157799308Y-94970500D01*
X157799309Y-94970500D01*
X157873951Y-94950499D01*
X157889666Y-94946288D01*
X157889667Y-94946287D01*
X157889673Y-94946286D01*
X157913887Y-94939799D01*
X158016614Y-94880489D01*
X158100489Y-94796614D01*
X158159799Y-94693887D01*
X158165046Y-94674307D01*
X158167785Y-94664085D01*
X158179782Y-94619308D01*
X158190217Y-94580363D01*
X158226579Y-94520705D01*
X158289426Y-94490174D01*
X158358801Y-94498468D01*
X158397672Y-94524776D01*
X158733386Y-94860490D01*
X158836113Y-94919799D01*
X158860321Y-94926284D01*
X158860324Y-94926286D01*
X158860325Y-94926286D01*
X158889909Y-94934213D01*
X158950691Y-94950500D01*
X158950693Y-94950500D01*
X159069307Y-94950500D01*
X159069309Y-94950500D01*
X159153186Y-94928025D01*
X159183887Y-94919799D01*
X159189406Y-94916613D01*
X159286607Y-94860494D01*
X159286606Y-94860494D01*
X159286614Y-94860490D01*
X159370490Y-94776614D01*
X159429799Y-94673887D01*
X159444423Y-94619309D01*
X159445418Y-94615593D01*
X159481769Y-94555928D01*
X159544610Y-94525385D01*
X159613987Y-94533665D01*
X159652880Y-94559983D01*
X159993386Y-94900489D01*
X159993387Y-94900490D01*
X159993389Y-94900491D01*
X160008609Y-94909278D01*
X160041080Y-94928025D01*
X160050053Y-94933205D01*
X160050055Y-94933207D01*
X160050056Y-94933207D01*
X160096114Y-94959799D01*
X160210691Y-94990500D01*
X160210694Y-94990500D01*
X160329306Y-94990500D01*
X160329309Y-94990500D01*
X160443886Y-94959799D01*
X160489944Y-94933207D01*
X160546614Y-94900489D01*
X160630489Y-94816614D01*
X160671308Y-94745913D01*
X160689799Y-94713886D01*
X160720500Y-94599309D01*
X160720500Y-94480691D01*
X160689799Y-94366114D01*
X160651351Y-94299520D01*
X160630489Y-94263386D01*
X159481819Y-93114716D01*
X159448334Y-93053393D01*
X159445500Y-93027035D01*
X159445500Y-91064108D01*
X159729500Y-91064108D01*
X159729500Y-91195892D01*
X159732239Y-91206114D01*
X159763608Y-91323187D01*
X159775274Y-91343392D01*
X159829500Y-91437314D01*
X159922686Y-91530500D01*
X160036814Y-91596392D01*
X160164108Y-91630500D01*
X160164110Y-91630500D01*
X160295890Y-91630500D01*
X160295892Y-91630500D01*
X160423186Y-91596392D01*
X160537314Y-91530500D01*
X160630500Y-91437314D01*
X160696392Y-91323186D01*
X160730500Y-91195892D01*
X160730500Y-91064108D01*
X160696392Y-90936814D01*
X160630500Y-90822686D01*
X160537314Y-90729500D01*
X160457827Y-90683608D01*
X160423187Y-90663608D01*
X160342670Y-90642034D01*
X160295892Y-90629500D01*
X160164108Y-90629500D01*
X160036812Y-90663608D01*
X159922686Y-90729500D01*
X159922683Y-90729502D01*
X159829502Y-90822683D01*
X159829500Y-90822686D01*
X159763608Y-90936812D01*
X159741449Y-91019513D01*
X159729500Y-91064108D01*
X159445500Y-91064108D01*
X159445500Y-86631500D01*
X159465185Y-86564461D01*
X159517989Y-86518706D01*
X159569500Y-86507500D01*
X160188349Y-86507500D01*
X160255388Y-86527185D01*
X160301143Y-86579989D01*
X160311087Y-86649147D01*
X160282062Y-86712703D01*
X160250350Y-86738887D01*
X160162686Y-86789500D01*
X160162683Y-86789502D01*
X160069502Y-86882683D01*
X160069500Y-86882686D01*
X160003608Y-86996812D01*
X159975241Y-87102683D01*
X159969500Y-87124108D01*
X159969500Y-87255892D01*
X159983864Y-87309500D01*
X160003608Y-87383187D01*
X160014866Y-87402686D01*
X160069500Y-87497314D01*
X160162686Y-87590500D01*
X160255538Y-87644108D01*
X160266603Y-87650497D01*
X160276814Y-87656392D01*
X160404108Y-87690500D01*
X160404110Y-87690500D01*
X160535890Y-87690500D01*
X160535892Y-87690500D01*
X160663186Y-87656392D01*
X160777314Y-87590500D01*
X160870500Y-87497314D01*
X160870500Y-87497313D01*
X160872819Y-87494995D01*
X160934142Y-87461510D01*
X161003834Y-87466494D01*
X161059767Y-87508366D01*
X161084184Y-87573830D01*
X161084500Y-87582676D01*
X161084500Y-94674309D01*
X161105562Y-94752912D01*
X161105561Y-94752912D01*
X161105562Y-94752914D01*
X161115199Y-94788883D01*
X161115200Y-94788885D01*
X161115201Y-94788887D01*
X161174511Y-94891614D01*
X161263386Y-94980489D01*
X161366113Y-95039799D01*
X161390321Y-95046284D01*
X161390324Y-95046286D01*
X161390325Y-95046286D01*
X161406052Y-95050500D01*
X161480691Y-95070500D01*
X161480693Y-95070500D01*
X161599308Y-95070500D01*
X161599309Y-95070500D01*
X161689673Y-95046286D01*
X161713887Y-95039799D01*
X161816614Y-94980489D01*
X161900489Y-94896614D01*
X161959799Y-94793887D01*
X161972653Y-94745913D01*
X161990500Y-94679309D01*
X161990500Y-94560691D01*
X161989723Y-94557792D01*
X161985500Y-94525707D01*
X161985500Y-86631500D01*
X161988050Y-86622814D01*
X161986762Y-86613853D01*
X161997740Y-86589812D01*
X162005185Y-86564461D01*
X162012025Y-86558533D01*
X162015787Y-86550297D01*
X162038021Y-86536007D01*
X162057989Y-86518706D01*
X162068503Y-86516418D01*
X162074565Y-86512523D01*
X162109500Y-86507500D01*
X162225500Y-86507500D01*
X162292539Y-86527185D01*
X162338294Y-86579989D01*
X162349500Y-86631500D01*
X162349500Y-94699309D01*
X162380201Y-94813886D01*
X162439511Y-94916613D01*
X162523387Y-95000489D01*
X162626114Y-95059799D01*
X162740691Y-95090500D01*
X162740694Y-95090500D01*
X162859306Y-95090500D01*
X162859309Y-95090500D01*
X162973886Y-95059799D01*
X163076613Y-95000489D01*
X163160489Y-94916613D01*
X163219799Y-94813886D01*
X163250500Y-94699309D01*
X163250500Y-89891466D01*
X163270185Y-89824427D01*
X163322989Y-89778672D01*
X163392147Y-89768728D01*
X163406578Y-89771687D01*
X163514108Y-89800500D01*
X163514111Y-89800500D01*
X163645890Y-89800500D01*
X163645892Y-89800500D01*
X163773186Y-89766392D01*
X163887314Y-89700500D01*
X163980500Y-89607314D01*
X164046392Y-89493186D01*
X164046392Y-89493185D01*
X164050456Y-89486147D01*
X164051752Y-89486895D01*
X164089917Y-89439526D01*
X164156208Y-89417454D01*
X164222649Y-89433987D01*
X164226814Y-89436392D01*
X164354108Y-89470500D01*
X164354110Y-89470500D01*
X164485890Y-89470500D01*
X164485892Y-89470500D01*
X164613186Y-89436392D01*
X164727314Y-89370500D01*
X164820500Y-89277314D01*
X164886392Y-89163186D01*
X164920500Y-89035892D01*
X164920500Y-88904108D01*
X164886392Y-88776814D01*
X164829504Y-88678282D01*
X164813032Y-88610383D01*
X164835884Y-88544356D01*
X164835985Y-88544216D01*
X164841949Y-88535864D01*
X164900500Y-88477314D01*
X164966392Y-88363186D01*
X164967062Y-88360682D01*
X164974593Y-88350139D01*
X164997553Y-88332134D01*
X165018680Y-88311990D01*
X165024729Y-88310824D01*
X165029574Y-88307025D01*
X165058626Y-88304291D01*
X165087287Y-88298768D01*
X165093004Y-88301056D01*
X165099136Y-88300480D01*
X165125058Y-88313889D01*
X165152152Y-88324736D01*
X165155724Y-88329752D01*
X165161194Y-88332582D01*
X165175751Y-88357877D01*
X165192680Y-88381650D01*
X165194020Y-88389621D01*
X165196045Y-88393139D01*
X165195721Y-88399737D01*
X165199500Y-88422206D01*
X165199500Y-88424108D01*
X165199500Y-88555892D01*
X165211162Y-88599416D01*
X165233608Y-88683187D01*
X165266554Y-88740250D01*
X165299500Y-88797314D01*
X165392686Y-88890500D01*
X165491521Y-88947563D01*
X165506810Y-88956390D01*
X165506814Y-88956392D01*
X165634108Y-88990500D01*
X165634110Y-88990500D01*
X165765890Y-88990500D01*
X165765892Y-88990500D01*
X165893186Y-88956392D01*
X165960999Y-88917239D01*
X166028899Y-88900766D01*
X166094926Y-88923618D01*
X166138117Y-88978538D01*
X166147000Y-89024626D01*
X166147000Y-91033289D01*
X166127315Y-91100328D01*
X166074511Y-91146083D01*
X166005353Y-91156027D01*
X165941797Y-91127002D01*
X165924628Y-91108780D01*
X165920490Y-91103388D01*
X165836615Y-91019513D01*
X165836613Y-91019511D01*
X165733886Y-90960201D01*
X165619309Y-90929500D01*
X165500691Y-90929500D01*
X165386114Y-90960201D01*
X165386112Y-90960201D01*
X165386112Y-90960202D01*
X165283387Y-91019511D01*
X165283384Y-91019513D01*
X165199513Y-91103384D01*
X165199511Y-91103387D01*
X165176001Y-91144108D01*
X165140201Y-91206114D01*
X165109500Y-91320691D01*
X165109500Y-91439309D01*
X165140201Y-91553886D01*
X165199511Y-91656613D01*
X165283387Y-91740489D01*
X165386114Y-91799799D01*
X165500691Y-91830500D01*
X165500694Y-91830500D01*
X165619306Y-91830500D01*
X165619309Y-91830500D01*
X165733886Y-91799799D01*
X165836613Y-91740489D01*
X165920489Y-91656613D01*
X165920491Y-91656608D01*
X165924625Y-91651223D01*
X165981053Y-91610020D01*
X166050799Y-91605866D01*
X166111719Y-91640079D01*
X166144471Y-91701797D01*
X166147000Y-91726710D01*
X166147000Y-91894534D01*
X166127315Y-91961573D01*
X166110681Y-91982215D01*
X163709513Y-94383383D01*
X163709509Y-94383389D01*
X163650199Y-94486115D01*
X163649891Y-94487263D01*
X163649892Y-94487264D01*
X163630217Y-94560694D01*
X163619500Y-94600691D01*
X163619500Y-94719309D01*
X163639470Y-94793836D01*
X163639469Y-94793836D01*
X163639470Y-94793838D01*
X163650199Y-94833883D01*
X163650200Y-94833885D01*
X163650201Y-94833887D01*
X163709511Y-94936614D01*
X163793386Y-95020489D01*
X163896113Y-95079799D01*
X163920321Y-95086284D01*
X163920324Y-95086286D01*
X163920325Y-95086286D01*
X163924009Y-95087273D01*
X164010691Y-95110500D01*
X164010693Y-95110500D01*
X164129308Y-95110500D01*
X164129309Y-95110500D01*
X164219673Y-95086286D01*
X164243887Y-95079799D01*
X164346614Y-95020489D01*
X166957990Y-92409114D01*
X167017299Y-92306387D01*
X167023785Y-92282175D01*
X167023786Y-92282175D01*
X167023786Y-92282171D01*
X167048000Y-92191809D01*
X167048000Y-86614000D01*
X167067685Y-86546961D01*
X167120489Y-86501206D01*
X167172000Y-86490000D01*
X168673000Y-86490000D01*
X168740039Y-86509685D01*
X168785794Y-86562489D01*
X168797000Y-86614000D01*
X168797000Y-117156000D01*
X168777315Y-117223039D01*
X168724511Y-117268794D01*
X168673000Y-117280000D01*
X165990748Y-117280000D01*
X165983913Y-117277993D01*
X127086030Y-117279281D01*
X127088495Y-120292899D01*
X127068865Y-120359954D01*
X127016099Y-120405752D01*
X126964495Y-120417000D01*
X110582000Y-120417000D01*
X110514961Y-120397315D01*
X110469206Y-120344511D01*
X110458000Y-120293000D01*
X110458000Y-117081734D01*
X116312000Y-117081734D01*
X116312000Y-117233266D01*
X116324330Y-117279281D01*
X116351219Y-117379636D01*
X116389102Y-117445250D01*
X116426985Y-117510865D01*
X116534135Y-117618015D01*
X116665365Y-117693781D01*
X116811734Y-117733000D01*
X116811736Y-117733000D01*
X116963264Y-117733000D01*
X116963266Y-117733000D01*
X117109635Y-117693781D01*
X117240865Y-117618015D01*
X117348015Y-117510865D01*
X117423781Y-117379635D01*
X117463000Y-117233266D01*
X117463000Y-117081734D01*
X117423781Y-116935365D01*
X117348015Y-116804135D01*
X117240865Y-116696985D01*
X117175250Y-116659102D01*
X117109636Y-116621219D01*
X117036450Y-116601609D01*
X116963266Y-116582000D01*
X116811734Y-116582000D01*
X116665363Y-116621219D01*
X116534135Y-116696985D01*
X116534132Y-116696987D01*
X116426987Y-116804132D01*
X116426985Y-116804135D01*
X116351219Y-116935363D01*
X116312000Y-117081734D01*
X110458000Y-117081734D01*
X110458000Y-115450691D01*
X132559500Y-115450691D01*
X132559500Y-115569309D01*
X132590201Y-115683886D01*
X132649511Y-115786613D01*
X132733387Y-115870489D01*
X132836114Y-115929799D01*
X132950691Y-115960500D01*
X132950694Y-115960500D01*
X133069306Y-115960500D01*
X133069309Y-115960500D01*
X133183886Y-115929799D01*
X133286613Y-115870489D01*
X133370489Y-115786613D01*
X133429799Y-115683886D01*
X133460500Y-115569309D01*
X133460500Y-115450691D01*
X133429799Y-115336114D01*
X133370489Y-115233387D01*
X133286613Y-115149511D01*
X133183886Y-115090201D01*
X133069309Y-115059500D01*
X132950691Y-115059500D01*
X132836114Y-115090201D01*
X132836112Y-115090201D01*
X132836112Y-115090202D01*
X132733387Y-115149511D01*
X132733384Y-115149513D01*
X132649513Y-115233384D01*
X132649511Y-115233387D01*
X132590201Y-115336114D01*
X132559500Y-115450691D01*
X110458000Y-115450691D01*
X110458000Y-113938191D01*
X119617000Y-113938191D01*
X119617000Y-114056809D01*
X119647701Y-114171386D01*
X119707011Y-114274113D01*
X119790887Y-114357989D01*
X119867594Y-114402276D01*
X119871527Y-114404547D01*
X119919742Y-114455115D01*
X119932964Y-114523722D01*
X119906996Y-114588587D01*
X119871527Y-114619320D01*
X119840893Y-114637006D01*
X119840884Y-114637013D01*
X119757013Y-114720884D01*
X119757011Y-114720887D01*
X119711047Y-114800499D01*
X119697701Y-114823614D01*
X119667000Y-114938191D01*
X119667000Y-115056809D01*
X119697701Y-115171386D01*
X119757011Y-115274113D01*
X119840887Y-115357989D01*
X119943614Y-115417299D01*
X120058191Y-115448000D01*
X120058194Y-115448000D01*
X120176806Y-115448000D01*
X120176809Y-115448000D01*
X120291386Y-115417299D01*
X120394113Y-115357989D01*
X120477989Y-115274113D01*
X120537299Y-115171386D01*
X120564572Y-115069600D01*
X120572587Y-115055717D01*
X120575513Y-115042271D01*
X120596658Y-115014023D01*
X120726365Y-114884316D01*
X120787686Y-114850834D01*
X120814044Y-114848000D01*
X129513642Y-114848000D01*
X129513644Y-114848000D01*
X129602788Y-114824114D01*
X129603641Y-114823621D01*
X129603657Y-114823617D01*
X129603655Y-114823614D01*
X129682705Y-114777974D01*
X129682704Y-114777974D01*
X129682712Y-114777970D01*
X130074019Y-114386662D01*
X130129600Y-114354572D01*
X130231386Y-114327299D01*
X130334113Y-114267989D01*
X130417989Y-114184113D01*
X130477299Y-114081386D01*
X130508000Y-113966809D01*
X130508000Y-113848191D01*
X130477299Y-113733614D01*
X130417989Y-113630887D01*
X130334113Y-113547011D01*
X130231386Y-113487701D01*
X130116809Y-113457000D01*
X129998191Y-113457000D01*
X129883614Y-113487701D01*
X129883612Y-113487701D01*
X129883612Y-113487702D01*
X129780887Y-113547011D01*
X129780884Y-113547013D01*
X129697013Y-113630884D01*
X129697011Y-113630887D01*
X129637701Y-113733614D01*
X129610429Y-113835395D01*
X129578335Y-113890982D01*
X129358637Y-114110681D01*
X129297314Y-114144166D01*
X129270956Y-114147000D01*
X128687012Y-114147000D01*
X128619973Y-114127315D01*
X128574218Y-114074511D01*
X128564274Y-114005353D01*
X128593299Y-113941797D01*
X128625010Y-113915613D01*
X128690212Y-113877970D01*
X130074019Y-112494162D01*
X130129600Y-112462072D01*
X130231386Y-112434799D01*
X130334113Y-112375489D01*
X130417989Y-112291613D01*
X130477299Y-112188886D01*
X130508000Y-112074309D01*
X130508000Y-111955691D01*
X130477299Y-111841114D01*
X130417989Y-111738387D01*
X130334113Y-111654511D01*
X130231386Y-111595201D01*
X130116809Y-111564500D01*
X129998191Y-111564500D01*
X129883614Y-111595201D01*
X129883612Y-111595201D01*
X129883612Y-111595202D01*
X129780887Y-111654511D01*
X129780884Y-111654513D01*
X129697013Y-111738384D01*
X129697011Y-111738387D01*
X129637701Y-111841114D01*
X129610940Y-111940988D01*
X129610429Y-111942895D01*
X129578335Y-111998482D01*
X128366137Y-113210681D01*
X128304814Y-113244166D01*
X128278456Y-113247000D01*
X120421356Y-113247000D01*
X120332212Y-113270886D01*
X120332211Y-113270886D01*
X120332209Y-113270887D01*
X120332206Y-113270888D01*
X120252294Y-113317026D01*
X120252285Y-113317033D01*
X120050984Y-113518334D01*
X119995398Y-113550427D01*
X119893614Y-113577701D01*
X119893613Y-113577701D01*
X119893611Y-113577702D01*
X119790887Y-113637011D01*
X119790884Y-113637013D01*
X119707013Y-113720884D01*
X119707011Y-113720887D01*
X119699130Y-113734538D01*
X119647701Y-113823614D01*
X119617000Y-113938191D01*
X110458000Y-113938191D01*
X110458000Y-111301734D01*
X116312000Y-111301734D01*
X116312000Y-111453265D01*
X116351219Y-111599636D01*
X116382902Y-111654511D01*
X116426985Y-111730865D01*
X116534135Y-111838015D01*
X116647781Y-111903629D01*
X116648219Y-111903882D01*
X116665365Y-111913781D01*
X116811734Y-111953000D01*
X116811736Y-111953000D01*
X116963264Y-111953000D01*
X116963266Y-111953000D01*
X117109635Y-111913781D01*
X117240865Y-111838015D01*
X117348015Y-111730865D01*
X117423781Y-111599635D01*
X117463000Y-111453266D01*
X117463000Y-111301734D01*
X117423781Y-111155365D01*
X117348015Y-111024135D01*
X117240865Y-110916985D01*
X117175250Y-110879102D01*
X117109636Y-110841219D01*
X117036450Y-110821609D01*
X116963266Y-110802000D01*
X116811734Y-110802000D01*
X116665363Y-110841219D01*
X116534135Y-110916985D01*
X116534132Y-110916987D01*
X116426987Y-111024132D01*
X116426985Y-111024135D01*
X116351219Y-111155363D01*
X116312000Y-111301734D01*
X110458000Y-111301734D01*
X110458000Y-110410691D01*
X120169500Y-110410691D01*
X120169500Y-110529309D01*
X120200201Y-110643886D01*
X120259511Y-110746613D01*
X120343387Y-110830489D01*
X120446114Y-110889799D01*
X120560691Y-110920500D01*
X120560694Y-110920500D01*
X120679306Y-110920500D01*
X120679309Y-110920500D01*
X120793886Y-110889799D01*
X120896613Y-110830489D01*
X120980489Y-110746613D01*
X121039799Y-110643886D01*
X121041187Y-110638704D01*
X121073281Y-110583110D01*
X121522074Y-110134319D01*
X121583397Y-110100834D01*
X121609755Y-110098000D01*
X122730968Y-110098000D01*
X122798007Y-110117685D01*
X122843762Y-110170489D01*
X122853706Y-110239647D01*
X122850743Y-110254094D01*
X122850202Y-110256111D01*
X122850201Y-110256114D01*
X122819500Y-110370691D01*
X122819500Y-110489309D01*
X122850201Y-110603886D01*
X122909511Y-110706613D01*
X122993387Y-110790489D01*
X123096114Y-110849799D01*
X123210691Y-110880500D01*
X123210694Y-110880500D01*
X123329306Y-110880500D01*
X123329309Y-110880500D01*
X123443886Y-110849799D01*
X123546613Y-110790489D01*
X123630489Y-110706613D01*
X123689799Y-110603886D01*
X123720500Y-110489309D01*
X123720500Y-110370691D01*
X123689799Y-110256114D01*
X123689797Y-110256111D01*
X123689257Y-110254094D01*
X123690920Y-110184244D01*
X123730082Y-110126381D01*
X123794311Y-110098877D01*
X123809032Y-110098000D01*
X133550245Y-110098000D01*
X133575818Y-110105509D01*
X133602186Y-110109403D01*
X133611724Y-110116052D01*
X133617284Y-110117685D01*
X133631804Y-110128597D01*
X133634958Y-110131351D01*
X133681587Y-110177980D01*
X133701571Y-110189517D01*
X133710669Y-110197462D01*
X133711946Y-110199466D01*
X133716791Y-110203184D01*
X134034216Y-110520609D01*
X134066308Y-110576191D01*
X134067698Y-110581381D01*
X134067700Y-110581385D01*
X134068695Y-110583108D01*
X134127011Y-110684113D01*
X134210887Y-110767989D01*
X134313614Y-110827299D01*
X134428191Y-110858000D01*
X134428194Y-110858000D01*
X134546806Y-110858000D01*
X134546809Y-110858000D01*
X134661386Y-110827299D01*
X134764113Y-110767989D01*
X134847989Y-110684113D01*
X134907299Y-110581386D01*
X134938000Y-110466809D01*
X134938000Y-110348191D01*
X134907299Y-110233614D01*
X134847989Y-110130887D01*
X134764113Y-110047011D01*
X134704802Y-110012767D01*
X134661385Y-109987700D01*
X134661381Y-109987698D01*
X134656191Y-109986308D01*
X134600609Y-109954216D01*
X134183416Y-109537022D01*
X134173882Y-109531517D01*
X134148210Y-109511817D01*
X134060055Y-109423662D01*
X134060053Y-109423659D01*
X134053415Y-109417021D01*
X134043884Y-109411518D01*
X134018207Y-109391814D01*
X134003415Y-109377022D01*
X134003413Y-109377020D01*
X133946408Y-109344108D01*
X135509500Y-109344108D01*
X135509500Y-109475891D01*
X135543608Y-109603187D01*
X135576554Y-109660250D01*
X135609500Y-109717314D01*
X135702686Y-109810500D01*
X135816814Y-109876392D01*
X135944108Y-109910500D01*
X135944110Y-109910500D01*
X136075890Y-109910500D01*
X136075892Y-109910500D01*
X136203186Y-109876392D01*
X136317314Y-109810500D01*
X136410500Y-109717314D01*
X136476392Y-109603186D01*
X136510500Y-109475892D01*
X136510500Y-109344108D01*
X136476392Y-109216814D01*
X136410500Y-109102686D01*
X136317314Y-109009500D01*
X136260250Y-108976554D01*
X136203187Y-108943608D01*
X136139539Y-108926554D01*
X136075892Y-108909500D01*
X135944108Y-108909500D01*
X135816812Y-108943608D01*
X135702686Y-109009500D01*
X135702683Y-109009502D01*
X135609502Y-109102683D01*
X135609500Y-109102686D01*
X135543608Y-109216812D01*
X135509500Y-109344108D01*
X133946408Y-109344108D01*
X133912089Y-109324293D01*
X133861157Y-109310646D01*
X133810227Y-109297000D01*
X123322727Y-109297000D01*
X121445227Y-109297000D01*
X121339773Y-109297000D01*
X121237910Y-109324293D01*
X121146587Y-109377020D01*
X121146584Y-109377022D01*
X120506888Y-110016717D01*
X120451305Y-110048810D01*
X120446115Y-110050200D01*
X120446114Y-110050201D01*
X120343390Y-110109509D01*
X120343384Y-110109513D01*
X120259513Y-110193384D01*
X120259511Y-110193387D01*
X120232803Y-110239647D01*
X120200201Y-110296114D01*
X120169500Y-110410691D01*
X110458000Y-110410691D01*
X110458000Y-107024108D01*
X135479500Y-107024108D01*
X135479500Y-107155892D01*
X135496554Y-107219539D01*
X135513608Y-107283187D01*
X135536819Y-107323389D01*
X135579500Y-107397314D01*
X135672686Y-107490500D01*
X135786814Y-107556392D01*
X135914108Y-107590500D01*
X135914110Y-107590500D01*
X136045890Y-107590500D01*
X136045892Y-107590500D01*
X136173186Y-107556392D01*
X136287314Y-107490500D01*
X136380500Y-107397314D01*
X136446392Y-107283186D01*
X136480500Y-107155892D01*
X136480500Y-107024108D01*
X136446392Y-106896814D01*
X136380500Y-106782686D01*
X136287314Y-106689500D01*
X136230250Y-106656554D01*
X136173187Y-106623608D01*
X136109539Y-106606554D01*
X136045892Y-106589500D01*
X135914108Y-106589500D01*
X135786812Y-106623608D01*
X135672686Y-106689500D01*
X135672683Y-106689502D01*
X135579502Y-106782683D01*
X135579500Y-106782686D01*
X135513608Y-106896812D01*
X135479500Y-107024108D01*
X110458000Y-107024108D01*
X110458000Y-103784108D01*
X135509500Y-103784108D01*
X135509500Y-103915891D01*
X135543608Y-104043187D01*
X135562907Y-104076613D01*
X135609500Y-104157314D01*
X135702686Y-104250500D01*
X135816814Y-104316392D01*
X135944108Y-104350500D01*
X135944110Y-104350500D01*
X136075890Y-104350500D01*
X136075892Y-104350500D01*
X136203186Y-104316392D01*
X136317314Y-104250500D01*
X136410500Y-104157314D01*
X136476392Y-104043186D01*
X136510500Y-103915892D01*
X136510500Y-103784108D01*
X136476392Y-103656814D01*
X136475581Y-103655410D01*
X136458666Y-103626112D01*
X136410500Y-103542686D01*
X136317314Y-103449500D01*
X136260250Y-103416554D01*
X136203187Y-103383608D01*
X136139539Y-103366554D01*
X136075892Y-103349500D01*
X135944108Y-103349500D01*
X135816812Y-103383608D01*
X135702686Y-103449500D01*
X135702683Y-103449502D01*
X135609502Y-103542683D01*
X135609500Y-103542686D01*
X135543608Y-103656812D01*
X135509500Y-103784108D01*
X110458000Y-103784108D01*
X110458000Y-100074108D01*
X135449500Y-100074108D01*
X135449500Y-100205892D01*
X135466554Y-100269539D01*
X135483608Y-100333187D01*
X135516554Y-100390250D01*
X135549500Y-100447314D01*
X135642686Y-100540500D01*
X135756814Y-100606392D01*
X135884108Y-100640500D01*
X135884110Y-100640500D01*
X136015890Y-100640500D01*
X136015892Y-100640500D01*
X136143186Y-100606392D01*
X136257314Y-100540500D01*
X136350500Y-100447314D01*
X136416392Y-100333186D01*
X136450500Y-100205892D01*
X136450500Y-100074108D01*
X136416392Y-99946814D01*
X136350500Y-99832686D01*
X136257314Y-99739500D01*
X136200250Y-99706554D01*
X136143187Y-99673608D01*
X136079539Y-99656554D01*
X136015892Y-99639500D01*
X135884108Y-99639500D01*
X135756812Y-99673608D01*
X135642686Y-99739500D01*
X135642683Y-99739502D01*
X135549502Y-99832683D01*
X135549500Y-99832686D01*
X135483608Y-99946812D01*
X135474587Y-99980480D01*
X135449500Y-100074108D01*
X110458000Y-100074108D01*
X110458000Y-83522000D01*
X110477685Y-83454961D01*
X110530489Y-83409206D01*
X110582000Y-83398000D01*
X124163500Y-83398000D01*
X124230539Y-83417685D01*
G37*
%TD.AperFunction*%
%TA.AperFunction,Conductor*%
G36*
X147714883Y-103176462D02*
G01*
X147767273Y-103190500D01*
X147767276Y-103190500D01*
X148458745Y-103190500D01*
X148525784Y-103210185D01*
X148571539Y-103262989D01*
X148581483Y-103332147D01*
X148552458Y-103395703D01*
X148546426Y-103402181D01*
X138163776Y-113784830D01*
X138159562Y-113787130D01*
X138156953Y-113791159D01*
X138129190Y-113803715D01*
X138102453Y-113818315D01*
X138097666Y-113817972D01*
X138093292Y-113819951D01*
X138063148Y-113815504D01*
X138032761Y-113813331D01*
X138028918Y-113810454D01*
X138024170Y-113809754D01*
X138001215Y-113789715D01*
X137976828Y-113771459D01*
X137975150Y-113766962D01*
X137971534Y-113763805D01*
X137963057Y-113734538D01*
X137952411Y-113705995D01*
X137953063Y-113700032D01*
X137952096Y-113696694D01*
X137955019Y-113682143D01*
X137957247Y-113661778D01*
X137959379Y-113654612D01*
X137959799Y-113653886D01*
X137961633Y-113647040D01*
X137962116Y-113645418D01*
X137971008Y-113631691D01*
X137993281Y-113593110D01*
X144404071Y-107182322D01*
X144456798Y-107090997D01*
X144484091Y-106989136D01*
X144484091Y-106883682D01*
X144484091Y-106473664D01*
X144503776Y-106406625D01*
X144520410Y-106385983D01*
X145069382Y-105837011D01*
X145640480Y-105265913D01*
X145693206Y-105174588D01*
X145693207Y-105174587D01*
X145705838Y-105127443D01*
X145707832Y-105122059D01*
X145725403Y-105098463D01*
X145740711Y-105073350D01*
X145746433Y-105070225D01*
X145749564Y-105066022D01*
X145764215Y-105060515D01*
X145792025Y-105045329D01*
X145874588Y-105023207D01*
X145965913Y-104970480D01*
X146040480Y-104895913D01*
X146490480Y-104445913D01*
X146543207Y-104354588D01*
X146543208Y-104354585D01*
X146543793Y-104352404D01*
X146544789Y-104350769D01*
X146546318Y-104347079D01*
X146546893Y-104347317D01*
X146580159Y-104292744D01*
X146643006Y-104262216D01*
X146663567Y-104260500D01*
X146702725Y-104260500D01*
X146702727Y-104260500D01*
X146804588Y-104233207D01*
X146895913Y-104180480D01*
X147347052Y-103729338D01*
X147372723Y-103709641D01*
X147405913Y-103690480D01*
X147480480Y-103615913D01*
X147533207Y-103524587D01*
X147560500Y-103422727D01*
X147560500Y-103317273D01*
X147560499Y-103317272D01*
X147559862Y-103312431D01*
X147570624Y-103243395D01*
X147617001Y-103191137D01*
X147684268Y-103172248D01*
X147714883Y-103176462D01*
G37*
%TD.AperFunction*%
%TA.AperFunction,Conductor*%
G36*
X129681074Y-86527185D02*
G01*
X129701716Y-86543819D01*
X138030787Y-94872890D01*
X138064272Y-94934213D01*
X138059288Y-95003905D01*
X138017416Y-95059838D01*
X137951952Y-95084255D01*
X137911013Y-95080346D01*
X137851625Y-95064433D01*
X137795892Y-95049500D01*
X137664108Y-95049500D01*
X137536812Y-95083608D01*
X137422686Y-95149500D01*
X137422683Y-95149502D01*
X137329502Y-95242683D01*
X137329500Y-95242686D01*
X137263608Y-95356812D01*
X137229500Y-95484108D01*
X137229500Y-95615891D01*
X137263608Y-95743187D01*
X137290347Y-95789500D01*
X137329500Y-95857314D01*
X137422686Y-95950500D01*
X137536814Y-96016392D01*
X137664108Y-96050500D01*
X137664110Y-96050500D01*
X137795890Y-96050500D01*
X137795892Y-96050500D01*
X137923186Y-96016392D01*
X138037314Y-95950500D01*
X138130500Y-95857314D01*
X138196392Y-95743186D01*
X138230500Y-95615892D01*
X138230500Y-95484108D01*
X138199653Y-95368984D01*
X138201316Y-95299136D01*
X138240479Y-95241274D01*
X138304707Y-95213770D01*
X138373609Y-95225357D01*
X138407109Y-95249212D01*
X143615886Y-100457989D01*
X143698373Y-100505613D01*
X143746588Y-100556181D01*
X143759810Y-100624788D01*
X143733842Y-100689652D01*
X143676928Y-100730180D01*
X143636372Y-100737000D01*
X140265415Y-100737000D01*
X140198376Y-100717315D01*
X140177734Y-100700681D01*
X137303079Y-97826026D01*
X137269594Y-97764703D01*
X137274578Y-97695011D01*
X137316450Y-97639078D01*
X137381914Y-97614661D01*
X137450187Y-97629513D01*
X137452760Y-97630958D01*
X137496810Y-97656390D01*
X137496811Y-97656390D01*
X137496814Y-97656392D01*
X137624108Y-97690500D01*
X137624110Y-97690500D01*
X137755890Y-97690500D01*
X137755892Y-97690500D01*
X137883186Y-97656392D01*
X137997314Y-97590500D01*
X138090500Y-97497314D01*
X138156392Y-97383186D01*
X138190500Y-97255892D01*
X138190500Y-97124108D01*
X138156392Y-96996814D01*
X138090500Y-96882686D01*
X137997314Y-96789500D01*
X137940250Y-96756554D01*
X137883187Y-96723608D01*
X137819539Y-96706554D01*
X137755892Y-96689500D01*
X137624108Y-96689500D01*
X137496812Y-96723608D01*
X137382686Y-96789500D01*
X137382683Y-96789502D01*
X137289502Y-96882683D01*
X137289500Y-96882686D01*
X137223608Y-96996812D01*
X137189500Y-97124108D01*
X137189500Y-97255891D01*
X137223609Y-97383188D01*
X137223609Y-97383189D01*
X137249041Y-97427238D01*
X137265514Y-97495138D01*
X137242662Y-97561165D01*
X137187740Y-97604356D01*
X137118187Y-97610997D01*
X137056084Y-97578981D01*
X137053973Y-97576919D01*
X136280561Y-96803507D01*
X136247076Y-96742184D01*
X136252060Y-96672492D01*
X136293932Y-96616559D01*
X136306232Y-96608445D01*
X136337314Y-96590500D01*
X136430500Y-96497314D01*
X136496392Y-96383186D01*
X136530500Y-96255892D01*
X136530500Y-96124108D01*
X136496392Y-95996814D01*
X136430500Y-95882686D01*
X136337314Y-95789500D01*
X136257096Y-95743186D01*
X136223187Y-95723608D01*
X136152870Y-95704767D01*
X136095892Y-95689500D01*
X135964108Y-95689500D01*
X135836812Y-95723608D01*
X135722686Y-95789500D01*
X135722683Y-95789502D01*
X135629502Y-95882683D01*
X135629500Y-95882686D01*
X135563608Y-95996812D01*
X135529500Y-96124108D01*
X135529500Y-96255891D01*
X135532877Y-96268494D01*
X135531214Y-96338344D01*
X135492051Y-96396206D01*
X135427823Y-96423710D01*
X135358920Y-96412123D01*
X135325421Y-96388268D01*
X133831261Y-94894108D01*
X135119500Y-94894108D01*
X135119500Y-95025892D01*
X135142170Y-95110499D01*
X135153608Y-95153187D01*
X135172908Y-95186615D01*
X135219500Y-95267314D01*
X135312686Y-95360500D01*
X135426814Y-95426392D01*
X135554108Y-95460500D01*
X135554110Y-95460500D01*
X135685890Y-95460500D01*
X135685892Y-95460500D01*
X135813186Y-95426392D01*
X135927314Y-95360500D01*
X136020500Y-95267314D01*
X136086392Y-95153186D01*
X136120500Y-95025892D01*
X136120500Y-94894108D01*
X136086392Y-94766814D01*
X136020500Y-94652686D01*
X135927314Y-94559500D01*
X135831579Y-94504227D01*
X135813187Y-94493608D01*
X135723832Y-94469666D01*
X135685892Y-94459500D01*
X135554108Y-94459500D01*
X135426812Y-94493608D01*
X135312686Y-94559500D01*
X135312683Y-94559502D01*
X135219502Y-94652683D01*
X135219500Y-94652686D01*
X135153608Y-94766812D01*
X135124188Y-94876613D01*
X135119500Y-94894108D01*
X133831261Y-94894108D01*
X133406819Y-94469666D01*
X133373334Y-94408343D01*
X133370500Y-94381985D01*
X133370500Y-91605693D01*
X133370500Y-91605691D01*
X133346820Y-91517314D01*
X133344991Y-91510488D01*
X133344991Y-91510487D01*
X133339799Y-91491114D01*
X133339799Y-91491113D01*
X133320284Y-91457313D01*
X133280489Y-91388386D01*
X128611284Y-86719181D01*
X128577799Y-86657858D01*
X128582783Y-86588166D01*
X128624655Y-86532233D01*
X128690119Y-86507816D01*
X128698965Y-86507500D01*
X129614035Y-86507500D01*
X129681074Y-86527185D01*
G37*
%TD.AperFunction*%
%TD*%
M02*
