%TF.GenerationSoftware,KiCad,Pcbnew,10.0.1-10.0.1~ubuntu25.10.1*%
%TF.CreationDate,2026-05-29T00:15:14+00:00*%
%TF.ProjectId,esp32s3-devkit,65737033-3273-4332-9d64-65766b69742e,rev?*%
%TF.SameCoordinates,Original*%
%TF.FileFunction,Drillmap*%
%TF.FilePolarity,Positive*%
%FSLAX45Y45*%
G04 Gerber Fmt 4.5, Leading zero omitted, Abs format (unit mm)*
G04 Created by KiCad (PCBNEW 10.0.1-10.0.1~ubuntu25.10.1) date 2026-05-29 00:15:14*
%MOMM*%
%LPD*%
G01*
G04 APERTURE LIST*
%ADD10C,0.050000*%
%ADD11C,0.200000*%
%ADD12C,0.100000*%
G04 APERTURE END LIST*
D10*
X10995750Y-8289750D02*
X16929750Y-8289750D01*
X16929750Y-12091750D01*
X10995750Y-12091750D01*
X10995750Y-8289750D01*
D11*
D12*
X15866750Y-9960000D02*
X15886750Y-9980000D01*
X15886750Y-9960000D02*
X15866750Y-9980000D01*
X15866750Y-10100000D02*
X15886750Y-10120000D01*
X15886750Y-10100000D02*
X15866750Y-10120000D01*
X15936750Y-9890000D02*
X15956750Y-9910000D01*
X15956750Y-9890000D02*
X15936750Y-9910000D01*
X15936750Y-10030000D02*
X15956750Y-10050000D01*
X15956750Y-10030000D02*
X15936750Y-10050000D01*
X15936750Y-10170000D02*
X15956750Y-10190000D01*
X15956750Y-10170000D02*
X15936750Y-10190000D01*
X16006750Y-9960000D02*
X16026750Y-9980000D01*
X16026750Y-9960000D02*
X16006750Y-9980000D01*
X16006750Y-10100000D02*
X16026750Y-10120000D01*
X16026750Y-10100000D02*
X16006750Y-10120000D01*
X16076750Y-9890000D02*
X16096750Y-9910000D01*
X16096750Y-9890000D02*
X16076750Y-9910000D01*
X16076750Y-10030000D02*
X16096750Y-10050000D01*
X16096750Y-10030000D02*
X16076750Y-10050000D01*
X16076750Y-10170000D02*
X16096750Y-10190000D01*
X16096750Y-10170000D02*
X16076750Y-10190000D01*
X16146750Y-9960000D02*
X16166750Y-9980000D01*
X16166750Y-9960000D02*
X16146750Y-9980000D01*
X16146750Y-10100000D02*
X16166750Y-10120000D01*
X16166750Y-10100000D02*
X16146750Y-10120000D01*
X12274020Y-9521480D02*
G75*
G02*
X12249020Y-9521480I-12500J0D01*
G01*
X12249020Y-9521480D02*
G75*
G02*
X12274020Y-9521480I12500J0D01*
G01*
X12324250Y-9496750D02*
G75*
G02*
X12299250Y-9496750I-12500J0D01*
G01*
X12299250Y-9496750D02*
G75*
G02*
X12324250Y-9496750I12500J0D01*
G01*
X12373250Y-9519750D02*
G75*
G02*
X12348250Y-9519750I-12500J0D01*
G01*
X12348250Y-9519750D02*
G75*
G02*
X12373250Y-9519750I12500J0D01*
G01*
X14849500Y-9314000D02*
G75*
G02*
X14824500Y-9314000I-12500J0D01*
G01*
X14824500Y-9314000D02*
G75*
G02*
X14849500Y-9314000I12500J0D01*
G01*
X16568500Y-9138000D02*
G75*
G02*
X16543500Y-9138000I-12500J0D01*
G01*
X16543500Y-9138000D02*
G75*
G02*
X16568500Y-9138000I12500J0D01*
G01*
X11259750Y-8679750D02*
X11259750Y-8709750D01*
X11244750Y-8694750D02*
X11274750Y-8694750D01*
X11581000Y-8688000D02*
X11581000Y-8718000D01*
X11566000Y-8703000D02*
X11596000Y-8703000D01*
X11582000Y-8844000D02*
X11582000Y-8874000D01*
X11567000Y-8859000D02*
X11597000Y-8859000D01*
X11582000Y-9028000D02*
X11582000Y-9058000D01*
X11567000Y-9043000D02*
X11597000Y-9043000D01*
X11582000Y-9181000D02*
X11582000Y-9211000D01*
X11567000Y-9196000D02*
X11597000Y-9196000D01*
X11864000Y-8688000D02*
X11864000Y-8718000D01*
X11849000Y-8703000D02*
X11879000Y-8703000D01*
X12006750Y-11384750D02*
X12006750Y-11414750D01*
X11991750Y-11399750D02*
X12021750Y-11399750D01*
X12007000Y-11846000D02*
X12007000Y-11876000D01*
X11992000Y-11861000D02*
X12022000Y-11861000D01*
X12011750Y-11484750D02*
X12011750Y-11514750D01*
X11996750Y-11499750D02*
X12026750Y-11499750D01*
X12012000Y-10937000D02*
X12012000Y-10967000D01*
X11997000Y-10952000D02*
X12027000Y-10952000D01*
X12062000Y-11032000D02*
X12062000Y-11062000D01*
X12047000Y-11047000D02*
X12077000Y-11047000D01*
X12104000Y-9823000D02*
X12104000Y-9853000D01*
X12089000Y-9838000D02*
X12119000Y-9838000D01*
X12129000Y-8688000D02*
X12129000Y-8718000D01*
X12114000Y-8703000D02*
X12144000Y-8703000D01*
X12218000Y-11189000D02*
X12218000Y-11219000D01*
X12203000Y-11204000D02*
X12233000Y-11204000D01*
X12228750Y-11614750D02*
X12228750Y-11644750D01*
X12213750Y-11629750D02*
X12243750Y-11629750D01*
X12257000Y-9739000D02*
X12257000Y-9769000D01*
X12242000Y-9754000D02*
X12272000Y-9754000D01*
X12327000Y-11028000D02*
X12327000Y-11058000D01*
X12312000Y-11043000D02*
X12342000Y-11043000D01*
X12353000Y-8688000D02*
X12353000Y-8718000D01*
X12338000Y-8703000D02*
X12368000Y-8703000D01*
X12376000Y-9738000D02*
X12376000Y-9768000D01*
X12361000Y-9753000D02*
X12391000Y-9753000D01*
X12563750Y-11186750D02*
X12563750Y-11216750D01*
X12548750Y-11201750D02*
X12578750Y-11201750D01*
X12597000Y-8688000D02*
X12597000Y-8718000D01*
X12582000Y-8703000D02*
X12612000Y-8703000D01*
X12956000Y-8688000D02*
X12956000Y-8718000D01*
X12941000Y-8703000D02*
X12971000Y-8703000D01*
X13005750Y-11186500D02*
X13005750Y-11216500D01*
X12990750Y-11201500D02*
X13020750Y-11201500D01*
X13005750Y-11375750D02*
X13005750Y-11405750D01*
X12990750Y-11390750D02*
X13020750Y-11390750D01*
X13031750Y-11283750D02*
X13031750Y-11313750D01*
X13016750Y-11298750D02*
X13046750Y-11298750D01*
X13301000Y-11536000D02*
X13301000Y-11566000D01*
X13286000Y-11551000D02*
X13316000Y-11551000D01*
X13429000Y-8712000D02*
X13429000Y-8742000D01*
X13414000Y-8727000D02*
X13444000Y-8727000D01*
X13448750Y-11025750D02*
X13448750Y-11055750D01*
X13433750Y-11040750D02*
X13463750Y-11040750D01*
X13451000Y-9170000D02*
X13451000Y-9200000D01*
X13436000Y-9185000D02*
X13466000Y-9185000D01*
X13536750Y-11154750D02*
X13536750Y-11184750D01*
X13521750Y-11169750D02*
X13551750Y-11169750D01*
X13728000Y-11202000D02*
X13728000Y-11232000D01*
X13713000Y-11217000D02*
X13743000Y-11217000D01*
X13754000Y-11333000D02*
X13754000Y-11363000D01*
X13739000Y-11348000D02*
X13769000Y-11348000D01*
X14192000Y-11200000D02*
X14192000Y-11230000D01*
X14177000Y-11215000D02*
X14207000Y-11215000D01*
X14400000Y-11214000D02*
X14400000Y-11244000D01*
X14385000Y-11229000D02*
X14415000Y-11229000D01*
X14645000Y-11228000D02*
X14645000Y-11258000D01*
X14630000Y-11243000D02*
X14660000Y-11243000D01*
X14791000Y-10112000D02*
X14791000Y-10142000D01*
X14776000Y-10127000D02*
X14806000Y-10127000D01*
X14867000Y-11228000D02*
X14867000Y-11258000D01*
X14852000Y-11243000D02*
X14882000Y-11243000D01*
X14875000Y-9476000D02*
X14875000Y-9506000D01*
X14860000Y-9491000D02*
X14890000Y-9491000D01*
X14878000Y-9985000D02*
X14878000Y-10015000D01*
X14863000Y-10000000D02*
X14893000Y-10000000D01*
X14879000Y-9858000D02*
X14879000Y-9888000D01*
X14864000Y-9873000D02*
X14894000Y-9873000D01*
X15092000Y-11237000D02*
X15092000Y-11267000D01*
X15077000Y-11252000D02*
X15107000Y-11252000D01*
X15137000Y-9603000D02*
X15137000Y-9633000D01*
X15122000Y-9618000D02*
X15152000Y-9618000D01*
X15143750Y-9475750D02*
X15143750Y-9505750D01*
X15128750Y-9490750D02*
X15158750Y-9490750D01*
X15145000Y-9731000D02*
X15145000Y-9761000D01*
X15130000Y-9746000D02*
X15160000Y-9746000D01*
X15158000Y-10365000D02*
X15158000Y-10395000D01*
X15143000Y-10380000D02*
X15173000Y-10380000D01*
X15159000Y-10239000D02*
X15159000Y-10269000D01*
X15144000Y-10254000D02*
X15174000Y-10254000D01*
X15161000Y-10491000D02*
X15161000Y-10521000D01*
X15146000Y-10506000D02*
X15176000Y-10506000D01*
X15166000Y-10621000D02*
X15166000Y-10651000D01*
X15151000Y-10636000D02*
X15181000Y-10636000D01*
X15168000Y-10745000D02*
X15168000Y-10775000D01*
X15153000Y-10760000D02*
X15183000Y-10760000D01*
X15171000Y-10873000D02*
X15171000Y-10903000D01*
X15156000Y-10888000D02*
X15186000Y-10888000D01*
X15262750Y-9473750D02*
X15262750Y-9503750D01*
X15247750Y-9488750D02*
X15277750Y-9488750D01*
X15391000Y-9447000D02*
X15391000Y-9477000D01*
X15376000Y-9462000D02*
X15406000Y-9462000D01*
X15519000Y-9445000D02*
X15519000Y-9475000D01*
X15504000Y-9460000D02*
X15534000Y-9460000D01*
X15646000Y-9441000D02*
X15646000Y-9471000D01*
X15631000Y-9456000D02*
X15661000Y-9456000D01*
X15774000Y-9437000D02*
X15774000Y-9467000D01*
X15759000Y-9452000D02*
X15789000Y-9452000D01*
X15901000Y-9435000D02*
X15901000Y-9465000D01*
X15886000Y-9450000D02*
X15916000Y-9450000D01*
X16027000Y-9439000D02*
X16027000Y-9469000D01*
X16012000Y-9454000D02*
X16042000Y-9454000D01*
X16154000Y-9447000D02*
X16154000Y-9477000D01*
X16139000Y-9462000D02*
X16169000Y-9462000D01*
X16280000Y-9449000D02*
X16280000Y-9479000D01*
X16265000Y-9464000D02*
X16295000Y-9464000D01*
X16361000Y-9044000D02*
X16361000Y-9074000D01*
X16346000Y-9059000D02*
X16376000Y-9059000D01*
X16407000Y-9451000D02*
X16407000Y-9481000D01*
X16392000Y-9466000D02*
X16422000Y-9466000D01*
X16724750Y-8837750D02*
X16724750Y-8867750D01*
X16709750Y-8852750D02*
X16739750Y-8852750D01*
X16787000Y-9442000D02*
X16787000Y-9472000D01*
X16772000Y-9457000D02*
X16802000Y-9457000D01*
X16789000Y-11196000D02*
X16789000Y-11226000D01*
X16774000Y-11211000D02*
X16804000Y-11211000D01*
X16804750Y-8836750D02*
X16804750Y-8866750D01*
X16789750Y-8851750D02*
X16819750Y-8851750D01*
X16826750Y-9135750D02*
X16826750Y-9165750D01*
X16811750Y-9150750D02*
X16841750Y-9150750D01*
X11632142Y-9356142D02*
X11632142Y-9327858D01*
X11603858Y-9327858D01*
X11603858Y-9356142D01*
X11632142Y-9356142D01*
X11720142Y-9357142D02*
X11720142Y-9328858D01*
X11691858Y-9328858D01*
X11691858Y-9357142D01*
X11720142Y-9357142D01*
X11854142Y-9355142D02*
X11854142Y-9326858D01*
X11825858Y-9326858D01*
X11825858Y-9355142D01*
X11854142Y-9355142D01*
X11942142Y-9356142D02*
X11942142Y-9327858D01*
X11913858Y-9327858D01*
X11913858Y-9356142D01*
X11942142Y-9356142D01*
X12041142Y-9507142D02*
X12041142Y-9478858D01*
X12012858Y-9478858D01*
X12012858Y-9507142D01*
X12041142Y-9507142D01*
X12471142Y-10064142D02*
X12471142Y-10035858D01*
X12442858Y-10035858D01*
X12442858Y-10064142D01*
X12471142Y-10064142D01*
X12473142Y-9924142D02*
X12473142Y-9895858D01*
X12444858Y-9895858D01*
X12444858Y-9924142D01*
X12473142Y-9924142D01*
X12582142Y-10054142D02*
X12582142Y-10025858D01*
X12553858Y-10025858D01*
X12553858Y-10054142D01*
X12582142Y-10054142D01*
X12608142Y-9510142D02*
X12608142Y-9481858D01*
X12579858Y-9481858D01*
X12579858Y-9510142D01*
X12608142Y-9510142D01*
X12710142Y-9358142D02*
X12710142Y-9329858D01*
X12681858Y-9329858D01*
X12681858Y-9358142D01*
X12710142Y-9358142D01*
X12798142Y-9359142D02*
X12798142Y-9330858D01*
X12769858Y-9330858D01*
X12769858Y-9359142D01*
X12798142Y-9359142D01*
X12931142Y-9358142D02*
X12931142Y-9329858D01*
X12902858Y-9329858D01*
X12902858Y-9358142D01*
X12931142Y-9358142D01*
X13019142Y-9359142D02*
X13019142Y-9330858D01*
X12990858Y-9330858D01*
X12990858Y-9359142D01*
X13019142Y-9359142D01*
X13148142Y-9355142D02*
X13148142Y-9326858D01*
X13119858Y-9326858D01*
X13119858Y-9355142D01*
X13148142Y-9355142D01*
X13236142Y-9356142D02*
X13236142Y-9327858D01*
X13207858Y-9327858D01*
X13207858Y-9356142D01*
X13236142Y-9356142D01*
X13377142Y-9361142D02*
X13377142Y-9332858D01*
X13348858Y-9332858D01*
X13348858Y-9361142D01*
X13377142Y-9361142D01*
X13465142Y-9362142D02*
X13465142Y-9333858D01*
X13436858Y-9333858D01*
X13436858Y-9362142D01*
X13465142Y-9362142D01*
X13575142Y-9814142D02*
X13575142Y-9785858D01*
X13546858Y-9785858D01*
X13546858Y-9814142D01*
X13575142Y-9814142D01*
X13576142Y-9510142D02*
X13576142Y-9481858D01*
X13547858Y-9481858D01*
X13547858Y-9510142D01*
X13576142Y-9510142D01*
X13582142Y-8882142D02*
X13582142Y-8853858D01*
X13553858Y-8853858D01*
X13553858Y-8882142D01*
X13582142Y-8882142D01*
X13609142Y-10028142D02*
X13609142Y-9999858D01*
X13580858Y-9999858D01*
X13580858Y-10028142D01*
X13609142Y-10028142D01*
X13612142Y-10723142D02*
X13612142Y-10694858D01*
X13583858Y-10694858D01*
X13583858Y-10723142D01*
X13612142Y-10723142D01*
X13615142Y-10399142D02*
X13615142Y-10370858D01*
X13586858Y-10370858D01*
X13586858Y-10399142D01*
X13615142Y-10399142D01*
X13615142Y-10955142D02*
X13615142Y-10926858D01*
X13586858Y-10926858D01*
X13586858Y-10955142D01*
X13615142Y-10955142D01*
X13617142Y-9633142D02*
X13617142Y-9604858D01*
X13588858Y-9604858D01*
X13588858Y-9633142D01*
X13617142Y-9633142D01*
X13783142Y-9733142D02*
X13783142Y-9704858D01*
X13754858Y-9704858D01*
X13754858Y-9733142D01*
X13783142Y-9733142D01*
X13787142Y-9569142D02*
X13787142Y-9540858D01*
X13758858Y-9540858D01*
X13758858Y-9569142D01*
X13787142Y-9569142D01*
X13831142Y-8755142D02*
X13831142Y-8726858D01*
X13802858Y-8726858D01*
X13802858Y-8755142D01*
X13831142Y-8755142D01*
X13975892Y-10545892D02*
X13975892Y-10517608D01*
X13947608Y-10517608D01*
X13947608Y-10545892D01*
X13975892Y-10545892D01*
X13978892Y-9878892D02*
X13978892Y-9850608D01*
X13950608Y-9850608D01*
X13950608Y-9878892D01*
X13978892Y-9878892D01*
X14021142Y-8982142D02*
X14021142Y-8953858D01*
X13992858Y-8953858D01*
X13992858Y-8982142D01*
X14021142Y-8982142D01*
X14239142Y-8755142D02*
X14239142Y-8726858D01*
X14210858Y-8726858D01*
X14210858Y-8755142D01*
X14239142Y-8755142D01*
X14321142Y-9135142D02*
X14321142Y-9106858D01*
X14292858Y-9106858D01*
X14292858Y-9135142D01*
X14321142Y-9135142D01*
X14489892Y-10202892D02*
X14489892Y-10174608D01*
X14461608Y-10174608D01*
X14461608Y-10202892D01*
X14489892Y-10202892D01*
X14557142Y-8755142D02*
X14557142Y-8726858D01*
X14528858Y-8726858D01*
X14528858Y-8755142D01*
X14557142Y-8755142D01*
X14607892Y-9888892D02*
X14607892Y-9860608D01*
X14579608Y-9860608D01*
X14579608Y-9888892D01*
X14607892Y-9888892D01*
X14609892Y-10547892D02*
X14609892Y-10519608D01*
X14581608Y-10519608D01*
X14581608Y-10547892D01*
X14609892Y-10547892D01*
X14791142Y-8757142D02*
X14791142Y-8728858D01*
X14762858Y-8728858D01*
X14762858Y-8757142D01*
X14791142Y-8757142D01*
X14798142Y-9136142D02*
X14798142Y-9107858D01*
X14769858Y-9107858D01*
X14769858Y-9136142D01*
X14798142Y-9136142D01*
X15045142Y-8749142D02*
X15045142Y-8720858D01*
X15016858Y-8720858D01*
X15016858Y-8749142D01*
X15045142Y-8749142D01*
X15293142Y-8746142D02*
X15293142Y-8717858D01*
X15264858Y-8717858D01*
X15264858Y-8746142D01*
X15293142Y-8746142D01*
X15530142Y-9039142D02*
X15530142Y-9010858D01*
X15501858Y-9010858D01*
X15501858Y-9039142D01*
X15530142Y-9039142D01*
X15551142Y-8739142D02*
X15551142Y-8710858D01*
X15522858Y-8710858D01*
X15522858Y-8739142D01*
X15551142Y-8739142D01*
X15798142Y-9129142D02*
X15798142Y-9100858D01*
X15769858Y-9100858D01*
X15769858Y-9129142D01*
X15798142Y-9129142D01*
X15802142Y-8739142D02*
X15802142Y-8710858D01*
X15773858Y-8710858D01*
X15773858Y-8739142D01*
X15802142Y-8739142D01*
X16037142Y-9127142D02*
X16037142Y-9098858D01*
X16008858Y-9098858D01*
X16008858Y-9127142D01*
X16037142Y-9127142D01*
X16061142Y-8733142D02*
X16061142Y-8704858D01*
X16032858Y-8704858D01*
X16032858Y-8733142D01*
X16061142Y-8733142D01*
X16367142Y-8735142D02*
X16367142Y-8706858D01*
X16338858Y-8706858D01*
X16338858Y-8735142D01*
X16367142Y-8735142D01*
X16371142Y-8842142D02*
X16371142Y-8813858D01*
X16342858Y-8813858D01*
X16342858Y-8842142D01*
X16371142Y-8842142D01*
X16372142Y-8944142D02*
X16372142Y-8915858D01*
X16343858Y-8915858D01*
X16343858Y-8944142D01*
X16372142Y-8944142D01*
X16456142Y-8911142D02*
X16456142Y-8882858D01*
X16427858Y-8882858D01*
X16427858Y-8911142D01*
X16456142Y-8911142D01*
X16463142Y-8749142D02*
X16463142Y-8720858D01*
X16434858Y-8720858D01*
X16434858Y-8749142D01*
X16463142Y-8749142D01*
X16464142Y-8831142D02*
X16464142Y-8802858D01*
X16435858Y-8802858D01*
X16435858Y-8831142D01*
X16464142Y-8831142D01*
X16547142Y-8785142D02*
X16547142Y-8756858D01*
X16518858Y-8756858D01*
X16518858Y-8785142D01*
X16547142Y-8785142D01*
X16584142Y-8863142D02*
X16584142Y-8834858D01*
X16555858Y-8834858D01*
X16555858Y-8863142D01*
X16584142Y-8863142D01*
X11323750Y-11024750D02*
X11353750Y-10994750D01*
X11323750Y-10964750D01*
X11293750Y-10994750D01*
X11323750Y-11024750D01*
X11353750Y-10964750D02*
X11293750Y-10964750D01*
X11293750Y-11024750D02*
G75*
G02*
X11293750Y-10964750I0J30000D01*
G01*
X11293750Y-11024750D02*
X11353750Y-11024750D01*
X11353750Y-11024750D02*
G75*
G03*
X11353750Y-10964750I0J30000D01*
G01*
X11323750Y-11888750D02*
X11353750Y-11858750D01*
X11323750Y-11828750D01*
X11293750Y-11858750D01*
X11323750Y-11888750D01*
X11353750Y-11828750D02*
X11293750Y-11828750D01*
X11293750Y-11888750D02*
G75*
G02*
X11293750Y-11828750I0J30000D01*
G01*
X11293750Y-11888750D02*
X11353750Y-11888750D01*
X11353750Y-11888750D02*
G75*
G03*
X11353750Y-11828750I0J30000D01*
G01*
X11741750Y-11024750D02*
X11771750Y-10994750D01*
X11741750Y-10964750D01*
X11711750Y-10994750D01*
X11741750Y-11024750D01*
X11796750Y-10964750D02*
X11686750Y-10964750D01*
X11686750Y-11024750D02*
G75*
G02*
X11686750Y-10964750I0J30000D01*
G01*
X11686750Y-11024750D02*
X11796750Y-11024750D01*
X11796750Y-11024750D02*
G75*
G03*
X11796750Y-10964750I0J30000D01*
G01*
X11741750Y-11888750D02*
X11771750Y-11858750D01*
X11741750Y-11828750D01*
X11711750Y-11858750D01*
X11741750Y-11888750D01*
X11796750Y-11828750D02*
X11686750Y-11828750D01*
X11686750Y-11888750D02*
G75*
G02*
X11686750Y-11828750I0J30000D01*
G01*
X11686750Y-11888750D02*
X11796750Y-11888750D01*
X11796750Y-11888750D02*
G75*
G03*
X11796750Y-11828750I0J30000D01*
G01*
X12547500Y-8422000D02*
X12647500Y-8522000D01*
X12647500Y-8422000D02*
X12547500Y-8522000D01*
X12647500Y-8472000D02*
G75*
G02*
X12547500Y-8472000I-50000J0D01*
G01*
X12547500Y-8472000D02*
G75*
G02*
X12647500Y-8472000I50000J0D01*
G01*
X12547500Y-11859000D02*
X12647500Y-11959000D01*
X12647500Y-11859000D02*
X12547500Y-11959000D01*
X12647500Y-11909000D02*
G75*
G02*
X12547500Y-11909000I-50000J0D01*
G01*
X12547500Y-11909000D02*
G75*
G02*
X12647500Y-11909000I50000J0D01*
G01*
X12801500Y-8422000D02*
X12901500Y-8522000D01*
X12901500Y-8422000D02*
X12801500Y-8522000D01*
X12901500Y-8472000D02*
G75*
G02*
X12801500Y-8472000I-50000J0D01*
G01*
X12801500Y-8472000D02*
G75*
G02*
X12901500Y-8472000I50000J0D01*
G01*
X12801500Y-11859000D02*
X12901500Y-11959000D01*
X12901500Y-11859000D02*
X12801500Y-11959000D01*
X12901500Y-11909000D02*
G75*
G02*
X12801500Y-11909000I-50000J0D01*
G01*
X12801500Y-11909000D02*
G75*
G02*
X12901500Y-11909000I50000J0D01*
G01*
X13055500Y-8422000D02*
X13155500Y-8522000D01*
X13155500Y-8422000D02*
X13055500Y-8522000D01*
X13155500Y-8472000D02*
G75*
G02*
X13055500Y-8472000I-50000J0D01*
G01*
X13055500Y-8472000D02*
G75*
G02*
X13155500Y-8472000I50000J0D01*
G01*
X13055500Y-11859000D02*
X13155500Y-11959000D01*
X13155500Y-11859000D02*
X13055500Y-11959000D01*
X13155500Y-11909000D02*
G75*
G02*
X13055500Y-11909000I-50000J0D01*
G01*
X13055500Y-11909000D02*
G75*
G02*
X13155500Y-11909000I50000J0D01*
G01*
X13309500Y-8422000D02*
X13409500Y-8522000D01*
X13409500Y-8422000D02*
X13309500Y-8522000D01*
X13409500Y-8472000D02*
G75*
G02*
X13309500Y-8472000I-50000J0D01*
G01*
X13309500Y-8472000D02*
G75*
G02*
X13409500Y-8472000I50000J0D01*
G01*
X13309500Y-11859000D02*
X13409500Y-11959000D01*
X13409500Y-11859000D02*
X13309500Y-11959000D01*
X13409500Y-11909000D02*
G75*
G02*
X13309500Y-11909000I-50000J0D01*
G01*
X13309500Y-11909000D02*
G75*
G02*
X13409500Y-11909000I50000J0D01*
G01*
X13563500Y-8422000D02*
X13663500Y-8522000D01*
X13663500Y-8422000D02*
X13563500Y-8522000D01*
X13663500Y-8472000D02*
G75*
G02*
X13563500Y-8472000I-50000J0D01*
G01*
X13563500Y-8472000D02*
G75*
G02*
X13663500Y-8472000I50000J0D01*
G01*
X13563500Y-11859000D02*
X13663500Y-11959000D01*
X13663500Y-11859000D02*
X13563500Y-11959000D01*
X13663500Y-11909000D02*
G75*
G02*
X13563500Y-11909000I-50000J0D01*
G01*
X13563500Y-11909000D02*
G75*
G02*
X13663500Y-11909000I50000J0D01*
G01*
X13817500Y-8422000D02*
X13917500Y-8522000D01*
X13917500Y-8422000D02*
X13817500Y-8522000D01*
X13917500Y-8472000D02*
G75*
G02*
X13817500Y-8472000I-50000J0D01*
G01*
X13817500Y-8472000D02*
G75*
G02*
X13917500Y-8472000I50000J0D01*
G01*
X13817500Y-11859000D02*
X13917500Y-11959000D01*
X13917500Y-11859000D02*
X13817500Y-11959000D01*
X13917500Y-11909000D02*
G75*
G02*
X13817500Y-11909000I-50000J0D01*
G01*
X13817500Y-11909000D02*
G75*
G02*
X13917500Y-11909000I50000J0D01*
G01*
X14071500Y-8422000D02*
X14171500Y-8522000D01*
X14171500Y-8422000D02*
X14071500Y-8522000D01*
X14171500Y-8472000D02*
G75*
G02*
X14071500Y-8472000I-50000J0D01*
G01*
X14071500Y-8472000D02*
G75*
G02*
X14171500Y-8472000I50000J0D01*
G01*
X14071500Y-11859000D02*
X14171500Y-11959000D01*
X14171500Y-11859000D02*
X14071500Y-11959000D01*
X14171500Y-11909000D02*
G75*
G02*
X14071500Y-11909000I-50000J0D01*
G01*
X14071500Y-11909000D02*
G75*
G02*
X14171500Y-11909000I50000J0D01*
G01*
X14325500Y-8422000D02*
X14425500Y-8522000D01*
X14425500Y-8422000D02*
X14325500Y-8522000D01*
X14425500Y-8472000D02*
G75*
G02*
X14325500Y-8472000I-50000J0D01*
G01*
X14325500Y-8472000D02*
G75*
G02*
X14425500Y-8472000I50000J0D01*
G01*
X14325500Y-11859000D02*
X14425500Y-11959000D01*
X14425500Y-11859000D02*
X14325500Y-11959000D01*
X14425500Y-11909000D02*
G75*
G02*
X14325500Y-11909000I-50000J0D01*
G01*
X14325500Y-11909000D02*
G75*
G02*
X14425500Y-11909000I50000J0D01*
G01*
X14579500Y-8422000D02*
X14679500Y-8522000D01*
X14679500Y-8422000D02*
X14579500Y-8522000D01*
X14679500Y-8472000D02*
G75*
G02*
X14579500Y-8472000I-50000J0D01*
G01*
X14579500Y-8472000D02*
G75*
G02*
X14679500Y-8472000I50000J0D01*
G01*
X14579500Y-11859000D02*
X14679500Y-11959000D01*
X14679500Y-11859000D02*
X14579500Y-11959000D01*
X14679500Y-11909000D02*
G75*
G02*
X14579500Y-11909000I-50000J0D01*
G01*
X14579500Y-11909000D02*
G75*
G02*
X14679500Y-11909000I50000J0D01*
G01*
X14833500Y-8422000D02*
X14933500Y-8522000D01*
X14933500Y-8422000D02*
X14833500Y-8522000D01*
X14933500Y-8472000D02*
G75*
G02*
X14833500Y-8472000I-50000J0D01*
G01*
X14833500Y-8472000D02*
G75*
G02*
X14933500Y-8472000I50000J0D01*
G01*
X14833500Y-11859000D02*
X14933500Y-11959000D01*
X14933500Y-11859000D02*
X14833500Y-11959000D01*
X14933500Y-11909000D02*
G75*
G02*
X14833500Y-11909000I-50000J0D01*
G01*
X14833500Y-11909000D02*
G75*
G02*
X14933500Y-11909000I50000J0D01*
G01*
X15087500Y-8422000D02*
X15187500Y-8522000D01*
X15187500Y-8422000D02*
X15087500Y-8522000D01*
X15187500Y-8472000D02*
G75*
G02*
X15087500Y-8472000I-50000J0D01*
G01*
X15087500Y-8472000D02*
G75*
G02*
X15187500Y-8472000I50000J0D01*
G01*
X15087500Y-11859000D02*
X15187500Y-11959000D01*
X15187500Y-11859000D02*
X15087500Y-11959000D01*
X15187500Y-11909000D02*
G75*
G02*
X15087500Y-11909000I-50000J0D01*
G01*
X15087500Y-11909000D02*
G75*
G02*
X15187500Y-11909000I50000J0D01*
G01*
X15341500Y-8422000D02*
X15441500Y-8522000D01*
X15441500Y-8422000D02*
X15341500Y-8522000D01*
X15441500Y-8472000D02*
G75*
G02*
X15341500Y-8472000I-50000J0D01*
G01*
X15341500Y-8472000D02*
G75*
G02*
X15441500Y-8472000I50000J0D01*
G01*
X15341500Y-11859000D02*
X15441500Y-11959000D01*
X15441500Y-11859000D02*
X15341500Y-11959000D01*
X15441500Y-11909000D02*
G75*
G02*
X15341500Y-11909000I-50000J0D01*
G01*
X15341500Y-11909000D02*
G75*
G02*
X15441500Y-11909000I50000J0D01*
G01*
X15595500Y-8422000D02*
X15695500Y-8522000D01*
X15695500Y-8422000D02*
X15595500Y-8522000D01*
X15695500Y-8472000D02*
G75*
G02*
X15595500Y-8472000I-50000J0D01*
G01*
X15595500Y-8472000D02*
G75*
G02*
X15695500Y-8472000I50000J0D01*
G01*
X15595500Y-11859000D02*
X15695500Y-11959000D01*
X15695500Y-11859000D02*
X15595500Y-11959000D01*
X15695500Y-11909000D02*
G75*
G02*
X15595500Y-11909000I-50000J0D01*
G01*
X15595500Y-11909000D02*
G75*
G02*
X15695500Y-11909000I50000J0D01*
G01*
X15849500Y-8422000D02*
X15949500Y-8522000D01*
X15949500Y-8422000D02*
X15849500Y-8522000D01*
X15949500Y-8472000D02*
G75*
G02*
X15849500Y-8472000I-50000J0D01*
G01*
X15849500Y-8472000D02*
G75*
G02*
X15949500Y-8472000I50000J0D01*
G01*
X15849500Y-11859000D02*
X15949500Y-11959000D01*
X15949500Y-11859000D02*
X15849500Y-11959000D01*
X15949500Y-11909000D02*
G75*
G02*
X15849500Y-11909000I-50000J0D01*
G01*
X15849500Y-11909000D02*
G75*
G02*
X15949500Y-11909000I50000J0D01*
G01*
X16103500Y-8422000D02*
X16203500Y-8522000D01*
X16203500Y-8422000D02*
X16103500Y-8522000D01*
X16203500Y-8472000D02*
G75*
G02*
X16103500Y-8472000I-50000J0D01*
G01*
X16103500Y-8472000D02*
G75*
G02*
X16203500Y-8472000I50000J0D01*
G01*
X16103500Y-11859000D02*
X16203500Y-11959000D01*
X16203500Y-11859000D02*
X16103500Y-11959000D01*
X16203500Y-11909000D02*
G75*
G02*
X16103500Y-11909000I-50000J0D01*
G01*
X16103500Y-11909000D02*
G75*
G02*
X16203500Y-11909000I50000J0D01*
G01*
X16357500Y-8422000D02*
X16457500Y-8522000D01*
X16457500Y-8422000D02*
X16357500Y-8522000D01*
X16457500Y-8472000D02*
G75*
G02*
X16357500Y-8472000I-50000J0D01*
G01*
X16357500Y-8472000D02*
G75*
G02*
X16457500Y-8472000I50000J0D01*
G01*
X16357500Y-11859000D02*
X16457500Y-11959000D01*
X16457500Y-11859000D02*
X16357500Y-11959000D01*
X16457500Y-11909000D02*
G75*
G02*
X16357500Y-11909000I-50000J0D01*
G01*
X16357500Y-11909000D02*
G75*
G02*
X16457500Y-11909000I50000J0D01*
G01*
X16611500Y-8422000D02*
X16711500Y-8522000D01*
X16711500Y-8422000D02*
X16611500Y-8522000D01*
X16711500Y-8472000D02*
G75*
G02*
X16611500Y-8472000I-50000J0D01*
G01*
X16611500Y-8472000D02*
G75*
G02*
X16711500Y-8472000I50000J0D01*
G01*
X16611500Y-11859000D02*
X16711500Y-11959000D01*
X16711500Y-11859000D02*
X16611500Y-11959000D01*
X16711500Y-11909000D02*
G75*
G02*
X16611500Y-11909000I-50000J0D01*
G01*
X16611500Y-11909000D02*
G75*
G02*
X16711500Y-11909000I50000J0D01*
G01*
D11*
X11254027Y-12405734D02*
X11254027Y-12205734D01*
X11254027Y-12205734D02*
X11301646Y-12205734D01*
X11301646Y-12205734D02*
X11330217Y-12215258D01*
X11330217Y-12215258D02*
X11349265Y-12234305D01*
X11349265Y-12234305D02*
X11358789Y-12253353D01*
X11358789Y-12253353D02*
X11368312Y-12291448D01*
X11368312Y-12291448D02*
X11368312Y-12320019D01*
X11368312Y-12320019D02*
X11358789Y-12358115D01*
X11358789Y-12358115D02*
X11349265Y-12377162D01*
X11349265Y-12377162D02*
X11330217Y-12396210D01*
X11330217Y-12396210D02*
X11301646Y-12405734D01*
X11301646Y-12405734D02*
X11254027Y-12405734D01*
X11454027Y-12405734D02*
X11454027Y-12272400D01*
X11454027Y-12310496D02*
X11463551Y-12291448D01*
X11463551Y-12291448D02*
X11473074Y-12281924D01*
X11473074Y-12281924D02*
X11492122Y-12272400D01*
X11492122Y-12272400D02*
X11511170Y-12272400D01*
X11577836Y-12405734D02*
X11577836Y-12272400D01*
X11577836Y-12205734D02*
X11568312Y-12215258D01*
X11568312Y-12215258D02*
X11577836Y-12224781D01*
X11577836Y-12224781D02*
X11587360Y-12215258D01*
X11587360Y-12215258D02*
X11577836Y-12205734D01*
X11577836Y-12205734D02*
X11577836Y-12224781D01*
X11701646Y-12405734D02*
X11682598Y-12396210D01*
X11682598Y-12396210D02*
X11673074Y-12377162D01*
X11673074Y-12377162D02*
X11673074Y-12205734D01*
X11806408Y-12405734D02*
X11787360Y-12396210D01*
X11787360Y-12396210D02*
X11777836Y-12377162D01*
X11777836Y-12377162D02*
X11777836Y-12205734D01*
X12034979Y-12405734D02*
X12034979Y-12205734D01*
X12034979Y-12205734D02*
X12101646Y-12348591D01*
X12101646Y-12348591D02*
X12168312Y-12205734D01*
X12168312Y-12205734D02*
X12168312Y-12405734D01*
X12349265Y-12405734D02*
X12349265Y-12300972D01*
X12349265Y-12300972D02*
X12339741Y-12281924D01*
X12339741Y-12281924D02*
X12320693Y-12272400D01*
X12320693Y-12272400D02*
X12282598Y-12272400D01*
X12282598Y-12272400D02*
X12263551Y-12281924D01*
X12349265Y-12396210D02*
X12330217Y-12405734D01*
X12330217Y-12405734D02*
X12282598Y-12405734D01*
X12282598Y-12405734D02*
X12263551Y-12396210D01*
X12263551Y-12396210D02*
X12254027Y-12377162D01*
X12254027Y-12377162D02*
X12254027Y-12358115D01*
X12254027Y-12358115D02*
X12263551Y-12339067D01*
X12263551Y-12339067D02*
X12282598Y-12329543D01*
X12282598Y-12329543D02*
X12330217Y-12329543D01*
X12330217Y-12329543D02*
X12349265Y-12320019D01*
X12444503Y-12272400D02*
X12444503Y-12472400D01*
X12444503Y-12281924D02*
X12463551Y-12272400D01*
X12463551Y-12272400D02*
X12501646Y-12272400D01*
X12501646Y-12272400D02*
X12520693Y-12281924D01*
X12520693Y-12281924D02*
X12530217Y-12291448D01*
X12530217Y-12291448D02*
X12539741Y-12310496D01*
X12539741Y-12310496D02*
X12539741Y-12367638D01*
X12539741Y-12367638D02*
X12530217Y-12386686D01*
X12530217Y-12386686D02*
X12520693Y-12396210D01*
X12520693Y-12396210D02*
X12501646Y-12405734D01*
X12501646Y-12405734D02*
X12463551Y-12405734D01*
X12463551Y-12405734D02*
X12444503Y-12396210D01*
X12625455Y-12386686D02*
X12634979Y-12396210D01*
X12634979Y-12396210D02*
X12625455Y-12405734D01*
X12625455Y-12405734D02*
X12615932Y-12396210D01*
X12615932Y-12396210D02*
X12625455Y-12386686D01*
X12625455Y-12386686D02*
X12625455Y-12405734D01*
X12625455Y-12281924D02*
X12634979Y-12291448D01*
X12634979Y-12291448D02*
X12625455Y-12300972D01*
X12625455Y-12300972D02*
X12615932Y-12291448D01*
X12615932Y-12291448D02*
X12625455Y-12281924D01*
X12625455Y-12281924D02*
X12625455Y-12300972D01*
D12*
X10973250Y-12724250D02*
X10993250Y-12744250D01*
X10993250Y-12724250D02*
X10973250Y-12744250D01*
D11*
X11292122Y-12625734D02*
X11311170Y-12625734D01*
X11311170Y-12625734D02*
X11330217Y-12635258D01*
X11330217Y-12635258D02*
X11339741Y-12644781D01*
X11339741Y-12644781D02*
X11349265Y-12663829D01*
X11349265Y-12663829D02*
X11358789Y-12701924D01*
X11358789Y-12701924D02*
X11358789Y-12749543D01*
X11358789Y-12749543D02*
X11349265Y-12787638D01*
X11349265Y-12787638D02*
X11339741Y-12806686D01*
X11339741Y-12806686D02*
X11330217Y-12816210D01*
X11330217Y-12816210D02*
X11311170Y-12825734D01*
X11311170Y-12825734D02*
X11292122Y-12825734D01*
X11292122Y-12825734D02*
X11273074Y-12816210D01*
X11273074Y-12816210D02*
X11263551Y-12806686D01*
X11263551Y-12806686D02*
X11254027Y-12787638D01*
X11254027Y-12787638D02*
X11244503Y-12749543D01*
X11244503Y-12749543D02*
X11244503Y-12701924D01*
X11244503Y-12701924D02*
X11254027Y-12663829D01*
X11254027Y-12663829D02*
X11263551Y-12644781D01*
X11263551Y-12644781D02*
X11273074Y-12635258D01*
X11273074Y-12635258D02*
X11292122Y-12625734D01*
X11444503Y-12806686D02*
X11454027Y-12816210D01*
X11454027Y-12816210D02*
X11444503Y-12825734D01*
X11444503Y-12825734D02*
X11434979Y-12816210D01*
X11434979Y-12816210D02*
X11444503Y-12806686D01*
X11444503Y-12806686D02*
X11444503Y-12825734D01*
X11530217Y-12644781D02*
X11539741Y-12635258D01*
X11539741Y-12635258D02*
X11558789Y-12625734D01*
X11558789Y-12625734D02*
X11606408Y-12625734D01*
X11606408Y-12625734D02*
X11625455Y-12635258D01*
X11625455Y-12635258D02*
X11634979Y-12644781D01*
X11634979Y-12644781D02*
X11644503Y-12663829D01*
X11644503Y-12663829D02*
X11644503Y-12682877D01*
X11644503Y-12682877D02*
X11634979Y-12711448D01*
X11634979Y-12711448D02*
X11520693Y-12825734D01*
X11520693Y-12825734D02*
X11644503Y-12825734D01*
X11768312Y-12625734D02*
X11787360Y-12625734D01*
X11787360Y-12625734D02*
X11806408Y-12635258D01*
X11806408Y-12635258D02*
X11815932Y-12644781D01*
X11815932Y-12644781D02*
X11825455Y-12663829D01*
X11825455Y-12663829D02*
X11834979Y-12701924D01*
X11834979Y-12701924D02*
X11834979Y-12749543D01*
X11834979Y-12749543D02*
X11825455Y-12787638D01*
X11825455Y-12787638D02*
X11815932Y-12806686D01*
X11815932Y-12806686D02*
X11806408Y-12816210D01*
X11806408Y-12816210D02*
X11787360Y-12825734D01*
X11787360Y-12825734D02*
X11768312Y-12825734D01*
X11768312Y-12825734D02*
X11749265Y-12816210D01*
X11749265Y-12816210D02*
X11739741Y-12806686D01*
X11739741Y-12806686D02*
X11730217Y-12787638D01*
X11730217Y-12787638D02*
X11720693Y-12749543D01*
X11720693Y-12749543D02*
X11720693Y-12701924D01*
X11720693Y-12701924D02*
X11730217Y-12663829D01*
X11730217Y-12663829D02*
X11739741Y-12644781D01*
X11739741Y-12644781D02*
X11749265Y-12635258D01*
X11749265Y-12635258D02*
X11768312Y-12625734D01*
X11958789Y-12625734D02*
X11977836Y-12625734D01*
X11977836Y-12625734D02*
X11996884Y-12635258D01*
X11996884Y-12635258D02*
X12006408Y-12644781D01*
X12006408Y-12644781D02*
X12015932Y-12663829D01*
X12015932Y-12663829D02*
X12025455Y-12701924D01*
X12025455Y-12701924D02*
X12025455Y-12749543D01*
X12025455Y-12749543D02*
X12015932Y-12787638D01*
X12015932Y-12787638D02*
X12006408Y-12806686D01*
X12006408Y-12806686D02*
X11996884Y-12816210D01*
X11996884Y-12816210D02*
X11977836Y-12825734D01*
X11977836Y-12825734D02*
X11958789Y-12825734D01*
X11958789Y-12825734D02*
X11939741Y-12816210D01*
X11939741Y-12816210D02*
X11930217Y-12806686D01*
X11930217Y-12806686D02*
X11920693Y-12787638D01*
X11920693Y-12787638D02*
X11911170Y-12749543D01*
X11911170Y-12749543D02*
X11911170Y-12701924D01*
X11911170Y-12701924D02*
X11920693Y-12663829D01*
X11920693Y-12663829D02*
X11930217Y-12644781D01*
X11930217Y-12644781D02*
X11939741Y-12635258D01*
X11939741Y-12635258D02*
X11958789Y-12625734D01*
X12111170Y-12825734D02*
X12111170Y-12692400D01*
X12111170Y-12711448D02*
X12120693Y-12701924D01*
X12120693Y-12701924D02*
X12139741Y-12692400D01*
X12139741Y-12692400D02*
X12168313Y-12692400D01*
X12168313Y-12692400D02*
X12187360Y-12701924D01*
X12187360Y-12701924D02*
X12196884Y-12720972D01*
X12196884Y-12720972D02*
X12196884Y-12825734D01*
X12196884Y-12720972D02*
X12206408Y-12701924D01*
X12206408Y-12701924D02*
X12225455Y-12692400D01*
X12225455Y-12692400D02*
X12254027Y-12692400D01*
X12254027Y-12692400D02*
X12273074Y-12701924D01*
X12273074Y-12701924D02*
X12282598Y-12720972D01*
X12282598Y-12720972D02*
X12282598Y-12825734D01*
X12377836Y-12825734D02*
X12377836Y-12692400D01*
X12377836Y-12711448D02*
X12387360Y-12701924D01*
X12387360Y-12701924D02*
X12406408Y-12692400D01*
X12406408Y-12692400D02*
X12434979Y-12692400D01*
X12434979Y-12692400D02*
X12454027Y-12701924D01*
X12454027Y-12701924D02*
X12463551Y-12720972D01*
X12463551Y-12720972D02*
X12463551Y-12825734D01*
X12463551Y-12720972D02*
X12473074Y-12701924D01*
X12473074Y-12701924D02*
X12492122Y-12692400D01*
X12492122Y-12692400D02*
X12520693Y-12692400D01*
X12520693Y-12692400D02*
X12539741Y-12701924D01*
X12539741Y-12701924D02*
X12549265Y-12720972D01*
X12549265Y-12720972D02*
X12549265Y-12825734D01*
X12939741Y-12616210D02*
X12768313Y-12873353D01*
X13196884Y-12625734D02*
X13215932Y-12625734D01*
X13215932Y-12625734D02*
X13234979Y-12635258D01*
X13234979Y-12635258D02*
X13244503Y-12644781D01*
X13244503Y-12644781D02*
X13254027Y-12663829D01*
X13254027Y-12663829D02*
X13263551Y-12701924D01*
X13263551Y-12701924D02*
X13263551Y-12749543D01*
X13263551Y-12749543D02*
X13254027Y-12787638D01*
X13254027Y-12787638D02*
X13244503Y-12806686D01*
X13244503Y-12806686D02*
X13234979Y-12816210D01*
X13234979Y-12816210D02*
X13215932Y-12825734D01*
X13215932Y-12825734D02*
X13196884Y-12825734D01*
X13196884Y-12825734D02*
X13177836Y-12816210D01*
X13177836Y-12816210D02*
X13168313Y-12806686D01*
X13168313Y-12806686D02*
X13158789Y-12787638D01*
X13158789Y-12787638D02*
X13149265Y-12749543D01*
X13149265Y-12749543D02*
X13149265Y-12701924D01*
X13149265Y-12701924D02*
X13158789Y-12663829D01*
X13158789Y-12663829D02*
X13168313Y-12644781D01*
X13168313Y-12644781D02*
X13177836Y-12635258D01*
X13177836Y-12635258D02*
X13196884Y-12625734D01*
X13349265Y-12806686D02*
X13358789Y-12816210D01*
X13358789Y-12816210D02*
X13349265Y-12825734D01*
X13349265Y-12825734D02*
X13339741Y-12816210D01*
X13339741Y-12816210D02*
X13349265Y-12806686D01*
X13349265Y-12806686D02*
X13349265Y-12825734D01*
X13482598Y-12625734D02*
X13501646Y-12625734D01*
X13501646Y-12625734D02*
X13520694Y-12635258D01*
X13520694Y-12635258D02*
X13530217Y-12644781D01*
X13530217Y-12644781D02*
X13539741Y-12663829D01*
X13539741Y-12663829D02*
X13549265Y-12701924D01*
X13549265Y-12701924D02*
X13549265Y-12749543D01*
X13549265Y-12749543D02*
X13539741Y-12787638D01*
X13539741Y-12787638D02*
X13530217Y-12806686D01*
X13530217Y-12806686D02*
X13520694Y-12816210D01*
X13520694Y-12816210D02*
X13501646Y-12825734D01*
X13501646Y-12825734D02*
X13482598Y-12825734D01*
X13482598Y-12825734D02*
X13463551Y-12816210D01*
X13463551Y-12816210D02*
X13454027Y-12806686D01*
X13454027Y-12806686D02*
X13444503Y-12787638D01*
X13444503Y-12787638D02*
X13434979Y-12749543D01*
X13434979Y-12749543D02*
X13434979Y-12701924D01*
X13434979Y-12701924D02*
X13444503Y-12663829D01*
X13444503Y-12663829D02*
X13454027Y-12644781D01*
X13454027Y-12644781D02*
X13463551Y-12635258D01*
X13463551Y-12635258D02*
X13482598Y-12625734D01*
X13673075Y-12625734D02*
X13692122Y-12625734D01*
X13692122Y-12625734D02*
X13711170Y-12635258D01*
X13711170Y-12635258D02*
X13720694Y-12644781D01*
X13720694Y-12644781D02*
X13730217Y-12663829D01*
X13730217Y-12663829D02*
X13739741Y-12701924D01*
X13739741Y-12701924D02*
X13739741Y-12749543D01*
X13739741Y-12749543D02*
X13730217Y-12787638D01*
X13730217Y-12787638D02*
X13720694Y-12806686D01*
X13720694Y-12806686D02*
X13711170Y-12816210D01*
X13711170Y-12816210D02*
X13692122Y-12825734D01*
X13692122Y-12825734D02*
X13673075Y-12825734D01*
X13673075Y-12825734D02*
X13654027Y-12816210D01*
X13654027Y-12816210D02*
X13644503Y-12806686D01*
X13644503Y-12806686D02*
X13634979Y-12787638D01*
X13634979Y-12787638D02*
X13625456Y-12749543D01*
X13625456Y-12749543D02*
X13625456Y-12701924D01*
X13625456Y-12701924D02*
X13634979Y-12663829D01*
X13634979Y-12663829D02*
X13644503Y-12644781D01*
X13644503Y-12644781D02*
X13654027Y-12635258D01*
X13654027Y-12635258D02*
X13673075Y-12625734D01*
X13806408Y-12625734D02*
X13939741Y-12625734D01*
X13939741Y-12625734D02*
X13854027Y-12825734D01*
X14025456Y-12825734D02*
X14063551Y-12825734D01*
X14063551Y-12825734D02*
X14082598Y-12816210D01*
X14082598Y-12816210D02*
X14092122Y-12806686D01*
X14092122Y-12806686D02*
X14111170Y-12778115D01*
X14111170Y-12778115D02*
X14120694Y-12740019D01*
X14120694Y-12740019D02*
X14120694Y-12663829D01*
X14120694Y-12663829D02*
X14111170Y-12644781D01*
X14111170Y-12644781D02*
X14101646Y-12635258D01*
X14101646Y-12635258D02*
X14082598Y-12625734D01*
X14082598Y-12625734D02*
X14044503Y-12625734D01*
X14044503Y-12625734D02*
X14025456Y-12635258D01*
X14025456Y-12635258D02*
X14015932Y-12644781D01*
X14015932Y-12644781D02*
X14006408Y-12663829D01*
X14006408Y-12663829D02*
X14006408Y-12711448D01*
X14006408Y-12711448D02*
X14015932Y-12730496D01*
X14015932Y-12730496D02*
X14025456Y-12740019D01*
X14025456Y-12740019D02*
X14044503Y-12749543D01*
X14044503Y-12749543D02*
X14082598Y-12749543D01*
X14082598Y-12749543D02*
X14101646Y-12740019D01*
X14101646Y-12740019D02*
X14111170Y-12730496D01*
X14111170Y-12730496D02*
X14120694Y-12711448D01*
X14196884Y-12625734D02*
X14196884Y-12663829D01*
X14273075Y-12625734D02*
X14273075Y-12663829D01*
X14568313Y-12901924D02*
X14558789Y-12892400D01*
X14558789Y-12892400D02*
X14539741Y-12863829D01*
X14539741Y-12863829D02*
X14530218Y-12844781D01*
X14530218Y-12844781D02*
X14520694Y-12816210D01*
X14520694Y-12816210D02*
X14511170Y-12768591D01*
X14511170Y-12768591D02*
X14511170Y-12730496D01*
X14511170Y-12730496D02*
X14520694Y-12682877D01*
X14520694Y-12682877D02*
X14530218Y-12654305D01*
X14530218Y-12654305D02*
X14539741Y-12635258D01*
X14539741Y-12635258D02*
X14558789Y-12606686D01*
X14558789Y-12606686D02*
X14568313Y-12597162D01*
X14749265Y-12825734D02*
X14634979Y-12825734D01*
X14692122Y-12825734D02*
X14692122Y-12625734D01*
X14692122Y-12625734D02*
X14673075Y-12654305D01*
X14673075Y-12654305D02*
X14654027Y-12673353D01*
X14654027Y-12673353D02*
X14634979Y-12682877D01*
X14825456Y-12644781D02*
X14834979Y-12635258D01*
X14834979Y-12635258D02*
X14854027Y-12625734D01*
X14854027Y-12625734D02*
X14901646Y-12625734D01*
X14901646Y-12625734D02*
X14920694Y-12635258D01*
X14920694Y-12635258D02*
X14930218Y-12644781D01*
X14930218Y-12644781D02*
X14939741Y-12663829D01*
X14939741Y-12663829D02*
X14939741Y-12682877D01*
X14939741Y-12682877D02*
X14930218Y-12711448D01*
X14930218Y-12711448D02*
X14815932Y-12825734D01*
X14815932Y-12825734D02*
X14939741Y-12825734D01*
X15177837Y-12825734D02*
X15177837Y-12625734D01*
X15263551Y-12825734D02*
X15263551Y-12720972D01*
X15263551Y-12720972D02*
X15254027Y-12701924D01*
X15254027Y-12701924D02*
X15234980Y-12692400D01*
X15234980Y-12692400D02*
X15206408Y-12692400D01*
X15206408Y-12692400D02*
X15187360Y-12701924D01*
X15187360Y-12701924D02*
X15177837Y-12711448D01*
X15387360Y-12825734D02*
X15368313Y-12816210D01*
X15368313Y-12816210D02*
X15358789Y-12806686D01*
X15358789Y-12806686D02*
X15349265Y-12787638D01*
X15349265Y-12787638D02*
X15349265Y-12730496D01*
X15349265Y-12730496D02*
X15358789Y-12711448D01*
X15358789Y-12711448D02*
X15368313Y-12701924D01*
X15368313Y-12701924D02*
X15387360Y-12692400D01*
X15387360Y-12692400D02*
X15415932Y-12692400D01*
X15415932Y-12692400D02*
X15434980Y-12701924D01*
X15434980Y-12701924D02*
X15444503Y-12711448D01*
X15444503Y-12711448D02*
X15454027Y-12730496D01*
X15454027Y-12730496D02*
X15454027Y-12787638D01*
X15454027Y-12787638D02*
X15444503Y-12806686D01*
X15444503Y-12806686D02*
X15434980Y-12816210D01*
X15434980Y-12816210D02*
X15415932Y-12825734D01*
X15415932Y-12825734D02*
X15387360Y-12825734D01*
X15568313Y-12825734D02*
X15549265Y-12816210D01*
X15549265Y-12816210D02*
X15539741Y-12797162D01*
X15539741Y-12797162D02*
X15539741Y-12625734D01*
X15720694Y-12816210D02*
X15701646Y-12825734D01*
X15701646Y-12825734D02*
X15663551Y-12825734D01*
X15663551Y-12825734D02*
X15644503Y-12816210D01*
X15644503Y-12816210D02*
X15634980Y-12797162D01*
X15634980Y-12797162D02*
X15634980Y-12720972D01*
X15634980Y-12720972D02*
X15644503Y-12701924D01*
X15644503Y-12701924D02*
X15663551Y-12692400D01*
X15663551Y-12692400D02*
X15701646Y-12692400D01*
X15701646Y-12692400D02*
X15720694Y-12701924D01*
X15720694Y-12701924D02*
X15730218Y-12720972D01*
X15730218Y-12720972D02*
X15730218Y-12740019D01*
X15730218Y-12740019D02*
X15634980Y-12759067D01*
X15806408Y-12816210D02*
X15825456Y-12825734D01*
X15825456Y-12825734D02*
X15863551Y-12825734D01*
X15863551Y-12825734D02*
X15882599Y-12816210D01*
X15882599Y-12816210D02*
X15892122Y-12797162D01*
X15892122Y-12797162D02*
X15892122Y-12787638D01*
X15892122Y-12787638D02*
X15882599Y-12768591D01*
X15882599Y-12768591D02*
X15863551Y-12759067D01*
X15863551Y-12759067D02*
X15834980Y-12759067D01*
X15834980Y-12759067D02*
X15815932Y-12749543D01*
X15815932Y-12749543D02*
X15806408Y-12730496D01*
X15806408Y-12730496D02*
X15806408Y-12720972D01*
X15806408Y-12720972D02*
X15815932Y-12701924D01*
X15815932Y-12701924D02*
X15834980Y-12692400D01*
X15834980Y-12692400D02*
X15863551Y-12692400D01*
X15863551Y-12692400D02*
X15882599Y-12701924D01*
X15958789Y-12901924D02*
X15968313Y-12892400D01*
X15968313Y-12892400D02*
X15987361Y-12863829D01*
X15987361Y-12863829D02*
X15996884Y-12844781D01*
X15996884Y-12844781D02*
X16006408Y-12816210D01*
X16006408Y-12816210D02*
X16015932Y-12768591D01*
X16015932Y-12768591D02*
X16015932Y-12730496D01*
X16015932Y-12730496D02*
X16006408Y-12682877D01*
X16006408Y-12682877D02*
X15996884Y-12654305D01*
X15996884Y-12654305D02*
X15987361Y-12635258D01*
X15987361Y-12635258D02*
X15968313Y-12606686D01*
X15968313Y-12606686D02*
X15958789Y-12597162D01*
D12*
X10993250Y-12998250D02*
G75*
G02*
X10968250Y-12998250I-12500J0D01*
G01*
X10968250Y-12998250D02*
G75*
G02*
X10993250Y-12998250I12500J0D01*
G01*
D11*
X11292122Y-12889734D02*
X11311170Y-12889734D01*
X11311170Y-12889734D02*
X11330217Y-12899258D01*
X11330217Y-12899258D02*
X11339741Y-12908781D01*
X11339741Y-12908781D02*
X11349265Y-12927829D01*
X11349265Y-12927829D02*
X11358789Y-12965924D01*
X11358789Y-12965924D02*
X11358789Y-13013543D01*
X11358789Y-13013543D02*
X11349265Y-13051638D01*
X11349265Y-13051638D02*
X11339741Y-13070686D01*
X11339741Y-13070686D02*
X11330217Y-13080210D01*
X11330217Y-13080210D02*
X11311170Y-13089734D01*
X11311170Y-13089734D02*
X11292122Y-13089734D01*
X11292122Y-13089734D02*
X11273074Y-13080210D01*
X11273074Y-13080210D02*
X11263551Y-13070686D01*
X11263551Y-13070686D02*
X11254027Y-13051638D01*
X11254027Y-13051638D02*
X11244503Y-13013543D01*
X11244503Y-13013543D02*
X11244503Y-12965924D01*
X11244503Y-12965924D02*
X11254027Y-12927829D01*
X11254027Y-12927829D02*
X11263551Y-12908781D01*
X11263551Y-12908781D02*
X11273074Y-12899258D01*
X11273074Y-12899258D02*
X11292122Y-12889734D01*
X11444503Y-13070686D02*
X11454027Y-13080210D01*
X11454027Y-13080210D02*
X11444503Y-13089734D01*
X11444503Y-13089734D02*
X11434979Y-13080210D01*
X11434979Y-13080210D02*
X11444503Y-13070686D01*
X11444503Y-13070686D02*
X11444503Y-13089734D01*
X11530217Y-12908781D02*
X11539741Y-12899258D01*
X11539741Y-12899258D02*
X11558789Y-12889734D01*
X11558789Y-12889734D02*
X11606408Y-12889734D01*
X11606408Y-12889734D02*
X11625455Y-12899258D01*
X11625455Y-12899258D02*
X11634979Y-12908781D01*
X11634979Y-12908781D02*
X11644503Y-12927829D01*
X11644503Y-12927829D02*
X11644503Y-12946877D01*
X11644503Y-12946877D02*
X11634979Y-12975448D01*
X11634979Y-12975448D02*
X11520693Y-13089734D01*
X11520693Y-13089734D02*
X11644503Y-13089734D01*
X11825455Y-12889734D02*
X11730217Y-12889734D01*
X11730217Y-12889734D02*
X11720693Y-12984972D01*
X11720693Y-12984972D02*
X11730217Y-12975448D01*
X11730217Y-12975448D02*
X11749265Y-12965924D01*
X11749265Y-12965924D02*
X11796884Y-12965924D01*
X11796884Y-12965924D02*
X11815932Y-12975448D01*
X11815932Y-12975448D02*
X11825455Y-12984972D01*
X11825455Y-12984972D02*
X11834979Y-13004019D01*
X11834979Y-13004019D02*
X11834979Y-13051638D01*
X11834979Y-13051638D02*
X11825455Y-13070686D01*
X11825455Y-13070686D02*
X11815932Y-13080210D01*
X11815932Y-13080210D02*
X11796884Y-13089734D01*
X11796884Y-13089734D02*
X11749265Y-13089734D01*
X11749265Y-13089734D02*
X11730217Y-13080210D01*
X11730217Y-13080210D02*
X11720693Y-13070686D01*
X11958789Y-12889734D02*
X11977836Y-12889734D01*
X11977836Y-12889734D02*
X11996884Y-12899258D01*
X11996884Y-12899258D02*
X12006408Y-12908781D01*
X12006408Y-12908781D02*
X12015932Y-12927829D01*
X12015932Y-12927829D02*
X12025455Y-12965924D01*
X12025455Y-12965924D02*
X12025455Y-13013543D01*
X12025455Y-13013543D02*
X12015932Y-13051638D01*
X12015932Y-13051638D02*
X12006408Y-13070686D01*
X12006408Y-13070686D02*
X11996884Y-13080210D01*
X11996884Y-13080210D02*
X11977836Y-13089734D01*
X11977836Y-13089734D02*
X11958789Y-13089734D01*
X11958789Y-13089734D02*
X11939741Y-13080210D01*
X11939741Y-13080210D02*
X11930217Y-13070686D01*
X11930217Y-13070686D02*
X11920693Y-13051638D01*
X11920693Y-13051638D02*
X11911170Y-13013543D01*
X11911170Y-13013543D02*
X11911170Y-12965924D01*
X11911170Y-12965924D02*
X11920693Y-12927829D01*
X11920693Y-12927829D02*
X11930217Y-12908781D01*
X11930217Y-12908781D02*
X11939741Y-12899258D01*
X11939741Y-12899258D02*
X11958789Y-12889734D01*
X12111170Y-13089734D02*
X12111170Y-12956400D01*
X12111170Y-12975448D02*
X12120693Y-12965924D01*
X12120693Y-12965924D02*
X12139741Y-12956400D01*
X12139741Y-12956400D02*
X12168313Y-12956400D01*
X12168313Y-12956400D02*
X12187360Y-12965924D01*
X12187360Y-12965924D02*
X12196884Y-12984972D01*
X12196884Y-12984972D02*
X12196884Y-13089734D01*
X12196884Y-12984972D02*
X12206408Y-12965924D01*
X12206408Y-12965924D02*
X12225455Y-12956400D01*
X12225455Y-12956400D02*
X12254027Y-12956400D01*
X12254027Y-12956400D02*
X12273074Y-12965924D01*
X12273074Y-12965924D02*
X12282598Y-12984972D01*
X12282598Y-12984972D02*
X12282598Y-13089734D01*
X12377836Y-13089734D02*
X12377836Y-12956400D01*
X12377836Y-12975448D02*
X12387360Y-12965924D01*
X12387360Y-12965924D02*
X12406408Y-12956400D01*
X12406408Y-12956400D02*
X12434979Y-12956400D01*
X12434979Y-12956400D02*
X12454027Y-12965924D01*
X12454027Y-12965924D02*
X12463551Y-12984972D01*
X12463551Y-12984972D02*
X12463551Y-13089734D01*
X12463551Y-12984972D02*
X12473074Y-12965924D01*
X12473074Y-12965924D02*
X12492122Y-12956400D01*
X12492122Y-12956400D02*
X12520693Y-12956400D01*
X12520693Y-12956400D02*
X12539741Y-12965924D01*
X12539741Y-12965924D02*
X12549265Y-12984972D01*
X12549265Y-12984972D02*
X12549265Y-13089734D01*
X12939741Y-12880210D02*
X12768313Y-13137353D01*
X13196884Y-12889734D02*
X13215932Y-12889734D01*
X13215932Y-12889734D02*
X13234979Y-12899258D01*
X13234979Y-12899258D02*
X13244503Y-12908781D01*
X13244503Y-12908781D02*
X13254027Y-12927829D01*
X13254027Y-12927829D02*
X13263551Y-12965924D01*
X13263551Y-12965924D02*
X13263551Y-13013543D01*
X13263551Y-13013543D02*
X13254027Y-13051638D01*
X13254027Y-13051638D02*
X13244503Y-13070686D01*
X13244503Y-13070686D02*
X13234979Y-13080210D01*
X13234979Y-13080210D02*
X13215932Y-13089734D01*
X13215932Y-13089734D02*
X13196884Y-13089734D01*
X13196884Y-13089734D02*
X13177836Y-13080210D01*
X13177836Y-13080210D02*
X13168313Y-13070686D01*
X13168313Y-13070686D02*
X13158789Y-13051638D01*
X13158789Y-13051638D02*
X13149265Y-13013543D01*
X13149265Y-13013543D02*
X13149265Y-12965924D01*
X13149265Y-12965924D02*
X13158789Y-12927829D01*
X13158789Y-12927829D02*
X13168313Y-12908781D01*
X13168313Y-12908781D02*
X13177836Y-12899258D01*
X13177836Y-12899258D02*
X13196884Y-12889734D01*
X13349265Y-13070686D02*
X13358789Y-13080210D01*
X13358789Y-13080210D02*
X13349265Y-13089734D01*
X13349265Y-13089734D02*
X13339741Y-13080210D01*
X13339741Y-13080210D02*
X13349265Y-13070686D01*
X13349265Y-13070686D02*
X13349265Y-13089734D01*
X13482598Y-12889734D02*
X13501646Y-12889734D01*
X13501646Y-12889734D02*
X13520694Y-12899258D01*
X13520694Y-12899258D02*
X13530217Y-12908781D01*
X13530217Y-12908781D02*
X13539741Y-12927829D01*
X13539741Y-12927829D02*
X13549265Y-12965924D01*
X13549265Y-12965924D02*
X13549265Y-13013543D01*
X13549265Y-13013543D02*
X13539741Y-13051638D01*
X13539741Y-13051638D02*
X13530217Y-13070686D01*
X13530217Y-13070686D02*
X13520694Y-13080210D01*
X13520694Y-13080210D02*
X13501646Y-13089734D01*
X13501646Y-13089734D02*
X13482598Y-13089734D01*
X13482598Y-13089734D02*
X13463551Y-13080210D01*
X13463551Y-13080210D02*
X13454027Y-13070686D01*
X13454027Y-13070686D02*
X13444503Y-13051638D01*
X13444503Y-13051638D02*
X13434979Y-13013543D01*
X13434979Y-13013543D02*
X13434979Y-12965924D01*
X13434979Y-12965924D02*
X13444503Y-12927829D01*
X13444503Y-12927829D02*
X13454027Y-12908781D01*
X13454027Y-12908781D02*
X13463551Y-12899258D01*
X13463551Y-12899258D02*
X13482598Y-12889734D01*
X13673075Y-12889734D02*
X13692122Y-12889734D01*
X13692122Y-12889734D02*
X13711170Y-12899258D01*
X13711170Y-12899258D02*
X13720694Y-12908781D01*
X13720694Y-12908781D02*
X13730217Y-12927829D01*
X13730217Y-12927829D02*
X13739741Y-12965924D01*
X13739741Y-12965924D02*
X13739741Y-13013543D01*
X13739741Y-13013543D02*
X13730217Y-13051638D01*
X13730217Y-13051638D02*
X13720694Y-13070686D01*
X13720694Y-13070686D02*
X13711170Y-13080210D01*
X13711170Y-13080210D02*
X13692122Y-13089734D01*
X13692122Y-13089734D02*
X13673075Y-13089734D01*
X13673075Y-13089734D02*
X13654027Y-13080210D01*
X13654027Y-13080210D02*
X13644503Y-13070686D01*
X13644503Y-13070686D02*
X13634979Y-13051638D01*
X13634979Y-13051638D02*
X13625456Y-13013543D01*
X13625456Y-13013543D02*
X13625456Y-12965924D01*
X13625456Y-12965924D02*
X13634979Y-12927829D01*
X13634979Y-12927829D02*
X13644503Y-12908781D01*
X13644503Y-12908781D02*
X13654027Y-12899258D01*
X13654027Y-12899258D02*
X13673075Y-12889734D01*
X13834979Y-13089734D02*
X13873075Y-13089734D01*
X13873075Y-13089734D02*
X13892122Y-13080210D01*
X13892122Y-13080210D02*
X13901646Y-13070686D01*
X13901646Y-13070686D02*
X13920694Y-13042115D01*
X13920694Y-13042115D02*
X13930217Y-13004019D01*
X13930217Y-13004019D02*
X13930217Y-12927829D01*
X13930217Y-12927829D02*
X13920694Y-12908781D01*
X13920694Y-12908781D02*
X13911170Y-12899258D01*
X13911170Y-12899258D02*
X13892122Y-12889734D01*
X13892122Y-12889734D02*
X13854027Y-12889734D01*
X13854027Y-12889734D02*
X13834979Y-12899258D01*
X13834979Y-12899258D02*
X13825456Y-12908781D01*
X13825456Y-12908781D02*
X13815932Y-12927829D01*
X13815932Y-12927829D02*
X13815932Y-12975448D01*
X13815932Y-12975448D02*
X13825456Y-12994496D01*
X13825456Y-12994496D02*
X13834979Y-13004019D01*
X13834979Y-13004019D02*
X13854027Y-13013543D01*
X13854027Y-13013543D02*
X13892122Y-13013543D01*
X13892122Y-13013543D02*
X13911170Y-13004019D01*
X13911170Y-13004019D02*
X13920694Y-12994496D01*
X13920694Y-12994496D02*
X13930217Y-12975448D01*
X14044503Y-12975448D02*
X14025456Y-12965924D01*
X14025456Y-12965924D02*
X14015932Y-12956400D01*
X14015932Y-12956400D02*
X14006408Y-12937353D01*
X14006408Y-12937353D02*
X14006408Y-12927829D01*
X14006408Y-12927829D02*
X14015932Y-12908781D01*
X14015932Y-12908781D02*
X14025456Y-12899258D01*
X14025456Y-12899258D02*
X14044503Y-12889734D01*
X14044503Y-12889734D02*
X14082598Y-12889734D01*
X14082598Y-12889734D02*
X14101646Y-12899258D01*
X14101646Y-12899258D02*
X14111170Y-12908781D01*
X14111170Y-12908781D02*
X14120694Y-12927829D01*
X14120694Y-12927829D02*
X14120694Y-12937353D01*
X14120694Y-12937353D02*
X14111170Y-12956400D01*
X14111170Y-12956400D02*
X14101646Y-12965924D01*
X14101646Y-12965924D02*
X14082598Y-12975448D01*
X14082598Y-12975448D02*
X14044503Y-12975448D01*
X14044503Y-12975448D02*
X14025456Y-12984972D01*
X14025456Y-12984972D02*
X14015932Y-12994496D01*
X14015932Y-12994496D02*
X14006408Y-13013543D01*
X14006408Y-13013543D02*
X14006408Y-13051638D01*
X14006408Y-13051638D02*
X14015932Y-13070686D01*
X14015932Y-13070686D02*
X14025456Y-13080210D01*
X14025456Y-13080210D02*
X14044503Y-13089734D01*
X14044503Y-13089734D02*
X14082598Y-13089734D01*
X14082598Y-13089734D02*
X14101646Y-13080210D01*
X14101646Y-13080210D02*
X14111170Y-13070686D01*
X14111170Y-13070686D02*
X14120694Y-13051638D01*
X14120694Y-13051638D02*
X14120694Y-13013543D01*
X14120694Y-13013543D02*
X14111170Y-12994496D01*
X14111170Y-12994496D02*
X14101646Y-12984972D01*
X14101646Y-12984972D02*
X14082598Y-12975448D01*
X14196884Y-12889734D02*
X14196884Y-12927829D01*
X14273075Y-12889734D02*
X14273075Y-12927829D01*
X14568313Y-13165924D02*
X14558789Y-13156400D01*
X14558789Y-13156400D02*
X14539741Y-13127829D01*
X14539741Y-13127829D02*
X14530218Y-13108781D01*
X14530218Y-13108781D02*
X14520694Y-13080210D01*
X14520694Y-13080210D02*
X14511170Y-13032591D01*
X14511170Y-13032591D02*
X14511170Y-12994496D01*
X14511170Y-12994496D02*
X14520694Y-12946877D01*
X14520694Y-12946877D02*
X14530218Y-12918305D01*
X14530218Y-12918305D02*
X14539741Y-12899258D01*
X14539741Y-12899258D02*
X14558789Y-12870686D01*
X14558789Y-12870686D02*
X14568313Y-12861162D01*
X14739741Y-12889734D02*
X14644503Y-12889734D01*
X14644503Y-12889734D02*
X14634979Y-12984972D01*
X14634979Y-12984972D02*
X14644503Y-12975448D01*
X14644503Y-12975448D02*
X14663551Y-12965924D01*
X14663551Y-12965924D02*
X14711170Y-12965924D01*
X14711170Y-12965924D02*
X14730218Y-12975448D01*
X14730218Y-12975448D02*
X14739741Y-12984972D01*
X14739741Y-12984972D02*
X14749265Y-13004019D01*
X14749265Y-13004019D02*
X14749265Y-13051638D01*
X14749265Y-13051638D02*
X14739741Y-13070686D01*
X14739741Y-13070686D02*
X14730218Y-13080210D01*
X14730218Y-13080210D02*
X14711170Y-13089734D01*
X14711170Y-13089734D02*
X14663551Y-13089734D01*
X14663551Y-13089734D02*
X14644503Y-13080210D01*
X14644503Y-13080210D02*
X14634979Y-13070686D01*
X14987360Y-13089734D02*
X14987360Y-12889734D01*
X15073075Y-13089734D02*
X15073075Y-12984972D01*
X15073075Y-12984972D02*
X15063551Y-12965924D01*
X15063551Y-12965924D02*
X15044503Y-12956400D01*
X15044503Y-12956400D02*
X15015932Y-12956400D01*
X15015932Y-12956400D02*
X14996884Y-12965924D01*
X14996884Y-12965924D02*
X14987360Y-12975448D01*
X15196884Y-13089734D02*
X15177837Y-13080210D01*
X15177837Y-13080210D02*
X15168313Y-13070686D01*
X15168313Y-13070686D02*
X15158789Y-13051638D01*
X15158789Y-13051638D02*
X15158789Y-12994496D01*
X15158789Y-12994496D02*
X15168313Y-12975448D01*
X15168313Y-12975448D02*
X15177837Y-12965924D01*
X15177837Y-12965924D02*
X15196884Y-12956400D01*
X15196884Y-12956400D02*
X15225456Y-12956400D01*
X15225456Y-12956400D02*
X15244503Y-12965924D01*
X15244503Y-12965924D02*
X15254027Y-12975448D01*
X15254027Y-12975448D02*
X15263551Y-12994496D01*
X15263551Y-12994496D02*
X15263551Y-13051638D01*
X15263551Y-13051638D02*
X15254027Y-13070686D01*
X15254027Y-13070686D02*
X15244503Y-13080210D01*
X15244503Y-13080210D02*
X15225456Y-13089734D01*
X15225456Y-13089734D02*
X15196884Y-13089734D01*
X15377837Y-13089734D02*
X15358789Y-13080210D01*
X15358789Y-13080210D02*
X15349265Y-13061162D01*
X15349265Y-13061162D02*
X15349265Y-12889734D01*
X15530218Y-13080210D02*
X15511170Y-13089734D01*
X15511170Y-13089734D02*
X15473075Y-13089734D01*
X15473075Y-13089734D02*
X15454027Y-13080210D01*
X15454027Y-13080210D02*
X15444503Y-13061162D01*
X15444503Y-13061162D02*
X15444503Y-12984972D01*
X15444503Y-12984972D02*
X15454027Y-12965924D01*
X15454027Y-12965924D02*
X15473075Y-12956400D01*
X15473075Y-12956400D02*
X15511170Y-12956400D01*
X15511170Y-12956400D02*
X15530218Y-12965924D01*
X15530218Y-12965924D02*
X15539741Y-12984972D01*
X15539741Y-12984972D02*
X15539741Y-13004019D01*
X15539741Y-13004019D02*
X15444503Y-13023067D01*
X15615932Y-13080210D02*
X15634980Y-13089734D01*
X15634980Y-13089734D02*
X15673075Y-13089734D01*
X15673075Y-13089734D02*
X15692122Y-13080210D01*
X15692122Y-13080210D02*
X15701646Y-13061162D01*
X15701646Y-13061162D02*
X15701646Y-13051638D01*
X15701646Y-13051638D02*
X15692122Y-13032591D01*
X15692122Y-13032591D02*
X15673075Y-13023067D01*
X15673075Y-13023067D02*
X15644503Y-13023067D01*
X15644503Y-13023067D02*
X15625456Y-13013543D01*
X15625456Y-13013543D02*
X15615932Y-12994496D01*
X15615932Y-12994496D02*
X15615932Y-12984972D01*
X15615932Y-12984972D02*
X15625456Y-12965924D01*
X15625456Y-12965924D02*
X15644503Y-12956400D01*
X15644503Y-12956400D02*
X15673075Y-12956400D01*
X15673075Y-12956400D02*
X15692122Y-12965924D01*
X15768313Y-13165924D02*
X15777837Y-13156400D01*
X15777837Y-13156400D02*
X15796884Y-13127829D01*
X15796884Y-13127829D02*
X15806408Y-13108781D01*
X15806408Y-13108781D02*
X15815932Y-13080210D01*
X15815932Y-13080210D02*
X15825456Y-13032591D01*
X15825456Y-13032591D02*
X15825456Y-12994496D01*
X15825456Y-12994496D02*
X15815932Y-12946877D01*
X15815932Y-12946877D02*
X15806408Y-12918305D01*
X15806408Y-12918305D02*
X15796884Y-12899258D01*
X15796884Y-12899258D02*
X15777837Y-12870686D01*
X15777837Y-12870686D02*
X15768313Y-12861162D01*
D12*
X10978250Y-13247250D02*
X10978250Y-13277250D01*
X10963250Y-13262250D02*
X10993250Y-13262250D01*
D11*
X11292122Y-13153734D02*
X11311170Y-13153734D01*
X11311170Y-13153734D02*
X11330217Y-13163258D01*
X11330217Y-13163258D02*
X11339741Y-13172781D01*
X11339741Y-13172781D02*
X11349265Y-13191829D01*
X11349265Y-13191829D02*
X11358789Y-13229924D01*
X11358789Y-13229924D02*
X11358789Y-13277543D01*
X11358789Y-13277543D02*
X11349265Y-13315638D01*
X11349265Y-13315638D02*
X11339741Y-13334686D01*
X11339741Y-13334686D02*
X11330217Y-13344210D01*
X11330217Y-13344210D02*
X11311170Y-13353734D01*
X11311170Y-13353734D02*
X11292122Y-13353734D01*
X11292122Y-13353734D02*
X11273074Y-13344210D01*
X11273074Y-13344210D02*
X11263551Y-13334686D01*
X11263551Y-13334686D02*
X11254027Y-13315638D01*
X11254027Y-13315638D02*
X11244503Y-13277543D01*
X11244503Y-13277543D02*
X11244503Y-13229924D01*
X11244503Y-13229924D02*
X11254027Y-13191829D01*
X11254027Y-13191829D02*
X11263551Y-13172781D01*
X11263551Y-13172781D02*
X11273074Y-13163258D01*
X11273074Y-13163258D02*
X11292122Y-13153734D01*
X11444503Y-13334686D02*
X11454027Y-13344210D01*
X11454027Y-13344210D02*
X11444503Y-13353734D01*
X11444503Y-13353734D02*
X11434979Y-13344210D01*
X11434979Y-13344210D02*
X11444503Y-13334686D01*
X11444503Y-13334686D02*
X11444503Y-13353734D01*
X11520693Y-13153734D02*
X11644503Y-13153734D01*
X11644503Y-13153734D02*
X11577836Y-13229924D01*
X11577836Y-13229924D02*
X11606408Y-13229924D01*
X11606408Y-13229924D02*
X11625455Y-13239448D01*
X11625455Y-13239448D02*
X11634979Y-13248972D01*
X11634979Y-13248972D02*
X11644503Y-13268019D01*
X11644503Y-13268019D02*
X11644503Y-13315638D01*
X11644503Y-13315638D02*
X11634979Y-13334686D01*
X11634979Y-13334686D02*
X11625455Y-13344210D01*
X11625455Y-13344210D02*
X11606408Y-13353734D01*
X11606408Y-13353734D02*
X11549265Y-13353734D01*
X11549265Y-13353734D02*
X11530217Y-13344210D01*
X11530217Y-13344210D02*
X11520693Y-13334686D01*
X11768312Y-13153734D02*
X11787360Y-13153734D01*
X11787360Y-13153734D02*
X11806408Y-13163258D01*
X11806408Y-13163258D02*
X11815932Y-13172781D01*
X11815932Y-13172781D02*
X11825455Y-13191829D01*
X11825455Y-13191829D02*
X11834979Y-13229924D01*
X11834979Y-13229924D02*
X11834979Y-13277543D01*
X11834979Y-13277543D02*
X11825455Y-13315638D01*
X11825455Y-13315638D02*
X11815932Y-13334686D01*
X11815932Y-13334686D02*
X11806408Y-13344210D01*
X11806408Y-13344210D02*
X11787360Y-13353734D01*
X11787360Y-13353734D02*
X11768312Y-13353734D01*
X11768312Y-13353734D02*
X11749265Y-13344210D01*
X11749265Y-13344210D02*
X11739741Y-13334686D01*
X11739741Y-13334686D02*
X11730217Y-13315638D01*
X11730217Y-13315638D02*
X11720693Y-13277543D01*
X11720693Y-13277543D02*
X11720693Y-13229924D01*
X11720693Y-13229924D02*
X11730217Y-13191829D01*
X11730217Y-13191829D02*
X11739741Y-13172781D01*
X11739741Y-13172781D02*
X11749265Y-13163258D01*
X11749265Y-13163258D02*
X11768312Y-13153734D01*
X11958789Y-13153734D02*
X11977836Y-13153734D01*
X11977836Y-13153734D02*
X11996884Y-13163258D01*
X11996884Y-13163258D02*
X12006408Y-13172781D01*
X12006408Y-13172781D02*
X12015932Y-13191829D01*
X12015932Y-13191829D02*
X12025455Y-13229924D01*
X12025455Y-13229924D02*
X12025455Y-13277543D01*
X12025455Y-13277543D02*
X12015932Y-13315638D01*
X12015932Y-13315638D02*
X12006408Y-13334686D01*
X12006408Y-13334686D02*
X11996884Y-13344210D01*
X11996884Y-13344210D02*
X11977836Y-13353734D01*
X11977836Y-13353734D02*
X11958789Y-13353734D01*
X11958789Y-13353734D02*
X11939741Y-13344210D01*
X11939741Y-13344210D02*
X11930217Y-13334686D01*
X11930217Y-13334686D02*
X11920693Y-13315638D01*
X11920693Y-13315638D02*
X11911170Y-13277543D01*
X11911170Y-13277543D02*
X11911170Y-13229924D01*
X11911170Y-13229924D02*
X11920693Y-13191829D01*
X11920693Y-13191829D02*
X11930217Y-13172781D01*
X11930217Y-13172781D02*
X11939741Y-13163258D01*
X11939741Y-13163258D02*
X11958789Y-13153734D01*
X12111170Y-13353734D02*
X12111170Y-13220400D01*
X12111170Y-13239448D02*
X12120693Y-13229924D01*
X12120693Y-13229924D02*
X12139741Y-13220400D01*
X12139741Y-13220400D02*
X12168313Y-13220400D01*
X12168313Y-13220400D02*
X12187360Y-13229924D01*
X12187360Y-13229924D02*
X12196884Y-13248972D01*
X12196884Y-13248972D02*
X12196884Y-13353734D01*
X12196884Y-13248972D02*
X12206408Y-13229924D01*
X12206408Y-13229924D02*
X12225455Y-13220400D01*
X12225455Y-13220400D02*
X12254027Y-13220400D01*
X12254027Y-13220400D02*
X12273074Y-13229924D01*
X12273074Y-13229924D02*
X12282598Y-13248972D01*
X12282598Y-13248972D02*
X12282598Y-13353734D01*
X12377836Y-13353734D02*
X12377836Y-13220400D01*
X12377836Y-13239448D02*
X12387360Y-13229924D01*
X12387360Y-13229924D02*
X12406408Y-13220400D01*
X12406408Y-13220400D02*
X12434979Y-13220400D01*
X12434979Y-13220400D02*
X12454027Y-13229924D01*
X12454027Y-13229924D02*
X12463551Y-13248972D01*
X12463551Y-13248972D02*
X12463551Y-13353734D01*
X12463551Y-13248972D02*
X12473074Y-13229924D01*
X12473074Y-13229924D02*
X12492122Y-13220400D01*
X12492122Y-13220400D02*
X12520693Y-13220400D01*
X12520693Y-13220400D02*
X12539741Y-13229924D01*
X12539741Y-13229924D02*
X12549265Y-13248972D01*
X12549265Y-13248972D02*
X12549265Y-13353734D01*
X12939741Y-13144210D02*
X12768313Y-13401353D01*
X13196884Y-13153734D02*
X13215932Y-13153734D01*
X13215932Y-13153734D02*
X13234979Y-13163258D01*
X13234979Y-13163258D02*
X13244503Y-13172781D01*
X13244503Y-13172781D02*
X13254027Y-13191829D01*
X13254027Y-13191829D02*
X13263551Y-13229924D01*
X13263551Y-13229924D02*
X13263551Y-13277543D01*
X13263551Y-13277543D02*
X13254027Y-13315638D01*
X13254027Y-13315638D02*
X13244503Y-13334686D01*
X13244503Y-13334686D02*
X13234979Y-13344210D01*
X13234979Y-13344210D02*
X13215932Y-13353734D01*
X13215932Y-13353734D02*
X13196884Y-13353734D01*
X13196884Y-13353734D02*
X13177836Y-13344210D01*
X13177836Y-13344210D02*
X13168313Y-13334686D01*
X13168313Y-13334686D02*
X13158789Y-13315638D01*
X13158789Y-13315638D02*
X13149265Y-13277543D01*
X13149265Y-13277543D02*
X13149265Y-13229924D01*
X13149265Y-13229924D02*
X13158789Y-13191829D01*
X13158789Y-13191829D02*
X13168313Y-13172781D01*
X13168313Y-13172781D02*
X13177836Y-13163258D01*
X13177836Y-13163258D02*
X13196884Y-13153734D01*
X13349265Y-13334686D02*
X13358789Y-13344210D01*
X13358789Y-13344210D02*
X13349265Y-13353734D01*
X13349265Y-13353734D02*
X13339741Y-13344210D01*
X13339741Y-13344210D02*
X13349265Y-13334686D01*
X13349265Y-13334686D02*
X13349265Y-13353734D01*
X13482598Y-13153734D02*
X13501646Y-13153734D01*
X13501646Y-13153734D02*
X13520694Y-13163258D01*
X13520694Y-13163258D02*
X13530217Y-13172781D01*
X13530217Y-13172781D02*
X13539741Y-13191829D01*
X13539741Y-13191829D02*
X13549265Y-13229924D01*
X13549265Y-13229924D02*
X13549265Y-13277543D01*
X13549265Y-13277543D02*
X13539741Y-13315638D01*
X13539741Y-13315638D02*
X13530217Y-13334686D01*
X13530217Y-13334686D02*
X13520694Y-13344210D01*
X13520694Y-13344210D02*
X13501646Y-13353734D01*
X13501646Y-13353734D02*
X13482598Y-13353734D01*
X13482598Y-13353734D02*
X13463551Y-13344210D01*
X13463551Y-13344210D02*
X13454027Y-13334686D01*
X13454027Y-13334686D02*
X13444503Y-13315638D01*
X13444503Y-13315638D02*
X13434979Y-13277543D01*
X13434979Y-13277543D02*
X13434979Y-13229924D01*
X13434979Y-13229924D02*
X13444503Y-13191829D01*
X13444503Y-13191829D02*
X13454027Y-13172781D01*
X13454027Y-13172781D02*
X13463551Y-13163258D01*
X13463551Y-13163258D02*
X13482598Y-13153734D01*
X13739741Y-13353734D02*
X13625456Y-13353734D01*
X13682598Y-13353734D02*
X13682598Y-13153734D01*
X13682598Y-13153734D02*
X13663551Y-13182305D01*
X13663551Y-13182305D02*
X13644503Y-13201353D01*
X13644503Y-13201353D02*
X13625456Y-13210877D01*
X13930217Y-13353734D02*
X13815932Y-13353734D01*
X13873075Y-13353734D02*
X13873075Y-13153734D01*
X13873075Y-13153734D02*
X13854027Y-13182305D01*
X13854027Y-13182305D02*
X13834979Y-13201353D01*
X13834979Y-13201353D02*
X13815932Y-13210877D01*
X14044503Y-13239448D02*
X14025456Y-13229924D01*
X14025456Y-13229924D02*
X14015932Y-13220400D01*
X14015932Y-13220400D02*
X14006408Y-13201353D01*
X14006408Y-13201353D02*
X14006408Y-13191829D01*
X14006408Y-13191829D02*
X14015932Y-13172781D01*
X14015932Y-13172781D02*
X14025456Y-13163258D01*
X14025456Y-13163258D02*
X14044503Y-13153734D01*
X14044503Y-13153734D02*
X14082598Y-13153734D01*
X14082598Y-13153734D02*
X14101646Y-13163258D01*
X14101646Y-13163258D02*
X14111170Y-13172781D01*
X14111170Y-13172781D02*
X14120694Y-13191829D01*
X14120694Y-13191829D02*
X14120694Y-13201353D01*
X14120694Y-13201353D02*
X14111170Y-13220400D01*
X14111170Y-13220400D02*
X14101646Y-13229924D01*
X14101646Y-13229924D02*
X14082598Y-13239448D01*
X14082598Y-13239448D02*
X14044503Y-13239448D01*
X14044503Y-13239448D02*
X14025456Y-13248972D01*
X14025456Y-13248972D02*
X14015932Y-13258496D01*
X14015932Y-13258496D02*
X14006408Y-13277543D01*
X14006408Y-13277543D02*
X14006408Y-13315638D01*
X14006408Y-13315638D02*
X14015932Y-13334686D01*
X14015932Y-13334686D02*
X14025456Y-13344210D01*
X14025456Y-13344210D02*
X14044503Y-13353734D01*
X14044503Y-13353734D02*
X14082598Y-13353734D01*
X14082598Y-13353734D02*
X14101646Y-13344210D01*
X14101646Y-13344210D02*
X14111170Y-13334686D01*
X14111170Y-13334686D02*
X14120694Y-13315638D01*
X14120694Y-13315638D02*
X14120694Y-13277543D01*
X14120694Y-13277543D02*
X14111170Y-13258496D01*
X14111170Y-13258496D02*
X14101646Y-13248972D01*
X14101646Y-13248972D02*
X14082598Y-13239448D01*
X14196884Y-13153734D02*
X14196884Y-13191829D01*
X14273075Y-13153734D02*
X14273075Y-13191829D01*
X14568313Y-13429924D02*
X14558789Y-13420400D01*
X14558789Y-13420400D02*
X14539741Y-13391829D01*
X14539741Y-13391829D02*
X14530218Y-13372781D01*
X14530218Y-13372781D02*
X14520694Y-13344210D01*
X14520694Y-13344210D02*
X14511170Y-13296591D01*
X14511170Y-13296591D02*
X14511170Y-13258496D01*
X14511170Y-13258496D02*
X14520694Y-13210877D01*
X14520694Y-13210877D02*
X14530218Y-13182305D01*
X14530218Y-13182305D02*
X14539741Y-13163258D01*
X14539741Y-13163258D02*
X14558789Y-13134686D01*
X14558789Y-13134686D02*
X14568313Y-13125162D01*
X14730218Y-13153734D02*
X14692122Y-13153734D01*
X14692122Y-13153734D02*
X14673075Y-13163258D01*
X14673075Y-13163258D02*
X14663551Y-13172781D01*
X14663551Y-13172781D02*
X14644503Y-13201353D01*
X14644503Y-13201353D02*
X14634979Y-13239448D01*
X14634979Y-13239448D02*
X14634979Y-13315638D01*
X14634979Y-13315638D02*
X14644503Y-13334686D01*
X14644503Y-13334686D02*
X14654027Y-13344210D01*
X14654027Y-13344210D02*
X14673075Y-13353734D01*
X14673075Y-13353734D02*
X14711170Y-13353734D01*
X14711170Y-13353734D02*
X14730218Y-13344210D01*
X14730218Y-13344210D02*
X14739741Y-13334686D01*
X14739741Y-13334686D02*
X14749265Y-13315638D01*
X14749265Y-13315638D02*
X14749265Y-13268019D01*
X14749265Y-13268019D02*
X14739741Y-13248972D01*
X14739741Y-13248972D02*
X14730218Y-13239448D01*
X14730218Y-13239448D02*
X14711170Y-13229924D01*
X14711170Y-13229924D02*
X14673075Y-13229924D01*
X14673075Y-13229924D02*
X14654027Y-13239448D01*
X14654027Y-13239448D02*
X14644503Y-13248972D01*
X14644503Y-13248972D02*
X14634979Y-13268019D01*
X14920694Y-13153734D02*
X14882598Y-13153734D01*
X14882598Y-13153734D02*
X14863551Y-13163258D01*
X14863551Y-13163258D02*
X14854027Y-13172781D01*
X14854027Y-13172781D02*
X14834979Y-13201353D01*
X14834979Y-13201353D02*
X14825456Y-13239448D01*
X14825456Y-13239448D02*
X14825456Y-13315638D01*
X14825456Y-13315638D02*
X14834979Y-13334686D01*
X14834979Y-13334686D02*
X14844503Y-13344210D01*
X14844503Y-13344210D02*
X14863551Y-13353734D01*
X14863551Y-13353734D02*
X14901646Y-13353734D01*
X14901646Y-13353734D02*
X14920694Y-13344210D01*
X14920694Y-13344210D02*
X14930218Y-13334686D01*
X14930218Y-13334686D02*
X14939741Y-13315638D01*
X14939741Y-13315638D02*
X14939741Y-13268019D01*
X14939741Y-13268019D02*
X14930218Y-13248972D01*
X14930218Y-13248972D02*
X14920694Y-13239448D01*
X14920694Y-13239448D02*
X14901646Y-13229924D01*
X14901646Y-13229924D02*
X14863551Y-13229924D01*
X14863551Y-13229924D02*
X14844503Y-13239448D01*
X14844503Y-13239448D02*
X14834979Y-13248972D01*
X14834979Y-13248972D02*
X14825456Y-13268019D01*
X15177837Y-13353734D02*
X15177837Y-13153734D01*
X15263551Y-13353734D02*
X15263551Y-13248972D01*
X15263551Y-13248972D02*
X15254027Y-13229924D01*
X15254027Y-13229924D02*
X15234980Y-13220400D01*
X15234980Y-13220400D02*
X15206408Y-13220400D01*
X15206408Y-13220400D02*
X15187360Y-13229924D01*
X15187360Y-13229924D02*
X15177837Y-13239448D01*
X15387360Y-13353734D02*
X15368313Y-13344210D01*
X15368313Y-13344210D02*
X15358789Y-13334686D01*
X15358789Y-13334686D02*
X15349265Y-13315638D01*
X15349265Y-13315638D02*
X15349265Y-13258496D01*
X15349265Y-13258496D02*
X15358789Y-13239448D01*
X15358789Y-13239448D02*
X15368313Y-13229924D01*
X15368313Y-13229924D02*
X15387360Y-13220400D01*
X15387360Y-13220400D02*
X15415932Y-13220400D01*
X15415932Y-13220400D02*
X15434980Y-13229924D01*
X15434980Y-13229924D02*
X15444503Y-13239448D01*
X15444503Y-13239448D02*
X15454027Y-13258496D01*
X15454027Y-13258496D02*
X15454027Y-13315638D01*
X15454027Y-13315638D02*
X15444503Y-13334686D01*
X15444503Y-13334686D02*
X15434980Y-13344210D01*
X15434980Y-13344210D02*
X15415932Y-13353734D01*
X15415932Y-13353734D02*
X15387360Y-13353734D01*
X15568313Y-13353734D02*
X15549265Y-13344210D01*
X15549265Y-13344210D02*
X15539741Y-13325162D01*
X15539741Y-13325162D02*
X15539741Y-13153734D01*
X15720694Y-13344210D02*
X15701646Y-13353734D01*
X15701646Y-13353734D02*
X15663551Y-13353734D01*
X15663551Y-13353734D02*
X15644503Y-13344210D01*
X15644503Y-13344210D02*
X15634980Y-13325162D01*
X15634980Y-13325162D02*
X15634980Y-13248972D01*
X15634980Y-13248972D02*
X15644503Y-13229924D01*
X15644503Y-13229924D02*
X15663551Y-13220400D01*
X15663551Y-13220400D02*
X15701646Y-13220400D01*
X15701646Y-13220400D02*
X15720694Y-13229924D01*
X15720694Y-13229924D02*
X15730218Y-13248972D01*
X15730218Y-13248972D02*
X15730218Y-13268019D01*
X15730218Y-13268019D02*
X15634980Y-13287067D01*
X15806408Y-13344210D02*
X15825456Y-13353734D01*
X15825456Y-13353734D02*
X15863551Y-13353734D01*
X15863551Y-13353734D02*
X15882599Y-13344210D01*
X15882599Y-13344210D02*
X15892122Y-13325162D01*
X15892122Y-13325162D02*
X15892122Y-13315638D01*
X15892122Y-13315638D02*
X15882599Y-13296591D01*
X15882599Y-13296591D02*
X15863551Y-13287067D01*
X15863551Y-13287067D02*
X15834980Y-13287067D01*
X15834980Y-13287067D02*
X15815932Y-13277543D01*
X15815932Y-13277543D02*
X15806408Y-13258496D01*
X15806408Y-13258496D02*
X15806408Y-13248972D01*
X15806408Y-13248972D02*
X15815932Y-13229924D01*
X15815932Y-13229924D02*
X15834980Y-13220400D01*
X15834980Y-13220400D02*
X15863551Y-13220400D01*
X15863551Y-13220400D02*
X15882599Y-13229924D01*
X15958789Y-13429924D02*
X15968313Y-13420400D01*
X15968313Y-13420400D02*
X15987361Y-13391829D01*
X15987361Y-13391829D02*
X15996884Y-13372781D01*
X15996884Y-13372781D02*
X16006408Y-13344210D01*
X16006408Y-13344210D02*
X16015932Y-13296591D01*
X16015932Y-13296591D02*
X16015932Y-13258496D01*
X16015932Y-13258496D02*
X16006408Y-13210877D01*
X16006408Y-13210877D02*
X15996884Y-13182305D01*
X15996884Y-13182305D02*
X15987361Y-13163258D01*
X15987361Y-13163258D02*
X15968313Y-13134686D01*
X15968313Y-13134686D02*
X15958789Y-13125162D01*
D12*
X10987392Y-13540392D02*
X10987392Y-13512108D01*
X10959108Y-13512108D01*
X10959108Y-13540392D01*
X10987392Y-13540392D01*
D11*
X11292122Y-13417734D02*
X11311170Y-13417734D01*
X11311170Y-13417734D02*
X11330217Y-13427258D01*
X11330217Y-13427258D02*
X11339741Y-13436781D01*
X11339741Y-13436781D02*
X11349265Y-13455829D01*
X11349265Y-13455829D02*
X11358789Y-13493924D01*
X11358789Y-13493924D02*
X11358789Y-13541543D01*
X11358789Y-13541543D02*
X11349265Y-13579638D01*
X11349265Y-13579638D02*
X11339741Y-13598686D01*
X11339741Y-13598686D02*
X11330217Y-13608210D01*
X11330217Y-13608210D02*
X11311170Y-13617734D01*
X11311170Y-13617734D02*
X11292122Y-13617734D01*
X11292122Y-13617734D02*
X11273074Y-13608210D01*
X11273074Y-13608210D02*
X11263551Y-13598686D01*
X11263551Y-13598686D02*
X11254027Y-13579638D01*
X11254027Y-13579638D02*
X11244503Y-13541543D01*
X11244503Y-13541543D02*
X11244503Y-13493924D01*
X11244503Y-13493924D02*
X11254027Y-13455829D01*
X11254027Y-13455829D02*
X11263551Y-13436781D01*
X11263551Y-13436781D02*
X11273074Y-13427258D01*
X11273074Y-13427258D02*
X11292122Y-13417734D01*
X11444503Y-13598686D02*
X11454027Y-13608210D01*
X11454027Y-13608210D02*
X11444503Y-13617734D01*
X11444503Y-13617734D02*
X11434979Y-13608210D01*
X11434979Y-13608210D02*
X11444503Y-13598686D01*
X11444503Y-13598686D02*
X11444503Y-13617734D01*
X11625455Y-13484400D02*
X11625455Y-13617734D01*
X11577836Y-13408210D02*
X11530217Y-13551067D01*
X11530217Y-13551067D02*
X11654027Y-13551067D01*
X11768312Y-13417734D02*
X11787360Y-13417734D01*
X11787360Y-13417734D02*
X11806408Y-13427258D01*
X11806408Y-13427258D02*
X11815932Y-13436781D01*
X11815932Y-13436781D02*
X11825455Y-13455829D01*
X11825455Y-13455829D02*
X11834979Y-13493924D01*
X11834979Y-13493924D02*
X11834979Y-13541543D01*
X11834979Y-13541543D02*
X11825455Y-13579638D01*
X11825455Y-13579638D02*
X11815932Y-13598686D01*
X11815932Y-13598686D02*
X11806408Y-13608210D01*
X11806408Y-13608210D02*
X11787360Y-13617734D01*
X11787360Y-13617734D02*
X11768312Y-13617734D01*
X11768312Y-13617734D02*
X11749265Y-13608210D01*
X11749265Y-13608210D02*
X11739741Y-13598686D01*
X11739741Y-13598686D02*
X11730217Y-13579638D01*
X11730217Y-13579638D02*
X11720693Y-13541543D01*
X11720693Y-13541543D02*
X11720693Y-13493924D01*
X11720693Y-13493924D02*
X11730217Y-13455829D01*
X11730217Y-13455829D02*
X11739741Y-13436781D01*
X11739741Y-13436781D02*
X11749265Y-13427258D01*
X11749265Y-13427258D02*
X11768312Y-13417734D01*
X11958789Y-13417734D02*
X11977836Y-13417734D01*
X11977836Y-13417734D02*
X11996884Y-13427258D01*
X11996884Y-13427258D02*
X12006408Y-13436781D01*
X12006408Y-13436781D02*
X12015932Y-13455829D01*
X12015932Y-13455829D02*
X12025455Y-13493924D01*
X12025455Y-13493924D02*
X12025455Y-13541543D01*
X12025455Y-13541543D02*
X12015932Y-13579638D01*
X12015932Y-13579638D02*
X12006408Y-13598686D01*
X12006408Y-13598686D02*
X11996884Y-13608210D01*
X11996884Y-13608210D02*
X11977836Y-13617734D01*
X11977836Y-13617734D02*
X11958789Y-13617734D01*
X11958789Y-13617734D02*
X11939741Y-13608210D01*
X11939741Y-13608210D02*
X11930217Y-13598686D01*
X11930217Y-13598686D02*
X11920693Y-13579638D01*
X11920693Y-13579638D02*
X11911170Y-13541543D01*
X11911170Y-13541543D02*
X11911170Y-13493924D01*
X11911170Y-13493924D02*
X11920693Y-13455829D01*
X11920693Y-13455829D02*
X11930217Y-13436781D01*
X11930217Y-13436781D02*
X11939741Y-13427258D01*
X11939741Y-13427258D02*
X11958789Y-13417734D01*
X12111170Y-13617734D02*
X12111170Y-13484400D01*
X12111170Y-13503448D02*
X12120693Y-13493924D01*
X12120693Y-13493924D02*
X12139741Y-13484400D01*
X12139741Y-13484400D02*
X12168313Y-13484400D01*
X12168313Y-13484400D02*
X12187360Y-13493924D01*
X12187360Y-13493924D02*
X12196884Y-13512972D01*
X12196884Y-13512972D02*
X12196884Y-13617734D01*
X12196884Y-13512972D02*
X12206408Y-13493924D01*
X12206408Y-13493924D02*
X12225455Y-13484400D01*
X12225455Y-13484400D02*
X12254027Y-13484400D01*
X12254027Y-13484400D02*
X12273074Y-13493924D01*
X12273074Y-13493924D02*
X12282598Y-13512972D01*
X12282598Y-13512972D02*
X12282598Y-13617734D01*
X12377836Y-13617734D02*
X12377836Y-13484400D01*
X12377836Y-13503448D02*
X12387360Y-13493924D01*
X12387360Y-13493924D02*
X12406408Y-13484400D01*
X12406408Y-13484400D02*
X12434979Y-13484400D01*
X12434979Y-13484400D02*
X12454027Y-13493924D01*
X12454027Y-13493924D02*
X12463551Y-13512972D01*
X12463551Y-13512972D02*
X12463551Y-13617734D01*
X12463551Y-13512972D02*
X12473074Y-13493924D01*
X12473074Y-13493924D02*
X12492122Y-13484400D01*
X12492122Y-13484400D02*
X12520693Y-13484400D01*
X12520693Y-13484400D02*
X12539741Y-13493924D01*
X12539741Y-13493924D02*
X12549265Y-13512972D01*
X12549265Y-13512972D02*
X12549265Y-13617734D01*
X12939741Y-13408210D02*
X12768313Y-13665353D01*
X13196884Y-13417734D02*
X13215932Y-13417734D01*
X13215932Y-13417734D02*
X13234979Y-13427258D01*
X13234979Y-13427258D02*
X13244503Y-13436781D01*
X13244503Y-13436781D02*
X13254027Y-13455829D01*
X13254027Y-13455829D02*
X13263551Y-13493924D01*
X13263551Y-13493924D02*
X13263551Y-13541543D01*
X13263551Y-13541543D02*
X13254027Y-13579638D01*
X13254027Y-13579638D02*
X13244503Y-13598686D01*
X13244503Y-13598686D02*
X13234979Y-13608210D01*
X13234979Y-13608210D02*
X13215932Y-13617734D01*
X13215932Y-13617734D02*
X13196884Y-13617734D01*
X13196884Y-13617734D02*
X13177836Y-13608210D01*
X13177836Y-13608210D02*
X13168313Y-13598686D01*
X13168313Y-13598686D02*
X13158789Y-13579638D01*
X13158789Y-13579638D02*
X13149265Y-13541543D01*
X13149265Y-13541543D02*
X13149265Y-13493924D01*
X13149265Y-13493924D02*
X13158789Y-13455829D01*
X13158789Y-13455829D02*
X13168313Y-13436781D01*
X13168313Y-13436781D02*
X13177836Y-13427258D01*
X13177836Y-13427258D02*
X13196884Y-13417734D01*
X13349265Y-13598686D02*
X13358789Y-13608210D01*
X13358789Y-13608210D02*
X13349265Y-13617734D01*
X13349265Y-13617734D02*
X13339741Y-13608210D01*
X13339741Y-13608210D02*
X13349265Y-13598686D01*
X13349265Y-13598686D02*
X13349265Y-13617734D01*
X13482598Y-13417734D02*
X13501646Y-13417734D01*
X13501646Y-13417734D02*
X13520694Y-13427258D01*
X13520694Y-13427258D02*
X13530217Y-13436781D01*
X13530217Y-13436781D02*
X13539741Y-13455829D01*
X13539741Y-13455829D02*
X13549265Y-13493924D01*
X13549265Y-13493924D02*
X13549265Y-13541543D01*
X13549265Y-13541543D02*
X13539741Y-13579638D01*
X13539741Y-13579638D02*
X13530217Y-13598686D01*
X13530217Y-13598686D02*
X13520694Y-13608210D01*
X13520694Y-13608210D02*
X13501646Y-13617734D01*
X13501646Y-13617734D02*
X13482598Y-13617734D01*
X13482598Y-13617734D02*
X13463551Y-13608210D01*
X13463551Y-13608210D02*
X13454027Y-13598686D01*
X13454027Y-13598686D02*
X13444503Y-13579638D01*
X13444503Y-13579638D02*
X13434979Y-13541543D01*
X13434979Y-13541543D02*
X13434979Y-13493924D01*
X13434979Y-13493924D02*
X13444503Y-13455829D01*
X13444503Y-13455829D02*
X13454027Y-13436781D01*
X13454027Y-13436781D02*
X13463551Y-13427258D01*
X13463551Y-13427258D02*
X13482598Y-13417734D01*
X13739741Y-13617734D02*
X13625456Y-13617734D01*
X13682598Y-13617734D02*
X13682598Y-13417734D01*
X13682598Y-13417734D02*
X13663551Y-13446305D01*
X13663551Y-13446305D02*
X13644503Y-13465353D01*
X13644503Y-13465353D02*
X13625456Y-13474877D01*
X13920694Y-13417734D02*
X13825456Y-13417734D01*
X13825456Y-13417734D02*
X13815932Y-13512972D01*
X13815932Y-13512972D02*
X13825456Y-13503448D01*
X13825456Y-13503448D02*
X13844503Y-13493924D01*
X13844503Y-13493924D02*
X13892122Y-13493924D01*
X13892122Y-13493924D02*
X13911170Y-13503448D01*
X13911170Y-13503448D02*
X13920694Y-13512972D01*
X13920694Y-13512972D02*
X13930217Y-13532019D01*
X13930217Y-13532019D02*
X13930217Y-13579638D01*
X13930217Y-13579638D02*
X13920694Y-13598686D01*
X13920694Y-13598686D02*
X13911170Y-13608210D01*
X13911170Y-13608210D02*
X13892122Y-13617734D01*
X13892122Y-13617734D02*
X13844503Y-13617734D01*
X13844503Y-13617734D02*
X13825456Y-13608210D01*
X13825456Y-13608210D02*
X13815932Y-13598686D01*
X13996884Y-13417734D02*
X14130217Y-13417734D01*
X14130217Y-13417734D02*
X14044503Y-13617734D01*
X14196884Y-13417734D02*
X14196884Y-13455829D01*
X14273075Y-13417734D02*
X14273075Y-13455829D01*
X14568313Y-13693924D02*
X14558789Y-13684400D01*
X14558789Y-13684400D02*
X14539741Y-13655829D01*
X14539741Y-13655829D02*
X14530218Y-13636781D01*
X14530218Y-13636781D02*
X14520694Y-13608210D01*
X14520694Y-13608210D02*
X14511170Y-13560591D01*
X14511170Y-13560591D02*
X14511170Y-13522496D01*
X14511170Y-13522496D02*
X14520694Y-13474877D01*
X14520694Y-13474877D02*
X14530218Y-13446305D01*
X14530218Y-13446305D02*
X14539741Y-13427258D01*
X14539741Y-13427258D02*
X14558789Y-13398686D01*
X14558789Y-13398686D02*
X14568313Y-13389162D01*
X14739741Y-13417734D02*
X14644503Y-13417734D01*
X14644503Y-13417734D02*
X14634979Y-13512972D01*
X14634979Y-13512972D02*
X14644503Y-13503448D01*
X14644503Y-13503448D02*
X14663551Y-13493924D01*
X14663551Y-13493924D02*
X14711170Y-13493924D01*
X14711170Y-13493924D02*
X14730218Y-13503448D01*
X14730218Y-13503448D02*
X14739741Y-13512972D01*
X14739741Y-13512972D02*
X14749265Y-13532019D01*
X14749265Y-13532019D02*
X14749265Y-13579638D01*
X14749265Y-13579638D02*
X14739741Y-13598686D01*
X14739741Y-13598686D02*
X14730218Y-13608210D01*
X14730218Y-13608210D02*
X14711170Y-13617734D01*
X14711170Y-13617734D02*
X14663551Y-13617734D01*
X14663551Y-13617734D02*
X14644503Y-13608210D01*
X14644503Y-13608210D02*
X14634979Y-13598686D01*
X14930218Y-13417734D02*
X14834979Y-13417734D01*
X14834979Y-13417734D02*
X14825456Y-13512972D01*
X14825456Y-13512972D02*
X14834979Y-13503448D01*
X14834979Y-13503448D02*
X14854027Y-13493924D01*
X14854027Y-13493924D02*
X14901646Y-13493924D01*
X14901646Y-13493924D02*
X14920694Y-13503448D01*
X14920694Y-13503448D02*
X14930218Y-13512972D01*
X14930218Y-13512972D02*
X14939741Y-13532019D01*
X14939741Y-13532019D02*
X14939741Y-13579638D01*
X14939741Y-13579638D02*
X14930218Y-13598686D01*
X14930218Y-13598686D02*
X14920694Y-13608210D01*
X14920694Y-13608210D02*
X14901646Y-13617734D01*
X14901646Y-13617734D02*
X14854027Y-13617734D01*
X14854027Y-13617734D02*
X14834979Y-13608210D01*
X14834979Y-13608210D02*
X14825456Y-13598686D01*
X15177837Y-13617734D02*
X15177837Y-13417734D01*
X15263551Y-13617734D02*
X15263551Y-13512972D01*
X15263551Y-13512972D02*
X15254027Y-13493924D01*
X15254027Y-13493924D02*
X15234980Y-13484400D01*
X15234980Y-13484400D02*
X15206408Y-13484400D01*
X15206408Y-13484400D02*
X15187360Y-13493924D01*
X15187360Y-13493924D02*
X15177837Y-13503448D01*
X15387360Y-13617734D02*
X15368313Y-13608210D01*
X15368313Y-13608210D02*
X15358789Y-13598686D01*
X15358789Y-13598686D02*
X15349265Y-13579638D01*
X15349265Y-13579638D02*
X15349265Y-13522496D01*
X15349265Y-13522496D02*
X15358789Y-13503448D01*
X15358789Y-13503448D02*
X15368313Y-13493924D01*
X15368313Y-13493924D02*
X15387360Y-13484400D01*
X15387360Y-13484400D02*
X15415932Y-13484400D01*
X15415932Y-13484400D02*
X15434980Y-13493924D01*
X15434980Y-13493924D02*
X15444503Y-13503448D01*
X15444503Y-13503448D02*
X15454027Y-13522496D01*
X15454027Y-13522496D02*
X15454027Y-13579638D01*
X15454027Y-13579638D02*
X15444503Y-13598686D01*
X15444503Y-13598686D02*
X15434980Y-13608210D01*
X15434980Y-13608210D02*
X15415932Y-13617734D01*
X15415932Y-13617734D02*
X15387360Y-13617734D01*
X15568313Y-13617734D02*
X15549265Y-13608210D01*
X15549265Y-13608210D02*
X15539741Y-13589162D01*
X15539741Y-13589162D02*
X15539741Y-13417734D01*
X15720694Y-13608210D02*
X15701646Y-13617734D01*
X15701646Y-13617734D02*
X15663551Y-13617734D01*
X15663551Y-13617734D02*
X15644503Y-13608210D01*
X15644503Y-13608210D02*
X15634980Y-13589162D01*
X15634980Y-13589162D02*
X15634980Y-13512972D01*
X15634980Y-13512972D02*
X15644503Y-13493924D01*
X15644503Y-13493924D02*
X15663551Y-13484400D01*
X15663551Y-13484400D02*
X15701646Y-13484400D01*
X15701646Y-13484400D02*
X15720694Y-13493924D01*
X15720694Y-13493924D02*
X15730218Y-13512972D01*
X15730218Y-13512972D02*
X15730218Y-13532019D01*
X15730218Y-13532019D02*
X15634980Y-13551067D01*
X15806408Y-13608210D02*
X15825456Y-13617734D01*
X15825456Y-13617734D02*
X15863551Y-13617734D01*
X15863551Y-13617734D02*
X15882599Y-13608210D01*
X15882599Y-13608210D02*
X15892122Y-13589162D01*
X15892122Y-13589162D02*
X15892122Y-13579638D01*
X15892122Y-13579638D02*
X15882599Y-13560591D01*
X15882599Y-13560591D02*
X15863551Y-13551067D01*
X15863551Y-13551067D02*
X15834980Y-13551067D01*
X15834980Y-13551067D02*
X15815932Y-13541543D01*
X15815932Y-13541543D02*
X15806408Y-13522496D01*
X15806408Y-13522496D02*
X15806408Y-13512972D01*
X15806408Y-13512972D02*
X15815932Y-13493924D01*
X15815932Y-13493924D02*
X15834980Y-13484400D01*
X15834980Y-13484400D02*
X15863551Y-13484400D01*
X15863551Y-13484400D02*
X15882599Y-13493924D01*
X15958789Y-13693924D02*
X15968313Y-13684400D01*
X15968313Y-13684400D02*
X15987361Y-13655829D01*
X15987361Y-13655829D02*
X15996884Y-13636781D01*
X15996884Y-13636781D02*
X16006408Y-13608210D01*
X16006408Y-13608210D02*
X16015932Y-13560591D01*
X16015932Y-13560591D02*
X16015932Y-13522496D01*
X16015932Y-13522496D02*
X16006408Y-13474877D01*
X16006408Y-13474877D02*
X15996884Y-13446305D01*
X15996884Y-13446305D02*
X15987361Y-13427258D01*
X15987361Y-13427258D02*
X15968313Y-13398686D01*
X15968313Y-13398686D02*
X15958789Y-13389162D01*
D12*
X10963250Y-13820250D02*
X10993250Y-13790250D01*
X10963250Y-13760250D01*
X10933250Y-13790250D01*
X10963250Y-13820250D01*
D11*
X11292122Y-13681734D02*
X11311170Y-13681734D01*
X11311170Y-13681734D02*
X11330217Y-13691258D01*
X11330217Y-13691258D02*
X11339741Y-13700781D01*
X11339741Y-13700781D02*
X11349265Y-13719829D01*
X11349265Y-13719829D02*
X11358789Y-13757924D01*
X11358789Y-13757924D02*
X11358789Y-13805543D01*
X11358789Y-13805543D02*
X11349265Y-13843638D01*
X11349265Y-13843638D02*
X11339741Y-13862686D01*
X11339741Y-13862686D02*
X11330217Y-13872210D01*
X11330217Y-13872210D02*
X11311170Y-13881734D01*
X11311170Y-13881734D02*
X11292122Y-13881734D01*
X11292122Y-13881734D02*
X11273074Y-13872210D01*
X11273074Y-13872210D02*
X11263551Y-13862686D01*
X11263551Y-13862686D02*
X11254027Y-13843638D01*
X11254027Y-13843638D02*
X11244503Y-13805543D01*
X11244503Y-13805543D02*
X11244503Y-13757924D01*
X11244503Y-13757924D02*
X11254027Y-13719829D01*
X11254027Y-13719829D02*
X11263551Y-13700781D01*
X11263551Y-13700781D02*
X11273074Y-13691258D01*
X11273074Y-13691258D02*
X11292122Y-13681734D01*
X11444503Y-13862686D02*
X11454027Y-13872210D01*
X11454027Y-13872210D02*
X11444503Y-13881734D01*
X11444503Y-13881734D02*
X11434979Y-13872210D01*
X11434979Y-13872210D02*
X11444503Y-13862686D01*
X11444503Y-13862686D02*
X11444503Y-13881734D01*
X11625455Y-13681734D02*
X11587360Y-13681734D01*
X11587360Y-13681734D02*
X11568312Y-13691258D01*
X11568312Y-13691258D02*
X11558789Y-13700781D01*
X11558789Y-13700781D02*
X11539741Y-13729353D01*
X11539741Y-13729353D02*
X11530217Y-13767448D01*
X11530217Y-13767448D02*
X11530217Y-13843638D01*
X11530217Y-13843638D02*
X11539741Y-13862686D01*
X11539741Y-13862686D02*
X11549265Y-13872210D01*
X11549265Y-13872210D02*
X11568312Y-13881734D01*
X11568312Y-13881734D02*
X11606408Y-13881734D01*
X11606408Y-13881734D02*
X11625455Y-13872210D01*
X11625455Y-13872210D02*
X11634979Y-13862686D01*
X11634979Y-13862686D02*
X11644503Y-13843638D01*
X11644503Y-13843638D02*
X11644503Y-13796019D01*
X11644503Y-13796019D02*
X11634979Y-13776972D01*
X11634979Y-13776972D02*
X11625455Y-13767448D01*
X11625455Y-13767448D02*
X11606408Y-13757924D01*
X11606408Y-13757924D02*
X11568312Y-13757924D01*
X11568312Y-13757924D02*
X11549265Y-13767448D01*
X11549265Y-13767448D02*
X11539741Y-13776972D01*
X11539741Y-13776972D02*
X11530217Y-13796019D01*
X11768312Y-13681734D02*
X11787360Y-13681734D01*
X11787360Y-13681734D02*
X11806408Y-13691258D01*
X11806408Y-13691258D02*
X11815932Y-13700781D01*
X11815932Y-13700781D02*
X11825455Y-13719829D01*
X11825455Y-13719829D02*
X11834979Y-13757924D01*
X11834979Y-13757924D02*
X11834979Y-13805543D01*
X11834979Y-13805543D02*
X11825455Y-13843638D01*
X11825455Y-13843638D02*
X11815932Y-13862686D01*
X11815932Y-13862686D02*
X11806408Y-13872210D01*
X11806408Y-13872210D02*
X11787360Y-13881734D01*
X11787360Y-13881734D02*
X11768312Y-13881734D01*
X11768312Y-13881734D02*
X11749265Y-13872210D01*
X11749265Y-13872210D02*
X11739741Y-13862686D01*
X11739741Y-13862686D02*
X11730217Y-13843638D01*
X11730217Y-13843638D02*
X11720693Y-13805543D01*
X11720693Y-13805543D02*
X11720693Y-13757924D01*
X11720693Y-13757924D02*
X11730217Y-13719829D01*
X11730217Y-13719829D02*
X11739741Y-13700781D01*
X11739741Y-13700781D02*
X11749265Y-13691258D01*
X11749265Y-13691258D02*
X11768312Y-13681734D01*
X11958789Y-13681734D02*
X11977836Y-13681734D01*
X11977836Y-13681734D02*
X11996884Y-13691258D01*
X11996884Y-13691258D02*
X12006408Y-13700781D01*
X12006408Y-13700781D02*
X12015932Y-13719829D01*
X12015932Y-13719829D02*
X12025455Y-13757924D01*
X12025455Y-13757924D02*
X12025455Y-13805543D01*
X12025455Y-13805543D02*
X12015932Y-13843638D01*
X12015932Y-13843638D02*
X12006408Y-13862686D01*
X12006408Y-13862686D02*
X11996884Y-13872210D01*
X11996884Y-13872210D02*
X11977836Y-13881734D01*
X11977836Y-13881734D02*
X11958789Y-13881734D01*
X11958789Y-13881734D02*
X11939741Y-13872210D01*
X11939741Y-13872210D02*
X11930217Y-13862686D01*
X11930217Y-13862686D02*
X11920693Y-13843638D01*
X11920693Y-13843638D02*
X11911170Y-13805543D01*
X11911170Y-13805543D02*
X11911170Y-13757924D01*
X11911170Y-13757924D02*
X11920693Y-13719829D01*
X11920693Y-13719829D02*
X11930217Y-13700781D01*
X11930217Y-13700781D02*
X11939741Y-13691258D01*
X11939741Y-13691258D02*
X11958789Y-13681734D01*
X12111170Y-13881734D02*
X12111170Y-13748400D01*
X12111170Y-13767448D02*
X12120693Y-13757924D01*
X12120693Y-13757924D02*
X12139741Y-13748400D01*
X12139741Y-13748400D02*
X12168313Y-13748400D01*
X12168313Y-13748400D02*
X12187360Y-13757924D01*
X12187360Y-13757924D02*
X12196884Y-13776972D01*
X12196884Y-13776972D02*
X12196884Y-13881734D01*
X12196884Y-13776972D02*
X12206408Y-13757924D01*
X12206408Y-13757924D02*
X12225455Y-13748400D01*
X12225455Y-13748400D02*
X12254027Y-13748400D01*
X12254027Y-13748400D02*
X12273074Y-13757924D01*
X12273074Y-13757924D02*
X12282598Y-13776972D01*
X12282598Y-13776972D02*
X12282598Y-13881734D01*
X12377836Y-13881734D02*
X12377836Y-13748400D01*
X12377836Y-13767448D02*
X12387360Y-13757924D01*
X12387360Y-13757924D02*
X12406408Y-13748400D01*
X12406408Y-13748400D02*
X12434979Y-13748400D01*
X12434979Y-13748400D02*
X12454027Y-13757924D01*
X12454027Y-13757924D02*
X12463551Y-13776972D01*
X12463551Y-13776972D02*
X12463551Y-13881734D01*
X12463551Y-13776972D02*
X12473074Y-13757924D01*
X12473074Y-13757924D02*
X12492122Y-13748400D01*
X12492122Y-13748400D02*
X12520693Y-13748400D01*
X12520693Y-13748400D02*
X12539741Y-13757924D01*
X12539741Y-13757924D02*
X12549265Y-13776972D01*
X12549265Y-13776972D02*
X12549265Y-13881734D01*
X12939741Y-13672210D02*
X12768313Y-13929353D01*
X13196884Y-13681734D02*
X13215932Y-13681734D01*
X13215932Y-13681734D02*
X13234979Y-13691258D01*
X13234979Y-13691258D02*
X13244503Y-13700781D01*
X13244503Y-13700781D02*
X13254027Y-13719829D01*
X13254027Y-13719829D02*
X13263551Y-13757924D01*
X13263551Y-13757924D02*
X13263551Y-13805543D01*
X13263551Y-13805543D02*
X13254027Y-13843638D01*
X13254027Y-13843638D02*
X13244503Y-13862686D01*
X13244503Y-13862686D02*
X13234979Y-13872210D01*
X13234979Y-13872210D02*
X13215932Y-13881734D01*
X13215932Y-13881734D02*
X13196884Y-13881734D01*
X13196884Y-13881734D02*
X13177836Y-13872210D01*
X13177836Y-13872210D02*
X13168313Y-13862686D01*
X13168313Y-13862686D02*
X13158789Y-13843638D01*
X13158789Y-13843638D02*
X13149265Y-13805543D01*
X13149265Y-13805543D02*
X13149265Y-13757924D01*
X13149265Y-13757924D02*
X13158789Y-13719829D01*
X13158789Y-13719829D02*
X13168313Y-13700781D01*
X13168313Y-13700781D02*
X13177836Y-13691258D01*
X13177836Y-13691258D02*
X13196884Y-13681734D01*
X13349265Y-13862686D02*
X13358789Y-13872210D01*
X13358789Y-13872210D02*
X13349265Y-13881734D01*
X13349265Y-13881734D02*
X13339741Y-13872210D01*
X13339741Y-13872210D02*
X13349265Y-13862686D01*
X13349265Y-13862686D02*
X13349265Y-13881734D01*
X13482598Y-13681734D02*
X13501646Y-13681734D01*
X13501646Y-13681734D02*
X13520694Y-13691258D01*
X13520694Y-13691258D02*
X13530217Y-13700781D01*
X13530217Y-13700781D02*
X13539741Y-13719829D01*
X13539741Y-13719829D02*
X13549265Y-13757924D01*
X13549265Y-13757924D02*
X13549265Y-13805543D01*
X13549265Y-13805543D02*
X13539741Y-13843638D01*
X13539741Y-13843638D02*
X13530217Y-13862686D01*
X13530217Y-13862686D02*
X13520694Y-13872210D01*
X13520694Y-13872210D02*
X13501646Y-13881734D01*
X13501646Y-13881734D02*
X13482598Y-13881734D01*
X13482598Y-13881734D02*
X13463551Y-13872210D01*
X13463551Y-13872210D02*
X13454027Y-13862686D01*
X13454027Y-13862686D02*
X13444503Y-13843638D01*
X13444503Y-13843638D02*
X13434979Y-13805543D01*
X13434979Y-13805543D02*
X13434979Y-13757924D01*
X13434979Y-13757924D02*
X13444503Y-13719829D01*
X13444503Y-13719829D02*
X13454027Y-13700781D01*
X13454027Y-13700781D02*
X13463551Y-13691258D01*
X13463551Y-13691258D02*
X13482598Y-13681734D01*
X13625456Y-13700781D02*
X13634979Y-13691258D01*
X13634979Y-13691258D02*
X13654027Y-13681734D01*
X13654027Y-13681734D02*
X13701646Y-13681734D01*
X13701646Y-13681734D02*
X13720694Y-13691258D01*
X13720694Y-13691258D02*
X13730217Y-13700781D01*
X13730217Y-13700781D02*
X13739741Y-13719829D01*
X13739741Y-13719829D02*
X13739741Y-13738877D01*
X13739741Y-13738877D02*
X13730217Y-13767448D01*
X13730217Y-13767448D02*
X13615932Y-13881734D01*
X13615932Y-13881734D02*
X13739741Y-13881734D01*
X13806408Y-13681734D02*
X13930217Y-13681734D01*
X13930217Y-13681734D02*
X13863551Y-13757924D01*
X13863551Y-13757924D02*
X13892122Y-13757924D01*
X13892122Y-13757924D02*
X13911170Y-13767448D01*
X13911170Y-13767448D02*
X13920694Y-13776972D01*
X13920694Y-13776972D02*
X13930217Y-13796019D01*
X13930217Y-13796019D02*
X13930217Y-13843638D01*
X13930217Y-13843638D02*
X13920694Y-13862686D01*
X13920694Y-13862686D02*
X13911170Y-13872210D01*
X13911170Y-13872210D02*
X13892122Y-13881734D01*
X13892122Y-13881734D02*
X13834979Y-13881734D01*
X13834979Y-13881734D02*
X13815932Y-13872210D01*
X13815932Y-13872210D02*
X13806408Y-13862686D01*
X14101646Y-13681734D02*
X14063551Y-13681734D01*
X14063551Y-13681734D02*
X14044503Y-13691258D01*
X14044503Y-13691258D02*
X14034979Y-13700781D01*
X14034979Y-13700781D02*
X14015932Y-13729353D01*
X14015932Y-13729353D02*
X14006408Y-13767448D01*
X14006408Y-13767448D02*
X14006408Y-13843638D01*
X14006408Y-13843638D02*
X14015932Y-13862686D01*
X14015932Y-13862686D02*
X14025456Y-13872210D01*
X14025456Y-13872210D02*
X14044503Y-13881734D01*
X14044503Y-13881734D02*
X14082598Y-13881734D01*
X14082598Y-13881734D02*
X14101646Y-13872210D01*
X14101646Y-13872210D02*
X14111170Y-13862686D01*
X14111170Y-13862686D02*
X14120694Y-13843638D01*
X14120694Y-13843638D02*
X14120694Y-13796019D01*
X14120694Y-13796019D02*
X14111170Y-13776972D01*
X14111170Y-13776972D02*
X14101646Y-13767448D01*
X14101646Y-13767448D02*
X14082598Y-13757924D01*
X14082598Y-13757924D02*
X14044503Y-13757924D01*
X14044503Y-13757924D02*
X14025456Y-13767448D01*
X14025456Y-13767448D02*
X14015932Y-13776972D01*
X14015932Y-13776972D02*
X14006408Y-13796019D01*
X14196884Y-13681734D02*
X14196884Y-13719829D01*
X14273075Y-13681734D02*
X14273075Y-13719829D01*
X14568313Y-13957924D02*
X14558789Y-13948400D01*
X14558789Y-13948400D02*
X14539741Y-13919829D01*
X14539741Y-13919829D02*
X14530218Y-13900781D01*
X14530218Y-13900781D02*
X14520694Y-13872210D01*
X14520694Y-13872210D02*
X14511170Y-13824591D01*
X14511170Y-13824591D02*
X14511170Y-13786496D01*
X14511170Y-13786496D02*
X14520694Y-13738877D01*
X14520694Y-13738877D02*
X14530218Y-13710305D01*
X14530218Y-13710305D02*
X14539741Y-13691258D01*
X14539741Y-13691258D02*
X14558789Y-13662686D01*
X14558789Y-13662686D02*
X14568313Y-13653162D01*
X14682598Y-13681734D02*
X14701646Y-13681734D01*
X14701646Y-13681734D02*
X14720694Y-13691258D01*
X14720694Y-13691258D02*
X14730218Y-13700781D01*
X14730218Y-13700781D02*
X14739741Y-13719829D01*
X14739741Y-13719829D02*
X14749265Y-13757924D01*
X14749265Y-13757924D02*
X14749265Y-13805543D01*
X14749265Y-13805543D02*
X14739741Y-13843638D01*
X14739741Y-13843638D02*
X14730218Y-13862686D01*
X14730218Y-13862686D02*
X14720694Y-13872210D01*
X14720694Y-13872210D02*
X14701646Y-13881734D01*
X14701646Y-13881734D02*
X14682598Y-13881734D01*
X14682598Y-13881734D02*
X14663551Y-13872210D01*
X14663551Y-13872210D02*
X14654027Y-13862686D01*
X14654027Y-13862686D02*
X14644503Y-13843638D01*
X14644503Y-13843638D02*
X14634979Y-13805543D01*
X14634979Y-13805543D02*
X14634979Y-13757924D01*
X14634979Y-13757924D02*
X14644503Y-13719829D01*
X14644503Y-13719829D02*
X14654027Y-13700781D01*
X14654027Y-13700781D02*
X14663551Y-13691258D01*
X14663551Y-13691258D02*
X14682598Y-13681734D01*
X14987360Y-13881734D02*
X14987360Y-13681734D01*
X15073075Y-13881734D02*
X15073075Y-13776972D01*
X15073075Y-13776972D02*
X15063551Y-13757924D01*
X15063551Y-13757924D02*
X15044503Y-13748400D01*
X15044503Y-13748400D02*
X15015932Y-13748400D01*
X15015932Y-13748400D02*
X14996884Y-13757924D01*
X14996884Y-13757924D02*
X14987360Y-13767448D01*
X15196884Y-13881734D02*
X15177837Y-13872210D01*
X15177837Y-13872210D02*
X15168313Y-13862686D01*
X15168313Y-13862686D02*
X15158789Y-13843638D01*
X15158789Y-13843638D02*
X15158789Y-13786496D01*
X15158789Y-13786496D02*
X15168313Y-13767448D01*
X15168313Y-13767448D02*
X15177837Y-13757924D01*
X15177837Y-13757924D02*
X15196884Y-13748400D01*
X15196884Y-13748400D02*
X15225456Y-13748400D01*
X15225456Y-13748400D02*
X15244503Y-13757924D01*
X15244503Y-13757924D02*
X15254027Y-13767448D01*
X15254027Y-13767448D02*
X15263551Y-13786496D01*
X15263551Y-13786496D02*
X15263551Y-13843638D01*
X15263551Y-13843638D02*
X15254027Y-13862686D01*
X15254027Y-13862686D02*
X15244503Y-13872210D01*
X15244503Y-13872210D02*
X15225456Y-13881734D01*
X15225456Y-13881734D02*
X15196884Y-13881734D01*
X15377837Y-13881734D02*
X15358789Y-13872210D01*
X15358789Y-13872210D02*
X15349265Y-13853162D01*
X15349265Y-13853162D02*
X15349265Y-13681734D01*
X15530218Y-13872210D02*
X15511170Y-13881734D01*
X15511170Y-13881734D02*
X15473075Y-13881734D01*
X15473075Y-13881734D02*
X15454027Y-13872210D01*
X15454027Y-13872210D02*
X15444503Y-13853162D01*
X15444503Y-13853162D02*
X15444503Y-13776972D01*
X15444503Y-13776972D02*
X15454027Y-13757924D01*
X15454027Y-13757924D02*
X15473075Y-13748400D01*
X15473075Y-13748400D02*
X15511170Y-13748400D01*
X15511170Y-13748400D02*
X15530218Y-13757924D01*
X15530218Y-13757924D02*
X15539741Y-13776972D01*
X15539741Y-13776972D02*
X15539741Y-13796019D01*
X15539741Y-13796019D02*
X15444503Y-13815067D01*
X15615932Y-13872210D02*
X15634980Y-13881734D01*
X15634980Y-13881734D02*
X15673075Y-13881734D01*
X15673075Y-13881734D02*
X15692122Y-13872210D01*
X15692122Y-13872210D02*
X15701646Y-13853162D01*
X15701646Y-13853162D02*
X15701646Y-13843638D01*
X15701646Y-13843638D02*
X15692122Y-13824591D01*
X15692122Y-13824591D02*
X15673075Y-13815067D01*
X15673075Y-13815067D02*
X15644503Y-13815067D01*
X15644503Y-13815067D02*
X15625456Y-13805543D01*
X15625456Y-13805543D02*
X15615932Y-13786496D01*
X15615932Y-13786496D02*
X15615932Y-13776972D01*
X15615932Y-13776972D02*
X15625456Y-13757924D01*
X15625456Y-13757924D02*
X15644503Y-13748400D01*
X15644503Y-13748400D02*
X15673075Y-13748400D01*
X15673075Y-13748400D02*
X15692122Y-13757924D01*
X15939742Y-13805543D02*
X16092123Y-13805543D01*
X16015932Y-13881734D02*
X16015932Y-13729353D01*
X16425456Y-13748400D02*
X16425456Y-13881734D01*
X16377837Y-13672210D02*
X16330218Y-13815067D01*
X16330218Y-13815067D02*
X16454027Y-13815067D01*
X16673075Y-13872210D02*
X16692123Y-13881734D01*
X16692123Y-13881734D02*
X16730218Y-13881734D01*
X16730218Y-13881734D02*
X16749265Y-13872210D01*
X16749265Y-13872210D02*
X16758789Y-13853162D01*
X16758789Y-13853162D02*
X16758789Y-13843638D01*
X16758789Y-13843638D02*
X16749265Y-13824591D01*
X16749265Y-13824591D02*
X16730218Y-13815067D01*
X16730218Y-13815067D02*
X16701646Y-13815067D01*
X16701646Y-13815067D02*
X16682599Y-13805543D01*
X16682599Y-13805543D02*
X16673075Y-13786496D01*
X16673075Y-13786496D02*
X16673075Y-13776972D01*
X16673075Y-13776972D02*
X16682599Y-13757924D01*
X16682599Y-13757924D02*
X16701646Y-13748400D01*
X16701646Y-13748400D02*
X16730218Y-13748400D01*
X16730218Y-13748400D02*
X16749265Y-13757924D01*
X16873075Y-13881734D02*
X16854027Y-13872210D01*
X16854027Y-13872210D02*
X16844504Y-13853162D01*
X16844504Y-13853162D02*
X16844504Y-13681734D01*
X16977837Y-13881734D02*
X16958789Y-13872210D01*
X16958789Y-13872210D02*
X16949266Y-13862686D01*
X16949266Y-13862686D02*
X16939742Y-13843638D01*
X16939742Y-13843638D02*
X16939742Y-13786496D01*
X16939742Y-13786496D02*
X16949266Y-13767448D01*
X16949266Y-13767448D02*
X16958789Y-13757924D01*
X16958789Y-13757924D02*
X16977837Y-13748400D01*
X16977837Y-13748400D02*
X17006408Y-13748400D01*
X17006408Y-13748400D02*
X17025456Y-13757924D01*
X17025456Y-13757924D02*
X17034980Y-13767448D01*
X17034980Y-13767448D02*
X17044504Y-13786496D01*
X17044504Y-13786496D02*
X17044504Y-13843638D01*
X17044504Y-13843638D02*
X17034980Y-13862686D01*
X17034980Y-13862686D02*
X17025456Y-13872210D01*
X17025456Y-13872210D02*
X17006408Y-13881734D01*
X17006408Y-13881734D02*
X16977837Y-13881734D01*
X17101647Y-13748400D02*
X17177837Y-13748400D01*
X17130218Y-13681734D02*
X17130218Y-13853162D01*
X17130218Y-13853162D02*
X17139742Y-13872210D01*
X17139742Y-13872210D02*
X17158789Y-13881734D01*
X17158789Y-13881734D02*
X17177837Y-13881734D01*
X17234980Y-13872210D02*
X17254027Y-13881734D01*
X17254027Y-13881734D02*
X17292123Y-13881734D01*
X17292123Y-13881734D02*
X17311170Y-13872210D01*
X17311170Y-13872210D02*
X17320694Y-13853162D01*
X17320694Y-13853162D02*
X17320694Y-13843638D01*
X17320694Y-13843638D02*
X17311170Y-13824591D01*
X17311170Y-13824591D02*
X17292123Y-13815067D01*
X17292123Y-13815067D02*
X17263551Y-13815067D01*
X17263551Y-13815067D02*
X17244504Y-13805543D01*
X17244504Y-13805543D02*
X17234980Y-13786496D01*
X17234980Y-13786496D02*
X17234980Y-13776972D01*
X17234980Y-13776972D02*
X17244504Y-13757924D01*
X17244504Y-13757924D02*
X17263551Y-13748400D01*
X17263551Y-13748400D02*
X17292123Y-13748400D01*
X17292123Y-13748400D02*
X17311170Y-13757924D01*
X17387361Y-13957924D02*
X17396885Y-13948400D01*
X17396885Y-13948400D02*
X17415932Y-13919829D01*
X17415932Y-13919829D02*
X17425456Y-13900781D01*
X17425456Y-13900781D02*
X17434980Y-13872210D01*
X17434980Y-13872210D02*
X17444504Y-13824591D01*
X17444504Y-13824591D02*
X17444504Y-13786496D01*
X17444504Y-13786496D02*
X17434980Y-13738877D01*
X17434980Y-13738877D02*
X17425456Y-13710305D01*
X17425456Y-13710305D02*
X17415932Y-13691258D01*
X17415932Y-13691258D02*
X17396885Y-13662686D01*
X17396885Y-13662686D02*
X17387361Y-13653162D01*
D12*
X10893250Y-14004250D02*
X10993250Y-14104250D01*
X10993250Y-14004250D02*
X10893250Y-14104250D01*
X10993250Y-14054250D02*
G75*
G02*
X10893250Y-14054250I-50000J0D01*
G01*
X10893250Y-14054250D02*
G75*
G02*
X10993250Y-14054250I50000J0D01*
G01*
D11*
X11358789Y-14145734D02*
X11244503Y-14145734D01*
X11301646Y-14145734D02*
X11301646Y-13945734D01*
X11301646Y-13945734D02*
X11282598Y-13974305D01*
X11282598Y-13974305D02*
X11263551Y-13993353D01*
X11263551Y-13993353D02*
X11244503Y-14002877D01*
X11444503Y-14126686D02*
X11454027Y-14136210D01*
X11454027Y-14136210D02*
X11444503Y-14145734D01*
X11444503Y-14145734D02*
X11434979Y-14136210D01*
X11434979Y-14136210D02*
X11444503Y-14126686D01*
X11444503Y-14126686D02*
X11444503Y-14145734D01*
X11577836Y-13945734D02*
X11596884Y-13945734D01*
X11596884Y-13945734D02*
X11615932Y-13955258D01*
X11615932Y-13955258D02*
X11625455Y-13964781D01*
X11625455Y-13964781D02*
X11634979Y-13983829D01*
X11634979Y-13983829D02*
X11644503Y-14021924D01*
X11644503Y-14021924D02*
X11644503Y-14069543D01*
X11644503Y-14069543D02*
X11634979Y-14107638D01*
X11634979Y-14107638D02*
X11625455Y-14126686D01*
X11625455Y-14126686D02*
X11615932Y-14136210D01*
X11615932Y-14136210D02*
X11596884Y-14145734D01*
X11596884Y-14145734D02*
X11577836Y-14145734D01*
X11577836Y-14145734D02*
X11558789Y-14136210D01*
X11558789Y-14136210D02*
X11549265Y-14126686D01*
X11549265Y-14126686D02*
X11539741Y-14107638D01*
X11539741Y-14107638D02*
X11530217Y-14069543D01*
X11530217Y-14069543D02*
X11530217Y-14021924D01*
X11530217Y-14021924D02*
X11539741Y-13983829D01*
X11539741Y-13983829D02*
X11549265Y-13964781D01*
X11549265Y-13964781D02*
X11558789Y-13955258D01*
X11558789Y-13955258D02*
X11577836Y-13945734D01*
X11768312Y-13945734D02*
X11787360Y-13945734D01*
X11787360Y-13945734D02*
X11806408Y-13955258D01*
X11806408Y-13955258D02*
X11815932Y-13964781D01*
X11815932Y-13964781D02*
X11825455Y-13983829D01*
X11825455Y-13983829D02*
X11834979Y-14021924D01*
X11834979Y-14021924D02*
X11834979Y-14069543D01*
X11834979Y-14069543D02*
X11825455Y-14107638D01*
X11825455Y-14107638D02*
X11815932Y-14126686D01*
X11815932Y-14126686D02*
X11806408Y-14136210D01*
X11806408Y-14136210D02*
X11787360Y-14145734D01*
X11787360Y-14145734D02*
X11768312Y-14145734D01*
X11768312Y-14145734D02*
X11749265Y-14136210D01*
X11749265Y-14136210D02*
X11739741Y-14126686D01*
X11739741Y-14126686D02*
X11730217Y-14107638D01*
X11730217Y-14107638D02*
X11720693Y-14069543D01*
X11720693Y-14069543D02*
X11720693Y-14021924D01*
X11720693Y-14021924D02*
X11730217Y-13983829D01*
X11730217Y-13983829D02*
X11739741Y-13964781D01*
X11739741Y-13964781D02*
X11749265Y-13955258D01*
X11749265Y-13955258D02*
X11768312Y-13945734D01*
X11958789Y-13945734D02*
X11977836Y-13945734D01*
X11977836Y-13945734D02*
X11996884Y-13955258D01*
X11996884Y-13955258D02*
X12006408Y-13964781D01*
X12006408Y-13964781D02*
X12015932Y-13983829D01*
X12015932Y-13983829D02*
X12025455Y-14021924D01*
X12025455Y-14021924D02*
X12025455Y-14069543D01*
X12025455Y-14069543D02*
X12015932Y-14107638D01*
X12015932Y-14107638D02*
X12006408Y-14126686D01*
X12006408Y-14126686D02*
X11996884Y-14136210D01*
X11996884Y-14136210D02*
X11977836Y-14145734D01*
X11977836Y-14145734D02*
X11958789Y-14145734D01*
X11958789Y-14145734D02*
X11939741Y-14136210D01*
X11939741Y-14136210D02*
X11930217Y-14126686D01*
X11930217Y-14126686D02*
X11920693Y-14107638D01*
X11920693Y-14107638D02*
X11911170Y-14069543D01*
X11911170Y-14069543D02*
X11911170Y-14021924D01*
X11911170Y-14021924D02*
X11920693Y-13983829D01*
X11920693Y-13983829D02*
X11930217Y-13964781D01*
X11930217Y-13964781D02*
X11939741Y-13955258D01*
X11939741Y-13955258D02*
X11958789Y-13945734D01*
X12111170Y-14145734D02*
X12111170Y-14012400D01*
X12111170Y-14031448D02*
X12120693Y-14021924D01*
X12120693Y-14021924D02*
X12139741Y-14012400D01*
X12139741Y-14012400D02*
X12168313Y-14012400D01*
X12168313Y-14012400D02*
X12187360Y-14021924D01*
X12187360Y-14021924D02*
X12196884Y-14040972D01*
X12196884Y-14040972D02*
X12196884Y-14145734D01*
X12196884Y-14040972D02*
X12206408Y-14021924D01*
X12206408Y-14021924D02*
X12225455Y-14012400D01*
X12225455Y-14012400D02*
X12254027Y-14012400D01*
X12254027Y-14012400D02*
X12273074Y-14021924D01*
X12273074Y-14021924D02*
X12282598Y-14040972D01*
X12282598Y-14040972D02*
X12282598Y-14145734D01*
X12377836Y-14145734D02*
X12377836Y-14012400D01*
X12377836Y-14031448D02*
X12387360Y-14021924D01*
X12387360Y-14021924D02*
X12406408Y-14012400D01*
X12406408Y-14012400D02*
X12434979Y-14012400D01*
X12434979Y-14012400D02*
X12454027Y-14021924D01*
X12454027Y-14021924D02*
X12463551Y-14040972D01*
X12463551Y-14040972D02*
X12463551Y-14145734D01*
X12463551Y-14040972D02*
X12473074Y-14021924D01*
X12473074Y-14021924D02*
X12492122Y-14012400D01*
X12492122Y-14012400D02*
X12520693Y-14012400D01*
X12520693Y-14012400D02*
X12539741Y-14021924D01*
X12539741Y-14021924D02*
X12549265Y-14040972D01*
X12549265Y-14040972D02*
X12549265Y-14145734D01*
X12939741Y-13936210D02*
X12768313Y-14193353D01*
X13196884Y-13945734D02*
X13215932Y-13945734D01*
X13215932Y-13945734D02*
X13234979Y-13955258D01*
X13234979Y-13955258D02*
X13244503Y-13964781D01*
X13244503Y-13964781D02*
X13254027Y-13983829D01*
X13254027Y-13983829D02*
X13263551Y-14021924D01*
X13263551Y-14021924D02*
X13263551Y-14069543D01*
X13263551Y-14069543D02*
X13254027Y-14107638D01*
X13254027Y-14107638D02*
X13244503Y-14126686D01*
X13244503Y-14126686D02*
X13234979Y-14136210D01*
X13234979Y-14136210D02*
X13215932Y-14145734D01*
X13215932Y-14145734D02*
X13196884Y-14145734D01*
X13196884Y-14145734D02*
X13177836Y-14136210D01*
X13177836Y-14136210D02*
X13168313Y-14126686D01*
X13168313Y-14126686D02*
X13158789Y-14107638D01*
X13158789Y-14107638D02*
X13149265Y-14069543D01*
X13149265Y-14069543D02*
X13149265Y-14021924D01*
X13149265Y-14021924D02*
X13158789Y-13983829D01*
X13158789Y-13983829D02*
X13168313Y-13964781D01*
X13168313Y-13964781D02*
X13177836Y-13955258D01*
X13177836Y-13955258D02*
X13196884Y-13945734D01*
X13349265Y-14126686D02*
X13358789Y-14136210D01*
X13358789Y-14136210D02*
X13349265Y-14145734D01*
X13349265Y-14145734D02*
X13339741Y-14136210D01*
X13339741Y-14136210D02*
X13349265Y-14126686D01*
X13349265Y-14126686D02*
X13349265Y-14145734D01*
X13482598Y-13945734D02*
X13501646Y-13945734D01*
X13501646Y-13945734D02*
X13520694Y-13955258D01*
X13520694Y-13955258D02*
X13530217Y-13964781D01*
X13530217Y-13964781D02*
X13539741Y-13983829D01*
X13539741Y-13983829D02*
X13549265Y-14021924D01*
X13549265Y-14021924D02*
X13549265Y-14069543D01*
X13549265Y-14069543D02*
X13539741Y-14107638D01*
X13539741Y-14107638D02*
X13530217Y-14126686D01*
X13530217Y-14126686D02*
X13520694Y-14136210D01*
X13520694Y-14136210D02*
X13501646Y-14145734D01*
X13501646Y-14145734D02*
X13482598Y-14145734D01*
X13482598Y-14145734D02*
X13463551Y-14136210D01*
X13463551Y-14136210D02*
X13454027Y-14126686D01*
X13454027Y-14126686D02*
X13444503Y-14107638D01*
X13444503Y-14107638D02*
X13434979Y-14069543D01*
X13434979Y-14069543D02*
X13434979Y-14021924D01*
X13434979Y-14021924D02*
X13444503Y-13983829D01*
X13444503Y-13983829D02*
X13454027Y-13964781D01*
X13454027Y-13964781D02*
X13463551Y-13955258D01*
X13463551Y-13955258D02*
X13482598Y-13945734D01*
X13615932Y-13945734D02*
X13739741Y-13945734D01*
X13739741Y-13945734D02*
X13673075Y-14021924D01*
X13673075Y-14021924D02*
X13701646Y-14021924D01*
X13701646Y-14021924D02*
X13720694Y-14031448D01*
X13720694Y-14031448D02*
X13730217Y-14040972D01*
X13730217Y-14040972D02*
X13739741Y-14060019D01*
X13739741Y-14060019D02*
X13739741Y-14107638D01*
X13739741Y-14107638D02*
X13730217Y-14126686D01*
X13730217Y-14126686D02*
X13720694Y-14136210D01*
X13720694Y-14136210D02*
X13701646Y-14145734D01*
X13701646Y-14145734D02*
X13644503Y-14145734D01*
X13644503Y-14145734D02*
X13625456Y-14136210D01*
X13625456Y-14136210D02*
X13615932Y-14126686D01*
X13834979Y-14145734D02*
X13873075Y-14145734D01*
X13873075Y-14145734D02*
X13892122Y-14136210D01*
X13892122Y-14136210D02*
X13901646Y-14126686D01*
X13901646Y-14126686D02*
X13920694Y-14098115D01*
X13920694Y-14098115D02*
X13930217Y-14060019D01*
X13930217Y-14060019D02*
X13930217Y-13983829D01*
X13930217Y-13983829D02*
X13920694Y-13964781D01*
X13920694Y-13964781D02*
X13911170Y-13955258D01*
X13911170Y-13955258D02*
X13892122Y-13945734D01*
X13892122Y-13945734D02*
X13854027Y-13945734D01*
X13854027Y-13945734D02*
X13834979Y-13955258D01*
X13834979Y-13955258D02*
X13825456Y-13964781D01*
X13825456Y-13964781D02*
X13815932Y-13983829D01*
X13815932Y-13983829D02*
X13815932Y-14031448D01*
X13815932Y-14031448D02*
X13825456Y-14050496D01*
X13825456Y-14050496D02*
X13834979Y-14060019D01*
X13834979Y-14060019D02*
X13854027Y-14069543D01*
X13854027Y-14069543D02*
X13892122Y-14069543D01*
X13892122Y-14069543D02*
X13911170Y-14060019D01*
X13911170Y-14060019D02*
X13920694Y-14050496D01*
X13920694Y-14050496D02*
X13930217Y-14031448D01*
X14101646Y-14012400D02*
X14101646Y-14145734D01*
X14054027Y-13936210D02*
X14006408Y-14079067D01*
X14006408Y-14079067D02*
X14130217Y-14079067D01*
X14196884Y-13945734D02*
X14196884Y-13983829D01*
X14273075Y-13945734D02*
X14273075Y-13983829D01*
X14568313Y-14221924D02*
X14558789Y-14212400D01*
X14558789Y-14212400D02*
X14539741Y-14183829D01*
X14539741Y-14183829D02*
X14530218Y-14164781D01*
X14530218Y-14164781D02*
X14520694Y-14136210D01*
X14520694Y-14136210D02*
X14511170Y-14088591D01*
X14511170Y-14088591D02*
X14511170Y-14050496D01*
X14511170Y-14050496D02*
X14520694Y-14002877D01*
X14520694Y-14002877D02*
X14530218Y-13974305D01*
X14530218Y-13974305D02*
X14539741Y-13955258D01*
X14539741Y-13955258D02*
X14558789Y-13926686D01*
X14558789Y-13926686D02*
X14568313Y-13917162D01*
X14625456Y-13945734D02*
X14749265Y-13945734D01*
X14749265Y-13945734D02*
X14682598Y-14021924D01*
X14682598Y-14021924D02*
X14711170Y-14021924D01*
X14711170Y-14021924D02*
X14730218Y-14031448D01*
X14730218Y-14031448D02*
X14739741Y-14040972D01*
X14739741Y-14040972D02*
X14749265Y-14060019D01*
X14749265Y-14060019D02*
X14749265Y-14107638D01*
X14749265Y-14107638D02*
X14739741Y-14126686D01*
X14739741Y-14126686D02*
X14730218Y-14136210D01*
X14730218Y-14136210D02*
X14711170Y-14145734D01*
X14711170Y-14145734D02*
X14654027Y-14145734D01*
X14654027Y-14145734D02*
X14634979Y-14136210D01*
X14634979Y-14136210D02*
X14625456Y-14126686D01*
X14920694Y-14012400D02*
X14920694Y-14145734D01*
X14873075Y-13936210D02*
X14825456Y-14079067D01*
X14825456Y-14079067D02*
X14949265Y-14079067D01*
X15177837Y-14145734D02*
X15177837Y-13945734D01*
X15263551Y-14145734D02*
X15263551Y-14040972D01*
X15263551Y-14040972D02*
X15254027Y-14021924D01*
X15254027Y-14021924D02*
X15234980Y-14012400D01*
X15234980Y-14012400D02*
X15206408Y-14012400D01*
X15206408Y-14012400D02*
X15187360Y-14021924D01*
X15187360Y-14021924D02*
X15177837Y-14031448D01*
X15387360Y-14145734D02*
X15368313Y-14136210D01*
X15368313Y-14136210D02*
X15358789Y-14126686D01*
X15358789Y-14126686D02*
X15349265Y-14107638D01*
X15349265Y-14107638D02*
X15349265Y-14050496D01*
X15349265Y-14050496D02*
X15358789Y-14031448D01*
X15358789Y-14031448D02*
X15368313Y-14021924D01*
X15368313Y-14021924D02*
X15387360Y-14012400D01*
X15387360Y-14012400D02*
X15415932Y-14012400D01*
X15415932Y-14012400D02*
X15434980Y-14021924D01*
X15434980Y-14021924D02*
X15444503Y-14031448D01*
X15444503Y-14031448D02*
X15454027Y-14050496D01*
X15454027Y-14050496D02*
X15454027Y-14107638D01*
X15454027Y-14107638D02*
X15444503Y-14126686D01*
X15444503Y-14126686D02*
X15434980Y-14136210D01*
X15434980Y-14136210D02*
X15415932Y-14145734D01*
X15415932Y-14145734D02*
X15387360Y-14145734D01*
X15568313Y-14145734D02*
X15549265Y-14136210D01*
X15549265Y-14136210D02*
X15539741Y-14117162D01*
X15539741Y-14117162D02*
X15539741Y-13945734D01*
X15720694Y-14136210D02*
X15701646Y-14145734D01*
X15701646Y-14145734D02*
X15663551Y-14145734D01*
X15663551Y-14145734D02*
X15644503Y-14136210D01*
X15644503Y-14136210D02*
X15634980Y-14117162D01*
X15634980Y-14117162D02*
X15634980Y-14040972D01*
X15634980Y-14040972D02*
X15644503Y-14021924D01*
X15644503Y-14021924D02*
X15663551Y-14012400D01*
X15663551Y-14012400D02*
X15701646Y-14012400D01*
X15701646Y-14012400D02*
X15720694Y-14021924D01*
X15720694Y-14021924D02*
X15730218Y-14040972D01*
X15730218Y-14040972D02*
X15730218Y-14060019D01*
X15730218Y-14060019D02*
X15634980Y-14079067D01*
X15806408Y-14136210D02*
X15825456Y-14145734D01*
X15825456Y-14145734D02*
X15863551Y-14145734D01*
X15863551Y-14145734D02*
X15882599Y-14136210D01*
X15882599Y-14136210D02*
X15892122Y-14117162D01*
X15892122Y-14117162D02*
X15892122Y-14107638D01*
X15892122Y-14107638D02*
X15882599Y-14088591D01*
X15882599Y-14088591D02*
X15863551Y-14079067D01*
X15863551Y-14079067D02*
X15834980Y-14079067D01*
X15834980Y-14079067D02*
X15815932Y-14069543D01*
X15815932Y-14069543D02*
X15806408Y-14050496D01*
X15806408Y-14050496D02*
X15806408Y-14040972D01*
X15806408Y-14040972D02*
X15815932Y-14021924D01*
X15815932Y-14021924D02*
X15834980Y-14012400D01*
X15834980Y-14012400D02*
X15863551Y-14012400D01*
X15863551Y-14012400D02*
X15882599Y-14021924D01*
X15958789Y-14221924D02*
X15968313Y-14212400D01*
X15968313Y-14212400D02*
X15987361Y-14183829D01*
X15987361Y-14183829D02*
X15996884Y-14164781D01*
X15996884Y-14164781D02*
X16006408Y-14136210D01*
X16006408Y-14136210D02*
X16015932Y-14088591D01*
X16015932Y-14088591D02*
X16015932Y-14050496D01*
X16015932Y-14050496D02*
X16006408Y-14002877D01*
X16006408Y-14002877D02*
X15996884Y-13974305D01*
X15996884Y-13974305D02*
X15987361Y-13955258D01*
X15987361Y-13955258D02*
X15968313Y-13926686D01*
X15968313Y-13926686D02*
X15958789Y-13917162D01*
M02*
