%TF.GenerationSoftware,KiCad,Pcbnew,10.0.1-10.0.1~ubuntu25.10.1*%
%TF.CreationDate,2026-05-29T00:15:14+00:00*%
%TF.ProjectId,esp32s3-devkit,65737033-3273-4332-9d64-65766b69742e,rev?*%
%TF.SameCoordinates,Original*%
%TF.FileFunction,Soldermask,Top*%
%TF.FilePolarity,Negative*%
%FSLAX46Y46*%
G04 Gerber Fmt 4.6, Leading zero omitted, Abs format (unit mm)*
G04 Created by KiCad (PCBNEW 10.0.1-10.0.1~ubuntu25.10.1) date 2026-05-29 00:15:14*
%MOMM*%
%LPD*%
G01*
G04 APERTURE LIST*
G04 Aperture macros list*
%AMRoundRect*
0 Rectangle with rounded corners*
0 $1 Rounding radius*
0 $2 $3 $4 $5 $6 $7 $8 $9 X,Y pos of 4 corners*
0 Add a 4 corners polygon primitive as box body*
4,1,4,$2,$3,$4,$5,$6,$7,$8,$9,$2,$3,0*
0 Add four circle primitives for the rounded corners*
1,1,$1+$1,$2,$3*
1,1,$1+$1,$4,$5*
1,1,$1+$1,$6,$7*
1,1,$1+$1,$8,$9*
0 Add four rect primitives between the rounded corners*
20,1,$1+$1,$2,$3,$4,$5,0*
20,1,$1+$1,$4,$5,$6,$7,0*
20,1,$1+$1,$6,$7,$8,$9,0*
20,1,$1+$1,$8,$9,$2,$3,0*%
%AMFreePoly0*
4,1,53,0.259850,0.124520,0.266720,0.121673,0.269134,0.121194,0.271179,0.119827,0.278051,0.116981,0.283311,0.111720,0.285355,0.110355,0.286720,0.108311,0.291981,0.103051,0.294827,0.096179,0.296194,0.094134,0.296673,0.091720,0.299520,0.084850,0.300000,0.075000,0.300000,-0.575000,0.299520,-0.584850,0.296673,-0.591720,0.296194,-0.594134,0.294827,-0.596179,0.291981,-0.603051,
0.286720,-0.608311,0.285355,-0.610355,0.283311,-0.611720,0.278051,-0.616981,0.271179,-0.619827,0.269134,-0.621194,0.266720,-0.621673,0.259850,-0.624520,0.250000,-0.625000,-0.250000,-0.625000,-0.269134,-0.621194,-0.285355,-0.610355,-0.296194,-0.594134,-0.300000,-0.575000,-0.300000,-0.425000,-0.296194,-0.405866,-0.285355,-0.389645,-0.269134,-0.378806,-0.250000,-0.375000,0.050000,-0.375000,
0.050000,-0.125000,-0.250000,-0.125000,-0.269134,-0.121194,-0.285355,-0.110355,-0.296194,-0.094134,-0.300000,-0.075000,-0.300000,0.075000,-0.296194,0.094134,-0.285355,0.110355,-0.269134,0.121194,-0.250000,0.125000,0.250000,0.125000,0.259850,0.124520,0.259850,0.124520,$1*%
%AMFreePoly1*
4,1,53,0.269134,0.121194,0.285355,0.110355,0.296194,0.094134,0.300000,0.075000,0.300000,-0.075000,0.296194,-0.094134,0.285355,-0.110355,0.269134,-0.121194,0.250000,-0.125000,-0.050000,-0.125000,-0.050000,-0.375000,0.250000,-0.375000,0.269134,-0.378806,0.285355,-0.389645,0.296194,-0.405866,0.300000,-0.425000,0.300000,-0.575000,0.296194,-0.594134,0.285355,-0.610355,0.269134,-0.621194,
0.250000,-0.625000,-0.250000,-0.625000,-0.259850,-0.624520,-0.266720,-0.621673,-0.269134,-0.621194,-0.271179,-0.619827,-0.278051,-0.616981,-0.283311,-0.611720,-0.285355,-0.610355,-0.286720,-0.608311,-0.291981,-0.603051,-0.294827,-0.596179,-0.296194,-0.594134,-0.296673,-0.591720,-0.299520,-0.584850,-0.300000,-0.575000,-0.300000,0.075000,-0.299520,0.084850,-0.296673,0.091720,-0.296194,0.094134,
-0.294827,0.096179,-0.291981,0.103051,-0.286720,0.108311,-0.285355,0.110355,-0.283311,0.111720,-0.278051,0.116981,-0.271179,0.119827,-0.269134,0.121194,-0.266720,0.121673,-0.259850,0.124520,-0.250000,0.125000,0.250000,0.125000,0.269134,0.121194,0.269134,0.121194,$1*%
G04 Aperture macros list end*
%TA.AperFunction,Profile*%
%ADD10C,0.050000*%
%TD*%
%ADD11C,0.000000*%
%ADD12RoundRect,0.218750X-0.218750X-0.256250X0.218750X-0.256250X0.218750X0.256250X-0.218750X0.256250X0*%
%ADD13RoundRect,0.135000X0.135000X0.185000X-0.135000X0.185000X-0.135000X-0.185000X0.135000X-0.185000X0*%
%ADD14RoundRect,0.135000X-0.135000X-0.185000X0.135000X-0.185000X0.135000X0.185000X-0.135000X0.185000X0*%
%ADD15RoundRect,0.140000X0.170000X-0.140000X0.170000X0.140000X-0.170000X0.140000X-0.170000X-0.140000X0*%
%ADD16RoundRect,0.135000X0.185000X-0.135000X0.185000X0.135000X-0.185000X0.135000X-0.185000X-0.135000X0*%
%ADD17RoundRect,0.050000X-0.075000X0.250000X-0.075000X-0.250000X0.075000X-0.250000X0.075000X0.250000X0*%
%ADD18RoundRect,0.050000X0.075000X-0.250000X0.075000X0.250000X-0.075000X0.250000X-0.075000X-0.250000X0*%
%ADD19RoundRect,0.050000X0.250000X0.075000X-0.250000X0.075000X-0.250000X-0.075000X0.250000X-0.075000X0*%
%ADD20FreePoly0,180.000000*%
%ADD21RoundRect,0.050000X0.075000X-0.237500X0.075000X0.237500X-0.075000X0.237500X-0.075000X-0.237500X0*%
%ADD22RoundRect,0.050000X0.075000X-0.310000X0.075000X0.310000X-0.075000X0.310000X-0.075000X-0.310000X0*%
%ADD23RoundRect,0.050000X-0.075000X0.237500X-0.075000X-0.237500X0.075000X-0.237500X0.075000X0.237500X0*%
%ADD24FreePoly1,180.000000*%
%ADD25R,1.700000X1.700000*%
%ADD26C,1.700000*%
%ADD27RoundRect,0.135000X-0.185000X0.135000X-0.185000X-0.135000X0.185000X-0.135000X0.185000X0.135000X0*%
%ADD28RoundRect,0.140000X-0.140000X-0.170000X0.140000X-0.170000X0.140000X0.170000X-0.140000X0.170000X0*%
%ADD29R,0.900000X1.500000*%
%ADD30R,1.500000X0.900000*%
%ADD31C,0.600000*%
%ADD32R,3.900000X3.900000*%
%ADD33RoundRect,0.250000X-0.250000X-0.475000X0.250000X-0.475000X0.250000X0.475000X-0.250000X0.475000X0*%
%ADD34RoundRect,0.150000X-0.512500X-0.150000X0.512500X-0.150000X0.512500X0.150000X-0.512500X0.150000X0*%
%ADD35RoundRect,0.250000X0.475000X-0.250000X0.475000X0.250000X-0.475000X0.250000X-0.475000X-0.250000X0*%
%ADD36R,1.700000X1.000000*%
%ADD37RoundRect,0.140000X-0.170000X0.140000X-0.170000X-0.140000X0.170000X-0.140000X0.170000X0.140000X0*%
%ADD38RoundRect,0.150000X0.150000X-0.587500X0.150000X0.587500X-0.150000X0.587500X-0.150000X-0.587500X0*%
%ADD39RoundRect,0.218750X0.256250X-0.218750X0.256250X0.218750X-0.256250X0.218750X-0.256250X-0.218750X0*%
%ADD40RoundRect,0.140000X0.140000X0.170000X-0.140000X0.170000X-0.140000X-0.170000X0.140000X-0.170000X0*%
%ADD41RoundRect,0.112500X0.112500X-0.187500X0.112500X0.187500X-0.112500X0.187500X-0.112500X-0.187500X0*%
%ADD42RoundRect,0.102000X-0.490000X-1.700000X0.490000X-1.700000X0.490000X1.700000X-0.490000X1.700000X0*%
%ADD43R,1.500000X1.500000*%
%ADD44C,0.650000*%
%ADD45RoundRect,0.150000X-0.575000X0.150000X-0.575000X-0.150000X0.575000X-0.150000X0.575000X0.150000X0*%
%ADD46RoundRect,0.075000X-0.650000X0.075000X-0.650000X-0.075000X0.650000X-0.075000X0.650000X0.075000X0*%
%ADD47O,2.100000X1.000000*%
%ADD48O,1.600000X1.000000*%
G04 APERTURE END LIST*
D10*
X109957500Y-82897500D02*
X169297500Y-82897500D01*
X169297500Y-120917500D01*
X109957500Y-120917500D01*
X109957500Y-82897500D01*
D11*
%TO.C,U1*%
G36*
X122702500Y-95697000D02*
G01*
X122702500Y-95697000D01*
G75*
G02*
X122752500Y-95747000I0J-50000D01*
G01*
X122752500Y-96997000D01*
G75*
G02*
X122702500Y-97047000I-50000J0D01*
G01*
X122552500Y-97047000D01*
G75*
G02*
X122502500Y-96997000I0J50000D01*
G01*
X122502500Y-95747000D01*
G75*
G02*
X122552500Y-95697000I50000J0D01*
G01*
X122702500Y-95697000D01*
G37*
G36*
X123202500Y-95702500D02*
G01*
X123202500Y-95702500D01*
G75*
G02*
X123252500Y-95752500I0J-50000D01*
G01*
X123252500Y-97342500D01*
G75*
G02*
X123202500Y-97392500I-50000J0D01*
G01*
X123052500Y-97392500D01*
G75*
G02*
X123002500Y-97342500I0J50000D01*
G01*
X123002500Y-95752500D01*
G75*
G02*
X123052500Y-95702500I50000J0D01*
G01*
X123202500Y-95702500D01*
G37*
G36*
X123702500Y-95697000D02*
G01*
X123702500Y-95697000D01*
G75*
G02*
X123752500Y-95747000I0J-50000D01*
G01*
X123752500Y-96997000D01*
G75*
G02*
X123702500Y-97047000I-50000J0D01*
G01*
X123552500Y-97047000D01*
G75*
G02*
X123502500Y-96997000I0J50000D01*
G01*
X123502500Y-95747000D01*
G75*
G02*
X123552500Y-95697000I50000J0D01*
G01*
X123702500Y-95697000D01*
G37*
%TD*%
D12*
%TO.C,D3*%
X141997500Y-101900000D03*
X143572500Y-101900000D03*
%TD*%
D13*
%TO.C,R4*%
X126687500Y-99477500D03*
X125667500Y-99477500D03*
%TD*%
D14*
%TO.C,R2*%
X119237500Y-98087500D03*
X120257500Y-98087500D03*
%TD*%
D15*
%TO.C,C5*%
X125667500Y-96767500D03*
X125667500Y-95807500D03*
%TD*%
D16*
%TO.C,R8*%
X137357500Y-94157500D03*
X137357500Y-93137500D03*
%TD*%
D17*
%TO.C,U1*%
X122377500Y-98297500D03*
X122877500Y-98297500D03*
D18*
X123377500Y-98297500D03*
X123877500Y-98297500D03*
D19*
X124527500Y-97897500D03*
X124527500Y-97397500D03*
D20*
X124527500Y-96897500D03*
X124527500Y-96897500D03*
D21*
X123627500Y-95984500D03*
X123627500Y-96759500D03*
D22*
X123127500Y-96087500D03*
X123127500Y-97007500D03*
D23*
X122627500Y-95984500D03*
X122627500Y-96759500D03*
D24*
X121727500Y-96897500D03*
X121727500Y-96897500D03*
D19*
X121727500Y-97397500D03*
X121727500Y-97897500D03*
%TD*%
D14*
%TO.C,R10*%
X120307500Y-112042500D03*
X121327500Y-112042500D03*
%TD*%
D25*
%TO.C,J1*%
X125975000Y-119090000D03*
D26*
X128515000Y-119090000D03*
X131055000Y-119090000D03*
X133595000Y-119090000D03*
X136135000Y-119090000D03*
X138675000Y-119090000D03*
X141215000Y-119090000D03*
X143755000Y-119090000D03*
X146295000Y-119090000D03*
X148835000Y-119090000D03*
X151375000Y-119090000D03*
X153915000Y-119090000D03*
X156455000Y-119090000D03*
X158995000Y-119090000D03*
X161535000Y-119090000D03*
X164075000Y-119090000D03*
X166615000Y-119090000D03*
%TD*%
D15*
%TO.C,C3*%
X120577500Y-96747500D03*
X120577500Y-95787500D03*
%TD*%
D27*
%TO.C,R7*%
X137377500Y-109647500D03*
X137377500Y-110667500D03*
%TD*%
D28*
%TO.C,C12*%
X135530000Y-112960000D03*
X136490000Y-112960000D03*
%TD*%
D13*
%TO.C,R3*%
X126687500Y-98327500D03*
X125667500Y-98327500D03*
%TD*%
D29*
%TO.C,U2*%
X167887500Y-93150000D03*
X166617500Y-93150000D03*
X165347500Y-93150000D03*
X164077500Y-93150000D03*
X162807500Y-93150000D03*
X161537500Y-93150000D03*
X160267500Y-93150000D03*
X158997500Y-93150000D03*
X157727500Y-93150000D03*
X156457500Y-93150000D03*
X155187500Y-93150000D03*
X153917500Y-93150000D03*
X152647500Y-93150000D03*
X151377500Y-93150000D03*
D30*
X150127500Y-94915000D03*
X150127500Y-96185000D03*
X150127500Y-97455000D03*
X150127500Y-98725000D03*
X150127500Y-99995000D03*
X150127500Y-101265000D03*
X150127500Y-102535000D03*
X150127500Y-103805000D03*
X150127500Y-105075000D03*
X150127500Y-106345000D03*
X150127500Y-107615000D03*
X150127500Y-108885000D03*
D29*
X151377500Y-110650000D03*
X152647500Y-110650000D03*
X153917500Y-110650000D03*
X155187500Y-110650000D03*
X156457500Y-110650000D03*
X157727500Y-110650000D03*
X158997500Y-110650000D03*
X160267500Y-110650000D03*
X161537500Y-110650000D03*
X162807500Y-110650000D03*
X164077500Y-110650000D03*
X165347500Y-110650000D03*
X166617500Y-110650000D03*
X167887500Y-110650000D03*
D31*
X160867500Y-99000000D03*
X159467500Y-99000000D03*
X161567500Y-99700000D03*
X160167500Y-99700000D03*
X158767500Y-99700000D03*
X160867500Y-100400000D03*
D32*
X160167500Y-100400000D03*
D31*
X159467500Y-100400000D03*
X161567500Y-101100000D03*
X160167500Y-101100000D03*
X158767500Y-101100000D03*
X160867500Y-101800000D03*
X159467500Y-101800000D03*
%TD*%
D33*
%TO.C,C9*%
X165717500Y-89857500D03*
X167617500Y-89857500D03*
%TD*%
D13*
%TO.C,R11*%
X126647500Y-111127500D03*
X125627500Y-111127500D03*
%TD*%
D16*
%TO.C,R5*%
X122440000Y-101300000D03*
X122440000Y-100280000D03*
%TD*%
D34*
%TO.C,U3*%
X131690000Y-112015000D03*
X131690000Y-112965000D03*
X131690000Y-113915000D03*
X133965000Y-113915000D03*
X133965000Y-112965000D03*
X133965000Y-112015000D03*
%TD*%
D35*
%TO.C,C2*%
X118887500Y-96437500D03*
X118887500Y-94537500D03*
%TD*%
D36*
%TO.C,SW2*%
X145937500Y-96947500D03*
X139637500Y-96947500D03*
X145937500Y-93147500D03*
X139637500Y-93147500D03*
%TD*%
D37*
%TO.C,C4*%
X123667500Y-99537500D03*
X123667500Y-100497500D03*
%TD*%
D16*
%TO.C,R1*%
X112597500Y-92677500D03*
X112597500Y-91657500D03*
%TD*%
D14*
%TO.C,R6*%
X139427500Y-101900000D03*
X140447500Y-101900000D03*
%TD*%
D35*
%TO.C,C1*%
X116617500Y-96457500D03*
X116617500Y-94557500D03*
%TD*%
%TO.C,C7*%
X129637500Y-96457500D03*
X129637500Y-94557500D03*
%TD*%
D38*
%TO.C,Q1*%
X126627500Y-109115000D03*
X128527500Y-109115000D03*
X127577500Y-107240000D03*
%TD*%
D14*
%TO.C,R9*%
X120327500Y-116302500D03*
X121347500Y-116302500D03*
%TD*%
D35*
%TO.C,C6*%
X127407500Y-96467500D03*
X127407500Y-94567500D03*
%TD*%
D39*
%TO.C,D1*%
X112597500Y-89855000D03*
X112597500Y-88280000D03*
%TD*%
D25*
%TO.C,J2*%
X125975000Y-84720000D03*
D26*
X128515000Y-84720000D03*
X131055000Y-84720000D03*
X133595000Y-84720000D03*
X136135000Y-84720000D03*
X138675000Y-84720000D03*
X141215000Y-84720000D03*
X143755000Y-84720000D03*
X146295000Y-84720000D03*
X148835000Y-84720000D03*
X151375000Y-84720000D03*
X153915000Y-84720000D03*
X156455000Y-84720000D03*
X158995000Y-84720000D03*
X161535000Y-84720000D03*
X164075000Y-84720000D03*
X166615000Y-84720000D03*
%TD*%
D40*
%TO.C,C11*%
X164570000Y-91490000D03*
X163610000Y-91490000D03*
%TD*%
D35*
%TO.C,C8*%
X131827500Y-96457500D03*
X131827500Y-94557500D03*
%TD*%
D41*
%TO.C,D2*%
X134107500Y-96492000D03*
X134107500Y-94392000D03*
%TD*%
D36*
%TO.C,SW3*%
X139637500Y-106857500D03*
X145937500Y-106857500D03*
X139637500Y-110657500D03*
X145937500Y-110657500D03*
%TD*%
D28*
%TO.C,C10*%
X166517500Y-91517500D03*
X167477500Y-91517500D03*
%TD*%
D42*
%TO.C,L1*%
X121927500Y-92584500D03*
X124297500Y-92584500D03*
%TD*%
D43*
%TO.C,SW1*%
X112627499Y-105800000D03*
X112627499Y-98000000D03*
%TD*%
D44*
%TO.C,J3*%
X116887500Y-111377500D03*
X116887500Y-117157500D03*
D45*
X118332500Y-111017500D03*
X118332500Y-111817500D03*
D46*
X118332500Y-113017500D03*
X118332500Y-114017500D03*
X118332500Y-114517500D03*
X118332500Y-115517500D03*
D45*
X118332500Y-116717500D03*
X118332500Y-117517500D03*
X118332500Y-117517500D03*
X118332500Y-116717500D03*
D46*
X118332500Y-116017500D03*
X118332500Y-115017500D03*
X118332500Y-113517500D03*
X118332500Y-112517500D03*
D45*
X118332500Y-111817500D03*
X118332500Y-111017500D03*
D47*
X117417500Y-109947500D03*
D48*
X113237500Y-109947500D03*
D47*
X117417500Y-118587500D03*
D48*
X113237500Y-118587500D03*
%TD*%
M02*
