G04 #@! TF.GenerationSoftware,KiCad,Pcbnew,10.0.1-10.0.1~ubuntu25.10.1*
G04 #@! TF.CreationDate,2026-05-29T00:15:12+00:00*
G04 #@! TF.ProjectId,esp32s3-devkit,65737033-3273-4332-9d64-65766b69742e,rev?*
G04 #@! TF.SameCoordinates,Original*
G04 #@! TF.FileFunction,Copper,L3,Inr*
G04 #@! TF.FilePolarity,Positive*
%FSLAX46Y46*%
G04 Gerber Fmt 4.6, Leading zero omitted, Abs format (unit mm)*
G04 Created by KiCad (PCBNEW 10.0.1-10.0.1~ubuntu25.10.1) date 2026-05-29 00:15:12*
%MOMM*%
%LPD*%
G01*
G04 APERTURE LIST*
G04 #@! TA.AperFunction,ComponentPad*
%ADD10R,1.700000X1.700000*%
G04 #@! TD*
G04 #@! TA.AperFunction,ComponentPad*
%ADD11C,1.700000*%
G04 #@! TD*
G04 #@! TA.AperFunction,HeatsinkPad*
%ADD12C,0.600000*%
G04 #@! TD*
G04 #@! TA.AperFunction,ComponentPad*
%ADD13O,2.100000X1.000000*%
G04 #@! TD*
G04 #@! TA.AperFunction,ComponentPad*
%ADD14O,1.600000X1.000000*%
G04 #@! TD*
G04 #@! TA.AperFunction,ViaPad*
%ADD15C,0.600000*%
G04 #@! TD*
G04 #@! TA.AperFunction,ViaPad*
%ADD16C,0.500000*%
G04 #@! TD*
G04 #@! TA.AperFunction,ViaPad*
%ADD17C,0.450000*%
G04 #@! TD*
G04 #@! TA.AperFunction,Conductor*
%ADD18C,0.600000*%
G04 #@! TD*
G04 #@! TA.AperFunction,Conductor*
%ADD19C,0.500000*%
G04 #@! TD*
G04 APERTURE END LIST*
D10*
X125975000Y-119090000D03*
D11*
X128515000Y-119090000D03*
X131055000Y-119090000D03*
X133595000Y-119090000D03*
X136135000Y-119090000D03*
X138675000Y-119090000D03*
X141215000Y-119090000D03*
X143755000Y-119090000D03*
X146295000Y-119090000D03*
X148835000Y-119090000D03*
X151375000Y-119090000D03*
X153915000Y-119090000D03*
X156455000Y-119090000D03*
X158995000Y-119090000D03*
X161535000Y-119090000D03*
X164075000Y-119090000D03*
X166615000Y-119090000D03*
D12*
X160867500Y-99000000D03*
X159467500Y-99000000D03*
X161567500Y-99700000D03*
X160167500Y-99700000D03*
X158767500Y-99700000D03*
X160867500Y-100400000D03*
X159467500Y-100400000D03*
X161567500Y-101100000D03*
X160167500Y-101100000D03*
X158767500Y-101100000D03*
X160867500Y-101800000D03*
X159467500Y-101800000D03*
D10*
X125975000Y-84720000D03*
D11*
X128515000Y-84720000D03*
X131055000Y-84720000D03*
X133595000Y-84720000D03*
X136135000Y-84720000D03*
X138675000Y-84720000D03*
X141215000Y-84720000D03*
X143755000Y-84720000D03*
X146295000Y-84720000D03*
X148835000Y-84720000D03*
X151375000Y-84720000D03*
X153915000Y-84720000D03*
X156455000Y-84720000D03*
X158995000Y-84720000D03*
X161535000Y-84720000D03*
X164075000Y-84720000D03*
X166615000Y-84720000D03*
D13*
X117417500Y-109947500D03*
D14*
X113237500Y-109947500D03*
D13*
X117417500Y-118587500D03*
D14*
X113237500Y-118587500D03*
D15*
X145937500Y-98747500D03*
D16*
X112597500Y-86947500D03*
D15*
X127840000Y-93450000D03*
D16*
X122180000Y-112040000D03*
D15*
X125680000Y-100400000D03*
X118400000Y-93410000D03*
D16*
X125970000Y-87030000D03*
X123530000Y-87030000D03*
X134290000Y-87270000D03*
X167870000Y-94570000D03*
D15*
X139617500Y-105317500D03*
X117060000Y-93430000D03*
X116180000Y-93420000D03*
D16*
X168267500Y-91507500D03*
X129560000Y-87030000D03*
D15*
X120270000Y-94930000D03*
D16*
X120120000Y-109520000D03*
D15*
X132220000Y-93420000D03*
X133630000Y-93470000D03*
X124570000Y-100500000D03*
D16*
X122287500Y-116297500D03*
D17*
X123117500Y-94967500D03*
X122615200Y-95214800D03*
D15*
X131340000Y-93410000D03*
D16*
X115810000Y-87030000D03*
X120070000Y-118610000D03*
X163610000Y-90590000D03*
D15*
X139647500Y-98647500D03*
D16*
X125637500Y-112017500D03*
X115820000Y-88590000D03*
D15*
X119280000Y-93420000D03*
D16*
X115820000Y-91960000D03*
D15*
X129170000Y-93440000D03*
X125940000Y-94960000D03*
X124590000Y-99100000D03*
X130050000Y-93450000D03*
D16*
X167247500Y-88527500D03*
X118640000Y-87030000D03*
X121040000Y-98380000D03*
D17*
X123607500Y-95197500D03*
D15*
X167890000Y-112110000D03*
D16*
X137280000Y-112170000D03*
X130317500Y-112987500D03*
D15*
X126960000Y-93440000D03*
X134510000Y-93480000D03*
D16*
X115820000Y-90430000D03*
X122570000Y-97540000D03*
X168047500Y-88517500D03*
X123760000Y-97530000D03*
X121290000Y-87030000D03*
D15*
X144757500Y-101887500D03*
D16*
X134510000Y-91850000D03*
D15*
X145957500Y-105337500D03*
X155370000Y-87250000D03*
X142250000Y-87410000D03*
X155160000Y-90250000D03*
X137730000Y-95550000D03*
X165330000Y-87710000D03*
X137690000Y-97190000D03*
X157840000Y-91150000D03*
X163570000Y-88280000D03*
X160470000Y-87190000D03*
X135950000Y-100140000D03*
X164420000Y-88970000D03*
X147770000Y-87430000D03*
X164500000Y-88170000D03*
X164490000Y-87350000D03*
X135980000Y-107090000D03*
X135610000Y-98000000D03*
X143070000Y-91210000D03*
X136010000Y-109410000D03*
X136010000Y-103850000D03*
X135620000Y-94960000D03*
X163530000Y-87210000D03*
X136030000Y-96190000D03*
X157880000Y-87250000D03*
X145430000Y-87410000D03*
X165700000Y-88490000D03*
X163580000Y-89300000D03*
X135680000Y-88680000D03*
X152790000Y-87320000D03*
X160230000Y-91130000D03*
X138170000Y-87410000D03*
X147840000Y-91220000D03*
X150310000Y-87350000D03*
X140070000Y-89680000D03*
D16*
X148370000Y-93140000D03*
X165560000Y-91380000D03*
X151590000Y-102540000D03*
X133010000Y-115510000D03*
X151580000Y-103800000D03*
X141920000Y-112150000D03*
X151610000Y-105060000D03*
X144000000Y-112290000D03*
X151660000Y-106360000D03*
X146450000Y-112430000D03*
X148670000Y-112430000D03*
X151680000Y-107600000D03*
X151710000Y-108880000D03*
X150920000Y-112520000D03*
X134487500Y-110407500D03*
X123270000Y-110430000D03*
X120620000Y-110470000D03*
X164070000Y-94660000D03*
X162800000Y-94640000D03*
X161540000Y-94620000D03*
X160270000Y-94540000D03*
X159010000Y-94500000D03*
X157740000Y-94520000D03*
X156460000Y-94560000D03*
X155190000Y-94600000D03*
X153910000Y-94620000D03*
X152627500Y-94887500D03*
X135367500Y-111697500D03*
X151437500Y-94907500D03*
X137540000Y-113480000D03*
X148750000Y-94910000D03*
X151370000Y-96180000D03*
X151450000Y-97460000D03*
X148790000Y-98730000D03*
X148780000Y-100000000D03*
X147910000Y-101270000D03*
X130057500Y-112015000D03*
X120067500Y-113997500D03*
X120117500Y-114997500D03*
X130057500Y-113907500D03*
D18*
X163800000Y-93140000D02*
X165560000Y-91380000D01*
X148370000Y-93140000D02*
X163800000Y-93140000D01*
D19*
X145980000Y-102540000D02*
X133010000Y-115510000D01*
X151590000Y-102540000D02*
X145980000Y-102540000D01*
G04 #@! TA.AperFunction,Conductor*
G36*
X137226700Y-83688284D02*
G01*
X137293735Y-83707985D01*
X137339477Y-83760800D01*
X137350670Y-83812314D01*
X137350009Y-86557074D01*
X137350009Y-86557075D01*
X166000000Y-86520000D01*
X166000000Y-86519999D01*
X166021939Y-86519971D01*
X166034959Y-86512851D01*
X166061396Y-86510000D01*
X168673000Y-86510000D01*
X168740039Y-86529685D01*
X168785794Y-86582489D01*
X168797000Y-86634000D01*
X168797000Y-91100536D01*
X168777315Y-91167575D01*
X168724511Y-91213330D01*
X168655353Y-91223274D01*
X168591797Y-91194249D01*
X168585319Y-91188217D01*
X168544115Y-91147013D01*
X168544113Y-91147011D01*
X168441386Y-91087701D01*
X168326809Y-91057000D01*
X168208191Y-91057000D01*
X168093614Y-91087701D01*
X168093612Y-91087701D01*
X168093612Y-91087702D01*
X167990887Y-91147011D01*
X167990884Y-91147013D01*
X167907013Y-91230884D01*
X167907011Y-91230887D01*
X167847701Y-91333614D01*
X167817000Y-91448191D01*
X167817000Y-91566809D01*
X167847701Y-91681386D01*
X167907011Y-91784113D01*
X167990887Y-91867989D01*
X168093614Y-91927299D01*
X168208191Y-91958000D01*
X168208194Y-91958000D01*
X168326806Y-91958000D01*
X168326809Y-91958000D01*
X168441386Y-91927299D01*
X168544113Y-91867989D01*
X168585319Y-91826783D01*
X168646642Y-91793298D01*
X168716334Y-91798282D01*
X168772267Y-91840154D01*
X168796684Y-91905618D01*
X168797000Y-91914464D01*
X168797000Y-117156000D01*
X168777315Y-117223039D01*
X168724511Y-117268794D01*
X168673000Y-117280000D01*
X166021370Y-117280000D01*
X165954331Y-117260315D01*
X165941542Y-117250002D01*
X135243717Y-117210160D01*
X135176703Y-117190388D01*
X135131017Y-117137525D01*
X135119878Y-117086285D01*
X135116947Y-114091634D01*
X135136566Y-114024579D01*
X135153259Y-114003842D01*
X135736410Y-113420691D01*
X137089500Y-113420691D01*
X137089500Y-113539309D01*
X137120201Y-113653886D01*
X137179511Y-113756613D01*
X137263387Y-113840489D01*
X137366114Y-113899799D01*
X137480691Y-113930500D01*
X137480694Y-113930500D01*
X137599306Y-113930500D01*
X137599309Y-113930500D01*
X137713886Y-113899799D01*
X137816613Y-113840489D01*
X137900489Y-113756613D01*
X137959799Y-113653886D01*
X137990500Y-113539309D01*
X137990500Y-113420691D01*
X137959799Y-113306114D01*
X137900489Y-113203387D01*
X137816613Y-113119511D01*
X137713886Y-113060201D01*
X137599309Y-113029500D01*
X137480691Y-113029500D01*
X137366114Y-113060201D01*
X137366112Y-113060201D01*
X137366112Y-113060202D01*
X137263387Y-113119511D01*
X137263384Y-113119513D01*
X137179513Y-113203384D01*
X137179511Y-113203387D01*
X137120201Y-113306114D01*
X137089500Y-113420691D01*
X135736410Y-113420691D01*
X136728779Y-112428322D01*
X136790100Y-112394839D01*
X136859792Y-112399823D01*
X136914829Y-112440513D01*
X136919507Y-112446609D01*
X136919510Y-112446612D01*
X136919511Y-112446613D01*
X137003387Y-112530489D01*
X137106114Y-112589799D01*
X137220691Y-112620500D01*
X137220694Y-112620500D01*
X137339306Y-112620500D01*
X137339309Y-112620500D01*
X137453886Y-112589799D01*
X137556613Y-112530489D01*
X137640489Y-112446613D01*
X137699799Y-112343886D01*
X137730500Y-112229309D01*
X137730500Y-112110691D01*
X137725141Y-112090691D01*
X141469500Y-112090691D01*
X141469500Y-112209309D01*
X141500201Y-112323886D01*
X141559511Y-112426613D01*
X141643387Y-112510489D01*
X141746114Y-112569799D01*
X141860691Y-112600500D01*
X141860694Y-112600500D01*
X141979306Y-112600500D01*
X141979309Y-112600500D01*
X142093886Y-112569799D01*
X142196613Y-112510489D01*
X142280489Y-112426613D01*
X142339799Y-112323886D01*
X142364771Y-112230691D01*
X143549500Y-112230691D01*
X143549500Y-112349309D01*
X143580201Y-112463886D01*
X143639511Y-112566613D01*
X143723387Y-112650489D01*
X143826114Y-112709799D01*
X143940691Y-112740500D01*
X143940694Y-112740500D01*
X144059306Y-112740500D01*
X144059309Y-112740500D01*
X144173886Y-112709799D01*
X144276613Y-112650489D01*
X144360489Y-112566613D01*
X144419799Y-112463886D01*
X144444771Y-112370691D01*
X145999500Y-112370691D01*
X145999500Y-112489309D01*
X146030201Y-112603886D01*
X146089511Y-112706613D01*
X146173387Y-112790489D01*
X146276114Y-112849799D01*
X146390691Y-112880500D01*
X146390694Y-112880500D01*
X146509306Y-112880500D01*
X146509309Y-112880500D01*
X146623886Y-112849799D01*
X146726613Y-112790489D01*
X146810489Y-112706613D01*
X146869799Y-112603886D01*
X146900500Y-112489309D01*
X146900500Y-112370691D01*
X148219500Y-112370691D01*
X148219500Y-112489309D01*
X148250201Y-112603886D01*
X148309511Y-112706613D01*
X148393387Y-112790489D01*
X148496114Y-112849799D01*
X148610691Y-112880500D01*
X148610694Y-112880500D01*
X148729306Y-112880500D01*
X148729309Y-112880500D01*
X148843886Y-112849799D01*
X148946613Y-112790489D01*
X149030489Y-112706613D01*
X149089799Y-112603886D01*
X149120500Y-112489309D01*
X149120500Y-112460691D01*
X150469500Y-112460691D01*
X150469500Y-112579309D01*
X150500201Y-112693886D01*
X150559511Y-112796613D01*
X150643387Y-112880489D01*
X150746114Y-112939799D01*
X150860691Y-112970500D01*
X150860694Y-112970500D01*
X150979306Y-112970500D01*
X150979309Y-112970500D01*
X151093886Y-112939799D01*
X151196613Y-112880489D01*
X151280489Y-112796613D01*
X151339799Y-112693886D01*
X151370500Y-112579309D01*
X151370500Y-112460691D01*
X151339799Y-112346114D01*
X151280489Y-112243387D01*
X151196613Y-112159511D01*
X151093886Y-112100201D01*
X150979309Y-112069500D01*
X150860691Y-112069500D01*
X150746114Y-112100201D01*
X150746112Y-112100201D01*
X150746112Y-112100202D01*
X150643387Y-112159511D01*
X150643384Y-112159513D01*
X150559513Y-112243384D01*
X150559511Y-112243387D01*
X150500201Y-112346114D01*
X150469500Y-112460691D01*
X149120500Y-112460691D01*
X149120500Y-112370691D01*
X149089799Y-112256114D01*
X149030489Y-112153387D01*
X148946613Y-112069511D01*
X148902614Y-112044108D01*
X167389500Y-112044108D01*
X167389500Y-112175892D01*
X167398454Y-112209309D01*
X167423608Y-112303187D01*
X167450235Y-112349305D01*
X167489500Y-112417314D01*
X167582686Y-112510500D01*
X167696814Y-112576392D01*
X167824108Y-112610500D01*
X167824110Y-112610500D01*
X167955890Y-112610500D01*
X167955892Y-112610500D01*
X168083186Y-112576392D01*
X168197314Y-112510500D01*
X168290500Y-112417314D01*
X168356392Y-112303186D01*
X168390500Y-112175892D01*
X168390500Y-112044108D01*
X168356392Y-111916814D01*
X168290500Y-111802686D01*
X168197314Y-111709500D01*
X168140250Y-111676554D01*
X168083187Y-111643608D01*
X168019539Y-111626554D01*
X167955892Y-111609500D01*
X167824108Y-111609500D01*
X167696812Y-111643608D01*
X167582686Y-111709500D01*
X167582683Y-111709502D01*
X167489502Y-111802683D01*
X167489500Y-111802686D01*
X167423608Y-111916812D01*
X167389500Y-112044108D01*
X148902614Y-112044108D01*
X148843886Y-112010201D01*
X148729309Y-111979500D01*
X148610691Y-111979500D01*
X148496114Y-112010201D01*
X148496112Y-112010201D01*
X148496112Y-112010202D01*
X148393387Y-112069511D01*
X148393384Y-112069513D01*
X148309513Y-112153384D01*
X148309511Y-112153387D01*
X148250201Y-112256114D01*
X148219500Y-112370691D01*
X146900500Y-112370691D01*
X146869799Y-112256114D01*
X146810489Y-112153387D01*
X146726613Y-112069511D01*
X146623886Y-112010201D01*
X146509309Y-111979500D01*
X146390691Y-111979500D01*
X146276114Y-112010201D01*
X146276112Y-112010201D01*
X146276112Y-112010202D01*
X146173387Y-112069511D01*
X146173384Y-112069513D01*
X146089513Y-112153384D01*
X146089511Y-112153387D01*
X146030201Y-112256114D01*
X145999500Y-112370691D01*
X144444771Y-112370691D01*
X144450500Y-112349309D01*
X144450500Y-112230691D01*
X144419799Y-112116114D01*
X144360489Y-112013387D01*
X144276613Y-111929511D01*
X144173886Y-111870201D01*
X144059309Y-111839500D01*
X143940691Y-111839500D01*
X143826114Y-111870201D01*
X143826112Y-111870201D01*
X143826112Y-111870202D01*
X143723387Y-111929511D01*
X143723384Y-111929513D01*
X143639513Y-112013384D01*
X143639511Y-112013387D01*
X143580201Y-112116114D01*
X143549500Y-112230691D01*
X142364771Y-112230691D01*
X142370500Y-112209309D01*
X142370500Y-112090691D01*
X142339799Y-111976114D01*
X142280489Y-111873387D01*
X142196613Y-111789511D01*
X142093886Y-111730201D01*
X141979309Y-111699500D01*
X141860691Y-111699500D01*
X141746114Y-111730201D01*
X141746112Y-111730201D01*
X141746112Y-111730202D01*
X141643387Y-111789511D01*
X141643384Y-111789513D01*
X141559513Y-111873384D01*
X141559511Y-111873387D01*
X141500201Y-111976114D01*
X141469500Y-112090691D01*
X137725141Y-112090691D01*
X137699799Y-111996114D01*
X137640489Y-111893387D01*
X137556613Y-111809511D01*
X137556609Y-111809507D01*
X137550513Y-111804829D01*
X137509313Y-111748399D01*
X137505163Y-111678653D01*
X137538322Y-111618779D01*
X140336411Y-108820691D01*
X151259500Y-108820691D01*
X151259500Y-108939309D01*
X151290201Y-109053886D01*
X151349511Y-109156613D01*
X151433387Y-109240489D01*
X151536114Y-109299799D01*
X151650691Y-109330500D01*
X151650694Y-109330500D01*
X151769306Y-109330500D01*
X151769309Y-109330500D01*
X151883886Y-109299799D01*
X151986613Y-109240489D01*
X152070489Y-109156613D01*
X152129799Y-109053886D01*
X152160500Y-108939309D01*
X152160500Y-108820691D01*
X152129799Y-108706114D01*
X152070489Y-108603387D01*
X151986613Y-108519511D01*
X151883886Y-108460201D01*
X151769309Y-108429500D01*
X151650691Y-108429500D01*
X151536114Y-108460201D01*
X151536112Y-108460201D01*
X151536112Y-108460202D01*
X151433387Y-108519511D01*
X151433384Y-108519513D01*
X151349513Y-108603384D01*
X151349511Y-108603387D01*
X151290201Y-108706114D01*
X151259500Y-108820691D01*
X140336411Y-108820691D01*
X141616411Y-107540691D01*
X151229500Y-107540691D01*
X151229500Y-107659309D01*
X151260201Y-107773886D01*
X151319511Y-107876613D01*
X151403387Y-107960489D01*
X151506114Y-108019799D01*
X151620691Y-108050500D01*
X151620694Y-108050500D01*
X151739306Y-108050500D01*
X151739309Y-108050500D01*
X151853886Y-108019799D01*
X151956613Y-107960489D01*
X152040489Y-107876613D01*
X152099799Y-107773886D01*
X152130500Y-107659309D01*
X152130500Y-107540691D01*
X152099799Y-107426114D01*
X152040489Y-107323387D01*
X151956613Y-107239511D01*
X151853886Y-107180201D01*
X151739309Y-107149500D01*
X151620691Y-107149500D01*
X151506114Y-107180201D01*
X151506112Y-107180201D01*
X151506112Y-107180202D01*
X151403387Y-107239511D01*
X151403384Y-107239513D01*
X151319513Y-107323384D01*
X151319511Y-107323387D01*
X151260201Y-107426114D01*
X151229500Y-107540691D01*
X141616411Y-107540691D01*
X142856411Y-106300691D01*
X151209500Y-106300691D01*
X151209500Y-106419309D01*
X151240201Y-106533886D01*
X151299511Y-106636613D01*
X151383387Y-106720489D01*
X151486114Y-106779799D01*
X151600691Y-106810500D01*
X151600694Y-106810500D01*
X151719306Y-106810500D01*
X151719309Y-106810500D01*
X151833886Y-106779799D01*
X151936613Y-106720489D01*
X152020489Y-106636613D01*
X152079799Y-106533886D01*
X152110500Y-106419309D01*
X152110500Y-106300691D01*
X152079799Y-106186114D01*
X152020489Y-106083387D01*
X151936613Y-105999511D01*
X151833886Y-105940201D01*
X151719309Y-105909500D01*
X151600691Y-105909500D01*
X151486114Y-105940201D01*
X151486112Y-105940201D01*
X151486112Y-105940202D01*
X151383387Y-105999511D01*
X151383384Y-105999513D01*
X151299513Y-106083384D01*
X151299511Y-106083387D01*
X151240201Y-106186114D01*
X151209500Y-106300691D01*
X142856411Y-106300691D01*
X143885494Y-105271608D01*
X145457000Y-105271608D01*
X145457000Y-105403391D01*
X145491108Y-105530687D01*
X145524054Y-105587750D01*
X145557000Y-105644814D01*
X145650186Y-105738000D01*
X145764314Y-105803892D01*
X145891608Y-105838000D01*
X145891610Y-105838000D01*
X146023390Y-105838000D01*
X146023392Y-105838000D01*
X146150686Y-105803892D01*
X146264814Y-105738000D01*
X146358000Y-105644814D01*
X146423892Y-105530686D01*
X146458000Y-105403392D01*
X146458000Y-105271608D01*
X146423892Y-105144314D01*
X146409455Y-105119309D01*
X146372076Y-105054566D01*
X146372075Y-105054565D01*
X146358000Y-105030186D01*
X146328505Y-105000691D01*
X151159500Y-105000691D01*
X151159500Y-105119309D01*
X151190201Y-105233886D01*
X151249511Y-105336613D01*
X151333387Y-105420489D01*
X151436114Y-105479799D01*
X151550691Y-105510500D01*
X151550694Y-105510500D01*
X151669306Y-105510500D01*
X151669309Y-105510500D01*
X151783886Y-105479799D01*
X151886613Y-105420489D01*
X151970489Y-105336613D01*
X152029799Y-105233886D01*
X152060500Y-105119309D01*
X152060500Y-105000691D01*
X152029799Y-104886114D01*
X151970489Y-104783387D01*
X151886613Y-104699511D01*
X151783886Y-104640201D01*
X151669309Y-104609500D01*
X151550691Y-104609500D01*
X151436114Y-104640201D01*
X151436112Y-104640201D01*
X151436112Y-104640202D01*
X151333387Y-104699511D01*
X151333384Y-104699513D01*
X151249513Y-104783384D01*
X151249511Y-104783387D01*
X151190201Y-104886114D01*
X151159500Y-105000691D01*
X146328505Y-105000691D01*
X146264814Y-104937000D01*
X146207750Y-104904054D01*
X146150687Y-104871108D01*
X146076044Y-104851108D01*
X146023392Y-104837000D01*
X145891608Y-104837000D01*
X145764312Y-104871108D01*
X145650186Y-104937000D01*
X145650183Y-104937002D01*
X145557002Y-105030183D01*
X145557000Y-105030186D01*
X145491108Y-105144312D01*
X145457000Y-105271608D01*
X143885494Y-105271608D01*
X145416412Y-103740691D01*
X151129500Y-103740691D01*
X151129500Y-103859309D01*
X151160201Y-103973886D01*
X151219511Y-104076613D01*
X151303387Y-104160489D01*
X151406114Y-104219799D01*
X151520691Y-104250500D01*
X151520694Y-104250500D01*
X151639306Y-104250500D01*
X151639309Y-104250500D01*
X151753886Y-104219799D01*
X151856613Y-104160489D01*
X151940489Y-104076613D01*
X151999799Y-103973886D01*
X152030500Y-103859309D01*
X152030500Y-103740691D01*
X151999799Y-103626114D01*
X151940489Y-103523387D01*
X151856613Y-103439511D01*
X151753886Y-103380201D01*
X151639309Y-103349500D01*
X151520691Y-103349500D01*
X151406114Y-103380201D01*
X151406112Y-103380201D01*
X151406112Y-103380202D01*
X151303387Y-103439511D01*
X151303384Y-103439513D01*
X151219513Y-103523384D01*
X151219511Y-103523387D01*
X151160201Y-103626114D01*
X151129500Y-103740691D01*
X145416412Y-103740691D01*
X146130284Y-103026819D01*
X146191607Y-102993334D01*
X146217965Y-102990500D01*
X151649306Y-102990500D01*
X151649309Y-102990500D01*
X151763886Y-102959799D01*
X151866613Y-102900489D01*
X151950489Y-102816613D01*
X152009799Y-102713886D01*
X152040500Y-102599309D01*
X152040500Y-102480691D01*
X152009799Y-102366114D01*
X151950489Y-102263387D01*
X151866613Y-102179511D01*
X151763886Y-102120201D01*
X151649309Y-102089500D01*
X145920691Y-102089500D01*
X145830325Y-102113713D01*
X145830324Y-102113712D01*
X145806116Y-102120199D01*
X145806113Y-102120200D01*
X145703386Y-102179511D01*
X145703383Y-102179513D01*
X136029590Y-111853305D01*
X135968267Y-111886790D01*
X135898575Y-111881806D01*
X135842642Y-111839934D01*
X135818225Y-111774470D01*
X135818512Y-111764936D01*
X135818000Y-111764936D01*
X135818000Y-111638193D01*
X135818000Y-111638191D01*
X135787299Y-111523614D01*
X135727989Y-111420887D01*
X135644113Y-111337011D01*
X135541386Y-111277701D01*
X135426809Y-111247000D01*
X135308191Y-111247000D01*
X135308186Y-111247000D01*
X135270146Y-111257193D01*
X135200296Y-111255529D01*
X135142435Y-111216366D01*
X135114932Y-111152137D01*
X135114056Y-111137561D01*
X135108295Y-105251608D01*
X139117000Y-105251608D01*
X139117000Y-105383392D01*
X139122359Y-105403391D01*
X139151108Y-105510687D01*
X139184054Y-105567750D01*
X139217000Y-105624814D01*
X139310186Y-105718000D01*
X139424314Y-105783892D01*
X139551608Y-105818000D01*
X139551610Y-105818000D01*
X139683390Y-105818000D01*
X139683392Y-105818000D01*
X139810686Y-105783892D01*
X139924814Y-105718000D01*
X140018000Y-105624814D01*
X140083892Y-105510686D01*
X140118000Y-105383392D01*
X140118000Y-105251608D01*
X140083892Y-105124314D01*
X140018000Y-105010186D01*
X139924814Y-104917000D01*
X139845327Y-104871108D01*
X139810687Y-104851108D01*
X139747039Y-104834054D01*
X139683392Y-104817000D01*
X139551608Y-104817000D01*
X139424312Y-104851108D01*
X139310186Y-104917000D01*
X139310183Y-104917002D01*
X139217002Y-105010183D01*
X139217000Y-105010186D01*
X139151108Y-105124312D01*
X139121748Y-105233887D01*
X139117000Y-105251608D01*
X135108295Y-105251608D01*
X135105000Y-101885000D01*
X135104938Y-101821608D01*
X144257000Y-101821608D01*
X144257000Y-101953391D01*
X144291108Y-102080687D01*
X144324054Y-102137750D01*
X144357000Y-102194814D01*
X144450186Y-102288000D01*
X144564314Y-102353892D01*
X144691608Y-102388000D01*
X144691610Y-102388000D01*
X144823390Y-102388000D01*
X144823392Y-102388000D01*
X144950686Y-102353892D01*
X145064814Y-102288000D01*
X145158000Y-102194814D01*
X145223892Y-102080686D01*
X145258000Y-101953392D01*
X145258000Y-101821608D01*
X145223892Y-101694314D01*
X145158000Y-101580186D01*
X145064814Y-101487000D01*
X145007750Y-101454054D01*
X144950687Y-101421108D01*
X144887039Y-101404054D01*
X144823392Y-101387000D01*
X144691608Y-101387000D01*
X144564312Y-101421108D01*
X144450186Y-101487000D01*
X144450183Y-101487002D01*
X144357002Y-101580183D01*
X144357000Y-101580186D01*
X144291108Y-101694312D01*
X144257000Y-101821608D01*
X135104938Y-101821608D01*
X135104340Y-101210691D01*
X147459500Y-101210691D01*
X147459500Y-101329309D01*
X147490201Y-101443886D01*
X147549511Y-101546613D01*
X147633387Y-101630489D01*
X147736114Y-101689799D01*
X147850691Y-101720500D01*
X147850694Y-101720500D01*
X147969306Y-101720500D01*
X147969309Y-101720500D01*
X148083886Y-101689799D01*
X148186613Y-101630489D01*
X148270489Y-101546613D01*
X148329799Y-101443886D01*
X148360500Y-101329309D01*
X148360500Y-101210691D01*
X148329799Y-101096114D01*
X148270489Y-100993387D01*
X148186613Y-100909511D01*
X148083886Y-100850201D01*
X147969309Y-100819500D01*
X147850691Y-100819500D01*
X147736114Y-100850201D01*
X147736112Y-100850201D01*
X147736112Y-100850202D01*
X147633387Y-100909511D01*
X147633384Y-100909513D01*
X147549513Y-100993384D01*
X147549511Y-100993387D01*
X147526001Y-101034108D01*
X147490201Y-101096114D01*
X147459500Y-101210691D01*
X135104340Y-101210691D01*
X135103097Y-99940691D01*
X148329500Y-99940691D01*
X148329500Y-100059309D01*
X148360201Y-100173886D01*
X148419511Y-100276613D01*
X148503387Y-100360489D01*
X148606114Y-100419799D01*
X148720691Y-100450500D01*
X148720694Y-100450500D01*
X148839306Y-100450500D01*
X148839309Y-100450500D01*
X148953886Y-100419799D01*
X149056613Y-100360489D01*
X149140489Y-100276613D01*
X149199799Y-100173886D01*
X149230500Y-100059309D01*
X149230500Y-99940691D01*
X149199799Y-99826114D01*
X149140489Y-99723387D01*
X149056613Y-99639511D01*
X149047255Y-99634108D01*
X158267000Y-99634108D01*
X158267000Y-99765891D01*
X158301108Y-99893187D01*
X158304753Y-99899500D01*
X158367000Y-100007314D01*
X158460186Y-100100500D01*
X158574314Y-100166392D01*
X158701608Y-100200500D01*
X158701610Y-100200500D01*
X158841519Y-100200500D01*
X158841519Y-100203600D01*
X158843921Y-100203974D01*
X158860871Y-100201537D01*
X158877727Y-100209235D01*
X158896040Y-100212085D01*
X158908851Y-100223448D01*
X158924427Y-100230562D01*
X158934445Y-100246150D01*
X158948310Y-100258449D01*
X158953130Y-100275226D01*
X158962201Y-100289340D01*
X158964059Y-100313260D01*
X158967224Y-100324275D01*
X158967224Y-100333272D01*
X158967000Y-100334108D01*
X158967000Y-100465892D01*
X158967224Y-100466727D01*
X158967224Y-100475724D01*
X158959574Y-100501774D01*
X158955383Y-100528604D01*
X158949875Y-100534806D01*
X158947539Y-100542763D01*
X158927022Y-100560540D01*
X158908989Y-100580848D01*
X158901001Y-100583088D01*
X158894735Y-100588518D01*
X158867862Y-100592381D01*
X158841715Y-100599715D01*
X158838708Y-100599500D01*
X158833392Y-100599500D01*
X158701608Y-100599500D01*
X158574312Y-100633608D01*
X158460186Y-100699500D01*
X158460183Y-100699502D01*
X158367002Y-100792683D01*
X158367000Y-100792686D01*
X158301108Y-100906812D01*
X158267000Y-101034108D01*
X158267000Y-101165891D01*
X158301108Y-101293187D01*
X158324446Y-101333608D01*
X158367000Y-101407314D01*
X158460186Y-101500500D01*
X158574314Y-101566392D01*
X158701608Y-101600500D01*
X158701610Y-101600500D01*
X158841519Y-101600500D01*
X158841519Y-101603600D01*
X158896040Y-101612085D01*
X158948310Y-101658449D01*
X158967216Y-101725712D01*
X158967000Y-101728745D01*
X158967000Y-101865891D01*
X159001108Y-101993187D01*
X159034054Y-102050250D01*
X159067000Y-102107314D01*
X159160186Y-102200500D01*
X159274314Y-102266392D01*
X159401608Y-102300500D01*
X159401610Y-102300500D01*
X159533390Y-102300500D01*
X159533392Y-102300500D01*
X159660686Y-102266392D01*
X159774814Y-102200500D01*
X159868000Y-102107314D01*
X159933892Y-101993186D01*
X159968000Y-101865892D01*
X159968000Y-101734108D01*
X159968000Y-101725981D01*
X159971099Y-101725981D01*
X159971473Y-101723574D01*
X159969037Y-101706628D01*
X159976737Y-101689766D01*
X159979589Y-101671451D01*
X159990950Y-101658644D01*
X159998062Y-101643072D01*
X160013655Y-101633051D01*
X160025957Y-101619184D01*
X160042731Y-101614364D01*
X160056840Y-101605298D01*
X160080724Y-101603449D01*
X160091775Y-101600275D01*
X160100768Y-101600275D01*
X160101608Y-101600500D01*
X160233392Y-101600500D01*
X160234232Y-101600275D01*
X160243224Y-101600275D01*
X160269240Y-101607914D01*
X160296040Y-101612085D01*
X160302273Y-101617613D01*
X160310263Y-101619960D01*
X160328016Y-101640448D01*
X160348310Y-101658449D01*
X160350564Y-101666470D01*
X160356018Y-101672764D01*
X160359876Y-101699600D01*
X160367216Y-101725712D01*
X160367000Y-101728745D01*
X160367000Y-101865891D01*
X160401108Y-101993187D01*
X160434054Y-102050250D01*
X160467000Y-102107314D01*
X160560186Y-102200500D01*
X160674314Y-102266392D01*
X160801608Y-102300500D01*
X160801610Y-102300500D01*
X160933390Y-102300500D01*
X160933392Y-102300500D01*
X161060686Y-102266392D01*
X161174814Y-102200500D01*
X161268000Y-102107314D01*
X161333892Y-101993186D01*
X161368000Y-101865892D01*
X161368000Y-101734108D01*
X161368000Y-101725981D01*
X161371099Y-101725981D01*
X161379589Y-101671451D01*
X161425957Y-101619184D01*
X161493222Y-101600283D01*
X161496254Y-101600500D01*
X161501608Y-101600500D01*
X161633390Y-101600500D01*
X161633392Y-101600500D01*
X161760686Y-101566392D01*
X161874814Y-101500500D01*
X161968000Y-101407314D01*
X162033892Y-101293186D01*
X162068000Y-101165892D01*
X162068000Y-101034108D01*
X162033892Y-100906814D01*
X161968000Y-100792686D01*
X161874814Y-100699500D01*
X161817750Y-100666554D01*
X161760687Y-100633608D01*
X161697039Y-100616554D01*
X161633392Y-100599500D01*
X161501608Y-100599500D01*
X161493481Y-100599500D01*
X161493481Y-100596412D01*
X161491037Y-100596030D01*
X161474128Y-100598462D01*
X161457234Y-100590746D01*
X161438886Y-100587879D01*
X161426112Y-100576534D01*
X161410572Y-100569437D01*
X161400531Y-100553813D01*
X161386646Y-100541481D01*
X161381837Y-100524724D01*
X161372798Y-100510659D01*
X161370952Y-100486794D01*
X161367775Y-100475724D01*
X161367775Y-100466731D01*
X161368000Y-100465892D01*
X161368000Y-100334108D01*
X161367775Y-100333268D01*
X161367775Y-100324275D01*
X161375416Y-100298252D01*
X161379589Y-100271451D01*
X161385115Y-100265221D01*
X161387460Y-100257236D01*
X161407952Y-100239479D01*
X161425957Y-100219184D01*
X161433974Y-100216931D01*
X161440264Y-100211481D01*
X161467105Y-100207621D01*
X161493222Y-100200283D01*
X161496254Y-100200500D01*
X161501608Y-100200500D01*
X161633390Y-100200500D01*
X161633392Y-100200500D01*
X161760686Y-100166392D01*
X161874814Y-100100500D01*
X161968000Y-100007314D01*
X162033892Y-99893186D01*
X162068000Y-99765892D01*
X162068000Y-99634108D01*
X162033892Y-99506814D01*
X161968000Y-99392686D01*
X161874814Y-99299500D01*
X161785612Y-99247999D01*
X161760687Y-99233608D01*
X161687100Y-99213891D01*
X161633392Y-99199500D01*
X161501608Y-99199500D01*
X161493481Y-99199500D01*
X161493481Y-99196412D01*
X161438886Y-99187879D01*
X161386646Y-99141481D01*
X161367784Y-99074206D01*
X161368000Y-99071201D01*
X161368000Y-98934110D01*
X161368000Y-98934108D01*
X161333892Y-98806814D01*
X161268000Y-98692686D01*
X161174814Y-98599500D01*
X161117750Y-98566554D01*
X161060687Y-98533608D01*
X160997039Y-98516554D01*
X160933392Y-98499500D01*
X160801608Y-98499500D01*
X160674312Y-98533608D01*
X160560186Y-98599500D01*
X160560183Y-98599502D01*
X160467002Y-98692683D01*
X160467000Y-98692686D01*
X160401108Y-98806812D01*
X160367000Y-98934108D01*
X160367000Y-99074019D01*
X160363911Y-99074019D01*
X160363530Y-99076457D01*
X160365962Y-99093371D01*
X160358248Y-99110260D01*
X160355383Y-99128604D01*
X160344036Y-99141381D01*
X160336937Y-99156927D01*
X160321317Y-99166964D01*
X160308989Y-99180848D01*
X160292229Y-99185658D01*
X160278159Y-99194701D01*
X160254258Y-99196556D01*
X160243224Y-99199724D01*
X160234228Y-99199724D01*
X160233392Y-99199500D01*
X160101608Y-99199500D01*
X160100772Y-99199724D01*
X160091775Y-99199724D01*
X160065719Y-99192073D01*
X160038886Y-99187879D01*
X160032687Y-99182373D01*
X160024736Y-99180039D01*
X160006955Y-99159519D01*
X159986646Y-99141481D01*
X159984407Y-99133497D01*
X159978981Y-99127235D01*
X159975116Y-99100359D01*
X159967784Y-99074206D01*
X159968000Y-99071201D01*
X159968000Y-98934110D01*
X159968000Y-98934108D01*
X159933892Y-98806814D01*
X159868000Y-98692686D01*
X159774814Y-98599500D01*
X159717750Y-98566554D01*
X159660687Y-98533608D01*
X159597039Y-98516554D01*
X159533392Y-98499500D01*
X159401608Y-98499500D01*
X159274312Y-98533608D01*
X159160186Y-98599500D01*
X159160183Y-98599502D01*
X159067002Y-98692683D01*
X159067000Y-98692686D01*
X159001108Y-98806812D01*
X158967000Y-98934108D01*
X158967000Y-99074019D01*
X158963911Y-99074019D01*
X158955383Y-99128604D01*
X158908989Y-99180848D01*
X158841715Y-99199715D01*
X158838708Y-99199500D01*
X158833392Y-99199500D01*
X158701608Y-99199500D01*
X158574312Y-99233608D01*
X158460186Y-99299500D01*
X158460183Y-99299502D01*
X158367002Y-99392683D01*
X158367000Y-99392686D01*
X158301108Y-99506812D01*
X158267000Y-99634108D01*
X149047255Y-99634108D01*
X148953886Y-99580201D01*
X148839309Y-99549500D01*
X148720691Y-99549500D01*
X148606114Y-99580201D01*
X148606112Y-99580201D01*
X148606112Y-99580202D01*
X148503387Y-99639511D01*
X148503384Y-99639513D01*
X148419513Y-99723384D01*
X148419511Y-99723387D01*
X148394971Y-99765892D01*
X148360201Y-99826114D01*
X148329500Y-99940691D01*
X135103097Y-99940691D01*
X135102372Y-99199715D01*
X135101767Y-98581608D01*
X139147000Y-98581608D01*
X139147000Y-98713391D01*
X139181108Y-98840687D01*
X139214054Y-98897750D01*
X139247000Y-98954814D01*
X139340186Y-99048000D01*
X139454314Y-99113892D01*
X139581608Y-99148000D01*
X139581610Y-99148000D01*
X139713390Y-99148000D01*
X139713392Y-99148000D01*
X139840686Y-99113892D01*
X139954814Y-99048000D01*
X140048000Y-98954814D01*
X140113892Y-98840686D01*
X140148000Y-98713392D01*
X140148000Y-98681608D01*
X145437000Y-98681608D01*
X145437000Y-98813391D01*
X145471108Y-98940687D01*
X145479266Y-98954816D01*
X145537000Y-99054814D01*
X145630186Y-99148000D01*
X145744314Y-99213892D01*
X145871608Y-99248000D01*
X145871610Y-99248000D01*
X146003390Y-99248000D01*
X146003392Y-99248000D01*
X146130686Y-99213892D01*
X146244814Y-99148000D01*
X146338000Y-99054814D01*
X146403892Y-98940686D01*
X146438000Y-98813392D01*
X146438000Y-98681608D01*
X146435075Y-98670691D01*
X148339500Y-98670691D01*
X148339500Y-98789309D01*
X148370201Y-98903886D01*
X148429511Y-99006613D01*
X148513387Y-99090489D01*
X148616114Y-99149799D01*
X148730691Y-99180500D01*
X148730694Y-99180500D01*
X148849306Y-99180500D01*
X148849309Y-99180500D01*
X148963886Y-99149799D01*
X149066613Y-99090489D01*
X149150489Y-99006613D01*
X149209799Y-98903886D01*
X149240500Y-98789309D01*
X149240500Y-98670691D01*
X149209799Y-98556114D01*
X149150489Y-98453387D01*
X149066613Y-98369511D01*
X148963886Y-98310201D01*
X148849309Y-98279500D01*
X148730691Y-98279500D01*
X148616114Y-98310201D01*
X148616112Y-98310201D01*
X148616112Y-98310202D01*
X148513387Y-98369511D01*
X148513384Y-98369513D01*
X148429513Y-98453384D01*
X148429511Y-98453387D01*
X148370201Y-98556114D01*
X148339500Y-98670691D01*
X146435075Y-98670691D01*
X146403892Y-98554314D01*
X146338000Y-98440186D01*
X146244814Y-98347000D01*
X146181078Y-98310202D01*
X146130687Y-98281108D01*
X146067039Y-98264054D01*
X146003392Y-98247000D01*
X145871608Y-98247000D01*
X145744312Y-98281108D01*
X145630186Y-98347000D01*
X145630183Y-98347002D01*
X145537002Y-98440183D01*
X145537000Y-98440186D01*
X145471108Y-98554312D01*
X145437000Y-98681608D01*
X140148000Y-98681608D01*
X140148000Y-98581608D01*
X140113892Y-98454314D01*
X140048000Y-98340186D01*
X139954814Y-98247000D01*
X139897750Y-98214054D01*
X139840687Y-98181108D01*
X139777039Y-98164054D01*
X139713392Y-98147000D01*
X139581608Y-98147000D01*
X139454312Y-98181108D01*
X139340186Y-98247000D01*
X139340183Y-98247002D01*
X139247002Y-98340183D01*
X139247000Y-98340186D01*
X139181108Y-98454312D01*
X139147000Y-98581608D01*
X135101767Y-98581608D01*
X135101759Y-98573602D01*
X135100611Y-97400691D01*
X150999500Y-97400691D01*
X150999500Y-97519309D01*
X151030201Y-97633886D01*
X151089511Y-97736613D01*
X151173387Y-97820489D01*
X151276114Y-97879799D01*
X151390691Y-97910500D01*
X151390694Y-97910500D01*
X151509306Y-97910500D01*
X151509309Y-97910500D01*
X151623886Y-97879799D01*
X151726613Y-97820489D01*
X151810489Y-97736613D01*
X151869799Y-97633886D01*
X151900500Y-97519309D01*
X151900500Y-97400691D01*
X151869799Y-97286114D01*
X151810489Y-97183387D01*
X151726613Y-97099511D01*
X151623886Y-97040201D01*
X151509309Y-97009500D01*
X151390691Y-97009500D01*
X151276114Y-97040201D01*
X151276112Y-97040201D01*
X151276112Y-97040202D01*
X151173387Y-97099511D01*
X151173384Y-97099513D01*
X151089513Y-97183384D01*
X151089511Y-97183387D01*
X151030201Y-97286114D01*
X150999500Y-97400691D01*
X135100611Y-97400691D01*
X135100603Y-97392685D01*
X135099358Y-96120691D01*
X150919500Y-96120691D01*
X150919500Y-96239309D01*
X150950201Y-96353886D01*
X151009511Y-96456613D01*
X151093387Y-96540489D01*
X151196114Y-96599799D01*
X151310691Y-96630500D01*
X151310694Y-96630500D01*
X151429306Y-96630500D01*
X151429309Y-96630500D01*
X151543886Y-96599799D01*
X151646613Y-96540489D01*
X151730489Y-96456613D01*
X151789799Y-96353886D01*
X151820500Y-96239309D01*
X151820500Y-96120691D01*
X151789799Y-96006114D01*
X151730489Y-95903387D01*
X151646613Y-95819511D01*
X151543886Y-95760201D01*
X151429309Y-95729500D01*
X151310691Y-95729500D01*
X151196114Y-95760201D01*
X151196112Y-95760201D01*
X151196112Y-95760202D01*
X151093387Y-95819511D01*
X151093384Y-95819513D01*
X151009513Y-95903384D01*
X151009511Y-95903387D01*
X150950201Y-96006114D01*
X150919500Y-96120691D01*
X135099358Y-96120691D01*
X135099350Y-96112685D01*
X135098319Y-95059797D01*
X135098114Y-94850691D01*
X148299500Y-94850691D01*
X148299500Y-94969309D01*
X148330201Y-95083886D01*
X148389511Y-95186613D01*
X148473387Y-95270489D01*
X148576114Y-95329799D01*
X148690691Y-95360500D01*
X148690694Y-95360500D01*
X148809306Y-95360500D01*
X148809309Y-95360500D01*
X148923886Y-95329799D01*
X149026613Y-95270489D01*
X149110489Y-95186613D01*
X149169799Y-95083886D01*
X149200500Y-94969309D01*
X149200500Y-94850691D01*
X149199830Y-94848191D01*
X150987000Y-94848191D01*
X150987000Y-94966809D01*
X151017701Y-95081386D01*
X151077011Y-95184113D01*
X151160887Y-95267989D01*
X151263614Y-95327299D01*
X151378191Y-95358000D01*
X151378194Y-95358000D01*
X151496806Y-95358000D01*
X151496809Y-95358000D01*
X151611386Y-95327299D01*
X151714113Y-95267989D01*
X151797989Y-95184113D01*
X151857299Y-95081386D01*
X151888000Y-94966809D01*
X151888000Y-94848191D01*
X151882641Y-94828191D01*
X152177000Y-94828191D01*
X152177000Y-94946809D01*
X152207701Y-95061386D01*
X152267011Y-95164113D01*
X152350887Y-95247989D01*
X152453614Y-95307299D01*
X152568191Y-95338000D01*
X152568194Y-95338000D01*
X152686806Y-95338000D01*
X152686809Y-95338000D01*
X152801386Y-95307299D01*
X152904113Y-95247989D01*
X152987989Y-95164113D01*
X153047299Y-95061386D01*
X153078000Y-94946809D01*
X153078000Y-94828191D01*
X153047299Y-94713614D01*
X152987989Y-94610887D01*
X152937793Y-94560691D01*
X153459500Y-94560691D01*
X153459500Y-94679309D01*
X153490201Y-94793886D01*
X153549511Y-94896613D01*
X153633387Y-94980489D01*
X153736114Y-95039799D01*
X153850691Y-95070500D01*
X153850694Y-95070500D01*
X153969306Y-95070500D01*
X153969309Y-95070500D01*
X154083886Y-95039799D01*
X154186613Y-94980489D01*
X154270489Y-94896613D01*
X154329799Y-94793886D01*
X154360500Y-94679309D01*
X154360500Y-94560691D01*
X154355141Y-94540691D01*
X154739500Y-94540691D01*
X154739500Y-94659309D01*
X154770201Y-94773886D01*
X154829511Y-94876613D01*
X154913387Y-94960489D01*
X155016114Y-95019799D01*
X155130691Y-95050500D01*
X155130694Y-95050500D01*
X155249306Y-95050500D01*
X155249309Y-95050500D01*
X155363886Y-95019799D01*
X155466613Y-94960489D01*
X155550489Y-94876613D01*
X155609799Y-94773886D01*
X155640500Y-94659309D01*
X155640500Y-94540691D01*
X155629782Y-94500691D01*
X156009500Y-94500691D01*
X156009500Y-94619309D01*
X156040201Y-94733886D01*
X156099511Y-94836613D01*
X156183387Y-94920489D01*
X156286114Y-94979799D01*
X156400691Y-95010500D01*
X156400694Y-95010500D01*
X156519306Y-95010500D01*
X156519309Y-95010500D01*
X156633886Y-94979799D01*
X156736613Y-94920489D01*
X156820489Y-94836613D01*
X156879799Y-94733886D01*
X156910500Y-94619309D01*
X156910500Y-94500691D01*
X156899782Y-94460691D01*
X157289500Y-94460691D01*
X157289500Y-94579309D01*
X157320201Y-94693886D01*
X157379511Y-94796613D01*
X157463387Y-94880489D01*
X157566114Y-94939799D01*
X157680691Y-94970500D01*
X157680694Y-94970500D01*
X157799306Y-94970500D01*
X157799309Y-94970500D01*
X157913886Y-94939799D01*
X158016613Y-94880489D01*
X158100489Y-94796613D01*
X158159799Y-94693886D01*
X158190500Y-94579309D01*
X158190500Y-94460691D01*
X158185141Y-94440691D01*
X158559500Y-94440691D01*
X158559500Y-94559309D01*
X158590201Y-94673886D01*
X158649511Y-94776613D01*
X158733387Y-94860489D01*
X158836114Y-94919799D01*
X158950691Y-94950500D01*
X158950694Y-94950500D01*
X159069306Y-94950500D01*
X159069309Y-94950500D01*
X159183886Y-94919799D01*
X159286613Y-94860489D01*
X159370489Y-94776613D01*
X159429799Y-94673886D01*
X159460500Y-94559309D01*
X159460500Y-94480691D01*
X159819500Y-94480691D01*
X159819500Y-94599309D01*
X159850201Y-94713886D01*
X159909511Y-94816613D01*
X159993387Y-94900489D01*
X160096114Y-94959799D01*
X160210691Y-94990500D01*
X160210694Y-94990500D01*
X160329306Y-94990500D01*
X160329309Y-94990500D01*
X160443886Y-94959799D01*
X160546613Y-94900489D01*
X160630489Y-94816613D01*
X160689799Y-94713886D01*
X160720500Y-94599309D01*
X160720500Y-94560691D01*
X161089500Y-94560691D01*
X161089500Y-94679309D01*
X161120201Y-94793886D01*
X161179511Y-94896613D01*
X161263387Y-94980489D01*
X161366114Y-95039799D01*
X161480691Y-95070500D01*
X161480694Y-95070500D01*
X161599306Y-95070500D01*
X161599309Y-95070500D01*
X161713886Y-95039799D01*
X161816613Y-94980489D01*
X161900489Y-94896613D01*
X161959799Y-94793886D01*
X161990500Y-94679309D01*
X161990500Y-94580691D01*
X162349500Y-94580691D01*
X162349500Y-94699309D01*
X162380201Y-94813886D01*
X162439511Y-94916613D01*
X162523387Y-95000489D01*
X162626114Y-95059799D01*
X162740691Y-95090500D01*
X162740694Y-95090500D01*
X162859306Y-95090500D01*
X162859309Y-95090500D01*
X162973886Y-95059799D01*
X163076613Y-95000489D01*
X163160489Y-94916613D01*
X163219799Y-94813886D01*
X163250500Y-94699309D01*
X163250500Y-94600691D01*
X163619500Y-94600691D01*
X163619500Y-94719309D01*
X163650201Y-94833886D01*
X163709511Y-94936613D01*
X163793387Y-95020489D01*
X163896114Y-95079799D01*
X164010691Y-95110500D01*
X164010694Y-95110500D01*
X164129306Y-95110500D01*
X164129309Y-95110500D01*
X164243886Y-95079799D01*
X164346613Y-95020489D01*
X164430489Y-94936613D01*
X164489799Y-94833886D01*
X164520500Y-94719309D01*
X164520500Y-94600691D01*
X164496384Y-94510691D01*
X167419500Y-94510691D01*
X167419500Y-94629309D01*
X167450201Y-94743886D01*
X167509511Y-94846613D01*
X167593387Y-94930489D01*
X167696114Y-94989799D01*
X167810691Y-95020500D01*
X167810694Y-95020500D01*
X167929306Y-95020500D01*
X167929309Y-95020500D01*
X168043886Y-94989799D01*
X168146613Y-94930489D01*
X168230489Y-94846613D01*
X168289799Y-94743886D01*
X168320500Y-94629309D01*
X168320500Y-94510691D01*
X168289799Y-94396114D01*
X168230489Y-94293387D01*
X168146613Y-94209511D01*
X168043886Y-94150201D01*
X167929309Y-94119500D01*
X167810691Y-94119500D01*
X167696114Y-94150201D01*
X167696112Y-94150201D01*
X167696112Y-94150202D01*
X167593387Y-94209511D01*
X167593384Y-94209513D01*
X167509513Y-94293384D01*
X167509511Y-94293387D01*
X167455975Y-94386114D01*
X167450201Y-94396114D01*
X167419500Y-94510691D01*
X164496384Y-94510691D01*
X164489799Y-94486114D01*
X164430489Y-94383387D01*
X164346613Y-94299511D01*
X164243886Y-94240201D01*
X164129309Y-94209500D01*
X164010691Y-94209500D01*
X163896114Y-94240201D01*
X163896112Y-94240201D01*
X163896112Y-94240202D01*
X163793387Y-94299511D01*
X163793384Y-94299513D01*
X163709513Y-94383384D01*
X163709511Y-94383387D01*
X163650201Y-94486114D01*
X163619500Y-94600691D01*
X163250500Y-94600691D01*
X163250500Y-94580691D01*
X163219799Y-94466114D01*
X163160489Y-94363387D01*
X163076613Y-94279511D01*
X162973886Y-94220201D01*
X162859309Y-94189500D01*
X162740691Y-94189500D01*
X162626114Y-94220201D01*
X162626112Y-94220201D01*
X162626112Y-94220202D01*
X162523387Y-94279511D01*
X162523384Y-94279513D01*
X162439513Y-94363384D01*
X162439511Y-94363387D01*
X162384020Y-94459500D01*
X162380201Y-94466114D01*
X162349500Y-94580691D01*
X161990500Y-94580691D01*
X161990500Y-94560691D01*
X161959799Y-94446114D01*
X161900489Y-94343387D01*
X161816613Y-94259511D01*
X161713886Y-94200201D01*
X161599309Y-94169500D01*
X161480691Y-94169500D01*
X161366114Y-94200201D01*
X161366112Y-94200201D01*
X161366112Y-94200202D01*
X161263387Y-94259511D01*
X161263384Y-94259513D01*
X161179513Y-94343384D01*
X161179511Y-94343387D01*
X161156419Y-94383384D01*
X161120201Y-94446114D01*
X161089500Y-94560691D01*
X160720500Y-94560691D01*
X160720500Y-94480691D01*
X160689799Y-94366114D01*
X160630489Y-94263387D01*
X160546613Y-94179511D01*
X160443886Y-94120201D01*
X160329309Y-94089500D01*
X160210691Y-94089500D01*
X160096114Y-94120201D01*
X160096112Y-94120201D01*
X160096112Y-94120202D01*
X159993387Y-94179511D01*
X159993384Y-94179513D01*
X159909513Y-94263384D01*
X159909511Y-94263387D01*
X159863323Y-94343387D01*
X159850201Y-94366114D01*
X159819500Y-94480691D01*
X159460500Y-94480691D01*
X159460500Y-94440691D01*
X159429799Y-94326114D01*
X159370489Y-94223387D01*
X159286613Y-94139511D01*
X159183886Y-94080201D01*
X159069309Y-94049500D01*
X158950691Y-94049500D01*
X158836114Y-94080201D01*
X158836112Y-94080201D01*
X158836112Y-94080202D01*
X158733387Y-94139511D01*
X158733384Y-94139513D01*
X158649513Y-94223384D01*
X158649511Y-94223387D01*
X158626419Y-94263384D01*
X158590201Y-94326114D01*
X158559500Y-94440691D01*
X158185141Y-94440691D01*
X158159799Y-94346114D01*
X158100489Y-94243387D01*
X158016613Y-94159511D01*
X157913886Y-94100201D01*
X157799309Y-94069500D01*
X157680691Y-94069500D01*
X157566114Y-94100201D01*
X157566112Y-94100201D01*
X157566112Y-94100202D01*
X157463387Y-94159511D01*
X157463384Y-94159513D01*
X157379513Y-94243384D01*
X157379511Y-94243387D01*
X157333323Y-94323387D01*
X157320201Y-94346114D01*
X157289500Y-94460691D01*
X156899782Y-94460691D01*
X156879799Y-94386114D01*
X156820489Y-94283387D01*
X156736613Y-94199511D01*
X156633886Y-94140201D01*
X156519309Y-94109500D01*
X156400691Y-94109500D01*
X156286114Y-94140201D01*
X156286112Y-94140201D01*
X156286112Y-94140202D01*
X156183387Y-94199511D01*
X156183384Y-94199513D01*
X156099513Y-94283384D01*
X156099511Y-94283387D01*
X156053323Y-94363387D01*
X156040201Y-94386114D01*
X156009500Y-94500691D01*
X155629782Y-94500691D01*
X155609799Y-94426114D01*
X155550489Y-94323387D01*
X155466613Y-94239511D01*
X155363886Y-94180201D01*
X155249309Y-94149500D01*
X155130691Y-94149500D01*
X155016114Y-94180201D01*
X155016112Y-94180201D01*
X155016112Y-94180202D01*
X154913387Y-94239511D01*
X154913384Y-94239513D01*
X154829513Y-94323384D01*
X154829511Y-94323387D01*
X154806419Y-94363384D01*
X154770201Y-94426114D01*
X154739500Y-94540691D01*
X154355141Y-94540691D01*
X154329799Y-94446114D01*
X154270489Y-94343387D01*
X154186613Y-94259511D01*
X154083886Y-94200201D01*
X153969309Y-94169500D01*
X153850691Y-94169500D01*
X153736114Y-94200201D01*
X153736112Y-94200201D01*
X153736112Y-94200202D01*
X153633387Y-94259511D01*
X153633384Y-94259513D01*
X153549513Y-94343384D01*
X153549511Y-94343387D01*
X153526419Y-94383384D01*
X153490201Y-94446114D01*
X153459500Y-94560691D01*
X152937793Y-94560691D01*
X152904113Y-94527011D01*
X152801386Y-94467701D01*
X152686809Y-94437000D01*
X152568191Y-94437000D01*
X152453614Y-94467701D01*
X152453612Y-94467701D01*
X152453612Y-94467702D01*
X152350887Y-94527011D01*
X152350884Y-94527013D01*
X152267013Y-94610884D01*
X152267011Y-94610887D01*
X152254021Y-94633387D01*
X152207701Y-94713614D01*
X152177000Y-94828191D01*
X151882641Y-94828191D01*
X151857299Y-94733614D01*
X151797989Y-94630887D01*
X151714113Y-94547011D01*
X151611386Y-94487701D01*
X151496809Y-94457000D01*
X151378191Y-94457000D01*
X151263614Y-94487701D01*
X151263612Y-94487701D01*
X151263612Y-94487702D01*
X151160887Y-94547011D01*
X151160884Y-94547013D01*
X151077013Y-94630884D01*
X151077011Y-94630887D01*
X151017701Y-94733614D01*
X150987000Y-94848191D01*
X149199830Y-94848191D01*
X149169799Y-94736114D01*
X149110489Y-94633387D01*
X149026613Y-94549511D01*
X148923886Y-94490201D01*
X148809309Y-94459500D01*
X148690691Y-94459500D01*
X148576114Y-94490201D01*
X148576112Y-94490201D01*
X148576112Y-94490202D01*
X148473387Y-94549511D01*
X148473384Y-94549513D01*
X148389513Y-94633384D01*
X148389511Y-94633387D01*
X148331646Y-94733612D01*
X148330201Y-94736114D01*
X148299500Y-94850691D01*
X135098114Y-94850691D01*
X135096376Y-93074108D01*
X147869500Y-93074108D01*
X147869500Y-93205891D01*
X147903608Y-93333187D01*
X147936554Y-93390250D01*
X147969500Y-93447314D01*
X148062686Y-93540500D01*
X148176814Y-93606392D01*
X148304108Y-93640500D01*
X148304110Y-93640500D01*
X163865890Y-93640500D01*
X163865892Y-93640500D01*
X163993186Y-93606392D01*
X164107314Y-93540500D01*
X165960500Y-91687314D01*
X166026392Y-91573186D01*
X166060500Y-91445892D01*
X166060500Y-91314107D01*
X166026392Y-91186814D01*
X165960500Y-91072686D01*
X165867314Y-90979500D01*
X165810250Y-90946554D01*
X165753187Y-90913608D01*
X165689539Y-90896554D01*
X165625893Y-90879500D01*
X165494108Y-90879500D01*
X165366812Y-90913608D01*
X165252686Y-90979500D01*
X165252683Y-90979502D01*
X163629005Y-92603181D01*
X163567682Y-92636666D01*
X163541324Y-92639500D01*
X148304108Y-92639500D01*
X148176812Y-92673608D01*
X148062686Y-92739500D01*
X148062683Y-92739502D01*
X147969502Y-92832683D01*
X147969500Y-92832686D01*
X147903608Y-92946812D01*
X147869500Y-93074108D01*
X135096376Y-93074108D01*
X135095284Y-91958000D01*
X135093887Y-90530691D01*
X163159500Y-90530691D01*
X163159500Y-90649309D01*
X163190201Y-90763886D01*
X163249511Y-90866613D01*
X163333387Y-90950489D01*
X163436114Y-91009799D01*
X163550691Y-91040500D01*
X163550694Y-91040500D01*
X163669306Y-91040500D01*
X163669309Y-91040500D01*
X163783886Y-91009799D01*
X163886613Y-90950489D01*
X163970489Y-90866613D01*
X164029799Y-90763886D01*
X164060500Y-90649309D01*
X164060500Y-90530691D01*
X164029799Y-90416114D01*
X163970489Y-90313387D01*
X163886613Y-90229511D01*
X163783886Y-90170201D01*
X163669309Y-90139500D01*
X163550691Y-90139500D01*
X163436114Y-90170201D01*
X163436112Y-90170201D01*
X163436112Y-90170202D01*
X163333387Y-90229511D01*
X163333384Y-90229513D01*
X163249513Y-90313384D01*
X163249511Y-90313387D01*
X163190201Y-90416114D01*
X163159500Y-90530691D01*
X135093887Y-90530691D01*
X135093879Y-90522685D01*
X135091868Y-88468191D01*
X166797000Y-88468191D01*
X166797000Y-88586809D01*
X166827701Y-88701386D01*
X166887011Y-88804113D01*
X166970887Y-88887989D01*
X167073614Y-88947299D01*
X167188191Y-88978000D01*
X167188194Y-88978000D01*
X167306806Y-88978000D01*
X167306809Y-88978000D01*
X167421386Y-88947299D01*
X167524113Y-88887989D01*
X167564819Y-88847282D01*
X167626140Y-88813798D01*
X167695831Y-88818782D01*
X167740179Y-88847282D01*
X167770883Y-88877985D01*
X167770887Y-88877989D01*
X167873614Y-88937299D01*
X167988191Y-88968000D01*
X167988194Y-88968000D01*
X168106806Y-88968000D01*
X168106809Y-88968000D01*
X168221386Y-88937299D01*
X168324113Y-88877989D01*
X168407989Y-88794113D01*
X168467299Y-88691386D01*
X168498000Y-88576809D01*
X168498000Y-88458191D01*
X168467299Y-88343614D01*
X168407989Y-88240887D01*
X168324113Y-88157011D01*
X168221386Y-88097701D01*
X168106809Y-88067000D01*
X167988191Y-88067000D01*
X167873614Y-88097701D01*
X167873612Y-88097701D01*
X167873612Y-88097702D01*
X167770887Y-88157011D01*
X167770883Y-88157014D01*
X167730178Y-88197718D01*
X167668854Y-88231202D01*
X167599163Y-88226216D01*
X167554818Y-88197716D01*
X167524115Y-88167013D01*
X167524113Y-88167011D01*
X167421386Y-88107701D01*
X167306809Y-88077000D01*
X167188191Y-88077000D01*
X167073614Y-88107701D01*
X167073612Y-88107701D01*
X167073612Y-88107702D01*
X166970887Y-88167011D01*
X166970884Y-88167013D01*
X166887013Y-88250884D01*
X166887011Y-88250887D01*
X166833475Y-88343614D01*
X166827701Y-88353614D01*
X166797000Y-88468191D01*
X135091868Y-88468191D01*
X135091860Y-88460185D01*
X135090000Y-86560114D01*
X135090000Y-86560000D01*
X135082256Y-83812144D01*
X135101752Y-83745052D01*
X135154427Y-83699148D01*
X135206281Y-83687797D01*
X137226700Y-83688284D01*
G37*
G04 #@! TD.AperFunction*
M02*
