G04 #@! TF.GenerationSoftware,KiCad,Pcbnew,10.0.1-10.0.1~ubuntu25.10.1*
G04 #@! TF.CreationDate,2026-05-29T00:15:12+00:00*
G04 #@! TF.ProjectId,esp32s3-devkit,65737033-3273-4332-9d64-65766b69742e,rev?*
G04 #@! TF.SameCoordinates,Original*
G04 #@! TF.FileFunction,Soldermask,Top*
G04 #@! TF.FilePolarity,Negative*
%FSLAX46Y46*%
G04 Gerber Fmt 4.6, Leading zero omitted, Abs format (unit mm)*
G04 Created by KiCad (PCBNEW 10.0.1-10.0.1~ubuntu25.10.1) date 2026-05-29 00:15:12*
%MOMM*%
%LPD*%
G01*
G04 APERTURE LIST*
%ADD10C,0.000000*%
%ADD11R,1.700000X1.700000*%
%ADD12C,1.700000*%
%ADD13R,0.900000X1.500000*%
%ADD14R,1.500000X0.900000*%
%ADD15C,0.600000*%
%ADD16R,3.900000X3.900000*%
%ADD17R,1.700000X1.000000*%
%ADD18R,1.500000X1.500000*%
%ADD19C,0.650000*%
%ADD20O,2.100000X1.000000*%
%ADD21O,1.600000X1.000000*%
G04 APERTURE END LIST*
D10*
G36*
X122702500Y-95697000D02*
G01*
X122702500Y-95697000D01*
G75*
G02*
X122752500Y-95747000I0J-50000D01*
G01*
X122752500Y-96997000D01*
G75*
G02*
X122702500Y-97047000I-50000J0D01*
G01*
X122552500Y-97047000D01*
G75*
G02*
X122502500Y-96997000I0J50000D01*
G01*
X122502500Y-95747000D01*
G75*
G02*
X122552500Y-95697000I50000J0D01*
G01*
X122702500Y-95697000D01*
G37*
G36*
X123202500Y-95702500D02*
G01*
X123202500Y-95702500D01*
G75*
G02*
X123252500Y-95752500I0J-50000D01*
G01*
X123252500Y-97342500D01*
G75*
G02*
X123202500Y-97392500I-50000J0D01*
G01*
X123052500Y-97392500D01*
G75*
G02*
X123002500Y-97342500I0J50000D01*
G01*
X123002500Y-95752500D01*
G75*
G02*
X123052500Y-95702500I50000J0D01*
G01*
X123202500Y-95702500D01*
G37*
G36*
X123702500Y-95697000D02*
G01*
X123702500Y-95697000D01*
G75*
G02*
X123752500Y-95747000I0J-50000D01*
G01*
X123752500Y-96997000D01*
G75*
G02*
X123702500Y-97047000I-50000J0D01*
G01*
X123552500Y-97047000D01*
G75*
G02*
X123502500Y-96997000I0J50000D01*
G01*
X123502500Y-95747000D01*
G75*
G02*
X123552500Y-95697000I50000J0D01*
G01*
X123702500Y-95697000D01*
G37*
G36*
G01*
X141560000Y-102156250D02*
X141560000Y-101643750D01*
G75*
G02*
X141778750Y-101425000I218750J0D01*
G01*
X142216250Y-101425000D01*
G75*
G02*
X142435000Y-101643750I0J-218750D01*
G01*
X142435000Y-102156250D01*
G75*
G02*
X142216250Y-102375000I-218750J0D01*
G01*
X141778750Y-102375000D01*
G75*
G02*
X141560000Y-102156250I0J218750D01*
G01*
G37*
G36*
G01*
X143135000Y-102156250D02*
X143135000Y-101643750D01*
G75*
G02*
X143353750Y-101425000I218750J0D01*
G01*
X143791250Y-101425000D01*
G75*
G02*
X144010000Y-101643750I0J-218750D01*
G01*
X144010000Y-102156250D01*
G75*
G02*
X143791250Y-102375000I-218750J0D01*
G01*
X143353750Y-102375000D01*
G75*
G02*
X143135000Y-102156250I0J218750D01*
G01*
G37*
G36*
G01*
X126957500Y-99292500D02*
X126957500Y-99662500D01*
G75*
G02*
X126822500Y-99797500I-135000J0D01*
G01*
X126552500Y-99797500D01*
G75*
G02*
X126417500Y-99662500I0J135000D01*
G01*
X126417500Y-99292500D01*
G75*
G02*
X126552500Y-99157500I135000J0D01*
G01*
X126822500Y-99157500D01*
G75*
G02*
X126957500Y-99292500I0J-135000D01*
G01*
G37*
G36*
G01*
X125937500Y-99292500D02*
X125937500Y-99662500D01*
G75*
G02*
X125802500Y-99797500I-135000J0D01*
G01*
X125532500Y-99797500D01*
G75*
G02*
X125397500Y-99662500I0J135000D01*
G01*
X125397500Y-99292500D01*
G75*
G02*
X125532500Y-99157500I135000J0D01*
G01*
X125802500Y-99157500D01*
G75*
G02*
X125937500Y-99292500I0J-135000D01*
G01*
G37*
G36*
G01*
X118967500Y-98272500D02*
X118967500Y-97902500D01*
G75*
G02*
X119102500Y-97767500I135000J0D01*
G01*
X119372500Y-97767500D01*
G75*
G02*
X119507500Y-97902500I0J-135000D01*
G01*
X119507500Y-98272500D01*
G75*
G02*
X119372500Y-98407500I-135000J0D01*
G01*
X119102500Y-98407500D01*
G75*
G02*
X118967500Y-98272500I0J135000D01*
G01*
G37*
G36*
G01*
X119987500Y-98272500D02*
X119987500Y-97902500D01*
G75*
G02*
X120122500Y-97767500I135000J0D01*
G01*
X120392500Y-97767500D01*
G75*
G02*
X120527500Y-97902500I0J-135000D01*
G01*
X120527500Y-98272500D01*
G75*
G02*
X120392500Y-98407500I-135000J0D01*
G01*
X120122500Y-98407500D01*
G75*
G02*
X119987500Y-98272500I0J135000D01*
G01*
G37*
G36*
G01*
X125837500Y-97047500D02*
X125497500Y-97047500D01*
G75*
G02*
X125357500Y-96907500I0J140000D01*
G01*
X125357500Y-96627500D01*
G75*
G02*
X125497500Y-96487500I140000J0D01*
G01*
X125837500Y-96487500D01*
G75*
G02*
X125977500Y-96627500I0J-140000D01*
G01*
X125977500Y-96907500D01*
G75*
G02*
X125837500Y-97047500I-140000J0D01*
G01*
G37*
G36*
G01*
X125837500Y-96087500D02*
X125497500Y-96087500D01*
G75*
G02*
X125357500Y-95947500I0J140000D01*
G01*
X125357500Y-95667500D01*
G75*
G02*
X125497500Y-95527500I140000J0D01*
G01*
X125837500Y-95527500D01*
G75*
G02*
X125977500Y-95667500I0J-140000D01*
G01*
X125977500Y-95947500D01*
G75*
G02*
X125837500Y-96087500I-140000J0D01*
G01*
G37*
G36*
G01*
X137542500Y-94427500D02*
X137172500Y-94427500D01*
G75*
G02*
X137037500Y-94292500I0J135000D01*
G01*
X137037500Y-94022500D01*
G75*
G02*
X137172500Y-93887500I135000J0D01*
G01*
X137542500Y-93887500D01*
G75*
G02*
X137677500Y-94022500I0J-135000D01*
G01*
X137677500Y-94292500D01*
G75*
G02*
X137542500Y-94427500I-135000J0D01*
G01*
G37*
G36*
G01*
X137542500Y-93407500D02*
X137172500Y-93407500D01*
G75*
G02*
X137037500Y-93272500I0J135000D01*
G01*
X137037500Y-93002500D01*
G75*
G02*
X137172500Y-92867500I135000J0D01*
G01*
X137542500Y-92867500D01*
G75*
G02*
X137677500Y-93002500I0J-135000D01*
G01*
X137677500Y-93272500D01*
G75*
G02*
X137542500Y-93407500I-135000J0D01*
G01*
G37*
G36*
G01*
X122302500Y-97997500D02*
X122452500Y-97997500D01*
G75*
G02*
X122502500Y-98047500I0J-50000D01*
G01*
X122502500Y-98547500D01*
G75*
G02*
X122452500Y-98597500I-50000J0D01*
G01*
X122302500Y-98597500D01*
G75*
G02*
X122252500Y-98547500I0J50000D01*
G01*
X122252500Y-98047500D01*
G75*
G02*
X122302500Y-97997500I50000J0D01*
G01*
G37*
G36*
G01*
X122802500Y-97997500D02*
X122952500Y-97997500D01*
G75*
G02*
X123002500Y-98047500I0J-50000D01*
G01*
X123002500Y-98547500D01*
G75*
G02*
X122952500Y-98597500I-50000J0D01*
G01*
X122802500Y-98597500D01*
G75*
G02*
X122752500Y-98547500I0J50000D01*
G01*
X122752500Y-98047500D01*
G75*
G02*
X122802500Y-97997500I50000J0D01*
G01*
G37*
G36*
G01*
X123452500Y-98597500D02*
X123302500Y-98597500D01*
G75*
G02*
X123252500Y-98547500I0J50000D01*
G01*
X123252500Y-98047500D01*
G75*
G02*
X123302500Y-97997500I50000J0D01*
G01*
X123452500Y-97997500D01*
G75*
G02*
X123502500Y-98047500I0J-50000D01*
G01*
X123502500Y-98547500D01*
G75*
G02*
X123452500Y-98597500I-50000J0D01*
G01*
G37*
G36*
G01*
X123952500Y-98597500D02*
X123802500Y-98597500D01*
G75*
G02*
X123752500Y-98547500I0J50000D01*
G01*
X123752500Y-98047500D01*
G75*
G02*
X123802500Y-97997500I50000J0D01*
G01*
X123952500Y-97997500D01*
G75*
G02*
X124002500Y-98047500I0J-50000D01*
G01*
X124002500Y-98547500D01*
G75*
G02*
X123952500Y-98597500I-50000J0D01*
G01*
G37*
G36*
G01*
X124827500Y-97822500D02*
X124827500Y-97972500D01*
G75*
G02*
X124777500Y-98022500I-50000J0D01*
G01*
X124277500Y-98022500D01*
G75*
G02*
X124227500Y-97972500I0J50000D01*
G01*
X124227500Y-97822500D01*
G75*
G02*
X124277500Y-97772500I50000J0D01*
G01*
X124777500Y-97772500D01*
G75*
G02*
X124827500Y-97822500I0J-50000D01*
G01*
G37*
G36*
G01*
X124827500Y-97322500D02*
X124827500Y-97472500D01*
G75*
G02*
X124777500Y-97522500I-50000J0D01*
G01*
X124277500Y-97522500D01*
G75*
G02*
X124227500Y-97472500I0J50000D01*
G01*
X124227500Y-97322500D01*
G75*
G02*
X124277500Y-97272500I50000J0D01*
G01*
X124777500Y-97272500D01*
G75*
G02*
X124827500Y-97322500I0J-50000D01*
G01*
G37*
G36*
X124267650Y-97022020D02*
G01*
X124260780Y-97019173D01*
X124258366Y-97018694D01*
X124256321Y-97017327D01*
X124249449Y-97014481D01*
X124244189Y-97009220D01*
X124242145Y-97007855D01*
X124240780Y-97005811D01*
X124235519Y-97000551D01*
X124232673Y-96993679D01*
X124231306Y-96991634D01*
X124230827Y-96989220D01*
X124227980Y-96982350D01*
X124227500Y-96972500D01*
X124227500Y-96322500D01*
X124227980Y-96312650D01*
X124230827Y-96305780D01*
X124231306Y-96303366D01*
X124232673Y-96301321D01*
X124235519Y-96294449D01*
X124240780Y-96289189D01*
X124242145Y-96287145D01*
X124244189Y-96285780D01*
X124249449Y-96280519D01*
X124256321Y-96277673D01*
X124258366Y-96276306D01*
X124260780Y-96275827D01*
X124267650Y-96272980D01*
X124277500Y-96272500D01*
X124777500Y-96272500D01*
X124796634Y-96276306D01*
X124812855Y-96287145D01*
X124823694Y-96303366D01*
X124827500Y-96322500D01*
X124827500Y-96472500D01*
X124823694Y-96491634D01*
X124812855Y-96507855D01*
X124796634Y-96518694D01*
X124777500Y-96522500D01*
X124477500Y-96522500D01*
X124477500Y-96772500D01*
X124777500Y-96772500D01*
X124796634Y-96776306D01*
X124812855Y-96787145D01*
X124823694Y-96803366D01*
X124827500Y-96822500D01*
X124827500Y-96972500D01*
X124823694Y-96991634D01*
X124812855Y-97007855D01*
X124796634Y-97018694D01*
X124777500Y-97022500D01*
X124277500Y-97022500D01*
X124267650Y-97022020D01*
G37*
G36*
X124267650Y-97022020D02*
G01*
X124260780Y-97019173D01*
X124258366Y-97018694D01*
X124256321Y-97017327D01*
X124249449Y-97014481D01*
X124244189Y-97009220D01*
X124242145Y-97007855D01*
X124240780Y-97005811D01*
X124235519Y-97000551D01*
X124232673Y-96993679D01*
X124231306Y-96991634D01*
X124230827Y-96989220D01*
X124227980Y-96982350D01*
X124227500Y-96972500D01*
X124227500Y-96322500D01*
X124227980Y-96312650D01*
X124230827Y-96305780D01*
X124231306Y-96303366D01*
X124232673Y-96301321D01*
X124235519Y-96294449D01*
X124240780Y-96289189D01*
X124242145Y-96287145D01*
X124244189Y-96285780D01*
X124249449Y-96280519D01*
X124256321Y-96277673D01*
X124258366Y-96276306D01*
X124260780Y-96275827D01*
X124267650Y-96272980D01*
X124277500Y-96272500D01*
X124777500Y-96272500D01*
X124796634Y-96276306D01*
X124812855Y-96287145D01*
X124823694Y-96303366D01*
X124827500Y-96322500D01*
X124827500Y-96472500D01*
X124823694Y-96491634D01*
X124812855Y-96507855D01*
X124796634Y-96518694D01*
X124777500Y-96522500D01*
X124477500Y-96522500D01*
X124477500Y-96772500D01*
X124777500Y-96772500D01*
X124796634Y-96776306D01*
X124812855Y-96787145D01*
X124823694Y-96803366D01*
X124827500Y-96822500D01*
X124827500Y-96972500D01*
X124823694Y-96991634D01*
X124812855Y-97007855D01*
X124796634Y-97018694D01*
X124777500Y-97022500D01*
X124277500Y-97022500D01*
X124267650Y-97022020D01*
G37*
G36*
G01*
X123702500Y-96272000D02*
X123552500Y-96272000D01*
G75*
G02*
X123502500Y-96222000I0J50000D01*
G01*
X123502500Y-95747000D01*
G75*
G02*
X123552500Y-95697000I50000J0D01*
G01*
X123702500Y-95697000D01*
G75*
G02*
X123752500Y-95747000I0J-50000D01*
G01*
X123752500Y-96222000D01*
G75*
G02*
X123702500Y-96272000I-50000J0D01*
G01*
G37*
G36*
G01*
X123702500Y-97047000D02*
X123552500Y-97047000D01*
G75*
G02*
X123502500Y-96997000I0J50000D01*
G01*
X123502500Y-96522000D01*
G75*
G02*
X123552500Y-96472000I50000J0D01*
G01*
X123702500Y-96472000D01*
G75*
G02*
X123752500Y-96522000I0J-50000D01*
G01*
X123752500Y-96997000D01*
G75*
G02*
X123702500Y-97047000I-50000J0D01*
G01*
G37*
G36*
G01*
X123202500Y-96447500D02*
X123052500Y-96447500D01*
G75*
G02*
X123002500Y-96397500I0J50000D01*
G01*
X123002500Y-95777500D01*
G75*
G02*
X123052500Y-95727500I50000J0D01*
G01*
X123202500Y-95727500D01*
G75*
G02*
X123252500Y-95777500I0J-50000D01*
G01*
X123252500Y-96397500D01*
G75*
G02*
X123202500Y-96447500I-50000J0D01*
G01*
G37*
G36*
G01*
X123202500Y-97367500D02*
X123052500Y-97367500D01*
G75*
G02*
X123002500Y-97317500I0J50000D01*
G01*
X123002500Y-96697500D01*
G75*
G02*
X123052500Y-96647500I50000J0D01*
G01*
X123202500Y-96647500D01*
G75*
G02*
X123252500Y-96697500I0J-50000D01*
G01*
X123252500Y-97317500D01*
G75*
G02*
X123202500Y-97367500I-50000J0D01*
G01*
G37*
G36*
G01*
X122552500Y-95697000D02*
X122702500Y-95697000D01*
G75*
G02*
X122752500Y-95747000I0J-50000D01*
G01*
X122752500Y-96222000D01*
G75*
G02*
X122702500Y-96272000I-50000J0D01*
G01*
X122552500Y-96272000D01*
G75*
G02*
X122502500Y-96222000I0J50000D01*
G01*
X122502500Y-95747000D01*
G75*
G02*
X122552500Y-95697000I50000J0D01*
G01*
G37*
G36*
G01*
X122552500Y-96472000D02*
X122702500Y-96472000D01*
G75*
G02*
X122752500Y-96522000I0J-50000D01*
G01*
X122752500Y-96997000D01*
G75*
G02*
X122702500Y-97047000I-50000J0D01*
G01*
X122552500Y-97047000D01*
G75*
G02*
X122502500Y-96997000I0J50000D01*
G01*
X122502500Y-96522000D01*
G75*
G02*
X122552500Y-96472000I50000J0D01*
G01*
G37*
G36*
X121458366Y-97018694D02*
G01*
X121442145Y-97007855D01*
X121431306Y-96991634D01*
X121427500Y-96972500D01*
X121427500Y-96822500D01*
X121431306Y-96803366D01*
X121442145Y-96787145D01*
X121458366Y-96776306D01*
X121477500Y-96772500D01*
X121777500Y-96772500D01*
X121777500Y-96522500D01*
X121477500Y-96522500D01*
X121458366Y-96518694D01*
X121442145Y-96507855D01*
X121431306Y-96491634D01*
X121427500Y-96472500D01*
X121427500Y-96322500D01*
X121431306Y-96303366D01*
X121442145Y-96287145D01*
X121458366Y-96276306D01*
X121477500Y-96272500D01*
X121977500Y-96272500D01*
X121987350Y-96272980D01*
X121994220Y-96275827D01*
X121996634Y-96276306D01*
X121998679Y-96277673D01*
X122005551Y-96280519D01*
X122010811Y-96285780D01*
X122012855Y-96287145D01*
X122014220Y-96289189D01*
X122019481Y-96294449D01*
X122022327Y-96301321D01*
X122023694Y-96303366D01*
X122024173Y-96305780D01*
X122027020Y-96312650D01*
X122027500Y-96322500D01*
X122027500Y-96972500D01*
X122027020Y-96982350D01*
X122024173Y-96989220D01*
X122023694Y-96991634D01*
X122022327Y-96993679D01*
X122019481Y-97000551D01*
X122014220Y-97005811D01*
X122012855Y-97007855D01*
X122010811Y-97009220D01*
X122005551Y-97014481D01*
X121998679Y-97017327D01*
X121996634Y-97018694D01*
X121994220Y-97019173D01*
X121987350Y-97022020D01*
X121977500Y-97022500D01*
X121477500Y-97022500D01*
X121458366Y-97018694D01*
G37*
G36*
X121458366Y-97018694D02*
G01*
X121442145Y-97007855D01*
X121431306Y-96991634D01*
X121427500Y-96972500D01*
X121427500Y-96822500D01*
X121431306Y-96803366D01*
X121442145Y-96787145D01*
X121458366Y-96776306D01*
X121477500Y-96772500D01*
X121777500Y-96772500D01*
X121777500Y-96522500D01*
X121477500Y-96522500D01*
X121458366Y-96518694D01*
X121442145Y-96507855D01*
X121431306Y-96491634D01*
X121427500Y-96472500D01*
X121427500Y-96322500D01*
X121431306Y-96303366D01*
X121442145Y-96287145D01*
X121458366Y-96276306D01*
X121477500Y-96272500D01*
X121977500Y-96272500D01*
X121987350Y-96272980D01*
X121994220Y-96275827D01*
X121996634Y-96276306D01*
X121998679Y-96277673D01*
X122005551Y-96280519D01*
X122010811Y-96285780D01*
X122012855Y-96287145D01*
X122014220Y-96289189D01*
X122019481Y-96294449D01*
X122022327Y-96301321D01*
X122023694Y-96303366D01*
X122024173Y-96305780D01*
X122027020Y-96312650D01*
X122027500Y-96322500D01*
X122027500Y-96972500D01*
X122027020Y-96982350D01*
X122024173Y-96989220D01*
X122023694Y-96991634D01*
X122022327Y-96993679D01*
X122019481Y-97000551D01*
X122014220Y-97005811D01*
X122012855Y-97007855D01*
X122010811Y-97009220D01*
X122005551Y-97014481D01*
X121998679Y-97017327D01*
X121996634Y-97018694D01*
X121994220Y-97019173D01*
X121987350Y-97022020D01*
X121977500Y-97022500D01*
X121477500Y-97022500D01*
X121458366Y-97018694D01*
G37*
G36*
G01*
X122027500Y-97322500D02*
X122027500Y-97472500D01*
G75*
G02*
X121977500Y-97522500I-50000J0D01*
G01*
X121477500Y-97522500D01*
G75*
G02*
X121427500Y-97472500I0J50000D01*
G01*
X121427500Y-97322500D01*
G75*
G02*
X121477500Y-97272500I50000J0D01*
G01*
X121977500Y-97272500D01*
G75*
G02*
X122027500Y-97322500I0J-50000D01*
G01*
G37*
G36*
G01*
X122027500Y-97822500D02*
X122027500Y-97972500D01*
G75*
G02*
X121977500Y-98022500I-50000J0D01*
G01*
X121477500Y-98022500D01*
G75*
G02*
X121427500Y-97972500I0J50000D01*
G01*
X121427500Y-97822500D01*
G75*
G02*
X121477500Y-97772500I50000J0D01*
G01*
X121977500Y-97772500D01*
G75*
G02*
X122027500Y-97822500I0J-50000D01*
G01*
G37*
G36*
G01*
X120037500Y-112227500D02*
X120037500Y-111857500D01*
G75*
G02*
X120172500Y-111722500I135000J0D01*
G01*
X120442500Y-111722500D01*
G75*
G02*
X120577500Y-111857500I0J-135000D01*
G01*
X120577500Y-112227500D01*
G75*
G02*
X120442500Y-112362500I-135000J0D01*
G01*
X120172500Y-112362500D01*
G75*
G02*
X120037500Y-112227500I0J135000D01*
G01*
G37*
G36*
G01*
X121057500Y-112227500D02*
X121057500Y-111857500D01*
G75*
G02*
X121192500Y-111722500I135000J0D01*
G01*
X121462500Y-111722500D01*
G75*
G02*
X121597500Y-111857500I0J-135000D01*
G01*
X121597500Y-112227500D01*
G75*
G02*
X121462500Y-112362500I-135000J0D01*
G01*
X121192500Y-112362500D01*
G75*
G02*
X121057500Y-112227500I0J135000D01*
G01*
G37*
D11*
X125975000Y-119090000D03*
D12*
X128515000Y-119090000D03*
X131055000Y-119090000D03*
X133595000Y-119090000D03*
X136135000Y-119090000D03*
X138675000Y-119090000D03*
X141215000Y-119090000D03*
X143755000Y-119090000D03*
X146295000Y-119090000D03*
X148835000Y-119090000D03*
X151375000Y-119090000D03*
X153915000Y-119090000D03*
X156455000Y-119090000D03*
X158995000Y-119090000D03*
X161535000Y-119090000D03*
X164075000Y-119090000D03*
X166615000Y-119090000D03*
G36*
G01*
X120747500Y-97027500D02*
X120407500Y-97027500D01*
G75*
G02*
X120267500Y-96887500I0J140000D01*
G01*
X120267500Y-96607500D01*
G75*
G02*
X120407500Y-96467500I140000J0D01*
G01*
X120747500Y-96467500D01*
G75*
G02*
X120887500Y-96607500I0J-140000D01*
G01*
X120887500Y-96887500D01*
G75*
G02*
X120747500Y-97027500I-140000J0D01*
G01*
G37*
G36*
G01*
X120747500Y-96067500D02*
X120407500Y-96067500D01*
G75*
G02*
X120267500Y-95927500I0J140000D01*
G01*
X120267500Y-95647500D01*
G75*
G02*
X120407500Y-95507500I140000J0D01*
G01*
X120747500Y-95507500D01*
G75*
G02*
X120887500Y-95647500I0J-140000D01*
G01*
X120887500Y-95927500D01*
G75*
G02*
X120747500Y-96067500I-140000J0D01*
G01*
G37*
G36*
G01*
X137192500Y-109377500D02*
X137562500Y-109377500D01*
G75*
G02*
X137697500Y-109512500I0J-135000D01*
G01*
X137697500Y-109782500D01*
G75*
G02*
X137562500Y-109917500I-135000J0D01*
G01*
X137192500Y-109917500D01*
G75*
G02*
X137057500Y-109782500I0J135000D01*
G01*
X137057500Y-109512500D01*
G75*
G02*
X137192500Y-109377500I135000J0D01*
G01*
G37*
G36*
G01*
X137192500Y-110397500D02*
X137562500Y-110397500D01*
G75*
G02*
X137697500Y-110532500I0J-135000D01*
G01*
X137697500Y-110802500D01*
G75*
G02*
X137562500Y-110937500I-135000J0D01*
G01*
X137192500Y-110937500D01*
G75*
G02*
X137057500Y-110802500I0J135000D01*
G01*
X137057500Y-110532500D01*
G75*
G02*
X137192500Y-110397500I135000J0D01*
G01*
G37*
G36*
G01*
X135250000Y-113130000D02*
X135250000Y-112790000D01*
G75*
G02*
X135390000Y-112650000I140000J0D01*
G01*
X135670000Y-112650000D01*
G75*
G02*
X135810000Y-112790000I0J-140000D01*
G01*
X135810000Y-113130000D01*
G75*
G02*
X135670000Y-113270000I-140000J0D01*
G01*
X135390000Y-113270000D01*
G75*
G02*
X135250000Y-113130000I0J140000D01*
G01*
G37*
G36*
G01*
X136210000Y-113130000D02*
X136210000Y-112790000D01*
G75*
G02*
X136350000Y-112650000I140000J0D01*
G01*
X136630000Y-112650000D01*
G75*
G02*
X136770000Y-112790000I0J-140000D01*
G01*
X136770000Y-113130000D01*
G75*
G02*
X136630000Y-113270000I-140000J0D01*
G01*
X136350000Y-113270000D01*
G75*
G02*
X136210000Y-113130000I0J140000D01*
G01*
G37*
G36*
G01*
X126957500Y-98142500D02*
X126957500Y-98512500D01*
G75*
G02*
X126822500Y-98647500I-135000J0D01*
G01*
X126552500Y-98647500D01*
G75*
G02*
X126417500Y-98512500I0J135000D01*
G01*
X126417500Y-98142500D01*
G75*
G02*
X126552500Y-98007500I135000J0D01*
G01*
X126822500Y-98007500D01*
G75*
G02*
X126957500Y-98142500I0J-135000D01*
G01*
G37*
G36*
G01*
X125937500Y-98142500D02*
X125937500Y-98512500D01*
G75*
G02*
X125802500Y-98647500I-135000J0D01*
G01*
X125532500Y-98647500D01*
G75*
G02*
X125397500Y-98512500I0J135000D01*
G01*
X125397500Y-98142500D01*
G75*
G02*
X125532500Y-98007500I135000J0D01*
G01*
X125802500Y-98007500D01*
G75*
G02*
X125937500Y-98142500I0J-135000D01*
G01*
G37*
D13*
X167887500Y-93150000D03*
X166617500Y-93150000D03*
X165347500Y-93150000D03*
X164077500Y-93150000D03*
X162807500Y-93150000D03*
X161537500Y-93150000D03*
X160267500Y-93150000D03*
X158997500Y-93150000D03*
X157727500Y-93150000D03*
X156457500Y-93150000D03*
X155187500Y-93150000D03*
X153917500Y-93150000D03*
X152647500Y-93150000D03*
X151377500Y-93150000D03*
D14*
X150127500Y-94915000D03*
X150127500Y-96185000D03*
X150127500Y-97455000D03*
X150127500Y-98725000D03*
X150127500Y-99995000D03*
X150127500Y-101265000D03*
X150127500Y-102535000D03*
X150127500Y-103805000D03*
X150127500Y-105075000D03*
X150127500Y-106345000D03*
X150127500Y-107615000D03*
X150127500Y-108885000D03*
D13*
X151377500Y-110650000D03*
X152647500Y-110650000D03*
X153917500Y-110650000D03*
X155187500Y-110650000D03*
X156457500Y-110650000D03*
X157727500Y-110650000D03*
X158997500Y-110650000D03*
X160267500Y-110650000D03*
X161537500Y-110650000D03*
X162807500Y-110650000D03*
X164077500Y-110650000D03*
X165347500Y-110650000D03*
X166617500Y-110650000D03*
X167887500Y-110650000D03*
D15*
X160867500Y-99000000D03*
X159467500Y-99000000D03*
X161567500Y-99700000D03*
X160167500Y-99700000D03*
X158767500Y-99700000D03*
X160867500Y-100400000D03*
D16*
X160167500Y-100400000D03*
D15*
X159467500Y-100400000D03*
X161567500Y-101100000D03*
X160167500Y-101100000D03*
X158767500Y-101100000D03*
X160867500Y-101800000D03*
X159467500Y-101800000D03*
G36*
G01*
X165217500Y-90332500D02*
X165217500Y-89382500D01*
G75*
G02*
X165467500Y-89132500I250000J0D01*
G01*
X165967500Y-89132500D01*
G75*
G02*
X166217500Y-89382500I0J-250000D01*
G01*
X166217500Y-90332500D01*
G75*
G02*
X165967500Y-90582500I-250000J0D01*
G01*
X165467500Y-90582500D01*
G75*
G02*
X165217500Y-90332500I0J250000D01*
G01*
G37*
G36*
G01*
X167117500Y-90332500D02*
X167117500Y-89382500D01*
G75*
G02*
X167367500Y-89132500I250000J0D01*
G01*
X167867500Y-89132500D01*
G75*
G02*
X168117500Y-89382500I0J-250000D01*
G01*
X168117500Y-90332500D01*
G75*
G02*
X167867500Y-90582500I-250000J0D01*
G01*
X167367500Y-90582500D01*
G75*
G02*
X167117500Y-90332500I0J250000D01*
G01*
G37*
G36*
G01*
X126917500Y-110942500D02*
X126917500Y-111312500D01*
G75*
G02*
X126782500Y-111447500I-135000J0D01*
G01*
X126512500Y-111447500D01*
G75*
G02*
X126377500Y-111312500I0J135000D01*
G01*
X126377500Y-110942500D01*
G75*
G02*
X126512500Y-110807500I135000J0D01*
G01*
X126782500Y-110807500D01*
G75*
G02*
X126917500Y-110942500I0J-135000D01*
G01*
G37*
G36*
G01*
X125897500Y-110942500D02*
X125897500Y-111312500D01*
G75*
G02*
X125762500Y-111447500I-135000J0D01*
G01*
X125492500Y-111447500D01*
G75*
G02*
X125357500Y-111312500I0J135000D01*
G01*
X125357500Y-110942500D01*
G75*
G02*
X125492500Y-110807500I135000J0D01*
G01*
X125762500Y-110807500D01*
G75*
G02*
X125897500Y-110942500I0J-135000D01*
G01*
G37*
G36*
G01*
X122625000Y-101570000D02*
X122255000Y-101570000D01*
G75*
G02*
X122120000Y-101435000I0J135000D01*
G01*
X122120000Y-101165000D01*
G75*
G02*
X122255000Y-101030000I135000J0D01*
G01*
X122625000Y-101030000D01*
G75*
G02*
X122760000Y-101165000I0J-135000D01*
G01*
X122760000Y-101435000D01*
G75*
G02*
X122625000Y-101570000I-135000J0D01*
G01*
G37*
G36*
G01*
X122625000Y-100550000D02*
X122255000Y-100550000D01*
G75*
G02*
X122120000Y-100415000I0J135000D01*
G01*
X122120000Y-100145000D01*
G75*
G02*
X122255000Y-100010000I135000J0D01*
G01*
X122625000Y-100010000D01*
G75*
G02*
X122760000Y-100145000I0J-135000D01*
G01*
X122760000Y-100415000D01*
G75*
G02*
X122625000Y-100550000I-135000J0D01*
G01*
G37*
G36*
G01*
X131027500Y-112165000D02*
X131027500Y-111865000D01*
G75*
G02*
X131177500Y-111715000I150000J0D01*
G01*
X132202500Y-111715000D01*
G75*
G02*
X132352500Y-111865000I0J-150000D01*
G01*
X132352500Y-112165000D01*
G75*
G02*
X132202500Y-112315000I-150000J0D01*
G01*
X131177500Y-112315000D01*
G75*
G02*
X131027500Y-112165000I0J150000D01*
G01*
G37*
G36*
G01*
X131027500Y-113115000D02*
X131027500Y-112815000D01*
G75*
G02*
X131177500Y-112665000I150000J0D01*
G01*
X132202500Y-112665000D01*
G75*
G02*
X132352500Y-112815000I0J-150000D01*
G01*
X132352500Y-113115000D01*
G75*
G02*
X132202500Y-113265000I-150000J0D01*
G01*
X131177500Y-113265000D01*
G75*
G02*
X131027500Y-113115000I0J150000D01*
G01*
G37*
G36*
G01*
X131027500Y-114065000D02*
X131027500Y-113765000D01*
G75*
G02*
X131177500Y-113615000I150000J0D01*
G01*
X132202500Y-113615000D01*
G75*
G02*
X132352500Y-113765000I0J-150000D01*
G01*
X132352500Y-114065000D01*
G75*
G02*
X132202500Y-114215000I-150000J0D01*
G01*
X131177500Y-114215000D01*
G75*
G02*
X131027500Y-114065000I0J150000D01*
G01*
G37*
G36*
G01*
X133302500Y-114065000D02*
X133302500Y-113765000D01*
G75*
G02*
X133452500Y-113615000I150000J0D01*
G01*
X134477500Y-113615000D01*
G75*
G02*
X134627500Y-113765000I0J-150000D01*
G01*
X134627500Y-114065000D01*
G75*
G02*
X134477500Y-114215000I-150000J0D01*
G01*
X133452500Y-114215000D01*
G75*
G02*
X133302500Y-114065000I0J150000D01*
G01*
G37*
G36*
G01*
X133302500Y-113115000D02*
X133302500Y-112815000D01*
G75*
G02*
X133452500Y-112665000I150000J0D01*
G01*
X134477500Y-112665000D01*
G75*
G02*
X134627500Y-112815000I0J-150000D01*
G01*
X134627500Y-113115000D01*
G75*
G02*
X134477500Y-113265000I-150000J0D01*
G01*
X133452500Y-113265000D01*
G75*
G02*
X133302500Y-113115000I0J150000D01*
G01*
G37*
G36*
G01*
X133302500Y-112165000D02*
X133302500Y-111865000D01*
G75*
G02*
X133452500Y-111715000I150000J0D01*
G01*
X134477500Y-111715000D01*
G75*
G02*
X134627500Y-111865000I0J-150000D01*
G01*
X134627500Y-112165000D01*
G75*
G02*
X134477500Y-112315000I-150000J0D01*
G01*
X133452500Y-112315000D01*
G75*
G02*
X133302500Y-112165000I0J150000D01*
G01*
G37*
G36*
G01*
X119362500Y-96937500D02*
X118412500Y-96937500D01*
G75*
G02*
X118162500Y-96687500I0J250000D01*
G01*
X118162500Y-96187500D01*
G75*
G02*
X118412500Y-95937500I250000J0D01*
G01*
X119362500Y-95937500D01*
G75*
G02*
X119612500Y-96187500I0J-250000D01*
G01*
X119612500Y-96687500D01*
G75*
G02*
X119362500Y-96937500I-250000J0D01*
G01*
G37*
G36*
G01*
X119362500Y-95037500D02*
X118412500Y-95037500D01*
G75*
G02*
X118162500Y-94787500I0J250000D01*
G01*
X118162500Y-94287500D01*
G75*
G02*
X118412500Y-94037500I250000J0D01*
G01*
X119362500Y-94037500D01*
G75*
G02*
X119612500Y-94287500I0J-250000D01*
G01*
X119612500Y-94787500D01*
G75*
G02*
X119362500Y-95037500I-250000J0D01*
G01*
G37*
D17*
X145937500Y-96947500D03*
X139637500Y-96947500D03*
X145937500Y-93147500D03*
X139637500Y-93147500D03*
G36*
G01*
X123497500Y-99257500D02*
X123837500Y-99257500D01*
G75*
G02*
X123977500Y-99397500I0J-140000D01*
G01*
X123977500Y-99677500D01*
G75*
G02*
X123837500Y-99817500I-140000J0D01*
G01*
X123497500Y-99817500D01*
G75*
G02*
X123357500Y-99677500I0J140000D01*
G01*
X123357500Y-99397500D01*
G75*
G02*
X123497500Y-99257500I140000J0D01*
G01*
G37*
G36*
G01*
X123497500Y-100217500D02*
X123837500Y-100217500D01*
G75*
G02*
X123977500Y-100357500I0J-140000D01*
G01*
X123977500Y-100637500D01*
G75*
G02*
X123837500Y-100777500I-140000J0D01*
G01*
X123497500Y-100777500D01*
G75*
G02*
X123357500Y-100637500I0J140000D01*
G01*
X123357500Y-100357500D01*
G75*
G02*
X123497500Y-100217500I140000J0D01*
G01*
G37*
G36*
G01*
X112782500Y-92947500D02*
X112412500Y-92947500D01*
G75*
G02*
X112277500Y-92812500I0J135000D01*
G01*
X112277500Y-92542500D01*
G75*
G02*
X112412500Y-92407500I135000J0D01*
G01*
X112782500Y-92407500D01*
G75*
G02*
X112917500Y-92542500I0J-135000D01*
G01*
X112917500Y-92812500D01*
G75*
G02*
X112782500Y-92947500I-135000J0D01*
G01*
G37*
G36*
G01*
X112782500Y-91927500D02*
X112412500Y-91927500D01*
G75*
G02*
X112277500Y-91792500I0J135000D01*
G01*
X112277500Y-91522500D01*
G75*
G02*
X112412500Y-91387500I135000J0D01*
G01*
X112782500Y-91387500D01*
G75*
G02*
X112917500Y-91522500I0J-135000D01*
G01*
X112917500Y-91792500D01*
G75*
G02*
X112782500Y-91927500I-135000J0D01*
G01*
G37*
G36*
G01*
X139157500Y-102085000D02*
X139157500Y-101715000D01*
G75*
G02*
X139292500Y-101580000I135000J0D01*
G01*
X139562500Y-101580000D01*
G75*
G02*
X139697500Y-101715000I0J-135000D01*
G01*
X139697500Y-102085000D01*
G75*
G02*
X139562500Y-102220000I-135000J0D01*
G01*
X139292500Y-102220000D01*
G75*
G02*
X139157500Y-102085000I0J135000D01*
G01*
G37*
G36*
G01*
X140177500Y-102085000D02*
X140177500Y-101715000D01*
G75*
G02*
X140312500Y-101580000I135000J0D01*
G01*
X140582500Y-101580000D01*
G75*
G02*
X140717500Y-101715000I0J-135000D01*
G01*
X140717500Y-102085000D01*
G75*
G02*
X140582500Y-102220000I-135000J0D01*
G01*
X140312500Y-102220000D01*
G75*
G02*
X140177500Y-102085000I0J135000D01*
G01*
G37*
G36*
G01*
X117092500Y-96957500D02*
X116142500Y-96957500D01*
G75*
G02*
X115892500Y-96707500I0J250000D01*
G01*
X115892500Y-96207500D01*
G75*
G02*
X116142500Y-95957500I250000J0D01*
G01*
X117092500Y-95957500D01*
G75*
G02*
X117342500Y-96207500I0J-250000D01*
G01*
X117342500Y-96707500D01*
G75*
G02*
X117092500Y-96957500I-250000J0D01*
G01*
G37*
G36*
G01*
X117092500Y-95057500D02*
X116142500Y-95057500D01*
G75*
G02*
X115892500Y-94807500I0J250000D01*
G01*
X115892500Y-94307500D01*
G75*
G02*
X116142500Y-94057500I250000J0D01*
G01*
X117092500Y-94057500D01*
G75*
G02*
X117342500Y-94307500I0J-250000D01*
G01*
X117342500Y-94807500D01*
G75*
G02*
X117092500Y-95057500I-250000J0D01*
G01*
G37*
G36*
G01*
X130112500Y-96957500D02*
X129162500Y-96957500D01*
G75*
G02*
X128912500Y-96707500I0J250000D01*
G01*
X128912500Y-96207500D01*
G75*
G02*
X129162500Y-95957500I250000J0D01*
G01*
X130112500Y-95957500D01*
G75*
G02*
X130362500Y-96207500I0J-250000D01*
G01*
X130362500Y-96707500D01*
G75*
G02*
X130112500Y-96957500I-250000J0D01*
G01*
G37*
G36*
G01*
X130112500Y-95057500D02*
X129162500Y-95057500D01*
G75*
G02*
X128912500Y-94807500I0J250000D01*
G01*
X128912500Y-94307500D01*
G75*
G02*
X129162500Y-94057500I250000J0D01*
G01*
X130112500Y-94057500D01*
G75*
G02*
X130362500Y-94307500I0J-250000D01*
G01*
X130362500Y-94807500D01*
G75*
G02*
X130112500Y-95057500I-250000J0D01*
G01*
G37*
G36*
G01*
X126777500Y-109852500D02*
X126477500Y-109852500D01*
G75*
G02*
X126327500Y-109702500I0J150000D01*
G01*
X126327500Y-108527500D01*
G75*
G02*
X126477500Y-108377500I150000J0D01*
G01*
X126777500Y-108377500D01*
G75*
G02*
X126927500Y-108527500I0J-150000D01*
G01*
X126927500Y-109702500D01*
G75*
G02*
X126777500Y-109852500I-150000J0D01*
G01*
G37*
G36*
G01*
X128677500Y-109852500D02*
X128377500Y-109852500D01*
G75*
G02*
X128227500Y-109702500I0J150000D01*
G01*
X128227500Y-108527500D01*
G75*
G02*
X128377500Y-108377500I150000J0D01*
G01*
X128677500Y-108377500D01*
G75*
G02*
X128827500Y-108527500I0J-150000D01*
G01*
X128827500Y-109702500D01*
G75*
G02*
X128677500Y-109852500I-150000J0D01*
G01*
G37*
G36*
G01*
X127727500Y-107977500D02*
X127427500Y-107977500D01*
G75*
G02*
X127277500Y-107827500I0J150000D01*
G01*
X127277500Y-106652500D01*
G75*
G02*
X127427500Y-106502500I150000J0D01*
G01*
X127727500Y-106502500D01*
G75*
G02*
X127877500Y-106652500I0J-150000D01*
G01*
X127877500Y-107827500D01*
G75*
G02*
X127727500Y-107977500I-150000J0D01*
G01*
G37*
G36*
G01*
X120057500Y-116487500D02*
X120057500Y-116117500D01*
G75*
G02*
X120192500Y-115982500I135000J0D01*
G01*
X120462500Y-115982500D01*
G75*
G02*
X120597500Y-116117500I0J-135000D01*
G01*
X120597500Y-116487500D01*
G75*
G02*
X120462500Y-116622500I-135000J0D01*
G01*
X120192500Y-116622500D01*
G75*
G02*
X120057500Y-116487500I0J135000D01*
G01*
G37*
G36*
G01*
X121077500Y-116487500D02*
X121077500Y-116117500D01*
G75*
G02*
X121212500Y-115982500I135000J0D01*
G01*
X121482500Y-115982500D01*
G75*
G02*
X121617500Y-116117500I0J-135000D01*
G01*
X121617500Y-116487500D01*
G75*
G02*
X121482500Y-116622500I-135000J0D01*
G01*
X121212500Y-116622500D01*
G75*
G02*
X121077500Y-116487500I0J135000D01*
G01*
G37*
G36*
G01*
X127882500Y-96967500D02*
X126932500Y-96967500D01*
G75*
G02*
X126682500Y-96717500I0J250000D01*
G01*
X126682500Y-96217500D01*
G75*
G02*
X126932500Y-95967500I250000J0D01*
G01*
X127882500Y-95967500D01*
G75*
G02*
X128132500Y-96217500I0J-250000D01*
G01*
X128132500Y-96717500D01*
G75*
G02*
X127882500Y-96967500I-250000J0D01*
G01*
G37*
G36*
G01*
X127882500Y-95067500D02*
X126932500Y-95067500D01*
G75*
G02*
X126682500Y-94817500I0J250000D01*
G01*
X126682500Y-94317500D01*
G75*
G02*
X126932500Y-94067500I250000J0D01*
G01*
X127882500Y-94067500D01*
G75*
G02*
X128132500Y-94317500I0J-250000D01*
G01*
X128132500Y-94817500D01*
G75*
G02*
X127882500Y-95067500I-250000J0D01*
G01*
G37*
G36*
G01*
X112853750Y-90292500D02*
X112341250Y-90292500D01*
G75*
G02*
X112122500Y-90073750I0J218750D01*
G01*
X112122500Y-89636250D01*
G75*
G02*
X112341250Y-89417500I218750J0D01*
G01*
X112853750Y-89417500D01*
G75*
G02*
X113072500Y-89636250I0J-218750D01*
G01*
X113072500Y-90073750D01*
G75*
G02*
X112853750Y-90292500I-218750J0D01*
G01*
G37*
G36*
G01*
X112853750Y-88717500D02*
X112341250Y-88717500D01*
G75*
G02*
X112122500Y-88498750I0J218750D01*
G01*
X112122500Y-88061250D01*
G75*
G02*
X112341250Y-87842500I218750J0D01*
G01*
X112853750Y-87842500D01*
G75*
G02*
X113072500Y-88061250I0J-218750D01*
G01*
X113072500Y-88498750D01*
G75*
G02*
X112853750Y-88717500I-218750J0D01*
G01*
G37*
D11*
X125975000Y-84720000D03*
D12*
X128515000Y-84720000D03*
X131055000Y-84720000D03*
X133595000Y-84720000D03*
X136135000Y-84720000D03*
X138675000Y-84720000D03*
X141215000Y-84720000D03*
X143755000Y-84720000D03*
X146295000Y-84720000D03*
X148835000Y-84720000D03*
X151375000Y-84720000D03*
X153915000Y-84720000D03*
X156455000Y-84720000D03*
X158995000Y-84720000D03*
X161535000Y-84720000D03*
X164075000Y-84720000D03*
X166615000Y-84720000D03*
G36*
G01*
X164850000Y-91320000D02*
X164850000Y-91660000D01*
G75*
G02*
X164710000Y-91800000I-140000J0D01*
G01*
X164430000Y-91800000D01*
G75*
G02*
X164290000Y-91660000I0J140000D01*
G01*
X164290000Y-91320000D01*
G75*
G02*
X164430000Y-91180000I140000J0D01*
G01*
X164710000Y-91180000D01*
G75*
G02*
X164850000Y-91320000I0J-140000D01*
G01*
G37*
G36*
G01*
X163890000Y-91320000D02*
X163890000Y-91660000D01*
G75*
G02*
X163750000Y-91800000I-140000J0D01*
G01*
X163470000Y-91800000D01*
G75*
G02*
X163330000Y-91660000I0J140000D01*
G01*
X163330000Y-91320000D01*
G75*
G02*
X163470000Y-91180000I140000J0D01*
G01*
X163750000Y-91180000D01*
G75*
G02*
X163890000Y-91320000I0J-140000D01*
G01*
G37*
G36*
G01*
X132302500Y-96957500D02*
X131352500Y-96957500D01*
G75*
G02*
X131102500Y-96707500I0J250000D01*
G01*
X131102500Y-96207500D01*
G75*
G02*
X131352500Y-95957500I250000J0D01*
G01*
X132302500Y-95957500D01*
G75*
G02*
X132552500Y-96207500I0J-250000D01*
G01*
X132552500Y-96707500D01*
G75*
G02*
X132302500Y-96957500I-250000J0D01*
G01*
G37*
G36*
G01*
X132302500Y-95057500D02*
X131352500Y-95057500D01*
G75*
G02*
X131102500Y-94807500I0J250000D01*
G01*
X131102500Y-94307500D01*
G75*
G02*
X131352500Y-94057500I250000J0D01*
G01*
X132302500Y-94057500D01*
G75*
G02*
X132552500Y-94307500I0J-250000D01*
G01*
X132552500Y-94807500D01*
G75*
G02*
X132302500Y-95057500I-250000J0D01*
G01*
G37*
G36*
G01*
X134220000Y-96792000D02*
X133995000Y-96792000D01*
G75*
G02*
X133882500Y-96679500I0J112500D01*
G01*
X133882500Y-96304500D01*
G75*
G02*
X133995000Y-96192000I112500J0D01*
G01*
X134220000Y-96192000D01*
G75*
G02*
X134332500Y-96304500I0J-112500D01*
G01*
X134332500Y-96679500D01*
G75*
G02*
X134220000Y-96792000I-112500J0D01*
G01*
G37*
G36*
G01*
X134220000Y-94692000D02*
X133995000Y-94692000D01*
G75*
G02*
X133882500Y-94579500I0J112500D01*
G01*
X133882500Y-94204500D01*
G75*
G02*
X133995000Y-94092000I112500J0D01*
G01*
X134220000Y-94092000D01*
G75*
G02*
X134332500Y-94204500I0J-112500D01*
G01*
X134332500Y-94579500D01*
G75*
G02*
X134220000Y-94692000I-112500J0D01*
G01*
G37*
D17*
X139637500Y-106857500D03*
X145937500Y-106857500D03*
X139637500Y-110657500D03*
X145937500Y-110657500D03*
G36*
G01*
X166237500Y-91687500D02*
X166237500Y-91347500D01*
G75*
G02*
X166377500Y-91207500I140000J0D01*
G01*
X166657500Y-91207500D01*
G75*
G02*
X166797500Y-91347500I0J-140000D01*
G01*
X166797500Y-91687500D01*
G75*
G02*
X166657500Y-91827500I-140000J0D01*
G01*
X166377500Y-91827500D01*
G75*
G02*
X166237500Y-91687500I0J140000D01*
G01*
G37*
G36*
G01*
X167197500Y-91687500D02*
X167197500Y-91347500D01*
G75*
G02*
X167337500Y-91207500I140000J0D01*
G01*
X167617500Y-91207500D01*
G75*
G02*
X167757500Y-91347500I0J-140000D01*
G01*
X167757500Y-91687500D01*
G75*
G02*
X167617500Y-91827500I-140000J0D01*
G01*
X167337500Y-91827500D01*
G75*
G02*
X167197500Y-91687500I0J140000D01*
G01*
G37*
G36*
G01*
X121335500Y-94284500D02*
X121335500Y-90884500D01*
G75*
G02*
X121437500Y-90782500I102000J0D01*
G01*
X122417500Y-90782500D01*
G75*
G02*
X122519500Y-90884500I0J-102000D01*
G01*
X122519500Y-94284500D01*
G75*
G02*
X122417500Y-94386500I-102000J0D01*
G01*
X121437500Y-94386500D01*
G75*
G02*
X121335500Y-94284500I0J102000D01*
G01*
G37*
G36*
G01*
X123705500Y-94284500D02*
X123705500Y-90884500D01*
G75*
G02*
X123807500Y-90782500I102000J0D01*
G01*
X124787500Y-90782500D01*
G75*
G02*
X124889500Y-90884500I0J-102000D01*
G01*
X124889500Y-94284500D01*
G75*
G02*
X124787500Y-94386500I-102000J0D01*
G01*
X123807500Y-94386500D01*
G75*
G02*
X123705500Y-94284500I0J102000D01*
G01*
G37*
D18*
X112627499Y-105800000D03*
X112627499Y-98000000D03*
D19*
X116887500Y-111377500D03*
X116887500Y-117157500D03*
G36*
G01*
X117757500Y-110717500D02*
X118907500Y-110717500D01*
G75*
G02*
X119057500Y-110867500I0J-150000D01*
G01*
X119057500Y-111167500D01*
G75*
G02*
X118907500Y-111317500I-150000J0D01*
G01*
X117757500Y-111317500D01*
G75*
G02*
X117607500Y-111167500I0J150000D01*
G01*
X117607500Y-110867500D01*
G75*
G02*
X117757500Y-110717500I150000J0D01*
G01*
G37*
G36*
G01*
X117757500Y-111517500D02*
X118907500Y-111517500D01*
G75*
G02*
X119057500Y-111667500I0J-150000D01*
G01*
X119057500Y-111967500D01*
G75*
G02*
X118907500Y-112117500I-150000J0D01*
G01*
X117757500Y-112117500D01*
G75*
G02*
X117607500Y-111967500I0J150000D01*
G01*
X117607500Y-111667500D01*
G75*
G02*
X117757500Y-111517500I150000J0D01*
G01*
G37*
G36*
G01*
X117682500Y-112867500D02*
X118982500Y-112867500D01*
G75*
G02*
X119057500Y-112942500I0J-75000D01*
G01*
X119057500Y-113092500D01*
G75*
G02*
X118982500Y-113167500I-75000J0D01*
G01*
X117682500Y-113167500D01*
G75*
G02*
X117607500Y-113092500I0J75000D01*
G01*
X117607500Y-112942500D01*
G75*
G02*
X117682500Y-112867500I75000J0D01*
G01*
G37*
G36*
G01*
X117682500Y-113867500D02*
X118982500Y-113867500D01*
G75*
G02*
X119057500Y-113942500I0J-75000D01*
G01*
X119057500Y-114092500D01*
G75*
G02*
X118982500Y-114167500I-75000J0D01*
G01*
X117682500Y-114167500D01*
G75*
G02*
X117607500Y-114092500I0J75000D01*
G01*
X117607500Y-113942500D01*
G75*
G02*
X117682500Y-113867500I75000J0D01*
G01*
G37*
G36*
G01*
X117682500Y-114367500D02*
X118982500Y-114367500D01*
G75*
G02*
X119057500Y-114442500I0J-75000D01*
G01*
X119057500Y-114592500D01*
G75*
G02*
X118982500Y-114667500I-75000J0D01*
G01*
X117682500Y-114667500D01*
G75*
G02*
X117607500Y-114592500I0J75000D01*
G01*
X117607500Y-114442500D01*
G75*
G02*
X117682500Y-114367500I75000J0D01*
G01*
G37*
G36*
G01*
X117682500Y-115367500D02*
X118982500Y-115367500D01*
G75*
G02*
X119057500Y-115442500I0J-75000D01*
G01*
X119057500Y-115592500D01*
G75*
G02*
X118982500Y-115667500I-75000J0D01*
G01*
X117682500Y-115667500D01*
G75*
G02*
X117607500Y-115592500I0J75000D01*
G01*
X117607500Y-115442500D01*
G75*
G02*
X117682500Y-115367500I75000J0D01*
G01*
G37*
G36*
G01*
X117757500Y-116417500D02*
X118907500Y-116417500D01*
G75*
G02*
X119057500Y-116567500I0J-150000D01*
G01*
X119057500Y-116867500D01*
G75*
G02*
X118907500Y-117017500I-150000J0D01*
G01*
X117757500Y-117017500D01*
G75*
G02*
X117607500Y-116867500I0J150000D01*
G01*
X117607500Y-116567500D01*
G75*
G02*
X117757500Y-116417500I150000J0D01*
G01*
G37*
G36*
G01*
X117757500Y-117217500D02*
X118907500Y-117217500D01*
G75*
G02*
X119057500Y-117367500I0J-150000D01*
G01*
X119057500Y-117667500D01*
G75*
G02*
X118907500Y-117817500I-150000J0D01*
G01*
X117757500Y-117817500D01*
G75*
G02*
X117607500Y-117667500I0J150000D01*
G01*
X117607500Y-117367500D01*
G75*
G02*
X117757500Y-117217500I150000J0D01*
G01*
G37*
G36*
G01*
X117757500Y-117217500D02*
X118907500Y-117217500D01*
G75*
G02*
X119057500Y-117367500I0J-150000D01*
G01*
X119057500Y-117667500D01*
G75*
G02*
X118907500Y-117817500I-150000J0D01*
G01*
X117757500Y-117817500D01*
G75*
G02*
X117607500Y-117667500I0J150000D01*
G01*
X117607500Y-117367500D01*
G75*
G02*
X117757500Y-117217500I150000J0D01*
G01*
G37*
G36*
G01*
X117757500Y-116417500D02*
X118907500Y-116417500D01*
G75*
G02*
X119057500Y-116567500I0J-150000D01*
G01*
X119057500Y-116867500D01*
G75*
G02*
X118907500Y-117017500I-150000J0D01*
G01*
X117757500Y-117017500D01*
G75*
G02*
X117607500Y-116867500I0J150000D01*
G01*
X117607500Y-116567500D01*
G75*
G02*
X117757500Y-116417500I150000J0D01*
G01*
G37*
G36*
G01*
X117682500Y-115867500D02*
X118982500Y-115867500D01*
G75*
G02*
X119057500Y-115942500I0J-75000D01*
G01*
X119057500Y-116092500D01*
G75*
G02*
X118982500Y-116167500I-75000J0D01*
G01*
X117682500Y-116167500D01*
G75*
G02*
X117607500Y-116092500I0J75000D01*
G01*
X117607500Y-115942500D01*
G75*
G02*
X117682500Y-115867500I75000J0D01*
G01*
G37*
G36*
G01*
X117682500Y-114867500D02*
X118982500Y-114867500D01*
G75*
G02*
X119057500Y-114942500I0J-75000D01*
G01*
X119057500Y-115092500D01*
G75*
G02*
X118982500Y-115167500I-75000J0D01*
G01*
X117682500Y-115167500D01*
G75*
G02*
X117607500Y-115092500I0J75000D01*
G01*
X117607500Y-114942500D01*
G75*
G02*
X117682500Y-114867500I75000J0D01*
G01*
G37*
G36*
G01*
X117682500Y-113367500D02*
X118982500Y-113367500D01*
G75*
G02*
X119057500Y-113442500I0J-75000D01*
G01*
X119057500Y-113592500D01*
G75*
G02*
X118982500Y-113667500I-75000J0D01*
G01*
X117682500Y-113667500D01*
G75*
G02*
X117607500Y-113592500I0J75000D01*
G01*
X117607500Y-113442500D01*
G75*
G02*
X117682500Y-113367500I75000J0D01*
G01*
G37*
G36*
G01*
X117682500Y-112367500D02*
X118982500Y-112367500D01*
G75*
G02*
X119057500Y-112442500I0J-75000D01*
G01*
X119057500Y-112592500D01*
G75*
G02*
X118982500Y-112667500I-75000J0D01*
G01*
X117682500Y-112667500D01*
G75*
G02*
X117607500Y-112592500I0J75000D01*
G01*
X117607500Y-112442500D01*
G75*
G02*
X117682500Y-112367500I75000J0D01*
G01*
G37*
G36*
G01*
X117757500Y-111517500D02*
X118907500Y-111517500D01*
G75*
G02*
X119057500Y-111667500I0J-150000D01*
G01*
X119057500Y-111967500D01*
G75*
G02*
X118907500Y-112117500I-150000J0D01*
G01*
X117757500Y-112117500D01*
G75*
G02*
X117607500Y-111967500I0J150000D01*
G01*
X117607500Y-111667500D01*
G75*
G02*
X117757500Y-111517500I150000J0D01*
G01*
G37*
G36*
G01*
X117757500Y-110717500D02*
X118907500Y-110717500D01*
G75*
G02*
X119057500Y-110867500I0J-150000D01*
G01*
X119057500Y-111167500D01*
G75*
G02*
X118907500Y-111317500I-150000J0D01*
G01*
X117757500Y-111317500D01*
G75*
G02*
X117607500Y-111167500I0J150000D01*
G01*
X117607500Y-110867500D01*
G75*
G02*
X117757500Y-110717500I150000J0D01*
G01*
G37*
D20*
X117417500Y-109947500D03*
D21*
X113237500Y-109947500D03*
D20*
X117417500Y-118587500D03*
D21*
X113237500Y-118587500D03*
M02*
