%TF.GenerationSoftware,KiCad,Pcbnew,10.0.1-10.0.1~ubuntu25.10.1*%
%TF.CreationDate,2026-05-29T00:15:12+00:00*%
%TF.ProjectId,esp32s3-devkit,65737033-3273-4332-9d64-65766b69742e,rev?*%
%TF.SameCoordinates,Original*%
%TF.FileFunction,Drillmap*%
%TF.FilePolarity,Positive*%
%FSLAX45Y45*%
G04 Gerber Fmt 4.5, Leading zero omitted, Abs format (unit mm)*
G04 Created by KiCad (PCBNEW 10.0.1-10.0.1~ubuntu25.10.1) date 2026-05-29 00:15:12*
%MOMM*%
%LPD*%
G01*
G04 APERTURE LIST*
%ADD10C,0.050000*%
%ADD11C,0.200000*%
%ADD12C,0.100000*%
G04 APERTURE END LIST*
D10*
X10995750Y-8289750D02*
X16929750Y-8289750D01*
X16929750Y-12091750D01*
X10995750Y-12091750D01*
X10995750Y-8289750D01*
D11*
D12*
X11656250Y-11105250D02*
X11721250Y-11170250D01*
X11721250Y-11105250D02*
X11656250Y-11170250D01*
X11656250Y-11683250D02*
X11721250Y-11748250D01*
X11721250Y-11683250D02*
X11656250Y-11748250D01*
D11*
X11254027Y-12405734D02*
X11254027Y-12205734D01*
X11254027Y-12205734D02*
X11301646Y-12205734D01*
X11301646Y-12205734D02*
X11330217Y-12215258D01*
X11330217Y-12215258D02*
X11349265Y-12234305D01*
X11349265Y-12234305D02*
X11358789Y-12253353D01*
X11358789Y-12253353D02*
X11368312Y-12291448D01*
X11368312Y-12291448D02*
X11368312Y-12320019D01*
X11368312Y-12320019D02*
X11358789Y-12358115D01*
X11358789Y-12358115D02*
X11349265Y-12377162D01*
X11349265Y-12377162D02*
X11330217Y-12396210D01*
X11330217Y-12396210D02*
X11301646Y-12405734D01*
X11301646Y-12405734D02*
X11254027Y-12405734D01*
X11454027Y-12405734D02*
X11454027Y-12272400D01*
X11454027Y-12310496D02*
X11463551Y-12291448D01*
X11463551Y-12291448D02*
X11473074Y-12281924D01*
X11473074Y-12281924D02*
X11492122Y-12272400D01*
X11492122Y-12272400D02*
X11511170Y-12272400D01*
X11577836Y-12405734D02*
X11577836Y-12272400D01*
X11577836Y-12205734D02*
X11568312Y-12215258D01*
X11568312Y-12215258D02*
X11577836Y-12224781D01*
X11577836Y-12224781D02*
X11587360Y-12215258D01*
X11587360Y-12215258D02*
X11577836Y-12205734D01*
X11577836Y-12205734D02*
X11577836Y-12224781D01*
X11701646Y-12405734D02*
X11682598Y-12396210D01*
X11682598Y-12396210D02*
X11673074Y-12377162D01*
X11673074Y-12377162D02*
X11673074Y-12205734D01*
X11806408Y-12405734D02*
X11787360Y-12396210D01*
X11787360Y-12396210D02*
X11777836Y-12377162D01*
X11777836Y-12377162D02*
X11777836Y-12205734D01*
X12034979Y-12405734D02*
X12034979Y-12205734D01*
X12034979Y-12205734D02*
X12101646Y-12348591D01*
X12101646Y-12348591D02*
X12168312Y-12205734D01*
X12168312Y-12205734D02*
X12168312Y-12405734D01*
X12349265Y-12405734D02*
X12349265Y-12300972D01*
X12349265Y-12300972D02*
X12339741Y-12281924D01*
X12339741Y-12281924D02*
X12320693Y-12272400D01*
X12320693Y-12272400D02*
X12282598Y-12272400D01*
X12282598Y-12272400D02*
X12263551Y-12281924D01*
X12349265Y-12396210D02*
X12330217Y-12405734D01*
X12330217Y-12405734D02*
X12282598Y-12405734D01*
X12282598Y-12405734D02*
X12263551Y-12396210D01*
X12263551Y-12396210D02*
X12254027Y-12377162D01*
X12254027Y-12377162D02*
X12254027Y-12358115D01*
X12254027Y-12358115D02*
X12263551Y-12339067D01*
X12263551Y-12339067D02*
X12282598Y-12329543D01*
X12282598Y-12329543D02*
X12330217Y-12329543D01*
X12330217Y-12329543D02*
X12349265Y-12320019D01*
X12444503Y-12272400D02*
X12444503Y-12472400D01*
X12444503Y-12281924D02*
X12463551Y-12272400D01*
X12463551Y-12272400D02*
X12501646Y-12272400D01*
X12501646Y-12272400D02*
X12520693Y-12281924D01*
X12520693Y-12281924D02*
X12530217Y-12291448D01*
X12530217Y-12291448D02*
X12539741Y-12310496D01*
X12539741Y-12310496D02*
X12539741Y-12367638D01*
X12539741Y-12367638D02*
X12530217Y-12386686D01*
X12530217Y-12386686D02*
X12520693Y-12396210D01*
X12520693Y-12396210D02*
X12501646Y-12405734D01*
X12501646Y-12405734D02*
X12463551Y-12405734D01*
X12463551Y-12405734D02*
X12444503Y-12396210D01*
X12625455Y-12386686D02*
X12634979Y-12396210D01*
X12634979Y-12396210D02*
X12625455Y-12405734D01*
X12625455Y-12405734D02*
X12615932Y-12396210D01*
X12615932Y-12396210D02*
X12625455Y-12386686D01*
X12625455Y-12386686D02*
X12625455Y-12405734D01*
X12625455Y-12281924D02*
X12634979Y-12291448D01*
X12634979Y-12291448D02*
X12625455Y-12300972D01*
X12625455Y-12300972D02*
X12615932Y-12291448D01*
X12615932Y-12291448D02*
X12625455Y-12281924D01*
X12625455Y-12281924D02*
X12625455Y-12300972D01*
D12*
X10928250Y-12701750D02*
X10993250Y-12766750D01*
X10993250Y-12701750D02*
X10928250Y-12766750D01*
D11*
X11292122Y-12625734D02*
X11311170Y-12625734D01*
X11311170Y-12625734D02*
X11330217Y-12635258D01*
X11330217Y-12635258D02*
X11339741Y-12644781D01*
X11339741Y-12644781D02*
X11349265Y-12663829D01*
X11349265Y-12663829D02*
X11358789Y-12701924D01*
X11358789Y-12701924D02*
X11358789Y-12749543D01*
X11358789Y-12749543D02*
X11349265Y-12787638D01*
X11349265Y-12787638D02*
X11339741Y-12806686D01*
X11339741Y-12806686D02*
X11330217Y-12816210D01*
X11330217Y-12816210D02*
X11311170Y-12825734D01*
X11311170Y-12825734D02*
X11292122Y-12825734D01*
X11292122Y-12825734D02*
X11273074Y-12816210D01*
X11273074Y-12816210D02*
X11263551Y-12806686D01*
X11263551Y-12806686D02*
X11254027Y-12787638D01*
X11254027Y-12787638D02*
X11244503Y-12749543D01*
X11244503Y-12749543D02*
X11244503Y-12701924D01*
X11244503Y-12701924D02*
X11254027Y-12663829D01*
X11254027Y-12663829D02*
X11263551Y-12644781D01*
X11263551Y-12644781D02*
X11273074Y-12635258D01*
X11273074Y-12635258D02*
X11292122Y-12625734D01*
X11444503Y-12806686D02*
X11454027Y-12816210D01*
X11454027Y-12816210D02*
X11444503Y-12825734D01*
X11444503Y-12825734D02*
X11434979Y-12816210D01*
X11434979Y-12816210D02*
X11444503Y-12806686D01*
X11444503Y-12806686D02*
X11444503Y-12825734D01*
X11625455Y-12625734D02*
X11587360Y-12625734D01*
X11587360Y-12625734D02*
X11568312Y-12635258D01*
X11568312Y-12635258D02*
X11558789Y-12644781D01*
X11558789Y-12644781D02*
X11539741Y-12673353D01*
X11539741Y-12673353D02*
X11530217Y-12711448D01*
X11530217Y-12711448D02*
X11530217Y-12787638D01*
X11530217Y-12787638D02*
X11539741Y-12806686D01*
X11539741Y-12806686D02*
X11549265Y-12816210D01*
X11549265Y-12816210D02*
X11568312Y-12825734D01*
X11568312Y-12825734D02*
X11606408Y-12825734D01*
X11606408Y-12825734D02*
X11625455Y-12816210D01*
X11625455Y-12816210D02*
X11634979Y-12806686D01*
X11634979Y-12806686D02*
X11644503Y-12787638D01*
X11644503Y-12787638D02*
X11644503Y-12740019D01*
X11644503Y-12740019D02*
X11634979Y-12720972D01*
X11634979Y-12720972D02*
X11625455Y-12711448D01*
X11625455Y-12711448D02*
X11606408Y-12701924D01*
X11606408Y-12701924D02*
X11568312Y-12701924D01*
X11568312Y-12701924D02*
X11549265Y-12711448D01*
X11549265Y-12711448D02*
X11539741Y-12720972D01*
X11539741Y-12720972D02*
X11530217Y-12740019D01*
X11825455Y-12625734D02*
X11730217Y-12625734D01*
X11730217Y-12625734D02*
X11720693Y-12720972D01*
X11720693Y-12720972D02*
X11730217Y-12711448D01*
X11730217Y-12711448D02*
X11749265Y-12701924D01*
X11749265Y-12701924D02*
X11796884Y-12701924D01*
X11796884Y-12701924D02*
X11815932Y-12711448D01*
X11815932Y-12711448D02*
X11825455Y-12720972D01*
X11825455Y-12720972D02*
X11834979Y-12740019D01*
X11834979Y-12740019D02*
X11834979Y-12787638D01*
X11834979Y-12787638D02*
X11825455Y-12806686D01*
X11825455Y-12806686D02*
X11815932Y-12816210D01*
X11815932Y-12816210D02*
X11796884Y-12825734D01*
X11796884Y-12825734D02*
X11749265Y-12825734D01*
X11749265Y-12825734D02*
X11730217Y-12816210D01*
X11730217Y-12816210D02*
X11720693Y-12806686D01*
X11958789Y-12625734D02*
X11977836Y-12625734D01*
X11977836Y-12625734D02*
X11996884Y-12635258D01*
X11996884Y-12635258D02*
X12006408Y-12644781D01*
X12006408Y-12644781D02*
X12015932Y-12663829D01*
X12015932Y-12663829D02*
X12025455Y-12701924D01*
X12025455Y-12701924D02*
X12025455Y-12749543D01*
X12025455Y-12749543D02*
X12015932Y-12787638D01*
X12015932Y-12787638D02*
X12006408Y-12806686D01*
X12006408Y-12806686D02*
X11996884Y-12816210D01*
X11996884Y-12816210D02*
X11977836Y-12825734D01*
X11977836Y-12825734D02*
X11958789Y-12825734D01*
X11958789Y-12825734D02*
X11939741Y-12816210D01*
X11939741Y-12816210D02*
X11930217Y-12806686D01*
X11930217Y-12806686D02*
X11920693Y-12787638D01*
X11920693Y-12787638D02*
X11911170Y-12749543D01*
X11911170Y-12749543D02*
X11911170Y-12701924D01*
X11911170Y-12701924D02*
X11920693Y-12663829D01*
X11920693Y-12663829D02*
X11930217Y-12644781D01*
X11930217Y-12644781D02*
X11939741Y-12635258D01*
X11939741Y-12635258D02*
X11958789Y-12625734D01*
X12111170Y-12825734D02*
X12111170Y-12692400D01*
X12111170Y-12711448D02*
X12120693Y-12701924D01*
X12120693Y-12701924D02*
X12139741Y-12692400D01*
X12139741Y-12692400D02*
X12168313Y-12692400D01*
X12168313Y-12692400D02*
X12187360Y-12701924D01*
X12187360Y-12701924D02*
X12196884Y-12720972D01*
X12196884Y-12720972D02*
X12196884Y-12825734D01*
X12196884Y-12720972D02*
X12206408Y-12701924D01*
X12206408Y-12701924D02*
X12225455Y-12692400D01*
X12225455Y-12692400D02*
X12254027Y-12692400D01*
X12254027Y-12692400D02*
X12273074Y-12701924D01*
X12273074Y-12701924D02*
X12282598Y-12720972D01*
X12282598Y-12720972D02*
X12282598Y-12825734D01*
X12377836Y-12825734D02*
X12377836Y-12692400D01*
X12377836Y-12711448D02*
X12387360Y-12701924D01*
X12387360Y-12701924D02*
X12406408Y-12692400D01*
X12406408Y-12692400D02*
X12434979Y-12692400D01*
X12434979Y-12692400D02*
X12454027Y-12701924D01*
X12454027Y-12701924D02*
X12463551Y-12720972D01*
X12463551Y-12720972D02*
X12463551Y-12825734D01*
X12463551Y-12720972D02*
X12473074Y-12701924D01*
X12473074Y-12701924D02*
X12492122Y-12692400D01*
X12492122Y-12692400D02*
X12520693Y-12692400D01*
X12520693Y-12692400D02*
X12539741Y-12701924D01*
X12539741Y-12701924D02*
X12549265Y-12720972D01*
X12549265Y-12720972D02*
X12549265Y-12825734D01*
X12939741Y-12616210D02*
X12768313Y-12873353D01*
X13196884Y-12625734D02*
X13215932Y-12625734D01*
X13215932Y-12625734D02*
X13234979Y-12635258D01*
X13234979Y-12635258D02*
X13244503Y-12644781D01*
X13244503Y-12644781D02*
X13254027Y-12663829D01*
X13254027Y-12663829D02*
X13263551Y-12701924D01*
X13263551Y-12701924D02*
X13263551Y-12749543D01*
X13263551Y-12749543D02*
X13254027Y-12787638D01*
X13254027Y-12787638D02*
X13244503Y-12806686D01*
X13244503Y-12806686D02*
X13234979Y-12816210D01*
X13234979Y-12816210D02*
X13215932Y-12825734D01*
X13215932Y-12825734D02*
X13196884Y-12825734D01*
X13196884Y-12825734D02*
X13177836Y-12816210D01*
X13177836Y-12816210D02*
X13168313Y-12806686D01*
X13168313Y-12806686D02*
X13158789Y-12787638D01*
X13158789Y-12787638D02*
X13149265Y-12749543D01*
X13149265Y-12749543D02*
X13149265Y-12701924D01*
X13149265Y-12701924D02*
X13158789Y-12663829D01*
X13158789Y-12663829D02*
X13168313Y-12644781D01*
X13168313Y-12644781D02*
X13177836Y-12635258D01*
X13177836Y-12635258D02*
X13196884Y-12625734D01*
X13349265Y-12806686D02*
X13358789Y-12816210D01*
X13358789Y-12816210D02*
X13349265Y-12825734D01*
X13349265Y-12825734D02*
X13339741Y-12816210D01*
X13339741Y-12816210D02*
X13349265Y-12806686D01*
X13349265Y-12806686D02*
X13349265Y-12825734D01*
X13482598Y-12625734D02*
X13501646Y-12625734D01*
X13501646Y-12625734D02*
X13520694Y-12635258D01*
X13520694Y-12635258D02*
X13530217Y-12644781D01*
X13530217Y-12644781D02*
X13539741Y-12663829D01*
X13539741Y-12663829D02*
X13549265Y-12701924D01*
X13549265Y-12701924D02*
X13549265Y-12749543D01*
X13549265Y-12749543D02*
X13539741Y-12787638D01*
X13539741Y-12787638D02*
X13530217Y-12806686D01*
X13530217Y-12806686D02*
X13520694Y-12816210D01*
X13520694Y-12816210D02*
X13501646Y-12825734D01*
X13501646Y-12825734D02*
X13482598Y-12825734D01*
X13482598Y-12825734D02*
X13463551Y-12816210D01*
X13463551Y-12816210D02*
X13454027Y-12806686D01*
X13454027Y-12806686D02*
X13444503Y-12787638D01*
X13444503Y-12787638D02*
X13434979Y-12749543D01*
X13434979Y-12749543D02*
X13434979Y-12701924D01*
X13434979Y-12701924D02*
X13444503Y-12663829D01*
X13444503Y-12663829D02*
X13454027Y-12644781D01*
X13454027Y-12644781D02*
X13463551Y-12635258D01*
X13463551Y-12635258D02*
X13482598Y-12625734D01*
X13625456Y-12644781D02*
X13634979Y-12635258D01*
X13634979Y-12635258D02*
X13654027Y-12625734D01*
X13654027Y-12625734D02*
X13701646Y-12625734D01*
X13701646Y-12625734D02*
X13720694Y-12635258D01*
X13720694Y-12635258D02*
X13730217Y-12644781D01*
X13730217Y-12644781D02*
X13739741Y-12663829D01*
X13739741Y-12663829D02*
X13739741Y-12682877D01*
X13739741Y-12682877D02*
X13730217Y-12711448D01*
X13730217Y-12711448D02*
X13615932Y-12825734D01*
X13615932Y-12825734D02*
X13739741Y-12825734D01*
X13920694Y-12625734D02*
X13825456Y-12625734D01*
X13825456Y-12625734D02*
X13815932Y-12720972D01*
X13815932Y-12720972D02*
X13825456Y-12711448D01*
X13825456Y-12711448D02*
X13844503Y-12701924D01*
X13844503Y-12701924D02*
X13892122Y-12701924D01*
X13892122Y-12701924D02*
X13911170Y-12711448D01*
X13911170Y-12711448D02*
X13920694Y-12720972D01*
X13920694Y-12720972D02*
X13930217Y-12740019D01*
X13930217Y-12740019D02*
X13930217Y-12787638D01*
X13930217Y-12787638D02*
X13920694Y-12806686D01*
X13920694Y-12806686D02*
X13911170Y-12816210D01*
X13911170Y-12816210D02*
X13892122Y-12825734D01*
X13892122Y-12825734D02*
X13844503Y-12825734D01*
X13844503Y-12825734D02*
X13825456Y-12816210D01*
X13825456Y-12816210D02*
X13815932Y-12806686D01*
X14101646Y-12625734D02*
X14063551Y-12625734D01*
X14063551Y-12625734D02*
X14044503Y-12635258D01*
X14044503Y-12635258D02*
X14034979Y-12644781D01*
X14034979Y-12644781D02*
X14015932Y-12673353D01*
X14015932Y-12673353D02*
X14006408Y-12711448D01*
X14006408Y-12711448D02*
X14006408Y-12787638D01*
X14006408Y-12787638D02*
X14015932Y-12806686D01*
X14015932Y-12806686D02*
X14025456Y-12816210D01*
X14025456Y-12816210D02*
X14044503Y-12825734D01*
X14044503Y-12825734D02*
X14082598Y-12825734D01*
X14082598Y-12825734D02*
X14101646Y-12816210D01*
X14101646Y-12816210D02*
X14111170Y-12806686D01*
X14111170Y-12806686D02*
X14120694Y-12787638D01*
X14120694Y-12787638D02*
X14120694Y-12740019D01*
X14120694Y-12740019D02*
X14111170Y-12720972D01*
X14111170Y-12720972D02*
X14101646Y-12711448D01*
X14101646Y-12711448D02*
X14082598Y-12701924D01*
X14082598Y-12701924D02*
X14044503Y-12701924D01*
X14044503Y-12701924D02*
X14025456Y-12711448D01*
X14025456Y-12711448D02*
X14015932Y-12720972D01*
X14015932Y-12720972D02*
X14006408Y-12740019D01*
X14196884Y-12625734D02*
X14196884Y-12663829D01*
X14273075Y-12625734D02*
X14273075Y-12663829D01*
X14568313Y-12901924D02*
X14558789Y-12892400D01*
X14558789Y-12892400D02*
X14539741Y-12863829D01*
X14539741Y-12863829D02*
X14530218Y-12844781D01*
X14530218Y-12844781D02*
X14520694Y-12816210D01*
X14520694Y-12816210D02*
X14511170Y-12768591D01*
X14511170Y-12768591D02*
X14511170Y-12730496D01*
X14511170Y-12730496D02*
X14520694Y-12682877D01*
X14520694Y-12682877D02*
X14530218Y-12654305D01*
X14530218Y-12654305D02*
X14539741Y-12635258D01*
X14539741Y-12635258D02*
X14558789Y-12606686D01*
X14558789Y-12606686D02*
X14568313Y-12597162D01*
X14634979Y-12644781D02*
X14644503Y-12635258D01*
X14644503Y-12635258D02*
X14663551Y-12625734D01*
X14663551Y-12625734D02*
X14711170Y-12625734D01*
X14711170Y-12625734D02*
X14730218Y-12635258D01*
X14730218Y-12635258D02*
X14739741Y-12644781D01*
X14739741Y-12644781D02*
X14749265Y-12663829D01*
X14749265Y-12663829D02*
X14749265Y-12682877D01*
X14749265Y-12682877D02*
X14739741Y-12711448D01*
X14739741Y-12711448D02*
X14625456Y-12825734D01*
X14625456Y-12825734D02*
X14749265Y-12825734D01*
X14987360Y-12825734D02*
X14987360Y-12625734D01*
X15073075Y-12825734D02*
X15073075Y-12720972D01*
X15073075Y-12720972D02*
X15063551Y-12701924D01*
X15063551Y-12701924D02*
X15044503Y-12692400D01*
X15044503Y-12692400D02*
X15015932Y-12692400D01*
X15015932Y-12692400D02*
X14996884Y-12701924D01*
X14996884Y-12701924D02*
X14987360Y-12711448D01*
X15196884Y-12825734D02*
X15177837Y-12816210D01*
X15177837Y-12816210D02*
X15168313Y-12806686D01*
X15168313Y-12806686D02*
X15158789Y-12787638D01*
X15158789Y-12787638D02*
X15158789Y-12730496D01*
X15158789Y-12730496D02*
X15168313Y-12711448D01*
X15168313Y-12711448D02*
X15177837Y-12701924D01*
X15177837Y-12701924D02*
X15196884Y-12692400D01*
X15196884Y-12692400D02*
X15225456Y-12692400D01*
X15225456Y-12692400D02*
X15244503Y-12701924D01*
X15244503Y-12701924D02*
X15254027Y-12711448D01*
X15254027Y-12711448D02*
X15263551Y-12730496D01*
X15263551Y-12730496D02*
X15263551Y-12787638D01*
X15263551Y-12787638D02*
X15254027Y-12806686D01*
X15254027Y-12806686D02*
X15244503Y-12816210D01*
X15244503Y-12816210D02*
X15225456Y-12825734D01*
X15225456Y-12825734D02*
X15196884Y-12825734D01*
X15377837Y-12825734D02*
X15358789Y-12816210D01*
X15358789Y-12816210D02*
X15349265Y-12797162D01*
X15349265Y-12797162D02*
X15349265Y-12625734D01*
X15530218Y-12816210D02*
X15511170Y-12825734D01*
X15511170Y-12825734D02*
X15473075Y-12825734D01*
X15473075Y-12825734D02*
X15454027Y-12816210D01*
X15454027Y-12816210D02*
X15444503Y-12797162D01*
X15444503Y-12797162D02*
X15444503Y-12720972D01*
X15444503Y-12720972D02*
X15454027Y-12701924D01*
X15454027Y-12701924D02*
X15473075Y-12692400D01*
X15473075Y-12692400D02*
X15511170Y-12692400D01*
X15511170Y-12692400D02*
X15530218Y-12701924D01*
X15530218Y-12701924D02*
X15539741Y-12720972D01*
X15539741Y-12720972D02*
X15539741Y-12740019D01*
X15539741Y-12740019D02*
X15444503Y-12759067D01*
X15615932Y-12816210D02*
X15634980Y-12825734D01*
X15634980Y-12825734D02*
X15673075Y-12825734D01*
X15673075Y-12825734D02*
X15692122Y-12816210D01*
X15692122Y-12816210D02*
X15701646Y-12797162D01*
X15701646Y-12797162D02*
X15701646Y-12787638D01*
X15701646Y-12787638D02*
X15692122Y-12768591D01*
X15692122Y-12768591D02*
X15673075Y-12759067D01*
X15673075Y-12759067D02*
X15644503Y-12759067D01*
X15644503Y-12759067D02*
X15625456Y-12749543D01*
X15625456Y-12749543D02*
X15615932Y-12730496D01*
X15615932Y-12730496D02*
X15615932Y-12720972D01*
X15615932Y-12720972D02*
X15625456Y-12701924D01*
X15625456Y-12701924D02*
X15644503Y-12692400D01*
X15644503Y-12692400D02*
X15673075Y-12692400D01*
X15673075Y-12692400D02*
X15692122Y-12701924D01*
X15768313Y-12901924D02*
X15777837Y-12892400D01*
X15777837Y-12892400D02*
X15796884Y-12863829D01*
X15796884Y-12863829D02*
X15806408Y-12844781D01*
X15806408Y-12844781D02*
X15815932Y-12816210D01*
X15815932Y-12816210D02*
X15825456Y-12768591D01*
X15825456Y-12768591D02*
X15825456Y-12730496D01*
X15825456Y-12730496D02*
X15815932Y-12682877D01*
X15815932Y-12682877D02*
X15806408Y-12654305D01*
X15806408Y-12654305D02*
X15796884Y-12635258D01*
X15796884Y-12635258D02*
X15777837Y-12606686D01*
X15777837Y-12606686D02*
X15768313Y-12597162D01*
X16130218Y-12901924D02*
X16120694Y-12892400D01*
X16120694Y-12892400D02*
X16101646Y-12863829D01*
X16101646Y-12863829D02*
X16092122Y-12844781D01*
X16092122Y-12844781D02*
X16082599Y-12816210D01*
X16082599Y-12816210D02*
X16073075Y-12768591D01*
X16073075Y-12768591D02*
X16073075Y-12730496D01*
X16073075Y-12730496D02*
X16082599Y-12682877D01*
X16082599Y-12682877D02*
X16092122Y-12654305D01*
X16092122Y-12654305D02*
X16101646Y-12635258D01*
X16101646Y-12635258D02*
X16120694Y-12606686D01*
X16120694Y-12606686D02*
X16130218Y-12597162D01*
X16206408Y-12692400D02*
X16206408Y-12825734D01*
X16206408Y-12711448D02*
X16215932Y-12701924D01*
X16215932Y-12701924D02*
X16234980Y-12692400D01*
X16234980Y-12692400D02*
X16263551Y-12692400D01*
X16263551Y-12692400D02*
X16282599Y-12701924D01*
X16282599Y-12701924D02*
X16292122Y-12720972D01*
X16292122Y-12720972D02*
X16292122Y-12825734D01*
X16415932Y-12825734D02*
X16396884Y-12816210D01*
X16396884Y-12816210D02*
X16387361Y-12806686D01*
X16387361Y-12806686D02*
X16377837Y-12787638D01*
X16377837Y-12787638D02*
X16377837Y-12730496D01*
X16377837Y-12730496D02*
X16387361Y-12711448D01*
X16387361Y-12711448D02*
X16396884Y-12701924D01*
X16396884Y-12701924D02*
X16415932Y-12692400D01*
X16415932Y-12692400D02*
X16444503Y-12692400D01*
X16444503Y-12692400D02*
X16463551Y-12701924D01*
X16463551Y-12701924D02*
X16473075Y-12711448D01*
X16473075Y-12711448D02*
X16482599Y-12730496D01*
X16482599Y-12730496D02*
X16482599Y-12787638D01*
X16482599Y-12787638D02*
X16473075Y-12806686D01*
X16473075Y-12806686D02*
X16463551Y-12816210D01*
X16463551Y-12816210D02*
X16444503Y-12825734D01*
X16444503Y-12825734D02*
X16415932Y-12825734D01*
X16539742Y-12692400D02*
X16615932Y-12692400D01*
X16568313Y-12625734D02*
X16568313Y-12797162D01*
X16568313Y-12797162D02*
X16577837Y-12816210D01*
X16577837Y-12816210D02*
X16596884Y-12825734D01*
X16596884Y-12825734D02*
X16615932Y-12825734D01*
X16834980Y-12692400D02*
X16834980Y-12892400D01*
X16834980Y-12701924D02*
X16854027Y-12692400D01*
X16854027Y-12692400D02*
X16892123Y-12692400D01*
X16892123Y-12692400D02*
X16911170Y-12701924D01*
X16911170Y-12701924D02*
X16920694Y-12711448D01*
X16920694Y-12711448D02*
X16930218Y-12730496D01*
X16930218Y-12730496D02*
X16930218Y-12787638D01*
X16930218Y-12787638D02*
X16920694Y-12806686D01*
X16920694Y-12806686D02*
X16911170Y-12816210D01*
X16911170Y-12816210D02*
X16892123Y-12825734D01*
X16892123Y-12825734D02*
X16854027Y-12825734D01*
X16854027Y-12825734D02*
X16834980Y-12816210D01*
X17044504Y-12825734D02*
X17025456Y-12816210D01*
X17025456Y-12816210D02*
X17015932Y-12797162D01*
X17015932Y-12797162D02*
X17015932Y-12625734D01*
X17206408Y-12825734D02*
X17206408Y-12720972D01*
X17206408Y-12720972D02*
X17196885Y-12701924D01*
X17196885Y-12701924D02*
X17177837Y-12692400D01*
X17177837Y-12692400D02*
X17139742Y-12692400D01*
X17139742Y-12692400D02*
X17120694Y-12701924D01*
X17206408Y-12816210D02*
X17187361Y-12825734D01*
X17187361Y-12825734D02*
X17139742Y-12825734D01*
X17139742Y-12825734D02*
X17120694Y-12816210D01*
X17120694Y-12816210D02*
X17111170Y-12797162D01*
X17111170Y-12797162D02*
X17111170Y-12778115D01*
X17111170Y-12778115D02*
X17120694Y-12759067D01*
X17120694Y-12759067D02*
X17139742Y-12749543D01*
X17139742Y-12749543D02*
X17187361Y-12749543D01*
X17187361Y-12749543D02*
X17206408Y-12740019D01*
X17273075Y-12692400D02*
X17349265Y-12692400D01*
X17301646Y-12625734D02*
X17301646Y-12797162D01*
X17301646Y-12797162D02*
X17311170Y-12816210D01*
X17311170Y-12816210D02*
X17330218Y-12825734D01*
X17330218Y-12825734D02*
X17349265Y-12825734D01*
X17492123Y-12816210D02*
X17473075Y-12825734D01*
X17473075Y-12825734D02*
X17434980Y-12825734D01*
X17434980Y-12825734D02*
X17415932Y-12816210D01*
X17415932Y-12816210D02*
X17406408Y-12797162D01*
X17406408Y-12797162D02*
X17406408Y-12720972D01*
X17406408Y-12720972D02*
X17415932Y-12701924D01*
X17415932Y-12701924D02*
X17434980Y-12692400D01*
X17434980Y-12692400D02*
X17473075Y-12692400D01*
X17473075Y-12692400D02*
X17492123Y-12701924D01*
X17492123Y-12701924D02*
X17501646Y-12720972D01*
X17501646Y-12720972D02*
X17501646Y-12740019D01*
X17501646Y-12740019D02*
X17406408Y-12759067D01*
X17673075Y-12825734D02*
X17673075Y-12625734D01*
X17673075Y-12816210D02*
X17654027Y-12825734D01*
X17654027Y-12825734D02*
X17615932Y-12825734D01*
X17615932Y-12825734D02*
X17596885Y-12816210D01*
X17596885Y-12816210D02*
X17587361Y-12806686D01*
X17587361Y-12806686D02*
X17577837Y-12787638D01*
X17577837Y-12787638D02*
X17577837Y-12730496D01*
X17577837Y-12730496D02*
X17587361Y-12711448D01*
X17587361Y-12711448D02*
X17596885Y-12701924D01*
X17596885Y-12701924D02*
X17615932Y-12692400D01*
X17615932Y-12692400D02*
X17654027Y-12692400D01*
X17654027Y-12692400D02*
X17673075Y-12701924D01*
X17749266Y-12901924D02*
X17758789Y-12892400D01*
X17758789Y-12892400D02*
X17777837Y-12863829D01*
X17777837Y-12863829D02*
X17787361Y-12844781D01*
X17787361Y-12844781D02*
X17796885Y-12816210D01*
X17796885Y-12816210D02*
X17806408Y-12768591D01*
X17806408Y-12768591D02*
X17806408Y-12730496D01*
X17806408Y-12730496D02*
X17796885Y-12682877D01*
X17796885Y-12682877D02*
X17787361Y-12654305D01*
X17787361Y-12654305D02*
X17777837Y-12635258D01*
X17777837Y-12635258D02*
X17758789Y-12606686D01*
X17758789Y-12606686D02*
X17749266Y-12597162D01*
M02*
