G04 #@! TF.GenerationSoftware,KiCad,Pcbnew,10.0.1*
G04 #@! TF.CreationDate,2026-07-06T15:37:19-05:00*
G04 #@! TF.ProjectId,slice,736c6963-652e-46b6-9963-61645f706362,rev?*
G04 #@! TF.SameCoordinates,Original*
G04 #@! TF.FileFunction,Copper,L4,Bot*
G04 #@! TF.FilePolarity,Positive*
%FSLAX46Y46*%
G04 Gerber Fmt 4.6, Leading zero omitted, Abs format (unit mm)*
G04 Created by KiCad (PCBNEW 10.0.1) date 2026-07-06 15:37:19*
%MOMM*%
%LPD*%
G01*
G04 APERTURE LIST*
G04 #@! TA.AperFunction,ViaPad*
%ADD10C,0.600000*%
G04 #@! TD*
G04 #@! TA.AperFunction,ViaPad*
%ADD11C,0.500000*%
G04 #@! TD*
G04 #@! TA.AperFunction,Conductor*
%ADD12C,0.400000*%
G04 #@! TD*
G04 APERTURE END LIST*
D10*
X14937500Y18252500D03*
X8617500Y11682500D03*
X1220000Y23580000D03*
X2630000Y23530000D03*
X340000Y23590000D03*
X8647500Y18352500D03*
D11*
X6280000Y4830000D03*
D10*
X3510000Y23520000D03*
X13757500Y15112500D03*
D11*
X3510000Y25150000D03*
D10*
X14957500Y11662500D03*
D11*
X21627500Y22112500D03*
X4367500Y5302500D03*
X20437500Y22092500D03*
X6540000Y3520000D03*
D12*
X21617500Y17102500D02*
X21642500Y17102500D01*
X21642500Y17102500D02*
X21880000Y17340000D01*
X7115000Y2600000D02*
X21617500Y17102500D01*
X21880000Y17340000D02*
X21880000Y21860000D01*
X4330000Y2620000D02*
X4350000Y2600000D01*
X21880000Y21860000D02*
X21627500Y22112500D01*
X4350000Y2600000D02*
X7115000Y2600000D01*
X4330000Y5265000D02*
X4330000Y2620000D01*
X21320000Y17940000D02*
X21320000Y21210000D01*
X14310000Y12760000D02*
X14720000Y12350000D01*
X16820000Y14210000D02*
X17590000Y14210000D01*
X15760000Y14030000D02*
X16380000Y14650000D01*
X15170000Y12800000D02*
X14780000Y13190000D01*
X6540000Y3520000D02*
X13083591Y10063591D01*
X15640000Y13140000D02*
X15650000Y13140000D01*
X16380000Y14650000D02*
X16820000Y14210000D01*
X15650000Y13140000D02*
X16140000Y13630000D01*
X16140000Y13630000D02*
X16160000Y13630000D01*
X15190000Y13590000D02*
X15640000Y13140000D01*
X14780000Y13190000D02*
X15180000Y13590000D01*
X16160000Y13630000D02*
X15760000Y14030000D01*
X17590000Y14210000D02*
X21320000Y17940000D01*
X13930000Y12370000D02*
X13930000Y12380000D01*
X13083591Y10743591D02*
X14320000Y11980000D01*
X13083591Y10063591D02*
X13083591Y10743591D01*
X14720000Y12350000D02*
X15170000Y12800000D01*
X15180000Y13590000D02*
X15190000Y13590000D01*
X14320000Y11980000D02*
X13930000Y12370000D01*
X13930000Y12380000D02*
X14310000Y12760000D01*
X21320000Y21210000D02*
X20437500Y22092500D01*
M02*
