<?xml version="1.0" standalone="no"?>
 <!DOCTYPE svg PUBLIC "-//W3C//DTD SVG 1.1//EN" 
 "http://www.w3.org/Graphics/SVG/1.1/DTD/svg11.dtd"> 
<svg
  xmlns:svg="http://www.w3.org/2000/svg"
  xmlns="http://www.w3.org/2000/svg"
  xmlns:xlink="http://www.w3.org/1999/xlink"
  xmlns:inkscape="http://www.inkscape.org/namespaces/inkscape"
  version="1.1"
  width="24.6888mm" height="22.8600mm" viewBox="0.0000 0.0000 24.6888 22.8600">
<title>SVG Image created as pcb-F_Cu.svg date 2026-04-27T04:45:41 </title>
  <desc>Image generated by PCBNEW </desc>
<g style="fill:#000000; fill-opacity:1.0000;stroke:#000000; stroke-opacity:1.0000;
stroke-linecap:round; stroke-linejoin:round;"
 transform="translate(0 0) scale(1 1)">
<path style="fill:#C83434; fill-opacity:1.0000; stroke:none;fill-rule:evenodd;"
d="M 10.2250,13.5900
10.1714,13.5793
10.1260,13.5490
10.0957,13.5036
10.0850,13.4500
10.0850,13.1700
10.0957,13.1164
10.1260,13.0710
10.1714,13.0407
10.2250,13.0300
10.5650,13.0300
10.6186,13.0407
10.6640,13.0710
10.6943,13.1164
10.7050,13.1700
10.7050,13.4500
10.6943,13.5036
10.6640,13.5490
10.6186,13.5793
10.5650,13.5900
Z" /> 
<path style="fill:#C83434; fill-opacity:1.0000; stroke:none;fill-rule:evenodd;"
d="M 10.2250,12.6300
10.1714,12.6193
10.1260,12.5890
10.0957,12.5436
10.0850,12.4900
10.0850,12.2100
10.0957,12.1564
10.1260,12.1110
10.1714,12.0807
10.2250,12.0700
10.5650,12.0700
10.6186,12.0807
10.6640,12.1110
10.6943,12.1564
10.7050,12.2100
10.7050,12.4900
10.6943,12.5436
10.6640,12.5890
10.6186,12.6193
10.5650,12.6300
Z" /> 
<path style="fill:#C83434; fill-opacity:1.0000; stroke:none;fill-rule:evenodd;"
d="M 8.2700,13.5000
8.1743,13.4810
8.0932,13.4268
8.0390,13.3457
8.0200,13.2500
8.0200,12.7500
8.0390,12.6543
8.0932,12.5732
8.1743,12.5190
8.2700,12.5000
9.2200,12.5000
9.3157,12.5190
9.3968,12.5732
9.4510,12.6543
9.4700,12.7500
9.4700,13.2500
9.4510,13.3457
9.3968,13.4268
9.3157,13.4810
9.2200,13.5000
Z" /> 
<path style="fill:#C83434; fill-opacity:1.0000; stroke:none;fill-rule:evenodd;"
d="M 8.2700,11.6000
8.1743,11.5810
8.0932,11.5268
8.0390,11.4457
8.0200,11.3500
8.0200,10.8500
8.0390,10.7543
8.0932,10.6732
8.1743,10.6190
8.2700,10.6000
9.2200,10.6000
9.3157,10.6190
9.3968,10.6732
9.4510,10.7543
9.4700,10.8500
9.4700,11.3500
9.4510,11.4457
9.3968,11.5268
9.3157,11.5810
9.2200,11.6000
Z" /> 
<path style="fill:#C83434; fill-opacity:1.0000; stroke:none;fill-rule:evenodd;"
d="M 11.1400,10.8800
11.1400,7.4800
12.1200,7.4800
12.1200,10.8800
Z" /> 
<path style="fill:#C83434; fill-opacity:1.0000; stroke:none;fill-rule:evenodd;"
d="M 13.5100,10.8800
13.5100,7.4800
14.4900,7.4800
14.4900,10.8800
Z" /> 
<path style="fill:#C83434; fill-opacity:1.0000; stroke:none;fill-rule:evenodd;"
d="M 8.5750,14.5450
8.5853,14.4933
8.6145,14.4495
8.6583,14.4203
8.7100,14.4100
8.9800,14.4100
9.0317,14.4203
9.0755,14.4495
9.1047,14.4933
9.1150,14.5450
9.1150,14.9150
9.1047,14.9667
9.0755,15.0105
9.0317,15.0397
8.9800,15.0500
8.7100,15.0500
8.6583,15.0397
8.6145,15.0105
8.5853,14.9667
8.5750,14.9150
Z" /> 
<path style="fill:#C83434; fill-opacity:1.0000; stroke:none;fill-rule:evenodd;"
d="M 9.5950,14.5450
9.6053,14.4933
9.6345,14.4495
9.6783,14.4203
9.7300,14.4100
10.0000,14.4100
10.0517,14.4203
10.0955,14.4495
10.1247,14.4933
10.1350,14.5450
10.1350,14.9150
10.1247,14.9667
10.0955,15.0105
10.0517,15.0397
10.0000,15.0500
9.7300,15.0500
9.6783,15.0397
9.6345,15.0105
9.6053,14.9667
9.5950,14.9150
Z" /> 
<path style="fill:#C83434; fill-opacity:1.0000; stroke:none;fill-rule:evenodd;"
d="M 20.7900,13.4800
20.6943,13.4610
20.6132,13.4068
20.5590,13.3257
20.5400,13.2300
20.5400,12.7300
20.5590,12.6343
20.6132,12.5532
20.6943,12.4990
20.7900,12.4800
21.7400,12.4800
21.8357,12.4990
21.9168,12.5532
21.9710,12.6343
21.9900,12.7300
21.9900,13.2300
21.9710,13.3257
21.9168,13.4068
21.8357,13.4610
21.7400,13.4800
Z" /> 
<path style="fill:#C83434; fill-opacity:1.0000; stroke:none;fill-rule:evenodd;"
d="M 20.7900,11.5800
20.6943,11.5610
20.6132,11.5068
20.5590,11.4257
20.5400,11.3300
20.5400,10.8300
20.5590,10.7343
20.6132,10.6532
20.6943,10.5990
20.7900,10.5800
21.7400,10.5800
21.8357,10.5990
21.9168,10.6532
21.9710,10.7343
21.9900,10.8300
21.9900,11.3300
21.9710,11.4257
21.9168,11.5068
21.8357,11.5610
21.7400,11.5800
Z" /> 
<path style="fill:#C83434; fill-opacity:1.0000; stroke:none;fill-rule:evenodd;"
d="M 2.5150,8.9300
2.5150,7.2300
4.2150,7.2300
4.2150,8.9300
Z" /> 
</g>
<g style="fill:#C83434; fill-opacity:1.0000; stroke:none;">
<circle cx="3.3650" cy="10.6200" r="0.8500" /> 
<circle cx="3.3650" cy="13.1600" r="0.8500" /> 
<circle cx="3.3650" cy="15.7000" r="0.8500" /> 
<path style="fill:#C83434; fill-opacity:1.0000; stroke:none;fill-rule:evenodd;"
d="M 18.6150,13.4800
18.5193,13.4610
18.4382,13.4068
18.3840,13.3257
18.3650,13.2300
18.3650,12.7300
18.3840,12.6343
18.4382,12.5532
18.5193,12.4990
18.6150,12.4800
19.5650,12.4800
19.6607,12.4990
19.7418,12.5532
19.7960,12.6343
19.8150,12.7300
19.8150,13.2300
19.7960,13.3257
19.7418,13.4068
19.6607,13.4610
19.5650,13.4800
Z" /> 
<path style="fill:#C83434; fill-opacity:1.0000; stroke:none;fill-rule:evenodd;"
d="M 18.6150,11.5800
18.5193,11.5610
18.4382,11.5068
18.3840,11.4257
18.3650,11.3300
18.3650,10.8300
18.3840,10.7343
18.4382,10.6532
18.5193,10.5990
18.6150,10.5800
19.5650,10.5800
19.6607,10.5990
19.7418,10.6532
19.7960,10.7343
19.8150,10.8300
19.8150,11.3300
19.7960,11.4257
19.7418,11.5068
19.6607,11.5610
19.5650,11.5800
Z" /> 
<path style="fill:#C83434; fill-opacity:1.0000; stroke:none;fill-rule:evenodd;"
d="M 12.1700,14.7400
12.1891,14.7438
12.2054,14.7546
12.2162,14.7709
12.2200,14.7900
12.2200,15.2900
12.2162,15.3091
12.2054,15.3254
12.1891,15.3362
12.1700,15.3400
12.0200,15.3400
12.0009,15.3362
11.9846,15.3254
11.9738,15.3091
11.9700,15.2900
11.9700,14.7900
11.9738,14.7709
11.9846,14.7546
12.0009,14.7438
12.0200,14.7400
Z" /> 
<path style="fill:#C83434; fill-opacity:1.0000; stroke:none;fill-rule:evenodd;"
d="M 12.6700,14.7400
12.6891,14.7438
12.7054,14.7546
12.7162,14.7709
12.7200,14.7900
12.7200,15.2900
12.7162,15.3091
12.7054,15.3254
12.6891,15.3362
12.6700,15.3400
12.5200,15.3400
12.5009,15.3362
12.4846,15.3254
12.4738,15.3091
12.4700,15.2900
12.4700,14.7900
12.4738,14.7709
12.4846,14.7546
12.5009,14.7438
12.5200,14.7400
Z" /> 
<path style="fill:#C83434; fill-opacity:1.0000; stroke:none;fill-rule:evenodd;"
d="M 13.0200,15.3400
13.0009,15.3362
12.9846,15.3254
12.9738,15.3091
12.9700,15.2900
12.9700,14.7900
12.9738,14.7709
12.9846,14.7546
13.0009,14.7438
13.0200,14.7400
13.1700,14.7400
13.1891,14.7438
13.2054,14.7546
13.2162,14.7709
13.2200,14.7900
13.2200,15.2900
13.2162,15.3091
13.2054,15.3254
13.1891,15.3362
13.1700,15.3400
Z" /> 
<path style="fill:#C83434; fill-opacity:1.0000; stroke:none;fill-rule:evenodd;"
d="M 13.5200,15.3400
13.5009,15.3362
13.4846,15.3254
13.4738,15.3091
13.4700,15.2900
13.4700,14.7900
13.4738,14.7709
13.4846,14.7546
13.5009,14.7438
13.5200,14.7400
13.6700,14.7400
13.6891,14.7438
13.7054,14.7546
13.7162,14.7709
13.7200,14.7900
13.7200,15.2900
13.7162,15.3091
13.7054,15.3254
13.6891,15.3362
13.6700,15.3400
Z" /> 
<path style="fill:#C83434; fill-opacity:1.0000; stroke:none;fill-rule:evenodd;"
d="M 14.5450,14.7150
14.5412,14.7341
14.5304,14.7504
14.5141,14.7612
14.4950,14.7650
13.9950,14.7650
13.9759,14.7612
13.9596,14.7504
13.9488,14.7341
13.9450,14.7150
13.9450,14.5650
13.9488,14.5459
13.9596,14.5296
13.9759,14.5188
13.9950,14.5150
14.4950,14.5150
14.5141,14.5188
14.5304,14.5296
14.5412,14.5459
14.5450,14.5650
Z" /> 
<path style="fill:#C83434; fill-opacity:1.0000; stroke:none;fill-rule:evenodd;"
d="M 14.5450,14.2150
14.5412,14.2341
14.5304,14.2504
14.5141,14.2612
14.4950,14.2650
13.9950,14.2650
13.9759,14.2612
13.9596,14.2504
13.9488,14.2341
13.9450,14.2150
13.9450,14.0650
13.9488,14.0459
13.9596,14.0296
13.9759,14.0188
13.9950,14.0150
14.4950,14.0150
14.5141,14.0188
14.5304,14.0296
14.5412,14.0459
14.5450,14.0650
Z" /> 
<path style="fill:#C83434; fill-opacity:1.0000; stroke:none;fill-rule:evenodd;"
d="M 13.9851,13.7645
13.9783,13.7617
13.9759,13.7612
13.9738,13.7598
13.9669,13.7570
13.9617,13.7517
13.9596,13.7504
13.9583,13.7483
13.9530,13.7431
13.9502,13.7362
13.9488,13.7341
13.9483,13.7317
13.9455,13.7248
13.9450,13.7150
13.9450,13.0650
13.9455,13.0551
13.9483,13.0483
13.9488,13.0459
13.9502,13.0438
13.9530,13.0369
13.9583,13.0317
13.9596,13.0296
13.9617,13.0283
13.9669,13.0230
13.9738,13.0202
13.9759,13.0188
13.9783,13.0183
13.9851,13.0155
13.9950,13.0150
14.4950,13.0150
14.5141,13.0188
14.5304,13.0296
14.5412,13.0459
14.5450,13.0650
14.5450,13.2150
14.5412,13.2341
14.5304,13.2504
14.5141,13.2612
14.4950,13.2650
14.1950,13.2650
14.1950,13.5150
14.4950,13.5150
14.5141,13.5188
14.5304,13.5296
14.5412,13.5459
14.5450,13.5650
14.5450,13.7150
14.5412,13.7341
14.5304,13.7504
14.5141,13.7612
14.4950,13.7650
13.9950,13.7650
Z" /> 
<path style="fill:#C83434; fill-opacity:1.0000; stroke:none;fill-rule:evenodd;"
d="M 13.9851,13.7645
13.9783,13.7617
13.9759,13.7612
13.9738,13.7598
13.9669,13.7570
13.9617,13.7517
13.9596,13.7504
13.9583,13.7483
13.9530,13.7431
13.9502,13.7362
13.9488,13.7341
13.9483,13.7317
13.9455,13.7248
13.9450,13.7150
13.9450,13.0650
13.9455,13.0551
13.9483,13.0483
13.9488,13.0459
13.9502,13.0438
13.9530,13.0369
13.9583,13.0317
13.9596,13.0296
13.9617,13.0283
13.9669,13.0230
13.9738,13.0202
13.9759,13.0188
13.9783,13.0183
13.9851,13.0155
13.9950,13.0150
14.4950,13.0150
14.5141,13.0188
14.5304,13.0296
14.5412,13.0459
14.5450,13.0650
14.5450,13.2150
14.5412,13.2341
14.5304,13.2504
14.5141,13.2612
14.4950,13.2650
14.1950,13.2650
14.1950,13.5150
14.4950,13.5150
14.5141,13.5188
14.5304,13.5296
14.5412,13.5459
14.5450,13.5650
14.5450,13.7150
14.5412,13.7341
14.5304,13.7504
14.5141,13.7612
14.4950,13.7650
13.9950,13.7650
Z" /> 
<path style="fill:#C83434; fill-opacity:1.0000; stroke:none;fill-rule:evenodd;"
d="M 13.2700,13.0145
13.2509,13.0107
13.2346,12.9999
13.2238,12.9836
13.2200,12.9645
13.2200,12.4895
13.2238,12.4704
13.2346,12.4541
13.2509,12.4433
13.2700,12.4395
13.4200,12.4395
13.4391,12.4433
13.4554,12.4541
13.4662,12.4704
13.4700,12.4895
13.4700,12.9645
13.4662,12.9836
13.4554,12.9999
13.4391,13.0107
13.4200,13.0145
Z" /> 
<path style="fill:#C83434; fill-opacity:1.0000; stroke:none;fill-rule:evenodd;"
d="M 13.2700,13.7895
13.2509,13.7857
13.2346,13.7749
13.2238,13.7586
13.2200,13.7395
13.2200,13.2645
13.2238,13.2454
13.2346,13.2291
13.2509,13.2183
13.2700,13.2145
13.4200,13.2145
13.4391,13.2183
13.4554,13.2291
13.4662,13.2454
13.4700,13.2645
13.4700,13.7395
13.4662,13.7586
13.4554,13.7749
13.4391,13.7857
13.4200,13.7895
Z" /> 
<path style="fill:#C83434; fill-opacity:1.0000; stroke:none;fill-rule:evenodd;"
d="M 12.7700,13.1900
12.7509,13.1862
12.7346,13.1754
12.7238,13.1591
12.7200,13.1400
12.7200,12.5200
12.7238,12.5009
12.7346,12.4846
12.7509,12.4738
12.7700,12.4700
12.9200,12.4700
12.9391,12.4738
12.9554,12.4846
12.9662,12.5009
12.9700,12.5200
12.9700,13.1400
12.9662,13.1591
12.9554,13.1754
12.9391,13.1862
12.9200,13.1900
Z" /> 
<path style="fill:#C83434; fill-opacity:1.0000; stroke:none;fill-rule:evenodd;"
d="M 12.7700,14.1100
12.7509,14.1062
12.7346,14.0954
12.7238,14.0791
12.7200,14.0600
12.7200,13.4400
12.7238,13.4209
12.7346,13.4046
12.7509,13.3938
12.7700,13.3900
12.9200,13.3900
12.9391,13.3938
12.9554,13.4046
12.9662,13.4209
12.9700,13.4400
12.9700,14.0600
12.9662,14.0791
12.9554,14.0954
12.9391,14.1062
12.9200,14.1100
Z" /> 
<path style="fill:#C83434; fill-opacity:1.0000; stroke:none;fill-rule:evenodd;"
d="M 12.4200,12.4395
12.4391,12.4433
12.4554,12.4541
12.4662,12.4704
12.4700,12.4895
12.4700,12.9645
12.4662,12.9836
12.4554,12.9999
12.4391,13.0107
12.4200,13.0145
12.2700,13.0145
12.2509,13.0107
12.2346,12.9999
12.2238,12.9836
12.2200,12.9645
12.2200,12.4895
12.2238,12.4704
12.2346,12.4541
12.2509,12.4433
12.2700,12.4395
Z" /> 
<path style="fill:#C83434; fill-opacity:1.0000; stroke:none;fill-rule:evenodd;"
d="M 12.4200,13.2145
12.4391,13.2183
12.4554,13.2291
12.4662,13.2454
12.4700,13.2645
12.4700,13.7395
12.4662,13.7586
12.4554,13.7749
12.4391,13.7857
12.4200,13.7895
12.2700,13.7895
12.2509,13.7857
12.2346,13.7749
12.2238,13.7586
12.2200,13.7395
12.2200,13.2645
12.2238,13.2454
12.2346,13.2291
12.2509,13.2183
12.2700,13.2145
Z" /> 
<path style="fill:#C83434; fill-opacity:1.0000; stroke:none;fill-rule:evenodd;"
d="M 11.1759,13.7612
11.1596,13.7504
11.1488,13.7341
11.1450,13.7150
11.1450,13.5650
11.1488,13.5459
11.1596,13.5296
11.1759,13.5188
11.1950,13.5150
11.4950,13.5150
11.4950,13.2650
11.1950,13.2650
11.1759,13.2612
11.1596,13.2504
11.1488,13.2341
11.1450,13.2150
11.1450,13.0650
11.1488,13.0459
11.1596,13.0296
11.1759,13.0188
11.1950,13.0150
11.6950,13.0150
11.7048,13.0155
11.7117,13.0183
11.7141,13.0188
11.7162,13.0202
11.7231,13.0230
11.7283,13.0283
11.7304,13.0296
11.7317,13.0317
11.7370,13.0369
11.7398,13.0438
11.7412,13.0459
11.7417,13.0483
11.7445,13.0551
11.7450,13.0650
11.7450,13.7150
11.7445,13.7248
11.7417,13.7317
11.7412,13.7341
11.7398,13.7362
11.7370,13.7431
11.7317,13.7483
11.7304,13.7504
11.7283,13.7517
11.7231,13.7570
11.7162,13.7598
11.7141,13.7612
11.7117,13.7617
11.7048,13.7645
11.6950,13.7650
11.1950,13.7650
Z" /> 
<path style="fill:#C83434; fill-opacity:1.0000; stroke:none;fill-rule:evenodd;"
d="M 11.1759,13.7612
11.1596,13.7504
11.1488,13.7341
11.1450,13.7150
11.1450,13.5650
11.1488,13.5459
11.1596,13.5296
11.1759,13.5188
11.1950,13.5150
11.4950,13.5150
11.4950,13.2650
11.1950,13.2650
11.1759,13.2612
11.1596,13.2504
11.1488,13.2341
11.1450,13.2150
11.1450,13.0650
11.1488,13.0459
11.1596,13.0296
11.1759,13.0188
11.1950,13.0150
11.6950,13.0150
11.7048,13.0155
11.7117,13.0183
11.7141,13.0188
11.7162,13.0202
11.7231,13.0230
11.7283,13.0283
11.7304,13.0296
11.7317,13.0317
11.7370,13.0369
11.7398,13.0438
11.7412,13.0459
11.7417,13.0483
11.7445,13.0551
11.7450,13.0650
11.7450,13.7150
11.7445,13.7248
11.7417,13.7317
11.7412,13.7341
11.7398,13.7362
11.7370,13.7431
11.7317,13.7483
11.7304,13.7504
11.7283,13.7517
11.7231,13.7570
11.7162,13.7598
11.7141,13.7612
11.7117,13.7617
11.7048,13.7645
11.6950,13.7650
11.1950,13.7650
Z" /> 
<path style="fill:#C83434; fill-opacity:1.0000; stroke:none;fill-rule:evenodd;"
d="M 11.7450,14.2150
11.7412,14.2341
11.7304,14.2504
11.7141,14.2612
11.6950,14.2650
11.1950,14.2650
11.1759,14.2612
11.1596,14.2504
11.1488,14.2341
11.1450,14.2150
11.1450,14.0650
11.1488,14.0459
11.1596,14.0296
11.1759,14.0188
11.1950,14.0150
11.6950,14.0150
11.7141,14.0188
11.7304,14.0296
11.7412,14.0459
11.7450,14.0650
Z" /> 
<path style="fill:#C83434; fill-opacity:1.0000; stroke:none;fill-rule:evenodd;"
d="M 11.7450,14.7150
11.7412,14.7341
11.7304,14.7504
11.7141,14.7612
11.6950,14.7650
11.1950,14.7650
11.1759,14.7612
11.1596,14.7504
11.1488,14.7341
11.1450,14.7150
11.1450,14.5650
11.1488,14.5459
11.1596,14.5296
11.1759,14.5188
11.1950,14.5150
11.6950,14.5150
11.7141,14.5188
11.7304,14.5296
11.7412,14.5459
11.7450,14.5650
Z" /> 
<path style="fill:#C83434; fill-opacity:1.0000; stroke:none;fill-rule:evenodd;"
d="M 16.4400,13.4800
16.3443,13.4610
16.2632,13.4068
16.2090,13.3257
16.1900,13.2300
16.1900,12.7300
16.2090,12.6343
16.2632,12.5532
16.3443,12.4990
16.4400,12.4800
17.3900,12.4800
17.4857,12.4990
17.5668,12.5532
17.6210,12.6343
17.6400,12.7300
17.6400,13.2300
17.6210,13.3257
17.5668,13.4068
17.4857,13.4610
17.3900,13.4800
Z" /> 
<path style="fill:#C83434; fill-opacity:1.0000; stroke:none;fill-rule:evenodd;"
d="M 16.4400,11.5800
16.3443,11.5610
16.2632,11.5068
16.2090,11.4257
16.1900,11.3300
16.1900,10.8300
16.2090,10.7343
16.2632,10.6532
16.3443,10.5990
16.4400,10.5800
17.3900,10.5800
17.4857,10.5990
17.5668,10.6532
17.6210,10.7343
17.6400,10.8300
17.6400,11.3300
17.6210,11.4257
17.5668,11.5068
17.4857,11.5610
17.3900,11.5800
Z" /> 
<path style="fill:#C83434; fill-opacity:1.0000; stroke:none;fill-rule:evenodd;"
d="M 15.0950,13.5900
15.0414,13.5793
14.9960,13.5490
14.9657,13.5036
14.9550,13.4500
14.9550,13.1700
14.9657,13.1164
14.9960,13.0710
15.0414,13.0407
15.0950,13.0300
15.4350,13.0300
15.4886,13.0407
15.5340,13.0710
15.5643,13.1164
15.5750,13.1700
15.5750,13.4500
15.5643,13.5036
15.5340,13.5490
15.4886,13.5793
15.4350,13.5900
Z" /> 
<path style="fill:#C83434; fill-opacity:1.0000; stroke:none;fill-rule:evenodd;"
d="M 15.0950,12.6300
15.0414,12.6193
14.9960,12.5890
14.9657,12.5436
14.9550,12.4900
14.9550,12.2100
14.9657,12.1564
14.9960,12.1110
15.0414,12.0807
15.0950,12.0700
15.4350,12.0700
15.4886,12.0807
15.5340,12.1110
15.5643,12.1564
15.5750,12.2100
15.5750,12.4900
15.5643,12.5436
15.5340,12.5890
15.4886,12.6193
15.4350,12.6300
Z" /> 
<path style="fill:#C83434; fill-opacity:1.0000; stroke:none;fill-rule:evenodd;"
d="M 6.0950,13.5000
5.9993,13.4810
5.9182,13.4268
5.8640,13.3457
5.8450,13.2500
5.8450,12.7500
5.8640,12.6543
5.9182,12.5732
5.9993,12.5190
6.0950,12.5000
7.0450,12.5000
7.1407,12.5190
7.2218,12.5732
7.2760,12.6543
7.2950,12.7500
7.2950,13.2500
7.2760,13.3457
7.2218,13.4268
7.1407,13.4810
7.0450,13.5000
Z" /> 
<path style="fill:#C83434; fill-opacity:1.0000; stroke:none;fill-rule:evenodd;"
d="M 6.0950,11.6000
5.9993,11.5810
5.9182,11.5268
5.8640,11.4457
5.8450,11.3500
5.8450,10.8500
5.8640,10.7543
5.9182,10.6732
5.9993,10.6190
6.0950,10.6000
7.0450,10.6000
7.1407,10.6190
7.2218,10.6732
7.2760,10.7543
7.2950,10.8500
7.2950,11.3500
7.2760,11.4457
7.2218,11.5268
7.1407,11.5810
7.0450,11.6000
Z" /> 
<path style="fill:#C83434; fill-opacity:1.0000; stroke:none;fill-rule:evenodd;"
d="M 11.8400,18.8700
11.7883,18.8597
11.7445,18.8305
11.7153,18.7867
11.7050,18.7350
11.7050,18.4650
11.7153,18.4133
11.7445,18.3695
11.7883,18.3403
11.8400,18.3300
12.2100,18.3300
12.2617,18.3403
12.3055,18.3695
12.3347,18.4133
12.3450,18.4650
12.3450,18.7350
12.3347,18.7867
12.3055,18.8305
12.2617,18.8597
12.2100,18.8700
Z" /> 
<path style="fill:#C83434; fill-opacity:1.0000; stroke:none;fill-rule:evenodd;"
d="M 11.8400,17.8500
11.7883,17.8397
11.7445,17.8105
11.7153,17.7667
11.7050,17.7150
11.7050,17.4450
11.7153,17.3933
11.7445,17.3495
11.7883,17.3203
11.8400,17.3100
12.2100,17.3100
12.2617,17.3203
12.3055,17.3495
12.3347,17.3933
12.3450,17.4450
12.3450,17.7150
12.3347,17.7667
12.3055,17.8105
12.2617,17.8397
12.2100,17.8500
Z" /> 
<path style="fill:#C83434; fill-opacity:1.0000; stroke:none;fill-rule:evenodd;"
d="M 13.5350,15.8700
13.5886,15.8807
13.6340,15.9110
13.6643,15.9564
13.6750,16.0100
13.6750,16.2900
13.6643,16.3436
13.6340,16.3890
13.5886,16.4193
13.5350,16.4300
13.1950,16.4300
13.1414,16.4193
13.0960,16.3890
13.0657,16.3436
13.0550,16.2900
13.0550,16.0100
13.0657,15.9564
13.0960,15.9110
13.1414,15.8807
13.1950,15.8700
Z" /> 
<path style="fill:#C83434; fill-opacity:1.0000; stroke:none;fill-rule:evenodd;"
d="M 13.5350,16.8300
13.5886,16.8407
13.6340,16.8710
13.6643,16.9164
13.6750,16.9700
13.6750,17.2500
13.6643,17.3036
13.6340,17.3490
13.5886,17.3793
13.5350,17.3900
13.1950,17.3900
13.1414,17.3793
13.0960,17.3490
13.0657,17.3036
13.0550,17.2500
13.0550,16.9700
13.0657,16.9164
13.0960,16.8710
13.1414,16.8407
13.1950,16.8300
Z" /> 
<path style="fill:#C83434; fill-opacity:1.0000; stroke:none;fill-rule:evenodd;"
d="M 16.5350,15.2250
16.5247,15.2767
16.4955,15.3205
16.4517,15.3497
16.4000,15.3600
16.1300,15.3600
16.0783,15.3497
16.0345,15.3205
16.0053,15.2767
15.9950,15.2250
15.9950,14.8550
16.0053,14.8033
16.0345,14.7595
16.0783,14.7303
16.1300,14.7200
16.4000,14.7200
16.4517,14.7303
16.4955,14.7595
16.5247,14.8033
16.5350,14.8550
Z" /> 
<path style="fill:#C83434; fill-opacity:1.0000; stroke:none;fill-rule:evenodd;"
d="M 15.5150,15.2250
15.5047,15.2767
15.4755,15.3205
15.4317,15.3497
15.3800,15.3600
15.1100,15.3600
15.0583,15.3497
15.0145,15.3205
14.9853,15.2767
14.9750,15.2250
14.9750,14.8550
14.9853,14.8033
15.0145,14.7595
15.0583,14.7303
15.1100,14.7200
15.3800,14.7200
15.4317,14.7303
15.4755,14.7595
15.5047,14.8033
15.5150,14.8550
Z" /> 
<path style="fill:#C83434; fill-opacity:1.0000; stroke:none;fill-rule:evenodd;"
d="M 16.5450,16.4050
16.5347,16.4567
16.5055,16.5005
16.4617,16.5297
16.4100,16.5400
16.1400,16.5400
16.0883,16.5297
16.0445,16.5005
16.0153,16.4567
16.0050,16.4050
16.0050,16.0350
16.0153,15.9833
16.0445,15.9395
16.0883,15.9103
16.1400,15.9000
16.4100,15.9000
16.4617,15.9103
16.5055,15.9395
16.5347,15.9833
16.5450,16.0350
Z" /> 
<path style="fill:#C83434; fill-opacity:1.0000; stroke:none;fill-rule:evenodd;"
d="M 15.5250,16.4050
15.5147,16.4567
15.4855,16.5005
15.4417,16.5297
15.3900,16.5400
15.1200,16.5400
15.0683,16.5297
15.0245,16.5005
14.9953,16.4567
14.9850,16.4050
14.9850,16.0350
14.9953,15.9833
15.0245,15.9395
15.0683,15.9103
15.1200,15.9000
15.3900,15.9000
15.4417,15.9103
15.4855,15.9395
15.5147,15.9833
15.5250,16.0350
Z" /> 
<circle cx="23.7050" cy="1.0900" r="0.2500" /> 
<circle cx="13.4350" cy="14.2800" r="0.2250" /> 
<circle cx="0.8950" cy="11.3500" r="0.2500" /> 
<circle cx="16.5750" cy="10.0500" r="0.2500" /> 
<circle cx="10.1150" cy="11.5700" r="0.3000" /> 
<circle cx="8.3950" cy="10.0700" r="0.2500" /> 
<circle cx="20.9250" cy="10.0500" r="0.2500" /> 
<circle cx="13.3250" cy="11.9400" r="0.2250" /> 
<circle cx="6.9150" cy="10.0600" r="0.2500" /> 
<circle cx="0.9950" cy="4.8900" r="0.2500" /> 
<circle cx="23.8350" cy="6.0400" r="0.2500" /> 
<circle cx="15.8850" cy="1.0700" r="0.2500" /> 
<circle cx="18.7450" cy="10.0500" r="0.2500" /> 
<circle cx="6.2350" cy="10.0700" r="0.2500" /> 
<circle cx="21.6050" cy="10.0500" r="0.2500" /> 
<circle cx="19.4250" cy="10.0500" r="0.2500" /> 
<circle cx="12.3177" cy="11.9573" r="0.2250" /> 
<circle cx="23.8050" cy="11.0600" r="0.2500" /> 
<circle cx="23.8650" cy="16.6800" r="0.2500" /> 
<circle cx="15.2650" cy="16.9800" r="0.2500" /> 
<circle cx="10.6950" cy="15.0200" r="0.2500" /> 
<circle cx="9.0750" cy="10.0700" r="0.2500" /> 
<circle cx="8.9350" cy="21.9500" r="0.2500" /> 
<circle cx="1.0350" cy="1.0800" r="0.2500" /> 
<circle cx="12.2650" cy="14.2900" r="0.2250" /> 
<circle cx="12.8350" cy="11.7100" r="0.2250" /> 
<circle cx="23.7150" cy="21.9200" r="0.2500" /> 
<circle cx="8.9350" cy="1.0700" r="0.2500" /> 
<circle cx="14.2850" cy="15.7300" r="0.2500" /> 
<circle cx="16.3750" cy="21.9700" r="0.2500" /> 
<circle cx="15.5250" cy="11.5800" r="0.3000" /> 
<circle cx="1.0550" cy="21.8500" r="0.2500" /> 
<circle cx="0.9250" cy="16.8300" r="0.2500" /> 
<circle cx="14.1150" cy="17.1000" r="0.2500" /> 
<circle cx="17.2550" cy="10.0500" r="0.2500" /> 
</g>
<g style="fill:none; 
stroke:#C83434; stroke-width:0.4000; stroke-opacity:1; 
stroke-linecap:round; stroke-linejoin:round;">
<path d="M8.3950 10.7500
L8.7450 11.1000
" />
<path d="M15.2550 16.2200
L15.2550 16.9700
" />
<path d="M20.9250 10.0500
L20.9250 10.7400
" />
<path d="M15.5250 12.0900
L15.2650 12.3500
" />
</g>
<g style="fill:none; 
stroke:#C83434; stroke-width:0.2000; stroke-opacity:1; 
stroke-linecap:round; stroke-linejoin:round;">
<path d="M12.8450 12.4845
L12.8450 12.8300
" />
</g>
<g style="fill:none; 
stroke:#C83434; stroke-width:0.4000; stroke-opacity:1; 
stroke-linecap:round; stroke-linejoin:round;">
<path d="M9.0750 10.0700
L9.0750 10.7700
" />
</g>
<g style="fill:none; 
stroke:#C83434; stroke-width:0.2000; stroke-opacity:1; 
stroke-linecap:round; stroke-linejoin:round;">
<path d="M14.2450 14.1400
L13.5750 14.1400
" />
</g>
<g style="fill:none; 
stroke:#C83434; stroke-width:0.4000; stroke-opacity:1; 
stroke-linecap:round; stroke-linejoin:round;">
<path d="M6.9150 10.0600
L6.9150 10.7550
" />
</g>
<g style="fill:none; 
stroke:#C83434; stroke-width:0.3000; stroke-opacity:1; 
stroke-linecap:round; stroke-linejoin:round;">
<path d="M11.0650 15.0200
L11.4450 14.6400
" />
</g>
<g style="fill:none; 
stroke:#C83434; stroke-width:0.4000; stroke-opacity:1; 
stroke-linecap:round; stroke-linejoin:round;">
<path d="M13.5950 15.0400
L14.2850 15.7300
" />
<path d="M20.9250 10.7400
L21.2650 11.0800
" />
<path d="M19.4250 10.7450
L19.0900 11.0800
" />
<path d="M18.7450 10.7350
L19.0900 11.0800
" />
<path d="M21.6050 10.7400
L21.2650 11.0800
" />
</g>
<g style="fill:none; 
stroke:#C83434; stroke-width:0.2000; stroke-opacity:1; 
stroke-linecap:round; stroke-linejoin:round;">
<path d="M13.4350 14.2800
L13.3750 14.2800
" />
<path d="M12.3050 14.2900
L12.8450 13.7500
" />
</g>
<g style="fill:none; 
stroke:#C83434; stroke-width:0.4000; stroke-opacity:1; 
stroke-linecap:round; stroke-linejoin:round;">
<path d="M15.5250 11.5800
L15.5250 12.0900
" />
</g>
<g style="fill:none; 
stroke:#C83434; stroke-width:0.2000; stroke-opacity:1; 
stroke-linecap:round; stroke-linejoin:round;">
<path d="M12.2650 14.2900
L12.3050 14.2900
" />
<path d="M12.8450 11.7200
L12.8350 11.7100
" />
</g>
<g style="fill:none; 
stroke:#C83434; stroke-width:0.4000; stroke-opacity:1; 
stroke-linecap:round; stroke-linejoin:round;">
<path d="M8.3950 10.0700
L8.3950 10.7500
" />
<path d="M10.6950 15.0200
L11.0650 15.0200
" />
</g>
<g style="fill:none; 
stroke:#C83434; stroke-width:0.2000; stroke-opacity:1; 
stroke-linecap:round; stroke-linejoin:round;">
<path d="M12.8450 12.8300
L12.8450 12.1600
" />
</g>
<g style="fill:none; 
stroke:#C83434; stroke-width:0.4000; stroke-opacity:1; 
stroke-linecap:round; stroke-linejoin:round;">
<path d="M21.6050 10.0500
L21.6050 10.7400
" />
<path d="M17.2550 10.0500
L17.2550 10.7400
" />
<path d="M13.3650 17.1100
L14.1050 17.1100
" />
<path d="M19.4250 10.0500
L19.4250 10.7450
" />
<path d="M10.1150 12.0700
L10.3950 12.3500
" />
<path d="M18.7450 10.0500
L18.7450 10.7350
" />
</g>
<g style="fill:none; 
stroke:#C83434; stroke-width:0.2000; stroke-opacity:1; 
stroke-linecap:round; stroke-linejoin:round;">
<path d="M13.3750 14.2800
L12.8450 13.7500
" />
</g>
<g style="fill:none; 
stroke:#C83434; stroke-width:0.4000; stroke-opacity:1; 
stroke-linecap:round; stroke-linejoin:round;">
<path d="M6.9150 10.7550
L6.5700 11.1000
" />
</g>
<g style="fill:none; 
stroke:#C83434; stroke-width:0.2000; stroke-opacity:1; 
stroke-linecap:round; stroke-linejoin:round;">
<path d="M12.8450 12.1600
L12.8450 11.7200
" />
<path d="M12.8450 12.4200
L12.8450 12.8300
" />
</g>
<g style="fill:none; 
stroke:#C83434; stroke-width:0.4000; stroke-opacity:1; 
stroke-linecap:round; stroke-linejoin:round;">
<path d="M16.5750 10.0500
L16.5750 10.7400
" />
<path d="M10.1150 11.5700
L10.1150 12.0700
" />
<path d="M6.2350 10.7650
L6.5700 11.1000
" />
<path d="M9.0750 10.7700
L8.7450 11.1000
" />
<path d="M6.2350 10.0700
L6.2350 10.7650
" />
</g>
<g style="fill:none; 
stroke:#C83434; stroke-width:0.3000; stroke-opacity:1; 
stroke-linecap:round; stroke-linejoin:round;">
<path d="M12.8450 13.7500
L12.8450 12.8300
" />
</g>
<g style="fill:none; 
stroke:#C83434; stroke-width:0.2000; stroke-opacity:1; 
stroke-linecap:round; stroke-linejoin:round;">
<path d="M12.3177 11.9573
L12.8450 12.4845
" />
</g>
<g style="fill:none; 
stroke:#C83434; stroke-width:0.4000; stroke-opacity:1; 
stroke-linecap:round; stroke-linejoin:round;">
<path d="M17.2550 10.7400
L16.9150 11.0800
" />
<path d="M16.5750 10.7400
L16.9150 11.0800
" />
<path d="M14.1050 17.1100
L14.1150 17.1000
" />
</g>
<g style="fill:none; 
stroke:#C83434; stroke-width:0.2000; stroke-opacity:1; 
stroke-linecap:round; stroke-linejoin:round;">
<path d="M13.3250 11.9400
L12.8450 12.4200
" />
<path d="M13.5750 14.1400
L13.4350 14.2800
" />
</g>
<g style="fill:none; 
stroke:#C83434; stroke-width:0.4000; stroke-opacity:1; 
stroke-linecap:round; stroke-linejoin:round;">
<path d="M15.2550 16.9700
L15.2650 16.9800
" />
</g>
<g style="fill:none; 
stroke:#C83434; stroke-width:0.3000; stroke-opacity:1; 
stroke-linecap:round; stroke-linejoin:round;">
<path d="M11.6300 12.0120
L12.3450 12.7270
" />
<path d="M12.3450 12.7270
L12.3450 13.5020
" />
</g>
<g style="fill:none; 
stroke:#C83434; stroke-width:0.6000; stroke-opacity:1; 
stroke-linecap:round; stroke-linejoin:round;">
<path d="M11.6300 9.1800
L11.6300 12.0120
" />
</g>
<g style="fill:none; 
stroke:#C83434; stroke-width:0.3000; stroke-opacity:1; 
stroke-linecap:round; stroke-linejoin:round;">
<path d="M13.3450 13.5020
L13.3450 12.7270
" />
<path d="M14.0000 12.0720
L13.3450 12.7270
" />
</g>
<g style="fill:none; 
stroke:#C83434; stroke-width:0.6000; stroke-opacity:1; 
stroke-linecap:round; stroke-linejoin:round;">
<path d="M14.0000 9.1800
L14.0000 12.0720
" />
</g>
<g style="fill:none; 
stroke:#C83434; stroke-width:0.4000; stroke-opacity:1; 
stroke-linecap:round; stroke-linejoin:round;">
<path d="M10.4550 14.1400
L9.8650 14.7300
" />
<path d="M11.4450 14.1400
L10.4550 14.1400
" />
<path d="M9.8650 14.7300
L9.8650 16.1600
" />
<path d="M12.0950 15.6800
L12.0950 15.0400
" />
<path d="M9.8650 16.1600
L9.9250 16.2200
" />
<path d="M9.9250 16.2200
L11.5550 16.2200
" />
<path d="M11.5550 16.2200
L12.0950 15.6800
" />
</g>
<g style="fill:none; 
stroke:#C83434; stroke-width:0.3000; stroke-opacity:1; 
stroke-linecap:round; stroke-linejoin:round;">
<path d="M12.5950 15.0400
L12.5950 17.0100
" />
<path d="M12.5950 17.0100
L12.0250 17.5800
" />
<path d="M13.0950 15.8800
L13.3650 16.1500
" />
<path d="M13.0950 15.0400
L13.0950 15.8800
" />
</g>
<g style="fill:none; 
stroke:#C83434; stroke-width:0.4000; stroke-opacity:1; 
stroke-linecap:round; stroke-linejoin:round;">
<path d="M15.2450 15.0400
L15.2450 15.1900
" />
<path d="M14.2450 14.6400
L14.8450 14.6400
" />
<path d="M15.2450 15.1900
L16.2750 16.2200
" />
<path d="M14.8450 14.6400
L15.2450 15.0400
" />
<path style="fill:#C83434; fill-opacity:1.0000; stroke:none;fill-rule:evenodd;"
d="M 22.2484,12.0350
22.2634,12.0394
22.2784,12.0491
22.2954,12.0541
22.3221,12.0772
22.3233,12.0786
22.3508,12.1333
22.3524,12.1408
22.3553,12.1670
22.3747,21.0471
22.3697,21.0820
22.3654,21.0970
22.3558,21.1121
22.3508,21.1291
22.3278,21.1559
22.3266,21.1569
22.2713,21.1846
22.2632,21.1863
22.2363,21.1891
2.4456,21.0609
2.4107,21.0557
2.3958,21.0512
2.3808,21.0414
2.3638,21.0363
2.3373,21.0130
2.3359,21.0114
2.3089,20.9569
2.3074,20.9499
2.3046,20.9242
2.2958,18.1100
2.2854,14.8118
2.2904,14.7768
2.2922,14.7705
2.2947,14.7618
2.3043,14.7468
2.3093,14.7297
2.3323,14.7029
2.3337,14.7017
2.3884,14.6741
2.3959,14.6724
2.4222,14.6695
4.9038,14.6605
4.9388,14.6654
4.9538,14.6698
4.9688,14.6793
4.9859,14.6843
5.0127,14.7073
5.0127,14.7073
5.0127,14.7073
5.0140,14.7088
5.0416,14.7632
5.0432,14.7705
5.0462,14.7965
5.0750,18.1000
5.0750,18.1000
5.0750,18.1000
5.0750,18.1000
5.0750,18.1000
5.0750,18.1000
5.0922,18.1070
5.1001,18.1028
5.1263,18.0999
12.0250,18.0900
13.0734,18.0783
13.0744,18.0783
13.0757,18.0783
13.0766,18.0783
16.8150,18.1100
16.8150,15.4900
16.8150,15.4900
16.8150,15.4900
16.1885,15.4965
16.1885,15.4965
16.1885,15.4965
16.1885,15.4965
16.1535,15.4918
16.1284,15.4847
16.0744,15.4531
15.8919,15.2705
15.8707,15.2422
15.8581,15.2190
15.8429,15.1604
15.8407,14.8118
15.8395,14.6100
15.8395,14.6100
15.8378,14.6026
15.8339,14.5915
15.8278,14.5657
15.8244,14.5389
15.8150,13.8327
15.4550,13.8300
15.4550,13.8300
15.4550,13.8300
15.4550,13.8300
15.4550,13.8300
14.9569,13.8400
14.9558,13.8400
14.9544,13.8400
14.9531,13.8400
14.6561,13.8400
14.6319,13.8376
14.6063,13.8325
14.5945,13.8296
14.5927,13.8290
14.5443,13.8194
14.5197,13.8145
14.5197,13.8145
14.0668,13.8145
14.0668,13.8145
14.0668,13.8145
14.0319,13.8095
14.0169,13.8051
13.9581,13.7673
13.9581,13.7673
13.9581,13.7673
13.9581,13.7673
13.9570,13.7660
13.9295,13.7111
13.9278,13.7035
13.9250,13.6772
13.9250,12.9809
13.9259,12.9750
13.9300,12.9460
13.9344,12.9310
13.9722,12.8722
13.9737,12.8709
14.0281,12.8435
14.0353,12.8419
14.0612,12.8390
14.6827,12.8343
14.7429,12.8494
14.7577,12.8575
14.7578,12.8575
14.7952,12.8680
14.8250,12.8763
14.8830,12.8840
15.5204,12.8762
15.5503,12.8736
15.5858,12.8680
15.6677,12.8359
15.6677,12.8359
15.6677,12.8359
15.7258,12.7970
15.7258,12.7970
15.7258,12.7970
15.7693,12.7579
15.9943,12.4886
16.0354,12.4565
16.8767,12.0486
16.9031,12.0393
16.9298,12.0331
16.9575,12.0300
22.2134,12.0300
Z" /> 
<path style="fill:#C83434; fill-opacity:1.0000; stroke:none;fill-rule:evenodd;"
d="M 24.1525,0.5202
24.1983,0.5730
24.2095,0.6245
24.2095,22.2555
24.1898,22.3225
24.1370,22.3683
24.0855,22.3795
0.6245,22.3795
0.5575,22.3598
0.5117,22.3070
0.5005,22.2555
0.5005,21.5000
1.8350,21.5000
1.8350,21.5000
22.9050,21.5000
22.9050,21.5000
22.8950,11.7300
21.9551,11.7266
16.2850,11.8200
16.2850,11.8200
15.6116,12.6262
15.5535,12.6650
15.5179,12.6707
14.8805,12.6785
14.8132,12.6596
14.7668,12.6074
14.7550,12.5545
14.7550,11.8140
14.7747,11.7470
14.8275,11.7012
14.8790,11.6900
15.1250,11.6900
15.2262,11.3800
15.2450,6.7100
10.3350,6.6800
10.3450,11.3100
10.8378,11.7935
10.8719,11.8545
10.8750,11.8821
10.8750,12.5260
10.8553,12.5930
10.8025,12.6388
10.7510,12.6500
10.1646,12.6500
10.0976,12.6303
10.0519,12.5776
9.7050,11.8200
9.7050,11.8200
9.7050,11.8200
1.8841,11.6571
1.8841,11.6571
1.8350,21.5000
0.5005,21.5000
0.5005,0.6245
0.5202,0.5575
0.5730,0.5117
0.6245,0.5005
24.0855,0.5005
Z" /> 
<path style="fill:#C83434; fill-opacity:1.0000; stroke:none;fill-rule:evenodd;"
d="M 8.7306,12.0530
8.7567,12.0589
8.7826,12.0678
8.8143,12.0828
9.0061,12.1734
9.7752,12.5370
9.8274,12.5834
9.8349,12.5975
9.8650,12.6632
9.8650,12.6632
9.8966,12.7123
9.9132,12.7314
9.9423,12.7650
9.9423,12.7650
9.9423,12.7650
9.9599,12.7828
9.9599,12.7828
10.0397,12.8275
10.1067,12.8472
10.1646,12.8555
10.7510,12.8555
10.7510,12.8555
10.7947,12.8508
10.8462,12.8396
10.8509,12.8384
10.8639,12.8353
10.8641,12.8362
10.8979,12.8300
11.7532,12.8300
11.7881,12.8350
11.8031,12.8394
11.8619,12.8772
11.8619,12.8772
11.8619,12.8772
11.8619,12.8772
11.8630,12.8785
11.8905,12.9334
11.8922,12.9410
11.8950,12.9673
11.8950,13.6382
11.8931,13.6596
11.8915,13.6689
11.8901,13.6718
11.8900,13.6731
11.8887,13.6775
11.8877,13.6772
11.8836,13.6933
11.8843,13.6936
11.8832,13.6964
11.8826,13.6972
11.8822,13.6990
11.8809,13.7017
11.8797,13.7011
11.8708,13.7131
11.8679,13.7228
11.8626,13.7274
11.8605,13.7316
11.8540,13.7355
11.8449,13.7476
11.8458,13.7486
11.8447,13.7496
11.8428,13.7504
11.8414,13.7523
11.8390,13.7541
11.8379,13.7527
11.8285,13.7569
11.8151,13.7686
11.7813,13.7785
11.7798,13.7787
11.7621,13.7800
11.6720,13.7800
11.6399,13.7758
11.6082,13.7673
11.5950,13.7637
11.5921,13.7628
11.5906,13.7626
11.5797,13.7596
11.5788,13.7598
11.5607,13.7564
11.4977,13.7395
11.4977,13.7395
10.8757,13.7395
10.8233,13.7279
10.7147,13.6772
10.6350,13.6400
10.6350,13.6400
9.3550,13.6400
9.3640,14.9458
9.3640,14.9458
9.3640,14.9458
9.3592,14.9808
9.3549,14.9958
9.3176,15.0548
9.3167,15.0556
9.2609,15.0837
9.2523,15.0856
9.2248,15.0883
8.6539,15.0816
8.6191,15.0762
8.6041,15.0716
8.5458,15.0332
8.5458,15.0332
8.5441,15.0312
8.5176,14.9774
8.5163,14.9712
8.5134,14.9463
8.5050,14.2300
2.4274,14.2300
2.4274,14.2300
2.4274,14.2300
2.3925,14.2250
2.3775,14.2206
2.3187,14.1828
2.3176,14.1816
2.2901,14.1264
2.2884,14.1186
2.2856,14.0920
2.2871,13.7699
2.2944,12.1913
2.2995,12.1564
2.3040,12.1414
2.3420,12.0828
2.3436,12.0815
2.3982,12.0543
2.4055,12.0528
2.4316,12.0500
8.7034,12.0500
Z" /> 
<path style="fill:none; 
stroke:#D0D2CD; stroke-width:0.0500; stroke-opacity:1; 
stroke-linecap:round; stroke-linejoin:round;fill:none"
d="M 0.0000,0.0000
24.7100,0.0000
24.7100,22.8800
0.0000,22.8800
Z" /> 
</g>
<g style="fill:#FFFFFF; fill-opacity:1.0000; stroke:none;">
<circle cx="23.7050" cy="1.0900" r="0.1500" /> 
<circle cx="13.4350" cy="14.2800" r="0.1250" /> 
<circle cx="0.8950" cy="11.3500" r="0.1500" /> 
<circle cx="16.5750" cy="10.0500" r="0.1500" /> 
<circle cx="10.1150" cy="11.5700" r="0.2000" /> 
<circle cx="8.3950" cy="10.0700" r="0.1500" /> 
<circle cx="20.9250" cy="10.0500" r="0.1500" /> 
<circle cx="13.3250" cy="11.9400" r="0.1250" /> 
<circle cx="6.9150" cy="10.0600" r="0.1500" /> 
<circle cx="0.9950" cy="4.8900" r="0.1500" /> 
<circle cx="23.8350" cy="6.0400" r="0.1500" /> 
<circle cx="15.8850" cy="1.0700" r="0.1500" /> 
<circle cx="18.7450" cy="10.0500" r="0.1500" /> 
<circle cx="6.2350" cy="10.0700" r="0.1500" /> 
<circle cx="21.6050" cy="10.0500" r="0.1500" /> 
<circle cx="19.4250" cy="10.0500" r="0.1500" /> 
<circle cx="12.3177" cy="11.9573" r="0.1250" /> 
<circle cx="23.8050" cy="11.0600" r="0.1500" /> 
<circle cx="23.8650" cy="16.6800" r="0.1500" /> 
<circle cx="15.2650" cy="16.9800" r="0.1500" /> 
<circle cx="10.6950" cy="15.0200" r="0.1500" /> 
<circle cx="9.0750" cy="10.0700" r="0.1500" /> 
<circle cx="8.9350" cy="21.9500" r="0.1500" /> 
<circle cx="1.0350" cy="1.0800" r="0.1500" /> 
<circle cx="12.2650" cy="14.2900" r="0.1250" /> 
<circle cx="12.8350" cy="11.7100" r="0.1250" /> 
<circle cx="23.7150" cy="21.9200" r="0.1500" /> 
<circle cx="8.9350" cy="1.0700" r="0.1500" /> 
<circle cx="14.2850" cy="15.7300" r="0.1500" /> 
<circle cx="16.3750" cy="21.9700" r="0.1500" /> 
<circle cx="15.5250" cy="11.5800" r="0.2000" /> 
<circle cx="1.0550" cy="21.8500" r="0.1500" /> 
<circle cx="0.9250" cy="16.8300" r="0.1500" /> 
<circle cx="14.1150" cy="17.1000" r="0.1500" /> 
<circle cx="17.2550" cy="10.0500" r="0.1500" /> 
</g>
<g style="fill:#FFFFFF; fill-opacity:1.0000; stroke:none;">
<circle cx="3.3650" cy="8.0800" r="0.5000" /> 
</g>
<g style="fill:#FFFFFF; fill-opacity:1.0000; stroke:none;">
<circle cx="3.3650" cy="10.6200" r="0.5000" /> 
</g>
<g style="fill:#FFFFFF; fill-opacity:1.0000; stroke:none;">
<circle cx="3.3650" cy="13.1600" r="0.5000" /> 
</g>
<g style="fill:#FFFFFF; fill-opacity:1.0000; stroke:none;">
<circle cx="3.3650" cy="15.7000" r="0.5000" /> 
</g> 
</svg>
