<?xml version="1.0" standalone="no"?>
 <!DOCTYPE svg PUBLIC "-//W3C//DTD SVG 1.1//EN" 
 "http://www.w3.org/Graphics/SVG/1.1/DTD/svg11.dtd"> 
<svg
  xmlns:svg="http://www.w3.org/2000/svg"
  xmlns="http://www.w3.org/2000/svg"
  xmlns:xlink="http://www.w3.org/1999/xlink"
  xmlns:inkscape="http://www.inkscape.org/namespaces/inkscape"
  version="1.1"
  width="24.6888mm" height="22.8600mm" viewBox="0.0000 0.0000 24.6888 22.8600">
<title>SVG Image created as pcb-B_Cu.svg date 2026-04-27T04:52:18 </title>
  <desc>Image generated by PCBNEW </desc>
<g style="fill:#000000; fill-opacity:1.0000;stroke:#000000; stroke-opacity:1.0000;
stroke-linecap:round; stroke-linejoin:round;"
 transform="translate(0 0) scale(1 1)">
</g>
<g style="fill:none; 
stroke:#4D7FC4; stroke-width:0.1000; stroke-opacity:1; 
stroke-linecap:round; stroke-linejoin:round;">
<text x="15.5450" y="4.1101"
transform="scale(-1 1) translate(-31.090000 0)"
textLength="3.9381" font-size="0.6667" lengthAdjust="spacingAndGlyphs"
text-anchor="start" opacity="0" stroke-opacity="0">TPS63070</text>
<g class="stroked-text"><desc>TPS63070</desc>
<path d="M15.4316 3.5437
L15.1459 3.5437
" />
<path d="M15.2887 4.0437
L15.2887 3.5437
" />
<path d="M14.9792 4.0437
L14.9792 3.5437
" />
<path d="M14.9792 3.5437
L14.7887 3.5437
" />
<path d="M14.7887 3.5437
L14.7411 3.5675
" />
<path d="M14.7411 3.5675
L14.7173 3.5913
" />
<path d="M14.7173 3.5913
L14.6935 3.6389
" />
<path d="M14.6935 3.6389
L14.6935 3.7103
" />
<path d="M14.6935 3.7103
L14.7173 3.7580
" />
<path d="M14.7173 3.7580
L14.7411 3.7818
" />
<path d="M14.7411 3.7818
L14.7887 3.8056
" />
<path d="M14.7887 3.8056
L14.9792 3.8056
" />
<path d="M14.5030 4.0199
L14.4316 4.0437
" />
<path d="M14.4316 4.0437
L14.3125 4.0437
" />
<path d="M14.3125 4.0437
L14.2649 4.0199
" />
<path d="M14.2649 4.0199
L14.2411 3.9960
" />
<path d="M14.2411 3.9960
L14.2173 3.9484
" />
<path d="M14.2173 3.9484
L14.2173 3.9008
" />
<path d="M14.2173 3.9008
L14.2411 3.8532
" />
<path d="M14.2411 3.8532
L14.2649 3.8294
" />
<path d="M14.2649 3.8294
L14.3125 3.8056
" />
<path d="M14.3125 3.8056
L14.4078 3.7818
" />
<path d="M14.4078 3.7818
L14.4554 3.7580
" />
<path d="M14.4554 3.7580
L14.4792 3.7341
" />
<path d="M14.4792 3.7341
L14.5030 3.6865
" />
<path d="M14.5030 3.6865
L14.5030 3.6389
" />
<path d="M14.5030 3.6389
L14.4792 3.5913
" />
<path d="M14.4792 3.5913
L14.4554 3.5675
" />
<path d="M14.4554 3.5675
L14.4078 3.5437
" />
<path d="M14.4078 3.5437
L14.2887 3.5437
" />
<path d="M14.2887 3.5437
L14.2173 3.5675
" />
<path d="M13.7887 3.5437
L13.8840 3.5437
" />
<path d="M13.8840 3.5437
L13.9316 3.5675
" />
<path d="M13.9316 3.5675
L13.9554 3.5913
" />
<path d="M13.9554 3.5913
L14.0030 3.6627
" />
<path d="M14.0030 3.6627
L14.0268 3.7580
" />
<path d="M14.0268 3.7580
L14.0268 3.9484
" />
<path d="M14.0268 3.9484
L14.0030 3.9960
" />
<path d="M14.0030 3.9960
L13.9792 4.0199
" />
<path d="M13.9792 4.0199
L13.9316 4.0437
" />
<path d="M13.9316 4.0437
L13.8364 4.0437
" />
<path d="M13.8364 4.0437
L13.7887 4.0199
" />
<path d="M13.7887 4.0199
L13.7649 3.9960
" />
<path d="M13.7649 3.9960
L13.7411 3.9484
" />
<path d="M13.7411 3.9484
L13.7411 3.8294
" />
<path d="M13.7411 3.8294
L13.7649 3.7818
" />
<path d="M13.7649 3.7818
L13.7887 3.7580
" />
<path d="M13.7887 3.7580
L13.8364 3.7341
" />
<path d="M13.8364 3.7341
L13.9316 3.7341
" />
<path d="M13.9316 3.7341
L13.9792 3.7580
" />
<path d="M13.9792 3.7580
L14.0030 3.7818
" />
<path d="M14.0030 3.7818
L14.0268 3.8294
" />
<path d="M13.5744 3.5437
L13.2649 3.5437
" />
<path d="M13.2649 3.5437
L13.4316 3.7341
" />
<path d="M13.4316 3.7341
L13.3602 3.7341
" />
<path d="M13.3602 3.7341
L13.3125 3.7580
" />
<path d="M13.3125 3.7580
L13.2887 3.7818
" />
<path d="M13.2887 3.7818
L13.2649 3.8294
" />
<path d="M13.2649 3.8294
L13.2649 3.9484
" />
<path d="M13.2649 3.9484
L13.2887 3.9960
" />
<path d="M13.2887 3.9960
L13.3125 4.0199
" />
<path d="M13.3125 4.0199
L13.3602 4.0437
" />
<path d="M13.3602 4.0437
L13.5030 4.0437
" />
<path d="M13.5030 4.0437
L13.5506 4.0199
" />
<path d="M13.5506 4.0199
L13.5744 3.9960
" />
<path d="M12.9554 3.5437
L12.9078 3.5437
" />
<path d="M12.9078 3.5437
L12.8602 3.5675
" />
<path d="M12.8602 3.5675
L12.8364 3.5913
" />
<path d="M12.8364 3.5913
L12.8125 3.6389
" />
<path d="M12.8125 3.6389
L12.7887 3.7341
" />
<path d="M12.7887 3.7341
L12.7887 3.8532
" />
<path d="M12.7887 3.8532
L12.8125 3.9484
" />
<path d="M12.8125 3.9484
L12.8364 3.9960
" />
<path d="M12.8364 3.9960
L12.8602 4.0199
" />
<path d="M12.8602 4.0199
L12.9078 4.0437
" />
<path d="M12.9078 4.0437
L12.9554 4.0437
" />
<path d="M12.9554 4.0437
L13.0030 4.0199
" />
<path d="M13.0030 4.0199
L13.0268 3.9960
" />
<path d="M13.0268 3.9960
L13.0506 3.9484
" />
<path d="M13.0506 3.9484
L13.0744 3.8532
" />
<path d="M13.0744 3.8532
L13.0744 3.7341
" />
<path d="M13.0744 3.7341
L13.0506 3.6389
" />
<path d="M13.0506 3.6389
L13.0268 3.5913
" />
<path d="M13.0268 3.5913
L13.0030 3.5675
" />
<path d="M13.0030 3.5675
L12.9554 3.5437
" />
<path d="M12.6221 3.5437
L12.2887 3.5437
" />
<path d="M12.2887 3.5437
L12.5030 4.0437
" />
<path d="M12.0030 3.5437
L11.9554 3.5437
" />
<path d="M11.9554 3.5437
L11.9078 3.5675
" />
<path d="M11.9078 3.5675
L11.8840 3.5913
" />
<path d="M11.8840 3.5913
L11.8602 3.6389
" />
<path d="M11.8602 3.6389
L11.8364 3.7341
" />
<path d="M11.8364 3.7341
L11.8364 3.8532
" />
<path d="M11.8364 3.8532
L11.8602 3.9484
" />
<path d="M11.8602 3.9484
L11.8840 3.9960
" />
<path d="M11.8840 3.9960
L11.9078 4.0199
" />
<path d="M11.9078 4.0199
L11.9554 4.0437
" />
<path d="M11.9554 4.0437
L12.0030 4.0437
" />
<path d="M12.0030 4.0437
L12.0506 4.0199
" />
<path d="M12.0506 4.0199
L12.0745 3.9960
" />
<path d="M12.0745 3.9960
L12.0983 3.9484
" />
<path d="M12.0983 3.9484
L12.1221 3.8532
" />
<path d="M12.1221 3.8532
L12.1221 3.7341
" />
<path d="M12.1221 3.7341
L12.0983 3.6389
" />
<path d="M12.0983 3.6389
L12.0745 3.5913
" />
<path d="M12.0745 3.5913
L12.0506 3.5675
" />
<path d="M12.0506 3.5675
L12.0030 3.5437
" />
</g><text x="15.5450" y="4.9150"
transform="scale(-1 1) translate(-31.090000 0)"
textLength="6.6048" font-size="0.6667" lengthAdjust="spacingAndGlyphs"
text-anchor="start" opacity="0" stroke-opacity="0">3.3v Buck-boost</text>
<g class="stroked-text"><desc>3.3v Buck-boost</desc>
<path d="M15.4078 4.3486
L15.0983 4.3486
" />
<path d="M15.0983 4.3486
L15.2649 4.5391
" />
<path d="M15.2649 4.5391
L15.1935 4.5391
" />
<path d="M15.1935 4.5391
L15.1459 4.5629
" />
<path d="M15.1459 4.5629
L15.1221 4.5867
" />
<path d="M15.1221 4.5867
L15.0983 4.6344
" />
<path d="M15.0983 4.6344
L15.0983 4.7534
" />
<path d="M15.0983 4.7534
L15.1221 4.8010
" />
<path d="M15.1221 4.8010
L15.1459 4.8248
" />
<path d="M15.1459 4.8248
L15.1935 4.8486
" />
<path d="M15.1935 4.8486
L15.3364 4.8486
" />
<path d="M15.3364 4.8486
L15.3840 4.8248
" />
<path d="M15.3840 4.8248
L15.4078 4.8010
" />
<path d="M14.8840 4.8010
L14.8602 4.8248
" />
<path d="M14.8602 4.8248
L14.8840 4.8486
" />
<path d="M14.8840 4.8486
L14.9078 4.8248
" />
<path d="M14.9078 4.8248
L14.8840 4.8010
" />
<path d="M14.8840 4.8010
L14.8840 4.8486
" />
<path d="M14.6935 4.3486
L14.3840 4.3486
" />
<path d="M14.3840 4.3486
L14.5506 4.5391
" />
<path d="M14.5506 4.5391
L14.4792 4.5391
" />
<path d="M14.4792 4.5391
L14.4316 4.5629
" />
<path d="M14.4316 4.5629
L14.4078 4.5867
" />
<path d="M14.4078 4.5867
L14.3840 4.6344
" />
<path d="M14.3840 4.6344
L14.3840 4.7534
" />
<path d="M14.3840 4.7534
L14.4078 4.8010
" />
<path d="M14.4078 4.8010
L14.4316 4.8248
" />
<path d="M14.4316 4.8248
L14.4792 4.8486
" />
<path d="M14.4792 4.8486
L14.6221 4.8486
" />
<path d="M14.6221 4.8486
L14.6697 4.8248
" />
<path d="M14.6697 4.8248
L14.6935 4.8010
" />
<path d="M14.2173 4.5153
L14.0983 4.8486
" />
<path d="M14.0983 4.8486
L13.9792 4.5153
" />
<path d="M13.2411 4.5867
L13.1697 4.6105
" />
<path d="M13.1697 4.6105
L13.1459 4.6344
" />
<path d="M13.1459 4.6344
L13.1221 4.6820
" />
<path d="M13.1221 4.6820
L13.1221 4.7534
" />
<path d="M13.1221 4.7534
L13.1459 4.8010
" />
<path d="M13.1459 4.8010
L13.1697 4.8248
" />
<path d="M13.1697 4.8248
L13.2173 4.8486
" />
<path d="M13.2173 4.8486
L13.4078 4.8486
" />
<path d="M13.4078 4.8486
L13.4078 4.3486
" />
<path d="M13.4078 4.3486
L13.2411 4.3486
" />
<path d="M13.2411 4.3486
L13.1935 4.3724
" />
<path d="M13.1935 4.3724
L13.1697 4.3963
" />
<path d="M13.1697 4.3963
L13.1459 4.4439
" />
<path d="M13.1459 4.4439
L13.1459 4.4915
" />
<path d="M13.1459 4.4915
L13.1697 4.5391
" />
<path d="M13.1697 4.5391
L13.1935 4.5629
" />
<path d="M13.1935 4.5629
L13.2411 4.5867
" />
<path d="M13.2411 4.5867
L13.4078 4.5867
" />
<path d="M12.6935 4.5153
L12.6935 4.8486
" />
<path d="M12.9078 4.5153
L12.9078 4.7772
" />
<path d="M12.9078 4.7772
L12.8840 4.8248
" />
<path d="M12.8840 4.8248
L12.8364 4.8486
" />
<path d="M12.8364 4.8486
L12.7649 4.8486
" />
<path d="M12.7649 4.8486
L12.7173 4.8248
" />
<path d="M12.7173 4.8248
L12.6935 4.8010
" />
<path d="M12.2411 4.8248
L12.2887 4.8486
" />
<path d="M12.2887 4.8486
L12.3840 4.8486
" />
<path d="M12.3840 4.8486
L12.4316 4.8248
" />
<path d="M12.4316 4.8248
L12.4554 4.8010
" />
<path d="M12.4554 4.8010
L12.4792 4.7534
" />
<path d="M12.4792 4.7534
L12.4792 4.6105
" />
<path d="M12.4792 4.6105
L12.4554 4.5629
" />
<path d="M12.4554 4.5629
L12.4316 4.5391
" />
<path d="M12.4316 4.5391
L12.3840 4.5153
" />
<path d="M12.3840 4.5153
L12.2887 4.5153
" />
<path d="M12.2887 4.5153
L12.2411 4.5391
" />
<path d="M12.0268 4.8486
L12.0268 4.3486
" />
<path d="M11.9792 4.6582
L11.8364 4.8486
" />
<path d="M11.8364 4.5153
L12.0268 4.7058
" />
<path d="M11.6221 4.6582
L11.2411 4.6582
" />
<path d="M11.0030 4.8486
L11.0030 4.3486
" />
<path d="M11.0030 4.5391
L10.9554 4.5153
" />
<path d="M10.9554 4.5153
L10.8602 4.5153
" />
<path d="M10.8602 4.5153
L10.8125 4.5391
" />
<path d="M10.8125 4.5391
L10.7887 4.5629
" />
<path d="M10.7887 4.5629
L10.7649 4.6105
" />
<path d="M10.7649 4.6105
L10.7649 4.7534
" />
<path d="M10.7649 4.7534
L10.7887 4.8010
" />
<path d="M10.7887 4.8010
L10.8125 4.8248
" />
<path d="M10.8125 4.8248
L10.8602 4.8486
" />
<path d="M10.8602 4.8486
L10.9554 4.8486
" />
<path d="M10.9554 4.8486
L11.0030 4.8248
" />
<path d="M10.4792 4.8486
L10.5268 4.8248
" />
<path d="M10.5268 4.8248
L10.5506 4.8010
" />
<path d="M10.5506 4.8010
L10.5744 4.7534
" />
<path d="M10.5744 4.7534
L10.5744 4.6105
" />
<path d="M10.5744 4.6105
L10.5506 4.5629
" />
<path d="M10.5506 4.5629
L10.5268 4.5391
" />
<path d="M10.5268 4.5391
L10.4792 4.5153
" />
<path d="M10.4792 4.5153
L10.4078 4.5153
" />
<path d="M10.4078 4.5153
L10.3602 4.5391
" />
<path d="M10.3602 4.5391
L10.3364 4.5629
" />
<path d="M10.3364 4.5629
L10.3125 4.6105
" />
<path d="M10.3125 4.6105
L10.3125 4.7534
" />
<path d="M10.3125 4.7534
L10.3364 4.8010
" />
<path d="M10.3364 4.8010
L10.3602 4.8248
" />
<path d="M10.3602 4.8248
L10.4078 4.8486
" />
<path d="M10.4078 4.8486
L10.4792 4.8486
" />
<path d="M10.0268 4.8486
L10.0744 4.8248
" />
<path d="M10.0744 4.8248
L10.0983 4.8010
" />
<path d="M10.0983 4.8010
L10.1221 4.7534
" />
<path d="M10.1221 4.7534
L10.1221 4.6105
" />
<path d="M10.1221 4.6105
L10.0983 4.5629
" />
<path d="M10.0983 4.5629
L10.0744 4.5391
" />
<path d="M10.0744 4.5391
L10.0268 4.5153
" />
<path d="M10.0268 4.5153
L9.9554 4.5153
" />
<path d="M9.9554 4.5153
L9.9078 4.5391
" />
<path d="M9.9078 4.5391
L9.8840 4.5629
" />
<path d="M9.8840 4.5629
L9.8602 4.6105
" />
<path d="M9.8602 4.6105
L9.8602 4.7534
" />
<path d="M9.8602 4.7534
L9.8840 4.8010
" />
<path d="M9.8840 4.8010
L9.9078 4.8248
" />
<path d="M9.9078 4.8248
L9.9554 4.8486
" />
<path d="M9.9554 4.8486
L10.0268 4.8486
" />
<path d="M9.6697 4.8248
L9.6221 4.8486
" />
<path d="M9.6221 4.8486
L9.5268 4.8486
" />
<path d="M9.5268 4.8486
L9.4792 4.8248
" />
<path d="M9.4792 4.8248
L9.4554 4.7772
" />
<path d="M9.4554 4.7772
L9.4554 4.7534
" />
<path d="M9.4554 4.7534
L9.4792 4.7058
" />
<path d="M9.4792 4.7058
L9.5268 4.6820
" />
<path d="M9.5268 4.6820
L9.5983 4.6820
" />
<path d="M9.5983 4.6820
L9.6459 4.6582
" />
<path d="M9.6459 4.6582
L9.6697 4.6105
" />
<path d="M9.6697 4.6105
L9.6697 4.5867
" />
<path d="M9.6697 4.5867
L9.6459 4.5391
" />
<path d="M9.6459 4.5391
L9.5983 4.5153
" />
<path d="M9.5983 4.5153
L9.5268 4.5153
" />
<path d="M9.5268 4.5153
L9.4792 4.5391
" />
<path d="M9.3125 4.5153
L9.1221 4.5153
" />
<path d="M9.2411 4.3486
L9.2411 4.7772
" />
<path d="M9.2411 4.7772
L9.2173 4.8248
" />
<path d="M9.2173 4.8248
L9.1697 4.8486
" />
<path d="M9.1697 4.8486
L9.1221 4.8486
" />
</g><text x="15.5450" y="5.7200"
transform="scale(-1 1) translate(-31.090000 0)"
textLength="2.3667" font-size="0.6667" lengthAdjust="spacingAndGlyphs"
text-anchor="start" opacity="0" stroke-opacity="0">Rev 1</text>
<g class="stroked-text"><desc>Rev 1</desc>
<path d="M15.0744 5.6536
L15.2411 5.4155
" />
<path d="M15.3602 5.6536
L15.3602 5.1536
" />
<path d="M15.3602 5.1536
L15.1697 5.1536
" />
<path d="M15.1697 5.1536
L15.1221 5.1774
" />
<path d="M15.1221 5.1774
L15.0983 5.2012
" />
<path d="M15.0983 5.2012
L15.0744 5.2488
" />
<path d="M15.0744 5.2488
L15.0744 5.3203
" />
<path d="M15.0744 5.3203
L15.0983 5.3679
" />
<path d="M15.0983 5.3679
L15.1221 5.3917
" />
<path d="M15.1221 5.3917
L15.1697 5.4155
" />
<path d="M15.1697 5.4155
L15.3602 5.4155
" />
<path d="M14.6697 5.6298
L14.7173 5.6536
" />
<path d="M14.7173 5.6536
L14.8125 5.6536
" />
<path d="M14.8125 5.6536
L14.8602 5.6298
" />
<path d="M14.8602 5.6298
L14.8840 5.5822
" />
<path d="M14.8840 5.5822
L14.8840 5.3917
" />
<path d="M14.8840 5.3917
L14.8602 5.3441
" />
<path d="M14.8602 5.3441
L14.8125 5.3203
" />
<path d="M14.8125 5.3203
L14.7173 5.3203
" />
<path d="M14.7173 5.3203
L14.6697 5.3441
" />
<path d="M14.6697 5.3441
L14.6459 5.3917
" />
<path d="M14.6459 5.3917
L14.6459 5.4393
" />
<path d="M14.6459 5.4393
L14.8840 5.4869
" />
<path d="M14.4792 5.3203
L14.3602 5.6536
" />
<path d="M14.3602 5.6536
L14.2411 5.3203
" />
<path d="M13.4078 5.6536
L13.6935 5.6536
" />
<path d="M13.5506 5.6536
L13.5506 5.1536
" />
<path d="M13.5506 5.1536
L13.5983 5.2250
" />
<path d="M13.5983 5.2250
L13.6459 5.2727
" />
<path d="M13.6459 5.2727
L13.6935 5.2965
" />
</g><path style="fill:#4D7FC4; fill-opacity:1.0000; stroke:none;fill-rule:evenodd;"
d="M 2.5150,8.9300
2.5150,7.2300
4.2150,7.2300
4.2150,8.9300
Z" /> 
</g>
<g style="fill:#4D7FC4; fill-opacity:1.0000; stroke:none;">
<circle cx="3.3650" cy="10.6200" r="0.8500" /> 
<circle cx="3.3650" cy="13.1600" r="0.8500" /> 
<circle cx="3.3650" cy="15.7000" r="0.8500" /> 
<circle cx="23.7050" cy="1.0900" r="0.2500" /> 
<circle cx="13.4350" cy="14.2800" r="0.2250" /> 
<circle cx="0.8950" cy="11.3500" r="0.2500" /> 
<circle cx="16.5750" cy="10.0500" r="0.2500" /> 
<circle cx="10.1150" cy="11.5700" r="0.3000" /> 
<circle cx="8.3950" cy="10.0700" r="0.2500" /> 
<circle cx="20.9250" cy="10.0500" r="0.2500" /> 
<circle cx="13.3250" cy="11.9400" r="0.2250" /> 
<circle cx="6.9150" cy="10.0600" r="0.2500" /> 
<circle cx="0.9950" cy="4.8900" r="0.2500" /> 
<circle cx="23.8350" cy="6.0400" r="0.2500" /> 
<circle cx="15.8850" cy="1.0700" r="0.2500" /> 
<circle cx="18.7450" cy="10.0500" r="0.2500" /> 
<circle cx="6.2350" cy="10.0700" r="0.2500" /> 
<circle cx="21.6050" cy="10.0500" r="0.2500" /> 
<circle cx="19.4250" cy="10.0500" r="0.2500" /> 
<circle cx="12.3177" cy="11.9573" r="0.2250" /> 
<circle cx="23.8050" cy="11.0600" r="0.2500" /> 
<circle cx="23.8650" cy="16.6800" r="0.2500" /> 
<circle cx="15.2650" cy="16.9800" r="0.2500" /> 
<circle cx="10.6950" cy="15.0200" r="0.2500" /> 
<circle cx="9.0750" cy="10.0700" r="0.2500" /> 
<circle cx="8.9350" cy="21.9500" r="0.2500" /> 
<circle cx="1.0350" cy="1.0800" r="0.2500" /> 
<circle cx="12.2650" cy="14.2900" r="0.2250" /> 
<circle cx="12.8350" cy="11.7100" r="0.2250" /> 
<circle cx="23.7150" cy="21.9200" r="0.2500" /> 
<circle cx="8.9350" cy="1.0700" r="0.2500" /> 
<circle cx="14.2850" cy="15.7300" r="0.2500" /> 
<circle cx="16.3750" cy="21.9700" r="0.2500" /> 
<circle cx="15.5250" cy="11.5800" r="0.3000" /> 
<circle cx="1.0550" cy="21.8500" r="0.2500" /> 
<circle cx="0.9250" cy="16.8300" r="0.2500" /> 
<circle cx="14.1150" cy="17.1000" r="0.2500" /> 
<circle cx="17.2550" cy="10.0500" r="0.2500" /> 
<path style="fill:#4D7FC4; fill-opacity:1.0000; stroke:none;fill-rule:evenodd;"
d="M 24.1525,0.5202
24.1983,0.5730
24.2095,0.6245
24.2095,22.2555
24.1898,22.3225
24.1370,22.3683
24.0855,22.3795
0.6245,22.3795
0.5575,22.3598
0.5117,22.3070
0.5005,22.2555
0.5005,17.6200
1.6850,17.6200
3.3650,17.6250
5.0450,17.6300
5.0450,17.6299
5.0450,17.6300
5.0750,11.7500
4.9315,11.7485
2.2050,11.7200
2.2050,11.7200
2.2050,11.7200
1.7275,11.7270
1.6850,17.6200
0.5005,17.6200
0.5005,5.9129
8.8666,5.9129
15.6871,5.9129
15.6871,3.2844
8.8666,3.2844
8.8666,5.9129
0.5005,5.9129
0.5005,0.6245
0.5202,0.5575
0.5730,0.5117
0.6245,0.5005
24.0855,0.5005
Z" /> 
<path style="fill:none; 
stroke:#D0D2CD; stroke-width:0.0500; stroke-opacity:1; 
stroke-linecap:round; stroke-linejoin:round;fill:none"
d="M 0.0000,0.0000
24.7100,0.0000
24.7100,22.8800
0.0000,22.8800
Z" /> 
</g>
<g style="fill:#FFFFFF; fill-opacity:1.0000; stroke:none;">
<circle cx="23.7050" cy="1.0900" r="0.1500" /> 
<circle cx="13.4350" cy="14.2800" r="0.1250" /> 
<circle cx="0.8950" cy="11.3500" r="0.1500" /> 
<circle cx="16.5750" cy="10.0500" r="0.1500" /> 
<circle cx="10.1150" cy="11.5700" r="0.2000" /> 
<circle cx="8.3950" cy="10.0700" r="0.1500" /> 
<circle cx="20.9250" cy="10.0500" r="0.1500" /> 
<circle cx="13.3250" cy="11.9400" r="0.1250" /> 
<circle cx="6.9150" cy="10.0600" r="0.1500" /> 
<circle cx="0.9950" cy="4.8900" r="0.1500" /> 
<circle cx="23.8350" cy="6.0400" r="0.1500" /> 
<circle cx="15.8850" cy="1.0700" r="0.1500" /> 
<circle cx="18.7450" cy="10.0500" r="0.1500" /> 
<circle cx="6.2350" cy="10.0700" r="0.1500" /> 
<circle cx="21.6050" cy="10.0500" r="0.1500" /> 
<circle cx="19.4250" cy="10.0500" r="0.1500" /> 
<circle cx="12.3177" cy="11.9573" r="0.1250" /> 
<circle cx="23.8050" cy="11.0600" r="0.1500" /> 
<circle cx="23.8650" cy="16.6800" r="0.1500" /> 
<circle cx="15.2650" cy="16.9800" r="0.1500" /> 
<circle cx="10.6950" cy="15.0200" r="0.1500" /> 
<circle cx="9.0750" cy="10.0700" r="0.1500" /> 
<circle cx="8.9350" cy="21.9500" r="0.1500" /> 
<circle cx="1.0350" cy="1.0800" r="0.1500" /> 
<circle cx="12.2650" cy="14.2900" r="0.1250" /> 
<circle cx="12.8350" cy="11.7100" r="0.1250" /> 
<circle cx="23.7150" cy="21.9200" r="0.1500" /> 
<circle cx="8.9350" cy="1.0700" r="0.1500" /> 
<circle cx="14.2850" cy="15.7300" r="0.1500" /> 
<circle cx="16.3750" cy="21.9700" r="0.1500" /> 
<circle cx="15.5250" cy="11.5800" r="0.2000" /> 
<circle cx="1.0550" cy="21.8500" r="0.1500" /> 
<circle cx="0.9250" cy="16.8300" r="0.1500" /> 
<circle cx="14.1150" cy="17.1000" r="0.1500" /> 
<circle cx="17.2550" cy="10.0500" r="0.1500" /> 
</g>
<g style="fill:#FFFFFF; fill-opacity:1.0000; stroke:none;">
<circle cx="3.3650" cy="8.0800" r="0.5000" /> 
</g>
<g style="fill:#FFFFFF; fill-opacity:1.0000; stroke:none;">
<circle cx="3.3650" cy="10.6200" r="0.5000" /> 
</g>
<g style="fill:#FFFFFF; fill-opacity:1.0000; stroke:none;">
<circle cx="3.3650" cy="13.1600" r="0.5000" /> 
</g>
<g style="fill:#FFFFFF; fill-opacity:1.0000; stroke:none;">
<circle cx="3.3650" cy="15.7000" r="0.5000" /> 
</g> 
</svg>
